<svg width="100" height="20" viewBox="0 0 65 20" fill="none" xmlns="http://www.w3.org/2000/svg">
<path d="M7.3442 -26.7201C4.98049 -29.0838 4.98049 -32.9161 7.3442 -35.2798L45.7201 -73.6558C48.0838 -76.0195 51.9161 -76.0195 54.2798 -73.6558L92.6559 -35.2798C95.0195 -32.9161 95.0195 -29.0838 92.6559 -26.7201L54.2798 11.6558C51.9161 14.0195 48.0838 14.0195 45.7201 11.6558L7.3442 -26.7201ZM24.072 -45.5991C23.1872 -43.977 22.4499 -42.3549 21.86 -40.659L27.0213 -38.8894C27.4637 -40.2166 28.1273 -41.6175 28.8646 -42.871C29.8232 -44.5668 31.0029 -46.189 32.4038 -47.6636V-40.2903L21.4176 -22.5944L21.86 -21.341C23.9983 -15.2211 28.1273 -9.83866 33.6573 -6.29948L37.8601 -3.49763V-19.7926H32.4038V-14.3363C30.2656 -16.5483 28.6434 -19.129 27.4637 -21.9308L37.8601 -38.7419V-58.5023L33.6573 -55.7742C29.6757 -53.1936 26.3577 -49.6544 24.072 -45.5991ZM56.6396 -2.6457L58.6713 -3.08108V-33.703H46.6983V-54.5288C48.8752 -54.8191 51.1247 -54.8191 53.3016 -54.5288V-40.2337H58.6713V-58.8826L56.6396 -59.3906C52.2857 -60.4065 47.7142 -60.4065 43.433 -59.3906L41.3286 -58.8826V-28.3333H53.3016V-7.50747C51.1247 -7.14465 48.8752 -7.14465 46.6983 -7.50747V-21.8025H41.3286V-3.08108L43.433 -2.6457C45.5373 -2.13776 47.7868 -1.84749 50.0363 -1.84749C52.2132 -1.84749 54.4626 -2.13775 56.6396 -2.6457ZM78.5824 -39.4055L78.14 -40.659C76.0755 -46.7788 71.8726 -52.1613 66.3427 -55.7742L62.1399 -58.5024V-42.2074H67.5961V-47.6636C69.7344 -45.4516 71.4303 -42.871 72.5363 -40.0691L62.1399 -23.258V-3.49764L66.3427 -6.2995C70.3242 -8.80642 73.6423 -12.3456 75.928 -16.4746C76.8128 -18.023 77.6239 -19.6451 78.14 -21.341L72.9787 -23.1106C72.5363 -21.7834 71.9465 -20.3825 71.2091 -19.129C70.1768 -17.4331 68.9971 -15.811 67.5961 -14.3364V-21.7096L78.5824 -39.4055ZM99.9912 -30.5255L99.9644 -30.038C99.9635 -30.0211 99.9621 -30.0042 99.9604 -29.9874L99.9123 -29.5014C99.9106 -29.4839 99.9084 -29.4664 99.9059 -29.4489L99.8359 -28.9657C99.8333 -28.9475 99.8303 -28.9295 99.8268 -28.9116L99.7344 -28.4323C99.7308 -28.4137 99.7267 -28.3953 99.7223 -28.377L99.6067 -27.9027C99.6023 -27.8838 99.5973 -27.8652 99.5918 -27.8468L99.453 -27.3787C99.4474 -27.3599 99.4415 -27.3413 99.435 -27.3228L99.273 -26.8622C99.2664 -26.8437 99.2594 -26.8252 99.252 -26.8069L99.067 -26.3552C99.0595 -26.3369 99.0515 -26.3188 99.0432 -26.3009L98.8356 -25.8589C98.8272 -25.8411 98.8184 -25.8237 98.8092 -25.8064L98.5798 -25.3755C98.5706 -25.3584 98.5611 -25.3416 98.5513 -25.3251L98.3007 -24.9058C98.2911 -24.8897 98.281 -24.8737 98.2705 -24.858L98.0001 -24.4515C97.9899 -24.4361 97.9793 -24.4211 97.9685 -24.4063L97.6791 -24.0128C97.6686 -23.9986 97.6578 -23.9845 97.6467 -23.9707L97.3398 -23.591C97.329 -23.5777 97.318 -23.5646 97.3067 -23.5518L96.9835 -23.1859C96.9727 -23.1736 96.9616 -23.1616 96.9502 -23.1498L96.6121 -22.7975L96.1981 -22.3831L95.8526 -22.0379L89.638 -15.8233L86.876 -13.0611L86.5308 -12.7159L86.1854 -12.3707L85.8402 -12.0253L85.495 -11.6801L85.1496 -11.3349L84.8044 -10.9897L84.4592 -10.6442L84.114 -10.299L82.3876 -8.57285L78.935 -5.12025L78.5898 -4.77483L66.1604 7.65441L64.7792 9.03542L64.434 9.38082L64.0888 9.72602L63.7434 10.0712L59.9456 13.8691L58.2194 15.5955L57.9105 15.894C57.8998 15.9045 57.8888 15.9148 57.8776 15.9247L57.5139 16.2503C57.5012 16.2616 57.4884 16.2727 57.4754 16.2834L57.0977 16.5931C57.0841 16.6043 57.0702 16.6152 57.0559 16.6258L56.6649 16.9179C56.6502 16.9288 56.6353 16.9394 56.6201 16.9496L56.2158 17.2232C56.2002 17.2338 56.1843 17.244 56.1682 17.2537L55.7512 17.5075C55.7346 17.5176 55.7179 17.5272 55.7009 17.5363L55.2718 17.7694C55.2547 17.7786 55.2373 17.7875 55.2195 17.796L54.7793 18.007C54.7616 18.0156 54.7436 18.0238 54.7254 18.0314L54.2751 18.2201C54.2568 18.2276 54.2384 18.2347 54.2198 18.2415L53.7607 18.4071C53.7422 18.4138 53.7237 18.42 53.705 18.4256L53.2379 18.5683C53.2194 18.5739 53.2007 18.5791 53.182 18.5838L52.7085 18.7031C52.6902 18.7076 52.6718 18.7118 52.6532 18.7156L52.1747 18.8116C52.1566 18.8152 52.1385 18.8185 52.1202 18.8213L51.6376 18.8947C51.62 18.8974 51.6024 18.8997 51.5847 18.9016L51.0993 18.9532C51.0822 18.955 51.0652 18.9564 51.0481 18.9575L50.5608 18.9877C50.5446 18.9888 50.5282 18.9895 50.5118 18.9898L50.0238 18.9996C50.0093 19.0001 49.9947 19.0001 49.98 18.9998L49.5704 18.9928C49.5555 18.9925 49.5406 18.992 49.5257 18.9912L49.038 18.9643C49.0211 18.9634 49.0042 18.9621 48.9874 18.9603L48.5015 18.9123C48.4839 18.9105 48.4664 18.9084 48.4489 18.9058L47.9657 18.8358C47.9475 18.8333 47.9295 18.8302 47.9116 18.8267L47.4322 18.7343C47.4137 18.7307 47.3953 18.7267 47.377 18.7222L46.9026 18.6066C46.884 18.6022 46.8653 18.5972 46.8468 18.5917L46.3787 18.4529C46.3599 18.4474 46.3413 18.4414 46.3228 18.4349L45.8623 18.2729C45.8436 18.2663 45.8252 18.2593 45.8069 18.2519L45.3551 18.0669C45.3369 18.0594 45.3188 18.0515 45.3009 18.0431L44.859 17.8355C44.8413 17.8272 44.8237 17.8184 44.8064 17.8091L44.3755 17.5797C44.3584 17.5706 44.3416 17.5611 44.325 17.5513L43.9059 17.3007C43.8897 17.291 43.8737 17.2809 43.8579 17.2704L43.4515 17.0001C43.4361 16.9898 43.4211 16.9793 43.4063 16.9684L43.013 16.6791C42.9986 16.6686 42.9846 16.6577 42.9707 16.6466L42.591 16.3397C42.5777 16.329 42.5646 16.3179 42.5518 16.3066L42.1858 15.9834C42.1736 15.9727 42.1615 15.9616 42.1497 15.9501L41.7976 15.612L41.7284 15.5432L39.6568 13.4716L39.3116 13.1264L36.8947 10.7096L35.1685 8.98316L32.0611 5.87595L31.3706 5.18534L31.0253 4.84014L28.9538 2.76852L26.1917 0.0065099L25.8464 -0.33869L25.5012 -0.684095L25.1559 -1.02929L24.8107 -1.37449L23.7749 -2.41029L23.0844 -3.1009L22.7391 -3.4461L21.0128 -5.1723L19.2865 -6.89872L16.8697 -9.31553L16.1792 -10.0059L15.8339 -10.3513L12.7266 -13.4585L12.3813 -13.8039L12.0361 -14.1491L11.6908 -14.4943L9.274 -16.9111L7.89298 -18.2921L7.54772 -18.6376L6.51192 -19.6734L3.40455 -22.7806L3.10596 -23.0895C3.09547 -23.1002 3.08524 -23.1112 3.07529 -23.1223L2.74966 -23.4861C2.73836 -23.4987 2.72734 -23.5116 2.71657 -23.5246L2.40688 -23.9023C2.39572 -23.9159 2.38489 -23.9298 2.3744 -23.9439L2.08206 -24.3351C2.07117 -24.3497 2.06061 -24.3647 2.05039 -24.3799L1.77681 -24.7842C1.76618 -24.7998 1.75596 -24.8157 1.74614 -24.8318L1.49254 -25.2488C1.48245 -25.2654 1.47283 -25.2821 1.46369 -25.2991L1.23066 -25.7282C1.22138 -25.7453 1.2125 -25.7627 1.20403 -25.7804L0.992999 -26.2207C0.984389 -26.2384 0.976254 -26.2564 0.968589 -26.2745L0.779949 -26.7249C0.772419 -26.7431 0.765289 -26.7616 0.758564 -26.7801L0.592923 -27.2393C0.586198 -27.2577 0.579943 -27.2764 0.574158 -27.2952L0.431718 -27.7621C0.426068 -27.7806 0.420893 -27.7993 0.416183 -27.818L0.296948 -28.2915C0.292373 -28.3098 0.288203 -28.3282 0.284438 -28.3467L0.188403 -28.8253C0.184773 -28.8433 0.181543 -28.8615 0.178718 -28.8798L0.105278 -29.3624C0.102588 -29.38 0.100303 -29.3976 0.098418 -29.4152L0.0467679 -29.9007C0.0450179 -29.9177 0.0436079 -29.9348 0.0425329 -29.9519L0.0122679 -30.4391C0.0111929 -30.4554 0.0105179 -30.4718 0.0102479 -30.4882L0.000362883 -30.9762C-4.21167e-05 -30.9907 -0.000107117 -31.0053 0.000162883 -31.02L0.00722289 -31.4295C0.00749289 -31.4445 0.00802789 -31.4594 0.00883789 -31.4743L0.0356729 -31.962C0.0366129 -31.9789 0.0379579 -31.9958 0.0397079 -32.0126L0.087723 -32.4984C0.089473 -32.5161 0.091623 -32.5336 0.094178 -32.5511L0.164188 -33.0343C0.166743 -33.0525 0.169768 -33.0705 0.173268 -33.0884L0.265673 -33.5677C0.269303 -33.5863 0.273338 -33.6047 0.277778 -33.623L0.393383 -34.0973C0.397823 -34.116 0.402798 -34.1347 0.408313 -34.1532L0.547118 -34.6213C0.552633 -34.6401 0.558618 -34.6587 0.565073 -34.6771L0.727084 -35.1377C0.733674 -35.1563 0.740669 -35.1748 0.748064 -35.193L0.933074 -35.6448C0.940604 -35.6631 0.948544 -35.6812 0.956879 -35.6991L1.16448 -36.141C1.17282 -36.1587 1.18163 -36.1762 1.19091 -36.1936L1.42031 -36.6245C1.42945 -36.6416 1.43894 -36.6584 1.44875 -36.675L1.69933 -37.0941C1.70902 -37.1103 1.7191 -37.1263 1.7296 -37.142L1.99995 -37.5485C2.01017 -37.5638 2.02073 -37.5789 2.03162 -37.5937L2.32094 -37.987C2.33143 -38.0014 2.34226 -38.0154 2.35342 -38.0293L2.66029 -38.409C2.67105 -38.4223 2.68208 -38.4353 2.69338 -38.4482L3.01659 -38.8142C3.02735 -38.8264 3.03844 -38.8384 3.04988 -38.8502L3.38802 -39.2024L3.45682 -39.2716L4.14742 -39.9621L6.90943 -42.7242L8.63575 -44.4505L8.98101 -44.7958L13.1241 -48.9389L14.1599 -49.9747L15.5409 -51.3557L18.9935 -54.8083L19.3388 -55.1536L20.7198 -56.5346L22.4461 -58.2609L22.7914 -58.6061L24.8629 -60.6777L27.9703 -63.785L28.3155 -64.1303L28.6608 -64.4755L30.3871 -66.2018L31.0776 -66.8924L32.1134 -67.9281L36.947 -72.7618L37.6375 -73.4523L40.7449 -76.5596L41.7806 -77.5954L42.0894 -77.894C42.1002 -77.9045 42.1111 -77.9148 42.1223 -77.9247L42.486 -78.2503C42.4987 -78.2616 42.5116 -78.2727 42.5247 -78.2834L42.9023 -78.5929C42.9159 -78.6042 42.9298 -78.6151 42.944 -78.6256L43.3351 -78.9179C43.3498 -78.9288 43.3647 -78.9394 43.3799 -78.9496L43.7842 -79.2232C43.7999 -79.2338 43.8157 -79.244 43.8318 -79.2537L44.2489 -79.5075C44.2654 -79.5176 44.2821 -79.5272 44.299 -79.5363L44.7281 -79.7691C44.7453 -79.7786 44.7627 -79.7875 44.7804 -79.796L45.2206 -80.007C45.2384 -80.0156 45.2564 -80.0237 45.2746 -80.0312L45.7249 -80.2201C45.7431 -80.2276 45.7615 -80.2347 45.7801 -80.2414L46.2393 -80.4071C46.2577 -80.4138 46.2763 -80.42 46.2951 -80.4256L46.7621 -80.5683C46.7806 -80.5739 46.7993 -80.5791 46.818 -80.5838L47.2915 -80.7029C47.3098 -80.7076 47.3282 -80.7118 47.3467 -80.7156L47.8253 -80.8116C47.8433 -80.8152 47.8615 -80.8185 47.8798 -80.8213L48.3624 -80.8947C48.38 -80.8974 48.3976 -80.8997 48.4152 -80.9016L48.9007 -80.9532C48.9177 -80.955 48.9348 -80.9564 48.9519 -80.9575L49.4391 -80.9877C49.4554 -80.9888 49.4718 -80.9895 49.4882 -80.9898L49.9762 -80.9996C49.9907 -81 50.0053 -81.0001 50.02 -80.9998L50.4295 -80.9928C50.4445 -80.9925 50.4595 -80.992 50.4745 -80.9912L50.962 -80.9643C50.9789 -80.9634 50.9958 -80.962 51.0126 -80.9603L51.4986 -80.9123C51.5161 -80.9105 51.5336 -80.9084 51.5511 -80.9058L52.0343 -80.8358C52.0524 -80.8333 52.0705 -80.8302 52.0886 -80.8267L52.5679 -80.7341C52.5863 -80.7306 52.6047 -80.7267 52.623 -80.7222L53.0973 -80.6066C53.1162 -80.6022 53.1348 -80.5972 53.1532 -80.5917L53.6213 -80.4529C53.6401 -80.4474 53.6587 -80.4414 53.6772 -80.4349L54.1378 -80.2729C54.1563 -80.2663 54.1748 -80.2593 54.1931 -80.2519L54.6448 -80.0669C54.6631 -80.0594 54.6812 -80.0515 54.699 -80.0431L55.1411 -79.8355C55.1588 -79.8272 55.1763 -79.8184 55.1936 -79.8091L55.6245 -79.5797C55.6416 -79.5705 55.6584 -79.5611 55.6749 -79.5512L56.0942 -79.3007C56.1103 -79.291 56.1263 -79.2809 56.142 -79.2704L56.5485 -79.0001C56.5639 -78.9898 56.5789 -78.9793 56.5937 -78.9684L56.9871 -78.6791C57.0014 -78.6686 57.0155 -78.6577 57.0293 -78.6466L57.409 -78.3397C57.4223 -78.329 57.4354 -78.3179 57.4481 -78.3066L57.8141 -77.9834C57.8264 -77.9727 57.8384 -77.9616 57.8502 -77.9501L58.2025 -77.612L58.9621 -76.8526L59.9979 -75.8168L63.1053 -72.7095L63.4505 -72.3643L64.4863 -71.3285L66.2125 -69.6022L66.5579 -69.257L67.5937 -68.2212L68.6294 -67.1854L68.9748 -66.8401L69.32 -66.4949L71.0463 -64.7686L71.3917 -64.4233L71.7369 -64.0781L72.4275 -63.3875L75.5347 -60.2802L75.8799 -59.9349L78.9873 -56.8276L82.0947 -53.7203L82.4399 -53.375L82.7851 -53.0298L83.1305 -52.6845L83.8209 -51.994L86.9283 -48.8866L88.6545 -47.1603L88.9997 -46.8151L90.3809 -45.434L91.0713 -44.7435L94.5239 -41.2909L96.5955 -39.2194L96.8941 -38.9106C96.9046 -38.8998 96.9148 -38.8889 96.9248 -38.8777L97.2504 -38.514C97.2617 -38.5013 97.2728 -38.4884 97.2835 -38.4753L97.593 -38.0978C97.6043 -38.0841 97.6152 -38.0702 97.6257 -38.056L97.918 -37.6649C97.9289 -37.6502 97.9395 -37.6353 97.9497 -37.6201L98.2233 -37.2157C98.2339 -37.2001 98.2441 -37.1843 98.2538 -37.1682L98.5076 -36.7511C98.5177 -36.7346 98.5273 -36.7179 98.5364 -36.701L98.7692 -36.2719C98.7786 -36.2547 98.7876 -36.2373 98.7961 -36.2196L99.0071 -35.7794C99.0157 -35.7616 99.0238 -35.7436 99.0313 -35.7254L99.2202 -35.2752C99.2277 -35.2569 99.2348 -35.2385 99.2415 -35.22L99.4072 -34.7607C99.4139 -34.7423 99.4201 -34.7237 99.4257 -34.7049L99.5684 -34.2379C99.5739 -34.2194 99.5791 -34.2007 99.5839 -34.1821L99.703 -33.7085C99.7077 -33.6902 99.7119 -33.6718 99.7157 -33.6533L99.8117 -33.1747C99.8153 -33.1567 99.8186 -33.1385 99.8214 -33.1202L99.8948 -32.6376C99.8975 -32.62 99.8998 -32.6024 99.9017 -32.5848L99.9533 -32.0993C99.9551 -32.0823 99.9565 -32.0652 99.9576 -32.0483L99.9878 -31.5609C99.9889 -31.5446 99.9896 -31.5283 99.9898 -31.5118L99.9997 -31.0238C100 -31.0093 100 -30.9947 99.9999 -30.98L99.9929 -30.5705C99.9926 -30.5555 99.992 -30.5405 99.9912 -30.5255ZM97.645 -31.4398L97.6178 -31.8772L97.5718 -32.3104L97.5064 -32.7395L97.4213 -33.1634L97.316 -33.581L97.1907 -33.9922L97.045 -34.3959L96.8792 -34.7916L96.6936 -35.1787L96.4886 -35.5565L96.2644 -35.9248L96.0221 -36.283L95.7623 -36.6309L95.4857 -36.9683L95.1917 -37.2966L94.9367 -37.5606L92.8651 -39.6322L89.4127 -43.0848L89.0673 -43.43L88.7221 -43.7753L87.3411 -45.1563L86.9959 -45.5016L85.2695 -47.2279L82.1621 -50.3352L81.4717 -51.0258L81.1265 -51.371L80.7811 -51.7163L80.4359 -52.0615L77.3284 -55.1688L74.2212 -58.2762L73.876 -58.6214L70.7686 -61.7288L70.078 -62.4193L69.3875 -63.1098L67.6612 -64.8361L66.9708 -65.5266L66.2801 -66.2171L65.9349 -66.5624L64.8991 -67.5982L64.5539 -67.9434L63.1729 -69.3245L61.7917 -70.7055L61.4465 -71.0508L58.3391 -74.1581L57.3035 -75.194L56.5776 -75.9201L56.2431 -76.2413L55.9148 -76.5312L55.5757 -76.8052L55.226 -77.0622L54.8663 -77.3017L54.4965 -77.5226L54.117 -77.7247L53.7286 -77.9071L53.3316 -78.0697L52.9266 -78.2122L52.5145 -78.3342L52.0956 -78.4361L51.6709 -78.5182L51.2412 -78.5804L50.807 -78.6234L50.3674 -78.6478L50.002 -78.6538L49.5602 -78.6449L49.123 -78.6177L48.6894 -78.5717L48.2605 -78.5063L47.8366 -78.4212L47.419 -78.3159L47.0078 -78.1906L46.6041 -78.0449L46.2084 -77.8791L45.8213 -77.6935L45.4435 -77.4883L45.0752 -77.2643L44.7169 -77.022L44.369 -76.7622L44.0317 -76.4856L43.7034 -76.1916L43.4394 -75.9366L42.4036 -74.9008L39.2962 -71.7935L38.6057 -71.103L33.7721 -66.2694L32.7363 -65.2336L32.0458 -64.5431L30.3195 -62.8168L29.9742 -62.4715L29.629 -62.1263L26.5217 -59.0189L24.4501 -56.9474L24.1048 -56.6021L22.3785 -54.8758L20.9975 -53.4948L20.6523 -53.1495L17.1997 -49.6969L15.8186 -48.3159L14.7828 -47.2801L10.6397 -43.137L10.2945 -42.7917L8.56818 -41.0654L5.80602 -38.3034L5.11562 -37.6128L5.07991 -37.5776L4.75872 -37.2431L4.4688 -36.9147L4.19482 -36.5757L3.93779 -36.226L3.69831 -35.8662L3.47739 -35.4963L3.27523 -35.117L3.09285 -34.7285L2.93023 -34.3315L2.78779 -33.9266L2.66573 -33.5144L2.56365 -33.0956L2.48174 -32.6709L2.4196 -32.241L2.37662 -31.807L2.35221 -31.3672L2.34616 -31.002L2.35503 -30.5602L2.38227 -30.123L2.42827 -29.6894L2.49364 -29.2605L2.57878 -28.8366L2.68409 -28.4187L2.80938 -28.0078L2.95505 -27.6041L3.12089 -27.2084L3.3065 -26.8213L3.51148 -26.4434L3.73563 -26.0752L3.97794 -25.7169L4.2378 -25.369L4.5144 -25.0317L4.80836 -24.7034L5.06337 -24.4393L8.17067 -21.3319L9.20646 -20.2961L9.55172 -19.9509L10.9328 -18.5699L13.3496 -16.1531L13.6948 -15.8079L14.0401 -15.4625L14.3853 -15.1173L17.4927 -12.0099L18.5285 -10.9743L20.9453 -8.5575L22.6716 -6.83109L24.3979 -5.1049L24.7431 -4.75948L25.4336 -4.06908L26.4694 -3.03329L26.8147 -2.68809L27.1599 -2.34267L27.5052 -1.99748L27.8505 -1.65228L30.6125 1.10993L32.6841 3.18134L33.0293 3.52674L33.7199 4.21715L36.8272 7.32455L38.5535 9.05077L40.9703 11.4676L41.3156 11.813L43.3871 13.8844L43.4224 13.9201L43.7569 14.2413L44.0852 14.5312L44.4243 14.8052L44.774 15.0622L45.1338 15.3017L45.5036 15.5228L45.8829 15.7248L46.2715 15.9072L46.6684 16.0698L47.0733 16.2122L47.4855 16.3343L47.9044 16.4362L48.3291 16.5183L48.759 16.5804L49.193 16.6234L49.6326 16.6478L49.998 16.6539L50.4398 16.645L50.8772 16.6178L51.3104 16.5718L51.7395 16.5064L52.1634 16.4212L52.581 16.3161L52.9922 16.1906L53.3959 16.045L53.7915 15.8791L54.1787 15.6935L54.5566 15.4885L54.9248 15.2644L55.2829 15.0221L55.6309 14.7622L55.9683 14.4856L56.2967 14.1917L56.5606 13.9366L61.7396 8.75782L62.0848 8.41262L62.43 8.06722L62.7752 7.72202L63.1206 7.37682L64.5016 5.99561L76.931 -6.43365L77.2764 -6.77885L80.7288 -10.2314L82.8004 -12.3031L83.1458 -12.6483L83.491 -12.9935L83.8362 -13.3389L84.1814 -13.6841L84.5268 -14.0293L84.872 -14.3747L85.2172 -14.7199L87.9794 -17.4819L90.0508 -19.5535L90.3962 -19.8987L94.194 -23.6965L94.5392 -24.0419L94.9202 -24.4224L95.2413 -24.7567L95.5313 -25.0852L95.8053 -25.4243L96.0623 -25.7738L96.3018 -26.1337L96.5229 -26.5037L96.7248 -26.8828L96.9072 -27.2714L97.0698 -27.6684L97.2123 -28.0734L97.3343 -28.4855L97.4364 -28.9044L97.5183 -29.3291L97.5805 -29.7588L97.6235 -30.193L97.6479 -30.6326L97.6539 -30.998L97.645 -31.4398Z" fill="#3ED99A"/>
</svg>
