<svg width="48" height="49" viewBox="0 0 48 49" fill="none" xmlns="http://www.w3.org/2000/svg">
<path d="M3.52521 26.5543C2.39064 25.4198 2.39064 23.5802 3.52521 22.4457L21.9457 4.02523C23.0802 2.89065 24.9197 2.89065 26.0543 4.02523L44.4748 22.4457C45.6093 23.5802 45.6093 25.4198 44.4748 26.5543L26.0543 44.9748C24.9197 46.1094 23.0802 46.1094 21.9457 44.9748L3.52521 26.5543ZM11.5546 17.4924C11.1299 18.271 10.7759 19.0497 10.4928 19.8637L12.9702 20.7131C13.1826 20.076 13.5011 19.4036 13.855 18.8019C14.3151 17.9879 14.8814 17.2093 15.5538 16.5015V20.0406L10.2805 28.5347L10.4928 29.1363C11.5192 32.0738 13.5011 34.6575 16.1555 36.3563L18.1728 37.7011V29.8796H15.5538V32.4985C14.5275 31.4368 13.7489 30.1981 13.1826 28.8532L18.1728 20.7839V11.2989L16.1555 12.6084C14.2443 13.8471 12.6517 15.5459 11.5546 17.4924ZM27.187 38.1101L28.1622 37.9011V23.2026H22.4152V13.2062C23.4601 13.0669 24.5399 13.0669 25.5848 13.2062V20.0678H28.1622V11.1163L27.187 10.8725C25.0972 10.3849 22.9028 10.3849 20.8478 10.8725L19.8377 11.1163V25.78H25.5848V35.7764C24.5399 35.9506 23.4601 35.9506 22.4152 35.7764V28.9148H19.8377V37.9011L20.8478 38.1101C21.8579 38.3539 22.9377 38.4932 24.0174 38.4932C25.0623 38.4932 26.1421 38.3539 27.187 38.1101ZM37.7195 20.4653L37.5072 19.8637C36.5162 16.9262 34.4989 14.3426 31.8445 12.6084L29.8272 11.2989V19.1205H32.4461V16.5015C33.4725 17.5632 34.2865 18.8019 34.8174 20.1468L29.8272 28.2161V37.7011L31.8445 36.3562C33.7556 35.1529 35.3483 33.4541 36.4454 31.4722C36.8701 30.729 37.2594 29.9503 37.5072 29.1363L35.0297 28.2869C34.8174 28.924 34.5343 29.5964 34.1803 30.1981C33.6849 31.0121 33.1186 31.7907 32.4461 32.4985V28.9594L37.7195 20.4653ZM47.9957 24.7278L47.9829 24.9617C47.9824 24.9699 47.9818 24.978 47.9809 24.9861L47.9579 25.2193C47.957 25.2277 47.956 25.2361 47.9548 25.2445L47.9212 25.4765C47.9199 25.4852 47.9185 25.4938 47.9168 25.5024L47.8725 25.7325C47.8707 25.7414 47.8688 25.7503 47.8666 25.759L47.8112 25.9867C47.809 25.9958 47.8066 26.0047 47.804 26.0135L47.7374 26.2382C47.7347 26.2473 47.7318 26.2562 47.7287 26.265L47.651 26.4861C47.6478 26.495 47.6445 26.5039 47.6409 26.5127L47.5521 26.7295C47.5485 26.7383 47.5447 26.747 47.5407 26.7555L47.441 26.9677C47.437 26.9762 47.4328 26.9846 47.4283 26.9929L47.3182 27.1998C47.3139 27.208 47.3093 27.216 47.3046 27.224L47.1843 27.4252C47.1797 27.433 47.1748 27.4406 47.1698 27.4482L47.04 27.6433C47.0351 27.6507 47.03 27.6579 47.0248 27.665L46.8859 27.8538C46.8809 27.8607 46.8757 27.8674 46.8703 27.8741L46.723 28.0563C46.7179 28.0627 46.7126 28.069 46.7072 28.0751L46.552 28.2508C46.5469 28.2567 46.5415 28.2624 46.536 28.2681L46.3737 28.4372L46.175 28.6361L46.0092 28.8018L43.0262 31.7848L41.7004 33.1107L41.5347 33.2764L41.3689 33.4421L41.2033 33.6079L41.0376 33.7736L40.8718 33.9393L40.7061 34.105L40.5404 34.2708L40.3747 34.4365L39.546 35.265L37.8887 36.9223L37.723 37.0881L31.757 43.0541L31.094 43.717L30.9283 43.8828L30.7626 44.0485L30.5968 44.2142L28.7739 46.0371L27.9453 46.8658L27.7971 47.0091C27.7919 47.0142 27.7866 47.0191 27.7813 47.0239L27.6067 47.1802C27.6006 47.1856 27.5944 47.1909 27.5882 47.196L27.4069 47.3447C27.4004 47.3501 27.3937 47.3553 27.3868 47.3604L27.1992 47.5006C27.1921 47.5058 27.1849 47.5109 27.1777 47.5158L26.9836 47.6471C26.9761 47.6522 26.9685 47.6571 26.9607 47.6618L26.7606 47.7836C26.7526 47.7884 26.7446 47.793 26.7364 47.7974L26.5305 47.9093C26.5223 47.9137 26.5139 47.918 26.5054 47.9221L26.2941 48.0234C26.2855 48.0275 26.2769 48.0314 26.2682 48.0351L26.0521 48.1256C26.0433 48.1292 26.0344 48.1327 26.0255 48.1359L25.8051 48.2154C25.7963 48.2186 25.7874 48.2216 25.7784 48.2243L25.5542 48.2928C25.5453 48.2955 25.5363 48.298 25.5274 48.3002L25.3001 48.3575C25.2913 48.3597 25.2825 48.3617 25.2736 48.3635L25.0438 48.4096C25.0352 48.4113 25.0265 48.4129 25.0177 48.4142L24.786 48.4495C24.7776 48.4508 24.7691 48.4519 24.7607 48.4528L24.5277 48.4775C24.5195 48.4784 24.5113 48.4791 24.5031 48.4796L24.2692 48.4941C24.2614 48.4946 24.2535 48.4949 24.2457 48.4951L24.0114 48.4998C24.0044 48.5 23.9974 48.5 23.9904 48.4999L23.7938 48.4965C23.7866 48.4964 23.7795 48.4961 23.7723 48.4958L23.5382 48.4829C23.5301 48.4824 23.522 48.4818 23.5139 48.4809L23.2807 48.4579C23.2723 48.457 23.2639 48.456 23.2555 48.4548L23.0235 48.4212C23.0148 48.42 23.0062 48.4185 22.9976 48.4168L22.7675 48.3725C22.7586 48.3707 22.7497 48.3688 22.7409 48.3667L22.5133 48.3112C22.5043 48.309 22.4954 48.3067 22.4864 48.304L22.2618 48.2374C22.2528 48.2347 22.2438 48.2319 22.235 48.2288L22.0139 48.151C22.0049 48.1478 21.9961 48.1445 21.9873 48.1409L21.7705 48.0521C21.7617 48.0485 21.753 48.0447 21.7444 48.0407L21.5323 47.941C21.5238 47.937 21.5154 47.9328 21.5071 47.9284L21.3002 47.8182C21.292 47.8139 21.284 47.8093 21.276 47.8046L21.0748 47.6843C21.067 47.6797 21.0594 47.6748 21.0518 47.6698L20.8567 47.54C20.8494 47.5351 20.8421 47.53 20.835 47.5248L20.6462 47.3859C20.6393 47.3809 20.6326 47.3757 20.6259 47.3704L20.4437 47.2231C20.4373 47.2179 20.431 47.2126 20.4249 47.2072L20.2492 47.052C20.2433 47.0469 20.2375 47.0415 20.2319 47.0361L20.0628 46.8737L20.0296 46.8407L19.0353 45.8464L18.8695 45.6807L17.7095 44.5206L16.8809 43.6919L15.3893 42.2005L15.0579 41.869L14.8922 41.7033L13.8978 40.7089L12.572 39.3831L12.4063 39.2174L12.2406 39.0516L12.0748 38.8859L11.9091 38.7202L11.412 38.2231L11.0805 37.8916L10.9148 37.7259L10.0861 36.8973L9.25753 36.0686L8.09745 34.9086L7.76601 34.5772L7.60028 34.4114L6.10876 32.9199L5.94303 32.7541L5.77732 32.5884L5.6116 32.4227L4.45152 31.2626L3.78862 30.5998L3.6229 30.434L3.12572 29.9368L1.63419 28.4453L1.49086 28.2971C1.48582 28.2919 1.48092 28.2866 1.47614 28.2813L1.31984 28.1067C1.31441 28.1006 1.30912 28.0944 1.30395 28.0882L1.1553 27.9069C1.14994 27.9004 1.14475 27.8937 1.13971 27.8869L0.99939 27.6992C0.99416 27.6921 0.989092 27.685 0.984186 27.6777L0.852868 27.4836C0.847768 27.4761 0.84286 27.4685 0.838149 27.4607L0.716418 27.2606C0.711575 27.2526 0.70696 27.2446 0.70257 27.2365L0.590718 27.0305C0.586264 27.0223 0.582001 27.0139 0.577936 27.0054L0.476639 26.7941C0.472506 26.7856 0.468601 26.7769 0.464922 26.7682L0.374375 26.5521C0.370761 26.5433 0.367338 26.5344 0.36411 26.5255L0.284603 26.3051C0.281375 26.2963 0.278373 26.2873 0.275596 26.2783L0.207225 26.0542C0.204513 26.0453 0.202029 26.0364 0.199768 26.0274L0.142535 25.8001C0.140339 25.7913 0.138337 25.7825 0.13653 25.7736L0.0904334 25.5438C0.088691 25.5352 0.0871406 25.5265 0.0857846 25.5177L0.0505334 25.2861C0.0492422 25.2776 0.0481454 25.2691 0.0472406 25.2607L0.0224486 25.0277C0.0216086 25.0195 0.0209318 25.0113 0.0204158 25.0031L0.00588858 24.7692C0.00537258 24.7614 0.00504858 24.7536 0.00491898 24.7457L0.000174184 24.5114C-2.02161e-05 24.5044 -5.14161e-05 24.4974 7.81839e-05 24.4904L0.00346698 24.2938C0.00359658 24.2867 0.00385338 24.2795 0.00424218 24.2723L0.017123 24.0382C0.0175742 24.0301 0.0182198 24.022 0.0190598 24.0139L0.042107 23.7807C0.042947 23.7723 0.043979 23.7639 0.0452054 23.7555L0.0788102 23.5235C0.0800366 23.5148 0.0814886 23.5062 0.0831686 23.4976L0.127523 23.2675C0.129265 23.2586 0.131202 23.2497 0.133333 23.241L0.188824 23.0133C0.190955 23.0043 0.193343 22.9954 0.19599 22.9865L0.262617 22.7618C0.265264 22.7528 0.268137 22.7438 0.271235 22.735L0.349 22.5139C0.352163 22.505 0.355521 22.4961 0.35907 22.4873L0.447875 22.2705C0.451489 22.2617 0.455301 22.253 0.459301 22.2444L0.558952 22.0323C0.562955 22.0238 0.567184 22.0154 0.571638 22.0071L0.681748 21.8002C0.686137 21.7921 0.69069 21.784 0.695401 21.776L0.81568 21.5748C0.820329 21.5671 0.825169 21.5594 0.830207 21.5518L0.959975 21.3567C0.964881 21.3494 0.969949 21.3421 0.975179 21.335L1.11405 21.1462C1.11909 21.1393 1.12428 21.1326 1.12964 21.126L1.27694 20.9437C1.2821 20.9373 1.2874 20.931 1.29282 20.9249L1.44796 20.7492C1.45313 20.7433 1.45845 20.7375 1.46394 20.7319L1.62625 20.5628L1.65927 20.5296L1.99076 20.1982L3.31653 18.8724L4.14515 18.0437L4.31088 17.878L6.29957 15.8893L6.79674 15.3922L7.45964 14.7293L9.11689 13.072L9.28261 12.9063L9.94552 12.2434L10.7741 11.4148L10.9399 11.249L11.9342 10.2547L13.4257 8.76318L13.5914 8.59746L13.7572 8.43174L14.5858 7.60312L14.9172 7.27167L15.4144 6.77449L17.7346 4.45434L18.066 4.1229L19.5575 2.63137L20.0547 2.13419L20.2029 1.99086C20.2081 1.98583 20.2133 1.98092 20.2187 1.97614L20.3933 1.81984C20.3994 1.81442 20.4056 1.80912 20.4119 1.80396L20.5931 1.6554C20.5996 1.64998 20.6063 1.64475 20.6131 1.63971L20.8009 1.49939C20.8079 1.49416 20.8151 1.48909 20.8223 1.48419L21.0164 1.35287C21.0239 1.34777 21.0315 1.34289 21.0393 1.33824L21.2395 1.21642C21.2474 1.21157 21.2554 1.20696 21.2635 1.20257L21.4695 1.09081C21.4777 1.08629 21.4861 1.082 21.4946 1.07793L21.7059 0.976637C21.7144 0.972504 21.7231 0.96863 21.7318 0.965016L21.9479 0.874373C21.9567 0.870758 21.9655 0.867336 21.9744 0.864108L22.1949 0.784601C22.2037 0.781373 22.2126 0.778404 22.2217 0.775692L22.4458 0.707225C22.4547 0.704513 22.4636 0.702029 22.4726 0.699768L22.6999 0.642631C22.7087 0.64037 22.7175 0.638337 22.7264 0.63653L22.9561 0.590433C22.9648 0.588691 22.9735 0.587141 22.9823 0.585785L23.2139 0.550533C23.2224 0.549242 23.2309 0.548145 23.2393 0.547241L23.4723 0.522449C23.4805 0.521609 23.4887 0.520932 23.4969 0.520416L23.7308 0.505889C23.7386 0.505373 23.7464 0.505049 23.7543 0.504919L23.9886 0.500174C23.9956 0.49998 24.0026 0.499949 24.0096 0.500078L24.2062 0.503467C24.2133 0.503597 24.2205 0.503853 24.2278 0.504242L24.4617 0.517123C24.4699 0.517574 24.478 0.51822 24.4861 0.51906L24.7193 0.542107C24.7277 0.542947 24.7361 0.543979 24.7445 0.545205L24.9765 0.57881C24.9852 0.580037 24.9939 0.581489 25.0025 0.583169L25.2326 0.627619C25.2414 0.629297 25.2503 0.631202 25.259 0.633333L25.4867 0.688824C25.4958 0.690955 25.5047 0.693343 25.5135 0.69599L25.7382 0.762617C25.7473 0.765264 25.7562 0.768137 25.765 0.771235L25.9861 0.849C25.995 0.852163 26.0039 0.855521 26.0127 0.85907L26.2295 0.947875C26.2383 0.951489 26.247 0.955301 26.2555 0.959301L26.4677 1.05895C26.4762 1.06295 26.4846 1.06718 26.4929 1.07164L26.6998 1.18175C26.708 1.18614 26.716 1.19069 26.724 1.1954L26.9252 1.31568C26.933 1.32033 26.9406 1.32517 26.9482 1.33021L27.1433 1.45997C27.1507 1.46488 27.1579 1.46995 27.165 1.47518L27.3538 1.61405C27.3607 1.61909 27.3674 1.62428 27.3741 1.62964L27.5563 1.77694C27.5627 1.7821 27.569 1.7874 27.5751 1.79282L27.7508 1.94796C27.7567 1.95313 27.7624 1.95845 27.7681 1.96394L27.9372 2.12625L28.3018 2.49076L28.799 2.98795L30.2906 4.47942L30.4563 4.64514L30.9534 5.14232L31.782 5.97094L31.9478 6.13666L32.445 6.63384L32.9421 7.13101L33.1079 7.29674L33.2736 7.46246L34.1021 8.29108L34.2679 8.4568L34.4336 8.62253L34.7651 8.95398L36.2566 10.4455L36.4223 10.6112L37.9138 12.1027L39.4054 13.5943L39.5711 13.76L39.7368 13.9257L39.9026 14.0914L40.234 14.4229L41.7255 15.9144L42.5541 16.743L42.7198 16.9088L43.3828 17.5717L43.7142 17.9031L45.3714 19.5604L46.3658 20.5547L46.5091 20.7029C46.5142 20.7081 46.5191 20.7133 46.5239 20.7187L46.6802 20.8933C46.6856 20.8994 46.6909 20.9055 46.696 20.9118L46.8446 21.0931C46.85 21.0996 46.8552 21.1063 46.8603 21.1131L47.0006 21.3009C47.0058 21.3079 47.0109 21.3151 47.0158 21.3223L47.1471 21.5164C47.1522 21.5239 47.1571 21.5315 47.1618 21.5393L47.2836 21.7395C47.2884 21.7474 47.293 21.7554 47.2974 21.7635L47.4092 21.9695C47.4137 21.9777 47.418 21.9861 47.4221 21.9946L47.5234 22.2059C47.5275 22.2144 47.5314 22.223 47.535 22.2318L47.6256 22.4479C47.6292 22.4567 47.6327 22.4655 47.6359 22.4744L47.7154 22.6949C47.7186 22.7037 47.7216 22.7126 47.7243 22.7216L47.7928 22.9458C47.7954 22.9547 47.7979 22.9636 47.8002 22.9726L47.8574 23.1999C47.8596 23.2087 47.8617 23.2175 47.8635 23.2264L47.9096 23.4561C47.9113 23.4648 47.9129 23.4735 47.9142 23.4823L47.9495 23.7139C47.9508 23.7224 47.9519 23.7309 47.9528 23.7393L47.9776 23.9723C47.9784 23.9805 47.9791 23.9887 47.9796 23.9968L47.9941 24.2308C47.9946 24.2386 47.9949 24.2464 47.9951 24.2543L47.9998 24.4886C48 24.4955 48 24.5026 47.9999 24.5096L47.9965 24.7062C47.9964 24.7133 47.9961 24.7205 47.9957 24.7278ZM46.8696 24.2889L46.8565 24.0789L46.8344 23.871L46.803 23.665L46.7622 23.4616L46.7116 23.2611L46.6515 23.0637L46.5816 22.87L46.502 22.68L46.4129 22.4942L46.3145 22.3129L46.2069 22.1361L46.0906 21.9641L45.9658 21.7972L45.8331 21.6352L45.692 21.4776L45.5696 21.3509L44.5752 20.3566L42.918 18.6993L42.7522 18.5336L42.5865 18.3679L41.9237 17.705L41.758 17.5392L40.9293 16.7106L39.4377 15.2191L39.1063 14.8876L38.9407 14.7219L38.7749 14.5562L38.6092 14.3905L37.1176 12.899L35.6261 11.4074L35.4604 11.2417L33.9689 9.75018L33.6374 9.41874L33.306 9.08729L32.4773 8.25866L32.1459 7.92721L31.8144 7.59577L31.6488 7.43005L31.1516 6.93287L30.9859 6.76715L30.323 6.10424L29.66 5.44135L29.4943 5.27563L28.0028 3.78411L27.5057 3.2869L27.1572 2.93837L26.9967 2.7842L26.8391 2.64504L26.6763 2.51353L26.5085 2.39015L26.3358 2.2752L26.1583 2.16916L25.9761 2.07212L25.7897 1.98458L25.5991 1.90652L25.4048 1.83815L25.2069 1.77956L25.0059 1.73066L24.802 1.69124L24.5958 1.66142L24.3874 1.64079L24.1763 1.62907L24.001 1.62617L23.7889 1.63043L23.579 1.6435L23.3709 1.66558L23.165 1.69696L22.9616 1.73782L22.7611 1.78837L22.5637 1.84851L22.37 1.91843L22.18 1.99804L21.9942 2.08713L21.8129 2.18562L21.6361 2.29311L21.4641 2.40942L21.2971 2.53415L21.1352 2.66692L20.9776 2.80802L20.8509 2.93043L20.3537 3.42762L18.8622 4.9191L18.5308 5.25056L16.2106 7.5707L15.7134 8.06787L15.382 8.39932L14.5534 9.22795L14.3876 9.39366L14.2219 9.55939L12.7304 11.0509L11.736 12.0453L11.5703 12.211L10.7417 13.0396L10.0788 13.7025L9.91308 13.8682L8.25584 15.5255L7.59294 16.1884L7.09576 16.6855L5.10706 18.6742L4.94135 18.84L4.11272 19.6686L2.78689 20.9944L2.4555 21.3258L2.43836 21.3428L2.28419 21.5033L2.14503 21.6609L2.01351 21.8237L1.89014 21.9915L1.77519 22.1642L1.66915 22.3418L1.57211 22.5239L1.48457 22.7103L1.40651 22.9009L1.33814 23.0952L1.27955 23.2931L1.23055 23.4941L1.19123 23.698L1.16141 23.9043L1.14078 24.1126L1.12906 24.3238L1.12616 24.499L1.13042 24.7111L1.14349 24.921L1.16557 25.1291L1.19695 25.335L1.23781 25.5384L1.28836 25.739L1.3485 25.9363L1.41842 26.1301L1.49803 26.32L1.58712 26.5058L1.68551 26.6872L1.7931 26.8639L1.90941 27.0359L2.03414 27.2029L2.16691 27.3648L2.30801 27.5223L2.43042 27.6491L3.92192 29.1407L4.4191 29.6379L4.58482 29.8035L5.24772 30.4664L6.40779 31.6265L6.57351 31.7922L6.73924 31.958L6.90496 32.1237L8.39648 33.6152L8.89366 34.1123L10.0537 35.2724L10.8824 36.1011L11.711 36.9297L11.8767 37.0954L12.2081 37.4268L12.7053 37.924L12.871 38.0897L13.0368 38.2555L13.2025 38.4212L13.3682 38.5869L14.694 39.9128L15.6884 40.907L15.8541 41.0728L16.1855 41.4042L17.6771 42.8958L18.5057 43.7244L19.6658 44.8844L19.8315 45.0502L20.8258 46.0445L20.8427 46.0616L21.0033 46.2158L21.1609 46.355L21.3237 46.4865L21.4915 46.6099L21.6642 46.7248L21.8417 46.831L22.0238 46.9279L22.2103 47.0154L22.4008 47.0935L22.5952 47.1619L22.7931 47.2205L22.9941 47.2694L23.198 47.3088L23.4043 47.3386L23.6126 47.3592L23.8236 47.3709L23.999 47.3738L24.2111 47.3696L24.4211 47.3565L24.629 47.3344L24.835 47.3031L25.0384 47.2622L25.2389 47.2117L25.4362 47.1515L25.63 47.0816L25.8199 47.002L26.0058 46.9129L26.1872 46.8145L26.3639 46.7069L26.5358 46.5906L26.7028 46.4659L26.8648 46.3331L27.0224 46.192L27.1491 46.0696L29.635 43.5838L29.8007 43.4181L29.9664 43.2523L30.1321 43.0866L30.2979 42.9209L30.9608 42.2579L36.9268 36.2919L37.0926 36.1262L38.7498 34.4689L39.7441 33.4745L39.9099 33.3088L40.0756 33.1431L40.2413 32.9773L40.407 32.8116L40.5728 32.646L40.7385 32.4802L40.9042 32.3145L42.2301 30.9887L43.2243 29.9943L43.3901 29.8286L45.2131 28.0057L45.3788 27.8399L45.5616 27.6572L45.7158 27.4968L45.855 27.3391L45.9865 27.1763L46.1098 27.0086L46.2248 26.8358L46.3309 26.6582L46.4279 26.4762L46.5154 26.2897L46.5935 26.0991L46.6618 25.9048L46.7204 25.7069L46.7694 25.5059L46.8088 25.302L46.8386 25.0958L46.8592 24.8874L46.8709 24.6763L46.8738 24.501L46.8696 24.2889Z" fill="#3ED99A"/>
</svg>
