<svg width="100" height="77" viewBox="0 0 100 77" fill="none" xmlns="http://www.w3.org/2000/svg">
<path d="M99.9911 27.4745L99.9642 27.962C99.9633 27.9789 99.962 27.9958 99.9602 28.0126L99.9122 28.4986C99.9105 28.5161 99.9083 28.5336 99.9057 28.5511L99.8357 29.0343C99.8332 29.0524 99.8302 29.0705 99.8267 29.0884L99.7343 29.5677C99.7306 29.5863 99.7266 29.6047 99.7221 29.623L99.6065 30.0973C99.6021 30.1162 99.5971 30.1348 99.5916 30.1532L99.4528 30.6213C99.4473 30.6401 99.4413 30.6587 99.4349 30.6772L99.2728 31.1378C99.2662 31.1563 99.2592 31.1748 99.2518 31.1931L99.0668 31.6448C99.0593 31.6631 99.0514 31.6812 99.043 31.699L98.8354 32.1411C98.8271 32.1588 98.8183 32.1763 98.809 32.1935L98.5796 32.6245C98.5705 32.6416 98.561 32.6584 98.5512 32.6749L98.3006 33.0942C98.2909 33.1103 98.2808 33.1263 98.2703 33.142L98 33.5485C97.9898 33.5639 97.9792 33.5789 97.9683 33.5937L97.679 33.9871C97.6685 34.0014 97.6577 34.0155 97.6465 34.0293L97.3396 34.409C97.3289 34.4223 97.3178 34.4354 97.3065 34.4481L96.9833 34.8141C96.9726 34.8264 96.9615 34.8384 96.9501 34.8502L96.6119 35.2025L96.1979 35.6169L95.8525 35.9621L89.6379 42.1767L86.8759 44.9389L86.5307 45.2841L86.1853 45.6293L85.8401 45.9747L85.4949 46.3199L85.1495 46.6651L84.8043 47.0103L84.4591 47.3557L84.1139 47.7009L82.3875 49.4271L78.9349 52.8798L78.5897 53.2252L66.1604 65.6544L64.7792 67.0354L64.434 67.3808L64.0888 67.726L63.7434 68.0712L59.9456 71.869L58.2194 73.5954L57.9105 73.894C57.8998 73.9045 57.8888 73.9148 57.8776 73.9247L57.5139 74.2503C57.5012 74.2616 57.4884 74.2727 57.4753 74.2834L57.0977 74.5931C57.0841 74.6043 57.0701 74.6152 57.0559 74.6258L56.6649 74.9179C56.6502 74.9288 56.6353 74.9394 56.6201 74.9496L56.2158 75.2232C56.2002 75.2338 56.1843 75.244 56.1682 75.2537L55.7511 75.5075C55.7346 75.5176 55.7179 75.5272 55.7009 75.5363L55.2718 75.7693C55.2547 75.7786 55.2373 75.7875 55.2195 75.796L54.7793 76.007C54.7615 76.0156 54.7436 76.0237 54.7254 76.0314L54.2751 76.2201C54.2568 76.2276 54.2384 76.2347 54.2198 76.2414L53.7606 76.4071C53.7422 76.4138 53.7237 76.42 53.705 76.4256L53.2379 76.5683C53.2193 76.5739 53.2007 76.5791 53.182 76.5838L52.7085 76.703C52.6902 76.7076 52.6718 76.7118 52.6532 76.7156L52.1747 76.8116C52.1566 76.8152 52.1385 76.8185 52.1202 76.8213L51.6376 76.8947C51.62 76.8974 51.6023 76.8997 51.5847 76.9016L51.0993 76.9532C51.0822 76.955 51.0651 76.9564 51.0481 76.9575L50.5608 76.9877C50.5446 76.9888 50.5282 76.9895 50.5118 76.9897L50.0238 76.9996C50.0092 77 49.9946 77.0001 49.98 76.9998L49.5704 76.9928C49.5555 76.9925 49.5406 76.992 49.5256 76.9912L49.038 76.9643C49.021 76.9634 49.0042 76.962 48.9874 76.9603L48.5015 76.9123C48.4839 76.9105 48.4664 76.9084 48.4489 76.9058L47.9657 76.8358C47.9475 76.8333 47.9295 76.8302 47.9116 76.8267L47.4322 76.7343C47.4137 76.7307 47.3952 76.7267 47.3769 76.7222L46.9026 76.6066C46.8839 76.6022 46.8653 76.5972 46.8467 76.5917L46.3787 76.4529C46.3599 76.4474 46.3413 76.4414 46.3228 76.4349L45.8622 76.2729C45.8436 76.2663 45.8252 76.2593 45.8069 76.2519L45.3551 76.0669C45.3368 76.0594 45.3188 76.0515 45.3009 76.0431L44.859 75.8355C44.8413 75.8272 44.8237 75.8184 44.8064 75.8091L44.3755 75.5797C44.3584 75.5705 44.3416 75.5611 44.325 75.5512L43.9059 75.3007C43.8897 75.291 43.8737 75.2809 43.8579 75.2704L43.4515 75C43.4361 74.9898 43.4211 74.9793 43.4063 74.9684L43.0129 74.6791C42.9986 74.6686 42.9845 74.6577 42.9707 74.6466L42.591 74.3397C42.5777 74.3289 42.5646 74.3179 42.5518 74.3066L42.1858 73.9834C42.1736 73.9726 42.1615 73.9616 42.1497 73.9501L41.7976 73.612L41.7283 73.5432L39.6568 71.4716L39.3115 71.1264L36.8947 68.7095L35.1684 66.9831L32.0611 63.8759L31.3706 63.1853L31.0253 62.8401L28.9538 60.7685L26.1917 58.0065L25.8464 57.6613L25.5012 57.3159L25.1559 56.9707L24.8106 56.6255L23.7749 55.5897L23.0844 54.8991L22.7391 54.5539L21.0128 52.8277L19.2865 51.1013L16.8697 48.6845L16.1792 47.9941L15.8339 47.6487L12.7266 44.5415L12.3813 44.1961L12.0361 43.8509L11.6908 43.5057L9.27399 41.0888L7.89297 39.7078L7.54771 39.3624L6.51192 38.3266L3.40455 35.2194L3.10596 34.9105C3.09547 34.8998 3.08524 34.8888 3.07529 34.8777L2.74966 34.5139C2.73836 34.5013 2.72734 34.4884 2.71657 34.4754L2.40689 34.0977C2.39572 34.0841 2.38489 34.0702 2.3744 34.0561L2.08207 33.6649C2.07117 33.6503 2.06061 33.6353 2.05039 33.6201L1.77681 33.2158C1.76618 33.2002 1.75596 33.1843 1.74614 33.1682L1.49254 32.7512C1.48245 32.7346 1.47283 32.7179 1.46369 32.7009L1.23066 32.2718C1.22138 32.2547 1.21251 32.2373 1.20404 32.2196L0.992999 31.7793C0.984389 31.7616 0.97625 31.7436 0.968585 31.7255L0.779949 31.2751C0.772419 31.2569 0.765288 31.2384 0.758563 31.2199L0.592922 30.7607C0.586197 30.7422 0.579938 30.7236 0.574153 30.7048L0.43172 30.2379C0.42607 30.2194 0.420889 30.2007 0.416179 30.182L0.296947 29.7085C0.292372 29.6902 0.2882 29.6718 0.284435 29.6532L0.188404 29.1747C0.184774 29.1567 0.181539 29.1385 0.178714 29.1202L0.105274 28.6376C0.102584 28.62 0.1003 28.6024 0.0984148 28.5848L0.0467638 28.0993C0.0450138 28.0823 0.0436045 28.0652 0.0425295 28.0481L0.0122637 27.5609C0.0111887 27.5446 0.0105195 27.5282 0.0102495 27.5118L0.000361828 27.0238C-4.3171e-05 27.0093 -0.000106535 26.9947 0.000163464 26.98L0.00722065 26.5705C0.00749065 26.5555 0.00802809 26.5406 0.00883809 26.5257L0.0356707 26.038C0.0366107 26.0211 0.0379566 26.0042 0.0397066 25.9874L0.0877184 25.5016C0.0894684 25.4839 0.0916255 25.4664 0.0941805 25.4489L0.164188 24.9657C0.166743 24.9475 0.169767 24.9295 0.173267 24.9116L0.265674 24.4323C0.269304 24.4137 0.273334 24.3953 0.277774 24.377L0.393382 23.9027C0.397822 23.884 0.402798 23.8653 0.408313 23.8468L0.547115 23.3787C0.55263 23.3599 0.558619 23.3413 0.565074 23.3229L0.727085 22.8623C0.733675 22.8437 0.74067 22.8252 0.748065 22.8069L0.933071 22.3551C0.940601 22.3369 0.948539 22.3188 0.956874 22.3009L1.16449 21.859C1.17283 21.8413 1.18163 21.8237 1.19091 21.8064L1.42031 21.3755C1.42945 21.3584 1.43894 21.3416 1.44876 21.325L1.69934 20.9059C1.70902 20.8897 1.71911 20.8737 1.7296 20.858L1.99995 20.4515C2.01017 20.4362 2.02073 20.4211 2.03163 20.4063L2.32094 20.013C2.33143 19.9986 2.34226 19.9846 2.35342 19.9707L2.66029 19.591C2.67105 19.5777 2.68208 19.5646 2.69338 19.5518L3.01659 19.1858C3.02735 19.1736 3.03844 19.1616 3.04988 19.1497L3.38802 18.7976L3.45682 18.7283L4.14743 18.0378L6.90943 15.2758L8.63574 13.5495L8.981 13.2042L13.1241 9.06112L14.1599 8.02533L15.5409 6.64429L18.9935 3.1917L19.3388 2.84644L20.7198 1.46541L22.4461 -0.260895L22.7914 -0.606153L24.8629 -2.6777L27.9703 -5.78503L28.3155 -6.13029L28.6608 -6.47555L30.3871 -8.20184L31.0776 -8.89236L32.1134 -9.92815L36.947 -14.7618L37.6375 -15.4523L40.7448 -18.5596L41.7806 -19.5954L42.0894 -19.894C42.1002 -19.9045 42.1111 -19.9148 42.1223 -19.9247L42.486 -20.2503C42.4987 -20.2616 42.5116 -20.2727 42.5247 -20.2834L42.9022 -20.5929C42.9159 -20.6042 42.9298 -20.6151 42.944 -20.6256L43.3351 -20.9179C43.3498 -20.9288 43.3647 -20.9394 43.3799 -20.9496L43.7842 -21.2232C43.7998 -21.2338 43.8157 -21.244 43.8318 -21.2537L44.2489 -21.5075C44.2654 -21.5176 44.282 -21.5272 44.299 -21.5363L44.7281 -21.7691C44.7453 -21.7786 44.7627 -21.7875 44.7804 -21.796L45.2206 -22.007C45.2383 -22.0156 45.2564 -22.0237 45.2746 -22.0312L45.7249 -22.2201C45.7431 -22.2276 45.7615 -22.2347 45.78 -22.2414L46.2393 -22.4071C46.2577 -22.4138 46.2763 -22.42 46.2951 -22.4256L46.7621 -22.5683C46.7806 -22.5739 46.7992 -22.5791 46.8179 -22.5838L47.2915 -22.7029C47.3097 -22.7076 47.3282 -22.7118 47.3467 -22.7156L47.8253 -22.8116C47.8433 -22.8152 47.8615 -22.8185 47.8798 -22.8213L48.3624 -22.8947C48.38 -22.8974 48.3976 -22.8997 48.4152 -22.9016L48.9006 -22.9532C48.9177 -22.955 48.9348 -22.9564 48.9519 -22.9575L49.4391 -22.9877C49.4554 -22.9888 49.4717 -22.9895 49.4881 -22.9898L49.9762 -22.9996C49.9907 -23 50.0053 -23.0001 50.02 -22.9998L50.4295 -22.9928C50.4445 -22.9925 50.4595 -22.992 50.4745 -22.9912L50.962 -22.9643C50.9789 -22.9634 50.9958 -22.962 51.0126 -22.9603L51.4986 -22.9123C51.5161 -22.9105 51.5336 -22.9084 51.5511 -22.9058L52.0343 -22.8358C52.0524 -22.8333 52.0705 -22.8302 52.0885 -22.8267L52.5679 -22.7341C52.5863 -22.7306 52.6047 -22.7267 52.623 -22.7222L53.0973 -22.6066C53.1161 -22.6022 53.1348 -22.5972 53.1532 -22.5917L53.6213 -22.4529C53.6401 -22.4474 53.6587 -22.4414 53.6772 -22.4349L54.1378 -22.2729C54.1563 -22.2663 54.1748 -22.2593 54.193 -22.2519L54.6448 -22.0669C54.6631 -22.0594 54.6812 -22.0515 54.699 -22.0431L55.1411 -21.8355C55.1588 -21.8272 55.1763 -21.8184 55.1935 -21.8091L55.6245 -21.5797C55.6416 -21.5705 55.6584 -21.5611 55.6749 -21.5512L56.0942 -21.3007C56.1103 -21.291 56.1262 -21.2809 56.142 -21.2704L56.5485 -21.0001C56.5638 -20.9898 56.5789 -20.9793 56.5937 -20.9684L56.9871 -20.6791C57.0014 -20.6686 57.0154 -20.6577 57.0293 -20.6466L57.409 -20.3397C57.4223 -20.329 57.4354 -20.3179 57.4481 -20.3066L57.8141 -19.9834C57.8264 -19.9727 57.8384 -19.9616 57.8502 -19.9501L58.2025 -19.612L58.9621 -18.8526L59.9979 -17.8168L63.1053 -14.7095L63.4505 -14.3643L64.4863 -13.3285L66.2125 -11.6022L66.5579 -11.257L67.5937 -10.2212L68.6293 -9.18539L68.9747 -8.84013L69.3199 -8.49487L71.0461 -6.76859L71.3915 -6.42332L71.7367 -6.07806L72.4273 -5.38754L75.5346 -2.28021L75.8797 -1.93495L78.9872 1.17238L82.0946 4.27972L82.4398 4.62499L82.785 4.97024L83.1304 5.3155L83.8208 6.00603L86.9282 9.11335L88.6544 10.8397L88.9996 11.1849L90.3808 12.5659L91.0712 13.2565L94.5238 16.7091L96.5954 18.7806L96.894 19.0894C96.9045 19.1002 96.9147 19.1111 96.9247 19.1223L97.2503 19.486C97.2616 19.4987 97.2726 19.5116 97.2834 19.5247L97.5928 19.9022C97.6041 19.9159 97.615 19.9298 97.6255 19.944L97.9179 20.3351C97.9288 20.3498 97.9393 20.3647 97.9496 20.3799L98.2231 20.7842C98.2337 20.7998 98.2439 20.8157 98.2536 20.8318L98.5074 21.2489C98.5175 21.2654 98.5271 21.282 98.5363 21.299L98.7691 21.7281C98.7785 21.7453 98.7874 21.7627 98.7959 21.7804L99.0069 22.2206C99.0155 22.2384 99.0236 22.2563 99.0312 22.2745L99.22 22.7248C99.2275 22.7431 99.2346 22.7615 99.2414 22.78L99.407 23.2393C99.4137 23.2577 99.4199 23.2763 99.4256 23.2951L99.5682 23.7621C99.5738 23.7806 99.5789 23.7992 99.5838 23.8179L99.7028 24.2915C99.7075 24.3097 99.7118 24.3282 99.7155 24.3467L99.8115 24.8253C99.8152 24.8433 99.8184 24.8615 99.8212 24.8798L99.8947 25.3624C99.8974 25.38 99.8996 25.3976 99.9015 25.4152L99.9532 25.9006C99.9549 25.9177 99.9563 25.9347 99.9574 25.9517L99.9877 26.4391C99.9888 26.4554 99.9894 26.4717 99.9897 26.4882L99.9996 26.9762C100 26.9907 100 27.0053 99.9998 27.02L99.9927 27.4295C99.9924 27.4445 99.9919 27.4595 99.9911 27.4745ZM97.6449 26.5602L97.6177 26.1228L97.5716 25.6896L97.5063 25.2605L97.4212 24.8366L97.3158 24.419L97.1905 24.0078L97.0449 23.6041L96.879 23.2084L96.6934 22.8213L96.4884 22.4435L96.2643 22.0752L96.022 21.717L95.7621 21.3691L95.4855 21.0317L95.1916 20.7034L94.9366 20.4394L92.8649 18.3678L89.4125 14.9152L89.0671 14.57L88.722 14.2247L87.341 12.8437L86.9957 12.4984L85.2693 10.7721L82.1619 7.66477L81.4715 6.97424L81.1263 6.629L80.7809 6.28374L80.4357 5.93848L77.3283 2.83115L74.2211 -0.276178L73.8759 -0.621439L70.7685 -3.72879L70.0779 -4.41929L69.3875 -5.10981L67.6611 -6.83612L66.9707 -7.52664L66.2801 -8.21714L65.9349 -8.5624L64.8991 -9.59819L64.5539 -9.94345L63.1729 -11.3245L61.7917 -12.7055L61.4465 -13.0508L58.3391 -16.1581L57.3035 -17.194L56.5776 -17.9201L56.2431 -18.2413L55.9148 -18.5312L55.5756 -18.8052L55.226 -19.0622L54.8663 -19.3017L54.4965 -19.5226L54.117 -19.7247L53.7286 -19.9071L53.3315 -20.0697L52.9266 -20.2122L52.5144 -20.3342L52.0956 -20.4361L51.6709 -20.5182L51.2412 -20.5804L50.807 -20.6234L50.3674 -20.6478L50.002 -20.6538L49.5602 -20.6449L49.123 -20.6177L48.6894 -20.5717L48.2605 -20.5063L47.8366 -20.4212L47.4189 -20.3159L47.0078 -20.1906L46.6041 -20.0449L46.2084 -19.8791L45.8213 -19.6935L45.4434 -19.4883L45.0752 -19.2643L44.7169 -19.022L44.369 -18.7622L44.0317 -18.4856L43.7034 -18.1916L43.4393 -17.9366L42.4036 -16.9008L39.2962 -13.7935L38.6057 -13.103L33.7721 -8.26937L32.7363 -7.2336L32.0458 -6.54308L30.3195 -4.81677L29.9742 -4.47153L29.629 -4.12627L26.5216 -1.01892L24.4501 1.05263L24.1048 1.39789L22.3785 3.12418L20.9975 4.50522L20.6522 4.85048L17.1996 8.30307L15.8186 9.68411L14.7828 10.7199L10.6397 14.863L10.2945 15.2083L8.56817 16.9346L5.80603 19.6966L5.11563 20.3872L5.07991 20.4224L4.75872 20.7569L4.46881 21.0853L4.19483 21.4243L3.93779 21.7739L3.69831 22.1338L3.47739 22.5037L3.27523 22.883L3.09285 23.2715L2.93023 23.6685L2.78779 24.0734L2.66574 24.4856L2.56365 24.9044L2.48174 25.3291L2.4196 25.759L2.37662 26.193L2.35221 26.6328L2.34616 26.998L2.35504 27.4398L2.38227 27.877L2.42827 28.3106L2.49364 28.7395L2.57878 29.1634L2.68409 29.5813L2.80938 29.9922L2.95505 30.3959L3.12089 30.7916L3.30651 31.1787L3.51149 31.5566L3.73564 31.9248L3.97794 32.2831L4.2378 32.631L4.51441 32.9683L4.80836 33.2966L5.06337 33.5606L8.17066 36.6681L9.20645 37.7039L9.55171 38.0491L10.9327 39.4301L13.3496 41.8469L13.6948 42.1921L14.0401 42.5375L14.3853 42.8827L17.4927 45.9901L18.5284 47.0257L20.9453 49.4425L22.6716 51.1689L24.3979 52.8951L24.7431 53.2405L25.4336 53.9309L26.4694 54.9667L26.8147 55.3119L27.1599 55.6573L27.5052 56.0025L27.8505 56.3477L30.6125 59.1099L32.6841 61.1813L33.0293 61.5267L33.7199 62.2171L36.8272 65.3245L38.5535 67.0508L40.9703 69.4676L41.3156 69.813L43.3871 71.8844L43.4224 71.9201L43.7568 72.2413L44.0852 72.5312L44.4243 72.8052L44.7739 73.0622L45.1338 73.3017L45.5036 73.5228L45.8829 73.7248L46.2715 73.9072L46.6684 74.0698L47.0733 74.2122L47.4855 74.3343L47.9044 74.4362L48.329 74.5183L48.759 74.5804L49.193 74.6234L49.6326 74.6478L49.998 74.6539L50.4398 74.645L50.8772 74.6177L51.3104 74.5717L51.7395 74.5064L52.1634 74.4212L52.581 74.3161L52.9922 74.1906L53.3959 74.045L53.7915 73.8791L54.1787 73.6935L54.5566 73.4885L54.9248 73.2644L55.2829 73.0221L55.6309 72.7622L55.9682 72.4856L56.2967 72.1916L56.5606 71.9366L61.7396 66.7578L62.0848 66.4126L62.43 66.0672L62.7752 65.722L63.1206 65.3768L64.5016 63.9956L76.9309 51.5664L77.2763 51.2212L80.7287 47.7685L82.8003 45.6969L83.1457 45.3517L83.4909 45.0065L83.8361 44.6611L84.1813 44.3159L84.5267 43.9707L84.8719 43.6253L85.2171 43.2801L87.9793 40.5181L90.0507 38.4465L90.3961 38.1013L94.1939 34.3035L94.5391 33.9581L94.92 33.5776L95.2412 33.2433L95.5311 32.9148L95.8051 32.5757L96.0621 32.2262L96.3016 31.8663L96.5227 31.4963L96.7247 31.1172L96.9071 30.7286L97.0697 30.3316L97.2121 29.9266L97.3342 29.5145L97.4363 29.0956L97.5182 28.6709L97.5803 28.2412L97.6233 27.807L97.6477 27.3674L97.6538 27.002L97.6449 26.5602Z" fill="#3ED99A"/>
<path d="M99.9911 15.4745L99.9642 15.962C99.9633 15.9789 99.962 15.9958 99.9602 16.0126L99.9122 16.4986C99.9105 16.5161 99.9083 16.5336 99.9057 16.5511L99.8357 17.0343C99.8332 17.0524 99.8302 17.0705 99.8267 17.0884L99.7343 17.5677C99.7306 17.5863 99.7266 17.6047 99.7221 17.623L99.6065 18.0973C99.6021 18.1162 99.5971 18.1348 99.5916 18.1532L99.4528 18.6213C99.4473 18.6401 99.4413 18.6587 99.4349 18.6772L99.2728 19.1378C99.2662 19.1563 99.2592 19.1748 99.2518 19.1931L99.0668 19.6448C99.0593 19.6631 99.0514 19.6812 99.043 19.699L98.8354 20.1411C98.8271 20.1588 98.8183 20.1763 98.809 20.1935L98.5796 20.6245C98.5705 20.6416 98.561 20.6584 98.5512 20.6749L98.3006 21.0942C98.2909 21.1103 98.2808 21.1263 98.2703 21.142L98 21.5485C97.9898 21.5639 97.9792 21.5789 97.9683 21.5937L97.679 21.9871C97.6685 22.0014 97.6577 22.0155 97.6465 22.0293L97.3396 22.409C97.3289 22.4223 97.3178 22.4354 97.3065 22.4481L96.9833 22.8141C96.9726 22.8264 96.9615 22.8384 96.9501 22.8502L96.6119 23.2025L96.1979 23.6169L95.8525 23.9621L89.6379 30.1767L86.8759 32.9389L86.5307 33.2841L86.1853 33.6293L85.8401 33.9747L85.4949 34.3199L85.1495 34.6651L84.8043 35.0103L84.4591 35.3557L84.1139 35.7009L82.3875 37.4271L78.9349 40.8798L78.5897 41.2252L66.1604 53.6544L64.7792 55.0354L64.434 55.3808L64.0888 55.726L63.7434 56.0712L59.9456 59.869L58.2194 61.5954L57.9105 61.894C57.8998 61.9045 57.8888 61.9148 57.8776 61.9247L57.5139 62.2503C57.5012 62.2616 57.4884 62.2727 57.4753 62.2834L57.0977 62.5931C57.0841 62.6043 57.0701 62.6152 57.0559 62.6258L56.6649 62.9179C56.6502 62.9288 56.6353 62.9394 56.6201 62.9496L56.2158 63.2232C56.2002 63.2338 56.1843 63.244 56.1682 63.2537L55.7511 63.5075C55.7346 63.5176 55.7179 63.5272 55.7009 63.5363L55.2718 63.7693C55.2547 63.7786 55.2373 63.7875 55.2195 63.796L54.7793 64.007C54.7615 64.0156 54.7436 64.0237 54.7254 64.0314L54.2751 64.2201C54.2568 64.2276 54.2384 64.2347 54.2198 64.2414L53.7606 64.4071C53.7422 64.4138 53.7237 64.42 53.705 64.4256L53.2379 64.5683C53.2193 64.5739 53.2007 64.5791 53.182 64.5838L52.7085 64.703C52.6902 64.7076 52.6718 64.7118 52.6532 64.7156L52.1747 64.8116C52.1566 64.8152 52.1385 64.8185 52.1202 64.8213L51.6376 64.8947C51.62 64.8974 51.6023 64.8997 51.5847 64.9016L51.0993 64.9532C51.0822 64.955 51.0651 64.9564 51.0481 64.9575L50.5608 64.9877C50.5446 64.9888 50.5282 64.9895 50.5118 64.9897L50.0238 64.9996C50.0092 65 49.9946 65.0001 49.98 64.9998L49.5704 64.9928C49.5555 64.9925 49.5406 64.992 49.5256 64.9912L49.038 64.9643C49.021 64.9634 49.0042 64.962 48.9874 64.9603L48.5015 64.9123C48.4839 64.9105 48.4664 64.9084 48.4489 64.9058L47.9657 64.8358C47.9475 64.8333 47.9295 64.8302 47.9116 64.8267L47.4322 64.7343C47.4137 64.7307 47.3952 64.7267 47.3769 64.7222L46.9026 64.6066C46.8839 64.6022 46.8653 64.5972 46.8467 64.5917L46.3787 64.4529C46.3599 64.4474 46.3413 64.4414 46.3228 64.4349L45.8622 64.2729C45.8436 64.2663 45.8252 64.2593 45.8069 64.2519L45.3551 64.0669C45.3368 64.0594 45.3188 64.0515 45.3009 64.0431L44.859 63.8355C44.8413 63.8272 44.8237 63.8184 44.8064 63.8091L44.3755 63.5797C44.3584 63.5705 44.3416 63.5611 44.325 63.5512L43.9059 63.3007C43.8897 63.291 43.8737 63.2809 43.8579 63.2704L43.4515 63C43.4361 62.9898 43.4211 62.9793 43.4063 62.9684L43.0129 62.6791C42.9986 62.6686 42.9845 62.6577 42.9707 62.6466L42.591 62.3397C42.5777 62.3289 42.5646 62.3179 42.5518 62.3066L42.1858 61.9834C42.1736 61.9726 42.1615 61.9616 42.1497 61.9501L41.7976 61.612L41.7283 61.5432L39.6568 59.4716L39.3115 59.1264L36.8947 56.7095L35.1684 54.9831L32.0611 51.8759L31.3706 51.1853L31.0253 50.8401L28.9538 48.7685L26.1917 46.0065L25.8464 45.6613L25.5012 45.3159L25.1559 44.9707L24.8106 44.6255L23.7749 43.5897L23.0844 42.8991L22.7391 42.5539L21.0128 40.8277L19.2865 39.1013L16.8697 36.6845L16.1792 35.9941L15.8339 35.6487L12.7266 32.5415L12.3813 32.1961L12.0361 31.8509L11.6908 31.5057L9.27399 29.0888L7.89297 27.7078L7.54771 27.3624L6.51192 26.3266L3.40455 23.2194L3.10596 22.9105C3.09547 22.8998 3.08524 22.8888 3.07529 22.8777L2.74966 22.5139C2.73836 22.5013 2.72734 22.4884 2.71657 22.4754L2.40689 22.0977C2.39572 22.0841 2.38489 22.0702 2.3744 22.0561L2.08207 21.6649C2.07117 21.6503 2.06061 21.6353 2.05039 21.6201L1.77681 21.2158C1.76618 21.2002 1.75596 21.1843 1.74614 21.1682L1.49254 20.7512C1.48245 20.7346 1.47283 20.7179 1.46369 20.7009L1.23066 20.2718C1.22138 20.2547 1.21251 20.2373 1.20404 20.2196L0.992999 19.7793C0.984389 19.7616 0.97625 19.7436 0.968585 19.7255L0.779949 19.2751C0.772419 19.2569 0.765288 19.2384 0.758563 19.2199L0.592922 18.7607C0.586197 18.7422 0.579938 18.7236 0.574153 18.7048L0.43172 18.2379C0.42607 18.2194 0.420889 18.2007 0.416179 18.182L0.296947 17.7085C0.292372 17.6902 0.2882 17.6718 0.284435 17.6532L0.188404 17.1747C0.184774 17.1567 0.181539 17.1385 0.178714 17.1202L0.105274 16.6376C0.102584 16.62 0.1003 16.6024 0.0984148 16.5848L0.0467638 16.0993C0.0450138 16.0823 0.0436045 16.0652 0.0425295 16.0481L0.0122637 15.5609C0.0111887 15.5446 0.0105195 15.5282 0.0102495 15.5118L0.000361828 15.0238C-4.3171e-05 15.0093 -0.000106535 14.9947 0.000163464 14.98L0.00722065 14.5705C0.00749065 14.5555 0.00802809 14.5406 0.00883809 14.5257L0.0356707 14.038C0.0366107 14.0211 0.0379566 14.0042 0.0397066 13.9874L0.0877184 13.5016C0.0894684 13.4839 0.0916255 13.4664 0.0941805 13.4489L0.164188 12.9657C0.166743 12.9475 0.169767 12.9295 0.173267 12.9116L0.265674 12.4323C0.269304 12.4137 0.273334 12.3953 0.277774 12.377L0.393382 11.9027C0.397822 11.884 0.402798 11.8653 0.408313 11.8468L0.547115 11.3787C0.55263 11.3599 0.558619 11.3413 0.565074 11.3229L0.727085 10.8623C0.733675 10.8437 0.74067 10.8252 0.748065 10.8069L0.933071 10.3551C0.940601 10.3369 0.948539 10.3188 0.956874 10.3009L1.16449 9.85901C1.17283 9.84127 1.18163 9.82375 1.19091 9.80644L1.42031 9.37549C1.42945 9.35844 1.43894 9.34161 1.44876 9.32501L1.69934 8.90593C1.70902 8.88969 1.71911 8.8737 1.7296 8.85795L1.99995 8.45148C2.01017 8.43616 2.02073 8.42109 2.03163 8.40628L2.32094 8.01296C2.33143 7.99864 2.34226 7.98456 2.35342 7.97074L2.66029 7.59098C2.67105 7.57769 2.68208 7.56464 2.69338 7.55184L3.01659 7.18584C3.02735 7.17359 3.03844 7.16155 3.04988 7.14974L3.38802 6.79758L3.45682 6.72834L4.14743 6.03785L6.90943 3.27577L8.63574 1.54947L8.981 1.20423L13.1241 -2.93888L14.1599 -3.97467L15.5409 -5.35571L18.9935 -8.8083L19.3388 -9.15356L20.7198 -10.5346L22.4461 -12.2609L22.7914 -12.6062L24.8629 -14.6777L27.9703 -17.785L28.3155 -18.1303L28.6608 -18.4756L30.3871 -20.2018L31.0776 -20.8924L32.1134 -21.9281L36.947 -26.7618L37.6375 -27.4523L40.7448 -30.5596L41.7806 -31.5954L42.0894 -31.894C42.1002 -31.9045 42.1111 -31.9148 42.1223 -31.9247L42.486 -32.2503C42.4987 -32.2616 42.5116 -32.2727 42.5247 -32.2834L42.9022 -32.5929C42.9159 -32.6042 42.9298 -32.6151 42.944 -32.6256L43.3351 -32.9179C43.3498 -32.9288 43.3647 -32.9394 43.3799 -32.9496L43.7842 -33.2232C43.7998 -33.2338 43.8157 -33.244 43.8318 -33.2537L44.2489 -33.5075C44.2654 -33.5176 44.282 -33.5272 44.299 -33.5363L44.7281 -33.7691C44.7453 -33.7786 44.7627 -33.7875 44.7804 -33.796L45.2206 -34.007C45.2383 -34.0156 45.2564 -34.0237 45.2746 -34.0312L45.7249 -34.2201C45.7431 -34.2276 45.7615 -34.2347 45.78 -34.2414L46.2393 -34.4071C46.2577 -34.4138 46.2763 -34.42 46.2951 -34.4256L46.7621 -34.5683C46.7806 -34.5739 46.7992 -34.5791 46.8179 -34.5838L47.2915 -34.7029C47.3097 -34.7076 47.3282 -34.7118 47.3467 -34.7156L47.8253 -34.8116C47.8433 -34.8152 47.8615 -34.8185 47.8798 -34.8213L48.3624 -34.8947C48.38 -34.8974 48.3976 -34.8997 48.4152 -34.9016L48.9006 -34.9532C48.9177 -34.955 48.9348 -34.9564 48.9519 -34.9575L49.4391 -34.9877C49.4554 -34.9888 49.4717 -34.9895 49.4881 -34.9898L49.9762 -34.9996C49.9907 -35 50.0053 -35.0001 50.02 -34.9998L50.4295 -34.9928C50.4445 -34.9925 50.4595 -34.992 50.4745 -34.9912L50.962 -34.9643C50.9789 -34.9634 50.9958 -34.962 51.0126 -34.9603L51.4986 -34.9123C51.5161 -34.9105 51.5336 -34.9084 51.5511 -34.9058L52.0343 -34.8358C52.0524 -34.8333 52.0705 -34.8302 52.0885 -34.8267L52.5679 -34.7341C52.5863 -34.7306 52.6047 -34.7267 52.623 -34.7222L53.0973 -34.6066C53.1161 -34.6022 53.1348 -34.5972 53.1532 -34.5917L53.6213 -34.4529C53.6401 -34.4474 53.6587 -34.4414 53.6772 -34.4349L54.1378 -34.2729C54.1563 -34.2663 54.1748 -34.2593 54.193 -34.2519L54.6448 -34.0669C54.6631 -34.0594 54.6812 -34.0515 54.699 -34.0431L55.1411 -33.8355C55.1588 -33.8272 55.1763 -33.8184 55.1935 -33.8091L55.6245 -33.5797C55.6416 -33.5705 55.6584 -33.5611 55.6749 -33.5512L56.0942 -33.3007C56.1103 -33.291 56.1262 -33.2809 56.142 -33.2704L56.5485 -33.0001C56.5638 -32.9898 56.5789 -32.9793 56.5937 -32.9684L56.9871 -32.6791C57.0014 -32.6686 57.0154 -32.6577 57.0293 -32.6466L57.409 -32.3397C57.4223 -32.329 57.4354 -32.3179 57.4481 -32.3066L57.8141 -31.9834C57.8264 -31.9727 57.8384 -31.9616 57.8502 -31.9501L58.2025 -31.612L58.9621 -30.8526L59.9979 -29.8168L63.1053 -26.7095L63.4505 -26.3643L64.4863 -25.3285L66.2125 -23.6022L66.5579 -23.257L67.5937 -22.2212L68.6293 -21.1854L68.9747 -20.8401L69.3199 -20.4949L71.0461 -18.7686L71.3915 -18.4233L71.7367 -18.0781L72.4273 -17.3875L75.5346 -14.2802L75.8797 -13.9349L78.9872 -10.8276L82.0946 -7.72028L82.4398 -7.37501L82.785 -7.02976L83.1304 -6.6845L83.8208 -5.99397L86.9282 -2.88665L88.6544 -1.16034L88.9996 -0.815083L90.3808 0.565945L91.0712 1.25647L94.5238 4.70906L96.5954 6.78063L96.894 7.0894C96.9045 7.10016 96.9147 7.11111 96.9247 7.12226L97.2503 7.48602C97.2616 7.49867 97.2726 7.51155 97.2834 7.52468L97.5928 7.90224C97.6041 7.9159 97.615 7.92982 97.6255 7.94398L97.9179 8.33512C97.9288 8.34978 97.9393 8.36469 97.9496 8.37985L98.2231 8.78425C98.2337 8.79985 98.2439 8.8157 98.2536 8.8318L98.5074 9.24889C98.5175 9.26535 98.5271 9.28205 98.5363 9.29898L98.7691 9.72807C98.7785 9.74528 98.7874 9.76271 98.7959 9.78037L99.0069 10.2206C99.0155 10.2384 99.0236 10.2563 99.0312 10.2745L99.22 10.7248C99.2275 10.7431 99.2346 10.7615 99.2414 10.78L99.407 11.2393C99.4137 11.2577 99.4199 11.2763 99.4256 11.2951L99.5682 11.7621C99.5738 11.7806 99.5789 11.7992 99.5838 11.8179L99.7028 12.2915C99.7075 12.3097 99.7118 12.3282 99.7155 12.3467L99.8115 12.8253C99.8152 12.8433 99.8184 12.8615 99.8212 12.8798L99.8947 13.3624C99.8974 13.38 99.8996 13.3976 99.9015 13.4152L99.9532 13.9006C99.9549 13.9177 99.9563 13.9347 99.9574 13.9517L99.9877 14.4391C99.9888 14.4554 99.9894 14.4717 99.9897 14.4882L99.9996 14.9762C100 14.9907 100 15.0053 99.9998 15.02L99.9927 15.4295C99.9924 15.4445 99.9919 15.4595 99.9911 15.4745ZM97.6449 14.5602L97.6177 14.1228L97.5716 13.6896L97.5063 13.2605L97.4212 12.8366L97.3158 12.419L97.1905 12.0078L97.0449 11.6041L96.879 11.2084L96.6934 10.8213L96.4884 10.4435L96.2643 10.0752L96.022 9.71696L95.7621 9.36909L95.4855 9.03168L95.1916 8.70337L94.9366 8.43937L92.8649 6.36782L89.4125 2.9152L89.0671 2.56997L88.722 2.2247L87.341 0.843658L86.9957 0.498398L85.2693 -1.22789L82.1619 -4.33523L81.4715 -5.02576L81.1263 -5.371L80.7809 -5.71626L80.4357 -6.06152L77.3283 -9.16885L74.2211 -12.2762L73.8759 -12.6214L70.7685 -15.7288L70.0779 -16.4193L69.3875 -17.1098L67.6611 -18.8361L66.9707 -19.5266L66.2801 -20.2171L65.9349 -20.5624L64.8991 -21.5982L64.5539 -21.9434L63.1729 -23.3245L61.7917 -24.7055L61.4465 -25.0508L58.3391 -28.1581L57.3035 -29.194L56.5776 -29.9201L56.2431 -30.2413L55.9148 -30.5312L55.5756 -30.8052L55.226 -31.0622L54.8663 -31.3017L54.4965 -31.5226L54.117 -31.7247L53.7286 -31.9071L53.3315 -32.0697L52.9266 -32.2122L52.5144 -32.3342L52.0956 -32.4361L51.6709 -32.5182L51.2412 -32.5804L50.807 -32.6234L50.3674 -32.6478L50.002 -32.6538L49.5602 -32.6449L49.123 -32.6177L48.6894 -32.5717L48.2605 -32.5063L47.8366 -32.4212L47.4189 -32.3159L47.0078 -32.1906L46.6041 -32.0449L46.2084 -31.8791L45.8213 -31.6935L45.4434 -31.4883L45.0752 -31.2643L44.7169 -31.022L44.369 -30.7622L44.0317 -30.4856L43.7034 -30.1916L43.4393 -29.9366L42.4036 -28.9008L39.2962 -25.7935L38.6057 -25.103L33.7721 -20.2694L32.7363 -19.2336L32.0458 -18.5431L30.3195 -16.8168L29.9742 -16.4715L29.629 -16.1263L26.5216 -13.0189L24.4501 -10.9474L24.1048 -10.6021L22.3785 -8.87582L20.9975 -7.49478L20.6522 -7.14952L17.1996 -3.69693L15.8186 -2.31589L14.7828 -1.28012L10.6397 2.863L10.2945 3.20825L8.56817 4.93456L5.80603 7.69663L5.11563 8.38715L5.07991 8.42242L4.75872 8.75689L4.46881 9.08526L4.19483 9.42432L3.93779 9.77394L3.69831 10.1338L3.47739 10.5037L3.27523 10.883L3.09285 11.2715L2.93023 11.6685L2.78779 12.0734L2.66574 12.4856L2.56365 12.9044L2.48174 13.3291L2.4196 13.759L2.37662 14.193L2.35221 14.6328L2.34616 14.998L2.35504 15.4398L2.38227 15.877L2.42827 16.3106L2.49364 16.7395L2.57878 17.1634L2.68409 17.5813L2.80938 17.9922L2.95505 18.3959L3.12089 18.7916L3.30651 19.1787L3.51149 19.5566L3.73564 19.9248L3.97794 20.2831L4.2378 20.631L4.51441 20.9683L4.80836 21.2966L5.06337 21.5606L8.17066 24.6681L9.20645 25.7039L9.55171 26.0491L10.9327 27.4301L13.3496 29.8469L13.6948 30.1921L14.0401 30.5375L14.3853 30.8827L17.4927 33.9901L18.5284 35.0257L20.9453 37.4425L22.6716 39.1689L24.3979 40.8951L24.7431 41.2405L25.4336 41.9309L26.4694 42.9667L26.8147 43.3119L27.1599 43.6573L27.5052 44.0025L27.8505 44.3477L30.6125 47.1099L32.6841 49.1813L33.0293 49.5267L33.7199 50.2171L36.8272 53.3245L38.5535 55.0508L40.9703 57.4676L41.3156 57.813L43.3871 59.8844L43.4224 59.9201L43.7568 60.2413L44.0852 60.5312L44.4243 60.8052L44.7739 61.0622L45.1338 61.3017L45.5036 61.5228L45.8829 61.7248L46.2715 61.9072L46.6684 62.0698L47.0733 62.2122L47.4855 62.3343L47.9044 62.4362L48.329 62.5183L48.759 62.5804L49.193 62.6234L49.6326 62.6478L49.998 62.6539L50.4398 62.645L50.8772 62.6177L51.3104 62.5717L51.7395 62.5064L52.1634 62.4212L52.581 62.3161L52.9922 62.1906L53.3959 62.045L53.7915 61.8791L54.1787 61.6935L54.5566 61.4885L54.9248 61.2644L55.2829 61.0221L55.6309 60.7622L55.9682 60.4856L56.2967 60.1916L56.5606 59.9366L61.7396 54.7578L62.0848 54.4126L62.43 54.0672L62.7752 53.722L63.1206 53.3768L64.5016 51.9956L76.9309 39.5664L77.2763 39.2212L80.7287 35.7685L82.8003 33.6969L83.1457 33.3517L83.4909 33.0065L83.8361 32.6611L84.1813 32.3159L84.5267 31.9707L84.8719 31.6253L85.2171 31.2801L87.9793 28.5181L90.0507 26.4465L90.3961 26.1013L94.1939 22.3035L94.5391 21.9581L94.92 21.5776L95.2412 21.2433L95.5311 20.9148L95.8051 20.5757L96.0621 20.2262L96.3016 19.8663L96.5227 19.4963L96.7247 19.1172L96.9071 18.7286L97.0697 18.3316L97.2121 17.9266L97.3342 17.5145L97.4363 17.0956L97.5182 16.6709L97.5803 16.2412L97.6233 15.807L97.6477 15.3674L97.6538 15.002L97.6449 14.5602Z" fill="#3ED99A"/>
<path d="M99.9911 3.47453L99.9642 3.96197C99.9633 3.97891 99.962 3.99579 99.9602 4.01261L99.9122 4.49863C99.9105 4.51612 99.9083 4.5336 99.9057 4.55109L99.8357 5.03429C99.8332 5.05245 99.8302 5.07047 99.8267 5.08836L99.7343 5.56772C99.7306 5.58628 99.7266 5.60471 99.7221 5.623L99.6065 6.09733C99.6021 6.11616 99.5971 6.13479 99.5916 6.15321L99.4528 6.62128C99.4473 6.64011 99.4413 6.65874 99.4349 6.67717L99.2728 7.13777C99.2662 7.15633 99.2592 7.17476 99.2518 7.19305L99.0668 7.64478C99.0593 7.66307 99.0514 7.68116 99.043 7.69905L98.8354 8.14109C98.8271 8.15885 98.8183 8.17633 98.809 8.19355L98.5796 8.62449C98.5705 8.64157 98.561 8.65839 98.5512 8.67493L98.3006 9.09418C98.2909 9.11032 98.2808 9.12626 98.2703 9.14199L98 9.54853C97.9898 9.56386 97.9792 9.57893 97.9683 9.59372L97.679 9.98714C97.6685 10.0014 97.6577 10.0155 97.6465 10.0293L97.3396 10.409C97.3289 10.4223 97.3178 10.4354 97.3065 10.4481L96.9833 10.8141C96.9726 10.8264 96.9615 10.8384 96.9501 10.8502L96.6119 11.2025L96.1979 11.6169L95.8525 11.9621L89.6379 18.1767L86.8759 20.9389L86.5307 21.2841L86.1853 21.6293L85.8401 21.9747L85.4949 22.3199L85.1495 22.6651L84.8043 23.0103L84.4591 23.3557L84.1139 23.7009L82.3875 25.4271L78.9349 28.8798L78.5897 29.2252L66.1604 41.6544L64.7792 43.0354L64.434 43.3808L64.0888 43.726L63.7434 44.0712L59.9456 47.869L58.2194 49.5954L57.9105 49.894C57.8998 49.9045 57.8888 49.9148 57.8776 49.9247L57.5139 50.2503C57.5012 50.2616 57.4884 50.2727 57.4753 50.2834L57.0977 50.5931C57.0841 50.6043 57.0701 50.6152 57.0559 50.6258L56.6649 50.9179C56.6502 50.9288 56.6353 50.9394 56.6201 50.9496L56.2158 51.2232C56.2002 51.2338 56.1843 51.244 56.1682 51.2537L55.7511 51.5075C55.7346 51.5176 55.7179 51.5272 55.7009 51.5363L55.2718 51.7693C55.2547 51.7786 55.2373 51.7875 55.2195 51.796L54.7793 52.007C54.7615 52.0156 54.7436 52.0237 54.7254 52.0314L54.2751 52.2201C54.2568 52.2276 54.2384 52.2347 54.2198 52.2414L53.7606 52.4071C53.7422 52.4138 53.7237 52.42 53.705 52.4256L53.2379 52.5683C53.2193 52.5739 53.2007 52.5791 53.182 52.5838L52.7085 52.703C52.6902 52.7076 52.6718 52.7118 52.6532 52.7156L52.1747 52.8116C52.1566 52.8152 52.1385 52.8185 52.1202 52.8213L51.6376 52.8947C51.62 52.8974 51.6023 52.8997 51.5847 52.9016L51.0993 52.9532C51.0822 52.955 51.0651 52.9564 51.0481 52.9575L50.5608 52.9877C50.5446 52.9888 50.5282 52.9895 50.5118 52.9897L50.0238 52.9996C50.0092 53 49.9946 53.0001 49.98 52.9998L49.5704 52.9928C49.5555 52.9925 49.5406 52.992 49.5256 52.9912L49.038 52.9643C49.021 52.9634 49.0042 52.962 48.9874 52.9603L48.5015 52.9123C48.4839 52.9105 48.4664 52.9084 48.4489 52.9058L47.9657 52.8358C47.9475 52.8333 47.9295 52.8302 47.9116 52.8267L47.4322 52.7343C47.4137 52.7307 47.3952 52.7267 47.3769 52.7222L46.9026 52.6066C46.8839 52.6022 46.8653 52.5972 46.8467 52.5917L46.3787 52.4529C46.3599 52.4474 46.3413 52.4414 46.3228 52.4349L45.8622 52.2729C45.8436 52.2663 45.8252 52.2593 45.8069 52.2519L45.3551 52.0669C45.3368 52.0594 45.3188 52.0515 45.3009 52.0431L44.859 51.8355C44.8413 51.8272 44.8237 51.8184 44.8064 51.8091L44.3755 51.5797C44.3584 51.5705 44.3416 51.5611 44.325 51.5512L43.9059 51.3007C43.8897 51.291 43.8737 51.2809 43.8579 51.2704L43.4515 51C43.4361 50.9898 43.4211 50.9793 43.4063 50.9684L43.0129 50.6791C42.9986 50.6686 42.9845 50.6577 42.9707 50.6466L42.591 50.3397C42.5777 50.3289 42.5646 50.3179 42.5518 50.3066L42.1858 49.9834C42.1736 49.9726 42.1615 49.9616 42.1497 49.9501L41.7976 49.612L41.7283 49.5432L39.6568 47.4716L39.3115 47.1264L36.8947 44.7095L35.1684 42.9831L32.0611 39.8759L31.3706 39.1853L31.0253 38.8401L28.9538 36.7685L26.1917 34.0065L25.8464 33.6613L25.5012 33.3159L25.1559 32.9707L24.8106 32.6255L23.7749 31.5897L23.0844 30.8991L22.7391 30.5539L21.0128 28.8277L19.2865 27.1013L16.8697 24.6845L16.1792 23.9941L15.8339 23.6487L12.7266 20.5415L12.3813 20.1961L12.0361 19.8509L11.6908 19.5057L9.27399 17.0888L7.89297 15.7078L7.54771 15.3624L6.51192 14.3266L3.40455 11.2194L3.10596 10.9105C3.09547 10.8998 3.08524 10.8888 3.07529 10.8777L2.74966 10.5139C2.73836 10.5013 2.72734 10.4884 2.71657 10.4754L2.40689 10.0977C2.39572 10.0841 2.38489 10.0702 2.3744 10.0561L2.08207 9.66492C2.07117 9.65026 2.06061 9.63533 2.05039 9.62013L1.77681 9.21581C1.76618 9.20021 1.75596 9.18434 1.74614 9.1682L1.49254 8.75117C1.48245 8.73463 1.47283 8.71788 1.46369 8.70094L1.23066 8.27181C1.22138 8.25473 1.21251 8.23731 1.20404 8.21955L0.992999 7.77933C0.984389 7.76157 0.97625 7.74362 0.968585 7.72546L0.779949 7.27514C0.772419 7.25685 0.765288 7.23842 0.758563 7.21986L0.592922 6.76067C0.586197 6.74225 0.579938 6.72362 0.574153 6.70479L0.43172 6.23793C0.42607 6.21937 0.420889 6.20074 0.416179 6.18204L0.296947 5.70853C0.292372 5.69024 0.2882 5.67181 0.284435 5.65325L0.188404 5.17469C0.184774 5.15666 0.181539 5.13851 0.178714 5.12021L0.105274 4.63762C0.102584 4.62 0.1003 4.60238 0.0984148 4.58476L0.0467638 4.09934C0.0450138 4.08226 0.0436045 4.06517 0.0425295 4.04809L0.0122637 3.56086C0.0111887 3.54458 0.0105195 3.52824 0.0102495 3.51183L0.000361828 3.02379C-4.3171e-05 3.00927 -0.000106535 2.99467 0.000163464 2.98001L0.00722065 2.57045C0.00749065 2.55552 0.00802809 2.54059 0.00883809 2.52566L0.0356707 2.03802C0.0366107 2.02108 0.0379566 2.0042 0.0397066 1.98738L0.0877184 1.50156C0.0894684 1.48394 0.0916255 1.46639 0.0941805 1.4489L0.164188 0.965694C0.166743 0.947535 0.169767 0.929515 0.173267 0.911625L0.265674 0.432259C0.269304 0.413699 0.273334 0.39527 0.277774 0.37698L0.393382 -0.0973473C0.397822 -0.116042 0.402798 -0.134673 0.408313 -0.153233L0.547115 -0.6213C0.55263 -0.640065 0.558619 -0.658682 0.565074 -0.677147L0.727085 -1.13771C0.733675 -1.15634 0.74067 -1.17479 0.748065 -1.19305L0.933071 -1.64486C0.940601 -1.66314 0.948539 -1.68121 0.956874 -1.69909L1.16449 -2.14099C1.17283 -2.15873 1.18163 -2.17625 1.19091 -2.19356L1.42031 -2.62451C1.42945 -2.64156 1.43894 -2.65839 1.44876 -2.67499L1.69934 -3.09407C1.70902 -3.11031 1.71911 -3.1263 1.7296 -3.14205L1.99995 -3.54852C2.01017 -3.56384 2.02073 -3.57891 2.03163 -3.59372L2.32094 -3.98704C2.33143 -4.00136 2.34226 -4.01544 2.35342 -4.02926L2.66029 -4.40902C2.67105 -4.42231 2.68208 -4.43536 2.69338 -4.44816L3.01659 -4.81416C3.02735 -4.82641 3.03844 -4.83845 3.04988 -4.85026L3.38802 -5.20242L3.45682 -5.27166L4.14743 -5.96215L6.90943 -8.72423L8.63574 -10.4505L8.981 -10.7958L13.1241 -14.9389L14.1599 -15.9747L15.5409 -17.3557L18.9935 -20.8083L19.3388 -21.1536L20.7198 -22.5346L22.4461 -24.2609L22.7914 -24.6062L24.8629 -26.6777L27.9703 -29.785L28.3155 -30.1303L28.6608 -30.4756L30.3871 -32.2018L31.0776 -32.8924L32.1134 -33.9281L36.947 -38.7618L37.6375 -39.4523L40.7448 -42.5596L41.7806 -43.5954L42.0894 -43.894C42.1002 -43.9045 42.1111 -43.9148 42.1223 -43.9247L42.486 -44.2503C42.4987 -44.2616 42.5116 -44.2727 42.5247 -44.2834L42.9022 -44.5929C42.9159 -44.6042 42.9298 -44.6151 42.944 -44.6256L43.3351 -44.9179C43.3498 -44.9288 43.3647 -44.9394 43.3799 -44.9496L43.7842 -45.2232C43.7998 -45.2338 43.8157 -45.244 43.8318 -45.2537L44.2489 -45.5075C44.2654 -45.5176 44.282 -45.5272 44.299 -45.5363L44.7281 -45.7691C44.7453 -45.7786 44.7627 -45.7875 44.7804 -45.796L45.2206 -46.007C45.2383 -46.0156 45.2564 -46.0237 45.2746 -46.0312L45.7249 -46.2201C45.7431 -46.2276 45.7615 -46.2347 45.78 -46.2414L46.2393 -46.4071C46.2577 -46.4138 46.2763 -46.42 46.2951 -46.4256L46.7621 -46.5683C46.7806 -46.5739 46.7992 -46.5791 46.8179 -46.5838L47.2915 -46.7029C47.3097 -46.7076 47.3282 -46.7118 47.3467 -46.7156L47.8253 -46.8116C47.8433 -46.8152 47.8615 -46.8185 47.8798 -46.8213L48.3624 -46.8947C48.38 -46.8974 48.3976 -46.8997 48.4152 -46.9016L48.9006 -46.9532C48.9177 -46.955 48.9348 -46.9564 48.9519 -46.9575L49.4391 -46.9877C49.4554 -46.9888 49.4717 -46.9895 49.4881 -46.9898L49.9762 -46.9996C49.9907 -47 50.0053 -47.0001 50.02 -46.9998L50.4295 -46.9928C50.4445 -46.9925 50.4595 -46.992 50.4745 -46.9912L50.962 -46.9643C50.9789 -46.9634 50.9958 -46.962 51.0126 -46.9603L51.4986 -46.9123C51.5161 -46.9105 51.5336 -46.9084 51.5511 -46.9058L52.0343 -46.8358C52.0524 -46.8333 52.0705 -46.8302 52.0885 -46.8267L52.5679 -46.7341C52.5863 -46.7306 52.6047 -46.7267 52.623 -46.7222L53.0973 -46.6066C53.1161 -46.6022 53.1348 -46.5972 53.1532 -46.5917L53.6213 -46.4529C53.6401 -46.4474 53.6587 -46.4414 53.6772 -46.4349L54.1378 -46.2729C54.1563 -46.2663 54.1748 -46.2593 54.193 -46.2519L54.6448 -46.0669C54.6631 -46.0594 54.6812 -46.0515 54.699 -46.0431L55.1411 -45.8355C55.1588 -45.8272 55.1763 -45.8184 55.1935 -45.8091L55.6245 -45.5797C55.6416 -45.5705 55.6584 -45.5611 55.6749 -45.5512L56.0942 -45.3007C56.1103 -45.291 56.1262 -45.2809 56.142 -45.2704L56.5485 -45.0001C56.5638 -44.9898 56.5789 -44.9793 56.5937 -44.9684L56.9871 -44.6791C57.0014 -44.6686 57.0154 -44.6577 57.0293 -44.6466L57.409 -44.3397C57.4223 -44.329 57.4354 -44.3179 57.4481 -44.3066L57.8141 -43.9834C57.8264 -43.9727 57.8384 -43.9616 57.8502 -43.9501L58.2025 -43.612L58.9621 -42.8526L59.9979 -41.8168L63.1053 -38.7095L63.4505 -38.3643L64.4863 -37.3285L66.2125 -35.6022L66.5579 -35.257L67.5937 -34.2212L68.6293 -33.1854L68.9747 -32.8401L69.3199 -32.4949L71.0461 -30.7686L71.3915 -30.4233L71.7367 -30.0781L72.4273 -29.3875L75.5346 -26.2802L75.8797 -25.9349L78.9872 -22.8276L82.0946 -19.7203L82.4398 -19.375L82.785 -19.0298L83.1304 -18.6845L83.8208 -17.994L86.9282 -14.8866L88.6544 -13.1603L88.9996 -12.8151L90.3808 -11.4341L91.0712 -10.7435L94.5238 -7.29094L96.5954 -5.21937L96.894 -4.9106C96.9045 -4.89984 96.9147 -4.88889 96.9247 -4.87774L97.2503 -4.51398C97.2616 -4.50133 97.2726 -4.48845 97.2834 -4.47532L97.5928 -4.09776C97.6041 -4.0841 97.615 -4.07018 97.6255 -4.05602L97.9179 -3.66488C97.9288 -3.65022 97.9393 -3.63531 97.9496 -3.62015L98.2231 -3.21575C98.2337 -3.20015 98.2439 -3.1843 98.2536 -3.1682L98.5074 -2.75111C98.5175 -2.73465 98.5271 -2.71795 98.5363 -2.70102L98.7691 -2.27193C98.7785 -2.25472 98.7874 -2.23729 98.7959 -2.21963L99.0069 -1.77943C99.0155 -1.76165 99.0236 -1.74366 99.0312 -1.72546L99.22 -1.27516C99.2275 -1.25694 99.2346 -1.23854 99.2414 -1.21996L99.407 -0.760712C99.4137 -0.742272 99.4199 -0.723671 99.4256 -0.704906L99.5682 -0.237946C99.5738 -0.219386 99.5789 -0.200755 99.5838 -0.18206L99.7028 0.291454C99.7075 0.309744 99.7118 0.328173 99.7155 0.346733L99.8115 0.825294C99.8152 0.843319 99.8184 0.861473 99.8212 0.879768L99.8947 1.36237C99.8974 1.37999 99.8996 1.39761 99.9015 1.41523L99.9532 1.90065C99.9549 1.91773 99.9563 1.93474 99.9574 1.95169L99.9877 2.43913C99.9888 2.4554 99.9894 2.47174 99.9897 2.48815L99.9996 2.97619C100 2.99072 100 3.00531 99.9998 3.01997L99.9927 3.42953C99.9924 3.44446 99.9919 3.45947 99.9911 3.47453ZM97.6449 2.56018L97.6177 2.12278L97.5716 1.68962L97.5063 1.26049L97.4212 0.836597L97.3158 0.418968L97.1905 0.00779343L97.0449 -0.395916L96.879 -0.791576L96.6934 -1.17866L96.4884 -1.55647L96.2643 -1.92479L96.022 -2.28304L95.7621 -2.63091L95.4855 -2.96832L95.1916 -3.29663L94.9366 -3.56063L92.8649 -5.63218L89.4125 -9.0848L89.0671 -9.43003L88.722 -9.7753L87.341 -11.1563L86.9957 -11.5016L85.2693 -13.2279L82.1619 -16.3352L81.4715 -17.0258L81.1263 -17.371L80.7809 -17.7163L80.4357 -18.0615L77.3283 -21.1689L74.2211 -24.2762L73.8759 -24.6214L70.7685 -27.7288L70.0779 -28.4193L69.3875 -29.1098L67.6611 -30.8361L66.9707 -31.5266L66.2801 -32.2171L65.9349 -32.5624L64.8991 -33.5982L64.5539 -33.9434L63.1729 -35.3245L61.7917 -36.7055L61.4465 -37.0508L58.3391 -40.1581L57.3035 -41.194L56.5776 -41.9201L56.2431 -42.2413L55.9148 -42.5312L55.5756 -42.8052L55.226 -43.0622L54.8663 -43.3017L54.4965 -43.5226L54.117 -43.7247L53.7286 -43.9071L53.3315 -44.0697L52.9266 -44.2122L52.5144 -44.3342L52.0956 -44.4361L51.6709 -44.5182L51.2412 -44.5804L50.807 -44.6234L50.3674 -44.6478L50.002 -44.6538L49.5602 -44.6449L49.123 -44.6177L48.6894 -44.5717L48.2605 -44.5063L47.8366 -44.4212L47.4189 -44.3159L47.0078 -44.1906L46.6041 -44.0449L46.2084 -43.8791L45.8213 -43.6935L45.4434 -43.4883L45.0752 -43.2643L44.7169 -43.022L44.369 -42.7622L44.0317 -42.4856L43.7034 -42.1916L43.4393 -41.9366L42.4036 -40.9008L39.2962 -37.7935L38.6057 -37.103L33.7721 -32.2694L32.7363 -31.2336L32.0458 -30.5431L30.3195 -28.8168L29.9742 -28.4715L29.629 -28.1263L26.5216 -25.0189L24.4501 -22.9474L24.1048 -22.6021L22.3785 -20.8758L20.9975 -19.4948L20.6522 -19.1495L17.1996 -15.6969L15.8186 -14.3159L14.7828 -13.2801L10.6397 -9.137L10.2945 -8.79175L8.56817 -7.06544L5.80603 -4.30337L5.11563 -3.61285L5.07991 -3.57758L4.75872 -3.24311L4.46881 -2.91474L4.19483 -2.57568L3.93779 -2.22606L3.69831 -1.86621L3.47739 -1.49635L3.27523 -1.11697L3.09285 -0.728535L2.93023 -0.331547L2.78779 0.0733757L2.66574 0.485558L2.56365 0.9044L2.48174 1.32909L2.4196 1.75903L2.37662 2.193L2.35221 2.63282L2.34616 2.998L2.35504 3.43984L2.38227 3.87704L2.42827 4.31061L2.49364 4.73954L2.57878 5.16342L2.68409 5.58125L2.80938 5.99223L2.95505 6.39594L3.12089 6.79158L3.30651 7.17874L3.51149 7.55663L3.73564 7.92483L3.97794 8.28314L4.2378 8.63097L4.51441 8.9683L4.80836 9.29655L5.06337 9.56065L8.17066 12.6681L9.20645 13.7039L9.55171 14.0491L10.9327 15.4301L13.3496 17.8469L13.6948 18.1921L14.0401 18.5375L14.3853 18.8827L17.4927 21.9901L18.5284 23.0257L20.9453 25.4425L22.6716 27.1689L24.3979 28.8951L24.7431 29.2405L25.4336 29.9309L26.4694 30.9667L26.8147 31.3119L27.1599 31.6573L27.5052 32.0025L27.8505 32.3477L30.6125 35.1099L32.6841 37.1813L33.0293 37.5267L33.7199 38.2171L36.8272 41.3245L38.5535 43.0508L40.9703 45.4676L41.3156 45.813L43.3871 47.8844L43.4224 47.9201L43.7568 48.2413L44.0852 48.5312L44.4243 48.8052L44.7739 49.0622L45.1338 49.3017L45.5036 49.5228L45.8829 49.7248L46.2715 49.9072L46.6684 50.0698L47.0733 50.2122L47.4855 50.3343L47.9044 50.4362L48.329 50.5183L48.759 50.5804L49.193 50.6234L49.6326 50.6478L49.998 50.6539L50.4398 50.645L50.8772 50.6177L51.3104 50.5717L51.7395 50.5064L52.1634 50.4212L52.581 50.3161L52.9922 50.1906L53.3959 50.045L53.7915 49.8791L54.1787 49.6935L54.5566 49.4885L54.9248 49.2644L55.2829 49.0221L55.6309 48.7622L55.9682 48.4856L56.2967 48.1916L56.5606 47.9366L61.7396 42.7578L62.0848 42.4126L62.43 42.0672L62.7752 41.722L63.1206 41.3768L64.5016 39.9956L76.9309 27.5664L77.2763 27.2212L80.7287 23.7685L82.8003 21.6969L83.1457 21.3517L83.4909 21.0065L83.8361 20.6611L84.1813 20.3159L84.5267 19.9707L84.8719 19.6253L85.2171 19.2801L87.9793 16.5181L90.0507 14.4465L90.3961 14.1013L94.1939 10.3035L94.5391 9.95809L94.92 9.57758L95.2412 9.24327L95.5311 8.91482L95.8051 8.57567L96.0621 8.22623L96.3016 7.8663L96.5227 7.49628L96.7247 7.11719L96.9071 6.72861L97.0697 6.33156L97.2121 5.92664L97.3342 5.51445L97.4363 5.09561L97.5182 4.67092L97.5803 4.24119L97.6233 3.80701L97.6477 3.36739L97.6538 3.00202L97.6449 2.56018Z" fill="#3ED99A"/>
<path d="M99.9911 -20.5255L99.9642 -20.038C99.9633 -20.0211 99.962 -20.0042 99.9602 -19.9874L99.9122 -19.5014C99.9105 -19.4839 99.9083 -19.4664 99.9057 -19.4489L99.8357 -18.9657C99.8332 -18.9476 99.8302 -18.9295 99.8267 -18.9116L99.7343 -18.4323C99.7306 -18.4137 99.7266 -18.3953 99.7221 -18.377L99.6065 -17.9027C99.6021 -17.8838 99.5971 -17.8652 99.5916 -17.8468L99.4528 -17.3787C99.4473 -17.3599 99.4413 -17.3413 99.4349 -17.3228L99.2728 -16.8622C99.2662 -16.8437 99.2592 -16.8252 99.2518 -16.8069L99.0668 -16.3552C99.0593 -16.3369 99.0514 -16.3188 99.043 -16.301L98.8354 -15.8589C98.8271 -15.8412 98.8183 -15.8237 98.809 -15.8065L98.5796 -15.3755C98.5705 -15.3584 98.561 -15.3416 98.5512 -15.3251L98.3006 -14.9058C98.2909 -14.8897 98.2808 -14.8737 98.2703 -14.858L98 -14.4515C97.9898 -14.4361 97.9792 -14.4211 97.9683 -14.4063L97.679 -14.0129C97.6685 -13.9986 97.6577 -13.9845 97.6465 -13.9707L97.3396 -13.591C97.3289 -13.5777 97.3178 -13.5646 97.3065 -13.5519L96.9833 -13.1859C96.9726 -13.1736 96.9615 -13.1616 96.9501 -13.1498L96.6119 -12.7975L96.1979 -12.3831L95.8525 -12.0379L89.6379 -5.82329L86.8759 -3.06107L86.5307 -2.71587L86.1853 -2.37067L85.8401 -2.02527L85.4949 -1.68007L85.1495 -1.33487L84.8043 -0.98967L84.4591 -0.644264L84.1139 -0.299065L82.3875 1.42714L78.9349 4.87975L78.5897 5.22516L66.1604 17.6544L64.7792 19.0354L64.434 19.3808L64.0888 19.726L63.7434 20.0712L59.9456 23.869L58.2194 25.5954L57.9105 25.894C57.8998 25.9045 57.8888 25.9148 57.8776 25.9247L57.5139 26.2503C57.5012 26.2616 57.4884 26.2727 57.4753 26.2834L57.0977 26.5931C57.0841 26.6043 57.0701 26.6152 57.0559 26.6258L56.6649 26.9179C56.6502 26.9288 56.6353 26.9394 56.6201 26.9496L56.2158 27.2232C56.2002 27.2338 56.1843 27.244 56.1682 27.2537L55.7511 27.5075C55.7346 27.5176 55.7179 27.5272 55.7009 27.5363L55.2718 27.7693C55.2547 27.7786 55.2373 27.7875 55.2195 27.796L54.7793 28.007C54.7615 28.0156 54.7436 28.0237 54.7254 28.0314L54.2751 28.2201C54.2568 28.2276 54.2384 28.2347 54.2198 28.2414L53.7606 28.4071C53.7422 28.4138 53.7237 28.42 53.705 28.4256L53.2379 28.5683C53.2193 28.5739 53.2007 28.5791 53.182 28.5838L52.7085 28.703C52.6902 28.7076 52.6718 28.7118 52.6532 28.7156L52.1747 28.8116C52.1566 28.8152 52.1385 28.8185 52.1202 28.8213L51.6376 28.8947C51.62 28.8974 51.6023 28.8997 51.5847 28.9016L51.0993 28.9532C51.0822 28.955 51.0651 28.9564 51.0481 28.9575L50.5608 28.9877C50.5446 28.9888 50.5282 28.9895 50.5118 28.9897L50.0238 28.9996C50.0092 29 49.9946 29.0001 49.98 28.9998L49.5704 28.9928C49.5555 28.9925 49.5406 28.992 49.5256 28.9912L49.038 28.9643C49.021 28.9634 49.0042 28.962 48.9874 28.9603L48.5015 28.9123C48.4839 28.9105 48.4664 28.9084 48.4489 28.9058L47.9657 28.8358C47.9475 28.8333 47.9295 28.8302 47.9116 28.8267L47.4322 28.7343C47.4137 28.7307 47.3952 28.7267 47.3769 28.7222L46.9026 28.6066C46.8839 28.6022 46.8653 28.5972 46.8467 28.5917L46.3787 28.4529C46.3599 28.4474 46.3413 28.4414 46.3228 28.4349L45.8622 28.2729C45.8436 28.2663 45.8252 28.2593 45.8069 28.2519L45.3551 28.0669C45.3368 28.0594 45.3188 28.0515 45.3009 28.0431L44.859 27.8355C44.8413 27.8272 44.8237 27.8184 44.8064 27.8091L44.3755 27.5797C44.3584 27.5705 44.3416 27.5611 44.325 27.5512L43.9059 27.3007C43.8897 27.291 43.8737 27.2809 43.8579 27.2704L43.4515 27C43.4361 26.9898 43.4211 26.9793 43.4063 26.9684L43.0129 26.6791C42.9986 26.6686 42.9845 26.6577 42.9707 26.6466L42.591 26.3397C42.5777 26.3289 42.5646 26.3179 42.5518 26.3066L42.1858 25.9834C42.1736 25.9726 42.1615 25.9616 42.1497 25.9501L41.7976 25.612L41.7283 25.5432L39.6568 23.4716L39.3115 23.1264L36.8947 20.7095L35.1684 18.9831L32.0611 15.8759L31.3706 15.1853L31.0253 14.8401L28.9538 12.7685L26.1917 10.0065L25.8464 9.66131L25.5012 9.3159L25.1559 8.9707L24.8106 8.6255L23.7749 7.5897L23.0844 6.89909L22.7391 6.55389L21.0128 4.82769L19.2865 3.10129L16.8697 0.684479L16.1792 -0.00592804L15.8339 -0.351334L12.7266 -3.45854L12.3813 -3.80395L12.0361 -4.14915L11.6908 -4.49435L9.27399 -6.91116L7.89297 -8.29215L7.54771 -8.63756L6.51192 -9.67336L3.40455 -12.7806L3.10596 -13.0895C3.09547 -13.1002 3.08524 -13.1112 3.07529 -13.1223L2.74966 -13.4861C2.73836 -13.4987 2.72734 -13.5116 2.71657 -13.5246L2.40689 -13.9023C2.39572 -13.9159 2.38489 -13.9298 2.3744 -13.9439L2.08207 -14.3351C2.07117 -14.3497 2.06061 -14.3647 2.05039 -14.3799L1.77681 -14.7842C1.76618 -14.7998 1.75596 -14.8157 1.74614 -14.8318L1.49254 -15.2488C1.48245 -15.2654 1.47283 -15.2821 1.46369 -15.2991L1.23066 -15.7282C1.22138 -15.7453 1.21251 -15.7627 1.20404 -15.7804L0.992999 -16.2207C0.984389 -16.2384 0.97625 -16.2564 0.968585 -16.2745L0.779949 -16.7249C0.772419 -16.7431 0.765288 -16.7616 0.758563 -16.7801L0.592922 -17.2393C0.586197 -17.2578 0.579938 -17.2764 0.574153 -17.2952L0.43172 -17.7621C0.42607 -17.7806 0.420889 -17.7993 0.416179 -17.818L0.296947 -18.2915C0.292372 -18.3098 0.2882 -18.3282 0.284435 -18.3468L0.188404 -18.8253C0.184774 -18.8433 0.181539 -18.8615 0.178714 -18.8798L0.105274 -19.3624C0.102584 -19.38 0.1003 -19.3976 0.0984148 -19.4152L0.0467638 -19.9007C0.0450138 -19.9177 0.0436045 -19.9348 0.0425295 -19.9519L0.0122637 -20.4391C0.0111887 -20.4554 0.0105195 -20.4718 0.0102495 -20.4882L0.000361828 -20.9762C-4.3171e-05 -20.9907 -0.000106535 -21.0053 0.000163464 -21.02L0.00722065 -21.4295C0.00749065 -21.4445 0.00802809 -21.4594 0.00883809 -21.4743L0.0356707 -21.962C0.0366107 -21.9789 0.0379566 -21.9958 0.0397066 -22.0126L0.0877184 -22.4984C0.0894684 -22.5161 0.0916255 -22.5336 0.0941805 -22.5511L0.164188 -23.0343C0.166743 -23.0525 0.169767 -23.0705 0.173267 -23.0884L0.265674 -23.5677C0.269304 -23.5863 0.273334 -23.6047 0.277774 -23.623L0.393382 -24.0973C0.397822 -24.116 0.402798 -24.1347 0.408313 -24.1532L0.547115 -24.6213C0.55263 -24.6401 0.558619 -24.6587 0.565074 -24.6771L0.727085 -25.1377C0.733675 -25.1563 0.74067 -25.1748 0.748065 -25.1931L0.933071 -25.6449C0.940601 -25.6631 0.948539 -25.6812 0.956874 -25.6991L1.16449 -26.141C1.17283 -26.1587 1.18163 -26.1763 1.19091 -26.1936L1.42031 -26.6245C1.42945 -26.6416 1.43894 -26.6584 1.44876 -26.675L1.69934 -27.0941C1.70902 -27.1103 1.71911 -27.1263 1.7296 -27.142L1.99995 -27.5485C2.01017 -27.5638 2.02073 -27.5789 2.03163 -27.5937L2.32094 -27.987C2.33143 -28.0014 2.34226 -28.0154 2.35342 -28.0293L2.66029 -28.409C2.67105 -28.4223 2.68208 -28.4354 2.69338 -28.4482L3.01659 -28.8142C3.02735 -28.8264 3.03844 -28.8384 3.04988 -28.8503L3.38802 -29.2024L3.45682 -29.2717L4.14743 -29.9622L6.90943 -32.7242L8.63574 -34.4505L8.981 -34.7958L13.1241 -38.9389L14.1599 -39.9747L15.5409 -41.3557L18.9935 -44.8083L19.3388 -45.1536L20.7198 -46.5346L22.4461 -48.2609L22.7914 -48.6062L24.8629 -50.6777L27.9703 -53.785L28.3155 -54.1303L28.6608 -54.4756L30.3871 -56.2018L31.0776 -56.8924L32.1134 -57.9281L36.947 -62.7618L37.6375 -63.4523L40.7448 -66.5596L41.7806 -67.5954L42.0894 -67.894C42.1002 -67.9045 42.1111 -67.9148 42.1223 -67.9247L42.486 -68.2503C42.4987 -68.2616 42.5116 -68.2727 42.5247 -68.2834L42.9022 -68.5929C42.9159 -68.6042 42.9298 -68.6151 42.944 -68.6256L43.3351 -68.9179C43.3498 -68.9288 43.3647 -68.9394 43.3799 -68.9496L43.7842 -69.2232C43.7998 -69.2338 43.8157 -69.244 43.8318 -69.2537L44.2489 -69.5075C44.2654 -69.5176 44.282 -69.5272 44.299 -69.5363L44.7281 -69.7691C44.7453 -69.7786 44.7627 -69.7875 44.7804 -69.796L45.2206 -70.007C45.2383 -70.0156 45.2564 -70.0237 45.2746 -70.0312L45.7249 -70.2201C45.7431 -70.2276 45.7615 -70.2347 45.78 -70.2414L46.2393 -70.4071C46.2577 -70.4138 46.2763 -70.42 46.2951 -70.4256L46.7621 -70.5683C46.7806 -70.5739 46.7992 -70.5791 46.8179 -70.5838L47.2915 -70.7029C47.3097 -70.7076 47.3282 -70.7118 47.3467 -70.7156L47.8253 -70.8116C47.8433 -70.8152 47.8615 -70.8185 47.8798 -70.8213L48.3624 -70.8947C48.38 -70.8974 48.3976 -70.8997 48.4152 -70.9016L48.9006 -70.9532C48.9177 -70.955 48.9348 -70.9564 48.9519 -70.9575L49.4391 -70.9877C49.4554 -70.9888 49.4717 -70.9895 49.4881 -70.9898L49.9762 -70.9996C49.9907 -71 50.0053 -71.0001 50.02 -70.9998L50.4295 -70.9928C50.4445 -70.9925 50.4595 -70.992 50.4745 -70.9912L50.962 -70.9643C50.9789 -70.9634 50.9958 -70.962 51.0126 -70.9603L51.4986 -70.9123C51.5161 -70.9105 51.5336 -70.9084 51.5511 -70.9058L52.0343 -70.8358C52.0524 -70.8333 52.0705 -70.8302 52.0885 -70.8267L52.5679 -70.7341C52.5863 -70.7306 52.6047 -70.7267 52.623 -70.7222L53.0973 -70.6066C53.1161 -70.6022 53.1348 -70.5972 53.1532 -70.5917L53.6213 -70.4529C53.6401 -70.4474 53.6587 -70.4414 53.6772 -70.4349L54.1378 -70.2729C54.1563 -70.2663 54.1748 -70.2593 54.193 -70.2519L54.6448 -70.0669C54.6631 -70.0594 54.6812 -70.0515 54.699 -70.0431L55.1411 -69.8355C55.1588 -69.8272 55.1763 -69.8184 55.1935 -69.8091L55.6245 -69.5797C55.6416 -69.5705 55.6584 -69.5611 55.6749 -69.5512L56.0942 -69.3007C56.1103 -69.291 56.1262 -69.2809 56.142 -69.2704L56.5485 -69.0001C56.5638 -68.9898 56.5789 -68.9793 56.5937 -68.9684L56.9871 -68.6791C57.0014 -68.6686 57.0154 -68.6577 57.0293 -68.6466L57.409 -68.3397C57.4223 -68.329 57.4354 -68.3179 57.4481 -68.3066L57.8141 -67.9834C57.8264 -67.9727 57.8384 -67.9616 57.8502 -67.9501L58.2025 -67.612L58.9621 -66.8526L59.9979 -65.8168L63.1053 -62.7095L63.4505 -62.3643L64.4863 -61.3285L66.2125 -59.6022L66.5579 -59.257L67.5937 -58.2212L68.6293 -57.1854L68.9747 -56.8401L69.3199 -56.4949L71.0461 -54.7686L71.3915 -54.4233L71.7367 -54.0781L72.4273 -53.3875L75.5346 -50.2802L75.8797 -49.9349L78.9872 -46.8276L82.0946 -43.7203L82.4398 -43.375L82.785 -43.0298L83.1304 -42.6845L83.8208 -41.994L86.9282 -38.8866L88.6544 -37.1603L88.9996 -36.8151L90.3808 -35.4341L91.0712 -34.7435L94.5238 -31.2909L96.5954 -29.2194L96.894 -28.9106C96.9045 -28.8998 96.9147 -28.8889 96.9247 -28.8777L97.2503 -28.514C97.2616 -28.5013 97.2726 -28.4884 97.2834 -28.4753L97.5928 -28.0978C97.6041 -28.0841 97.615 -28.0702 97.6255 -28.056L97.9179 -27.6649C97.9288 -27.6502 97.9393 -27.6353 97.9496 -27.6201L98.2231 -27.2158C98.2337 -27.2002 98.2439 -27.1843 98.2536 -27.1682L98.5074 -26.7511C98.5175 -26.7346 98.5271 -26.718 98.5363 -26.701L98.7691 -26.2719C98.7785 -26.2547 98.7874 -26.2373 98.7959 -26.2196L99.0069 -25.7794C99.0155 -25.7616 99.0236 -25.7437 99.0312 -25.7255L99.22 -25.2752C99.2275 -25.2569 99.2346 -25.2385 99.2414 -25.22L99.407 -24.7607C99.4137 -24.7423 99.4199 -24.7237 99.4256 -24.7049L99.5682 -24.2379C99.5738 -24.2194 99.5789 -24.2008 99.5838 -24.1821L99.7028 -23.7085C99.7075 -23.6903 99.7118 -23.6718 99.7155 -23.6533L99.8115 -23.1747C99.8152 -23.1567 99.8184 -23.1385 99.8212 -23.1202L99.8947 -22.6376C99.8974 -22.62 99.8996 -22.6024 99.9015 -22.5848L99.9532 -22.0994C99.9549 -22.0823 99.9563 -22.0653 99.9574 -22.0483L99.9877 -21.5609C99.9888 -21.5446 99.9894 -21.5283 99.9897 -21.5118L99.9996 -21.0238C100 -21.0093 100 -20.9947 99.9998 -20.98L99.9927 -20.5705C99.9924 -20.5555 99.9919 -20.5405 99.9911 -20.5255ZM97.6449 -21.4398L97.6177 -21.8772L97.5716 -22.3104L97.5063 -22.7395L97.4212 -23.1634L97.3158 -23.581L97.1905 -23.9922L97.0449 -24.3959L96.879 -24.7916L96.6934 -25.1787L96.4884 -25.5565L96.2643 -25.9248L96.022 -26.283L95.7621 -26.6309L95.4855 -26.9683L95.1916 -27.2966L94.9366 -27.5606L92.8649 -29.6322L89.4125 -33.0848L89.0671 -33.43L88.722 -33.7753L87.341 -35.1563L86.9957 -35.5016L85.2693 -37.2279L82.1619 -40.3352L81.4715 -41.0258L81.1263 -41.371L80.7809 -41.7163L80.4357 -42.0615L77.3283 -45.1689L74.2211 -48.2762L73.8759 -48.6214L70.7685 -51.7288L70.0779 -52.4193L69.3875 -53.1098L67.6611 -54.8361L66.9707 -55.5266L66.2801 -56.2171L65.9349 -56.5624L64.8991 -57.5982L64.5539 -57.9434L63.1729 -59.3245L61.7917 -60.7055L61.4465 -61.0508L58.3391 -64.1581L57.3035 -65.194L56.5776 -65.9201L56.2431 -66.2413L55.9148 -66.5312L55.5756 -66.8052L55.226 -67.0622L54.8663 -67.3017L54.4965 -67.5226L54.117 -67.7247L53.7286 -67.9071L53.3315 -68.0697L52.9266 -68.2122L52.5144 -68.3342L52.0956 -68.4361L51.6709 -68.5182L51.2412 -68.5804L50.807 -68.6234L50.3674 -68.6478L50.002 -68.6538L49.5602 -68.6449L49.123 -68.6177L48.6894 -68.5717L48.2605 -68.5063L47.8366 -68.4212L47.4189 -68.3159L47.0078 -68.1906L46.6041 -68.0449L46.2084 -67.8791L45.8213 -67.6935L45.4434 -67.4883L45.0752 -67.2643L44.7169 -67.022L44.369 -66.7622L44.0317 -66.4856L43.7034 -66.1916L43.4393 -65.9366L42.4036 -64.9008L39.2962 -61.7935L38.6057 -61.103L33.7721 -56.2694L32.7363 -55.2336L32.0458 -54.5431L30.3195 -52.8168L29.9742 -52.4715L29.629 -52.1263L26.5216 -49.0189L24.4501 -46.9474L24.1048 -46.6021L22.3785 -44.8758L20.9975 -43.4948L20.6522 -43.1495L17.1996 -39.6969L15.8186 -38.3159L14.7828 -37.2801L10.6397 -33.137L10.2945 -32.7917L8.56817 -31.0654L5.80603 -28.3034L5.11563 -27.6128L5.07991 -27.5776L4.75872 -27.2431L4.46881 -26.9147L4.19483 -26.5757L3.93779 -26.2261L3.69831 -25.8662L3.47739 -25.4963L3.27523 -25.117L3.09285 -24.7285L2.93023 -24.3315L2.78779 -23.9266L2.66574 -23.5144L2.56365 -23.0956L2.48174 -22.6709L2.4196 -22.241L2.37662 -21.807L2.35221 -21.3672L2.34616 -21.002L2.35504 -20.5602L2.38227 -20.123L2.42827 -19.6894L2.49364 -19.2605L2.57878 -18.8366L2.68409 -18.4187L2.80938 -18.0078L2.95505 -17.6041L3.12089 -17.2084L3.30651 -16.8213L3.51149 -16.4434L3.73564 -16.0752L3.97794 -15.7169L4.2378 -15.369L4.51441 -15.0317L4.80836 -14.7034L5.06337 -14.4394L8.17066 -11.3319L9.20645 -10.2961L9.55171 -9.95094L10.9327 -8.56993L13.3496 -6.15313L13.6948 -5.80793L14.0401 -5.46252L14.3853 -5.11732L17.4927 -2.00992L18.5284 -0.974312L20.9453 1.4425L22.6716 3.1689L24.3979 4.8951L24.7431 5.24051L25.4336 5.93091L26.4694 6.96671L26.8147 7.31191L27.1599 7.65732L27.5052 8.00252L27.8505 8.34772L30.6125 11.1099L32.6841 13.1813L33.0293 13.5267L33.7199 14.2171L36.8272 17.3245L38.5535 19.0508L40.9703 21.4676L41.3156 21.813L43.3871 23.8844L43.4224 23.9201L43.7568 24.2413L44.0852 24.5312L44.4243 24.8052L44.7739 25.0622L45.1338 25.3017L45.5036 25.5228L45.8829 25.7248L46.2715 25.9072L46.6684 26.0698L47.0733 26.2122L47.4855 26.3343L47.9044 26.4362L48.329 26.5183L48.759 26.5804L49.193 26.6234L49.6326 26.6478L49.998 26.6539L50.4398 26.645L50.8772 26.6177L51.3104 26.5717L51.7395 26.5064L52.1634 26.4212L52.581 26.3161L52.9922 26.1906L53.3959 26.045L53.7915 25.8791L54.1787 25.6935L54.5566 25.4885L54.9248 25.2644L55.2829 25.0221L55.6309 24.7622L55.9682 24.4856L56.2967 24.1916L56.5606 23.9366L61.7396 18.7578L62.0848 18.4126L62.43 18.0672L62.7752 17.722L63.1206 17.3768L64.5016 15.9956L76.9309 3.56635L77.2763 3.22115L80.7287 -0.231461L82.8003 -2.30307L83.1457 -2.64827L83.4909 -2.99347L83.8361 -3.33887L84.1813 -3.68407L84.5267 -4.02927L84.8719 -4.37468L85.2171 -4.71988L87.9793 -7.48188L90.0507 -9.55349L90.3961 -9.89869L94.1939 -13.6965L94.5391 -14.0419L94.92 -14.4224L95.2412 -14.7567L95.5311 -15.0852L95.8051 -15.4243L96.0621 -15.7738L96.3016 -16.1337L96.5227 -16.5037L96.7247 -16.8828L96.9071 -17.2714L97.0697 -17.6684L97.2121 -18.0734L97.3342 -18.4855L97.4363 -18.9044L97.5182 -19.3291L97.5803 -19.7588L97.6233 -20.193L97.6477 -20.6326L97.6538 -20.998L97.6449 -21.4398Z" fill="#3ED99A"/>
<path d="M99.9911 -8.52547L99.9642 -8.03803C99.9633 -8.02109 99.962 -8.00421 99.9602 -7.98739L99.9122 -7.50137C99.9105 -7.48388 99.9083 -7.4664 99.9057 -7.44891L99.8357 -6.96571C99.8332 -6.94755 99.8302 -6.92953 99.8267 -6.91164L99.7343 -6.43228C99.7306 -6.41372 99.7266 -6.39529 99.7221 -6.377L99.6065 -5.90267C99.6021 -5.88384 99.5971 -5.86521 99.5916 -5.84679L99.4528 -5.37872C99.4473 -5.35989 99.4413 -5.34126 99.4349 -5.32283L99.2728 -4.86223C99.2662 -4.84367 99.2592 -4.82524 99.2518 -4.80695L99.0668 -4.35522C99.0593 -4.33693 99.0514 -4.31884 99.043 -4.30095L98.8354 -3.85891C98.8271 -3.84115 98.8183 -3.82367 98.809 -3.80645L98.5796 -3.37551C98.5705 -3.35843 98.561 -3.34161 98.5512 -3.32507L98.3006 -2.90582C98.2909 -2.88968 98.2808 -2.87374 98.2703 -2.85801L98 -2.45147C97.9898 -2.43614 97.9792 -2.42107 97.9683 -2.40628L97.679 -2.01286C97.6685 -1.9986 97.6577 -1.98454 97.6465 -1.97069L97.3396 -1.59099C97.3289 -1.57768 97.3178 -1.56463 97.3065 -1.55185L96.9833 -1.18587C96.9726 -1.17363 96.9615 -1.16159 96.9501 -1.14976L96.6119 -0.797497L96.1979 -0.383099L95.8525 -0.037899L89.6379 6.17671L86.8759 8.93893L86.5307 9.28413L86.1853 9.62933L85.8401 9.97473L85.4949 10.3199L85.1495 10.6651L84.8043 11.0103L84.4591 11.3557L84.1139 11.7009L82.3875 13.4271L78.9349 16.8798L78.5897 17.2252L66.1604 29.6544L64.7792 31.0354L64.434 31.3808L64.0888 31.726L63.7434 32.0712L59.9456 35.869L58.2194 37.5954L57.9105 37.894C57.8998 37.9045 57.8888 37.9148 57.8776 37.9247L57.5139 38.2503C57.5012 38.2616 57.4884 38.2727 57.4753 38.2834L57.0977 38.5931C57.0841 38.6043 57.0701 38.6152 57.0559 38.6258L56.6649 38.9179C56.6502 38.9288 56.6353 38.9394 56.6201 38.9496L56.2158 39.2232C56.2002 39.2338 56.1843 39.244 56.1682 39.2537L55.7511 39.5075C55.7346 39.5176 55.7179 39.5272 55.7009 39.5363L55.2718 39.7693C55.2547 39.7786 55.2373 39.7875 55.2195 39.796L54.7793 40.007C54.7615 40.0156 54.7436 40.0237 54.7254 40.0314L54.2751 40.2201C54.2568 40.2276 54.2384 40.2347 54.2198 40.2414L53.7606 40.4071C53.7422 40.4138 53.7237 40.42 53.705 40.4256L53.2379 40.5683C53.2193 40.5739 53.2007 40.5791 53.182 40.5838L52.7085 40.703C52.6902 40.7076 52.6718 40.7118 52.6532 40.7156L52.1747 40.8116C52.1566 40.8152 52.1385 40.8185 52.1202 40.8213L51.6376 40.8947C51.62 40.8974 51.6023 40.8997 51.5847 40.9016L51.0993 40.9532C51.0822 40.955 51.0651 40.9564 51.0481 40.9575L50.5608 40.9877C50.5446 40.9888 50.5282 40.9895 50.5118 40.9897L50.0238 40.9996C50.0092 41 49.9946 41.0001 49.98 40.9998L49.5704 40.9928C49.5555 40.9925 49.5406 40.992 49.5256 40.9912L49.038 40.9643C49.021 40.9634 49.0042 40.962 48.9874 40.9603L48.5015 40.9123C48.4839 40.9105 48.4664 40.9084 48.4489 40.9058L47.9657 40.8358C47.9475 40.8333 47.9295 40.8302 47.9116 40.8267L47.4322 40.7343C47.4137 40.7307 47.3952 40.7267 47.3769 40.7222L46.9026 40.6066C46.8839 40.6022 46.8653 40.5972 46.8467 40.5917L46.3787 40.4529C46.3599 40.4474 46.3413 40.4414 46.3228 40.4349L45.8622 40.2729C45.8436 40.2663 45.8252 40.2593 45.8069 40.2519L45.3551 40.0669C45.3368 40.0594 45.3188 40.0515 45.3009 40.0431L44.859 39.8355C44.8413 39.8272 44.8237 39.8184 44.8064 39.8091L44.3755 39.5797C44.3584 39.5705 44.3416 39.5611 44.325 39.5512L43.9059 39.3007C43.8897 39.291 43.8737 39.2809 43.8579 39.2704L43.4515 39C43.4361 38.9898 43.4211 38.9793 43.4063 38.9684L43.0129 38.6791C42.9986 38.6686 42.9845 38.6577 42.9707 38.6466L42.591 38.3397C42.5777 38.3289 42.5646 38.3179 42.5518 38.3066L42.1858 37.9834C42.1736 37.9726 42.1615 37.9616 42.1497 37.9501L41.7976 37.612L41.7283 37.5432L39.6568 35.4716L39.3115 35.1264L36.8947 32.7095L35.1684 30.9831L32.0611 27.8759L31.3706 27.1853L31.0253 26.8401L28.9538 24.7685L26.1917 22.0065L25.8464 21.6613L25.5012 21.3159L25.1559 20.9707L24.8106 20.6255L23.7749 19.5897L23.0844 18.8991L22.7391 18.5539L21.0128 16.8277L19.2865 15.1013L16.8697 12.6845L16.1792 11.9941L15.8339 11.6487L12.7266 8.54146L12.3813 8.19605L12.0361 7.85085L11.6908 7.50565L9.27399 5.08884L7.89297 3.70785L7.54771 3.36244L6.51192 2.32664L3.40455 -0.780571L3.10596 -1.08946C3.09547 -1.10022 3.08524 -1.11118 3.07529 -1.12234L2.74966 -1.4861C2.73836 -1.49875 2.72734 -1.51159 2.71657 -1.52464L2.40689 -1.90232C2.39572 -1.91591 2.38489 -1.92976 2.3744 -1.94388L2.08207 -2.33508C2.07117 -2.34974 2.06061 -2.36467 2.05039 -2.37987L1.77681 -2.78419C1.76618 -2.79979 1.75596 -2.81566 1.74614 -2.8318L1.49254 -3.24883C1.48245 -3.26537 1.47283 -3.28212 1.46369 -3.29906L1.23066 -3.72819C1.22138 -3.74527 1.21251 -3.76269 1.20404 -3.78045L0.992999 -4.22067C0.984389 -4.23843 0.97625 -4.25638 0.968585 -4.27454L0.779949 -4.72486C0.772419 -4.74315 0.765288 -4.76158 0.758563 -4.78014L0.592922 -5.23933C0.586197 -5.25775 0.579938 -5.27638 0.574153 -5.29521L0.43172 -5.76207C0.42607 -5.78063 0.420889 -5.79926 0.416179 -5.81796L0.296947 -6.29147C0.292372 -6.30976 0.2882 -6.32819 0.284435 -6.34675L0.188404 -6.82531C0.184774 -6.84334 0.181539 -6.86149 0.178714 -6.87979L0.105274 -7.36238C0.102584 -7.38 0.1003 -7.39762 0.0984148 -7.41524L0.0467638 -7.90066C0.0450138 -7.91774 0.0436045 -7.93483 0.0425295 -7.95191L0.0122637 -8.43914C0.0111887 -8.45542 0.0105195 -8.47176 0.0102495 -8.48817L0.000361828 -8.97621C-4.3171e-05 -8.99073 -0.000106535 -9.00533 0.000163464 -9.01999L0.00722065 -9.42955C0.00749065 -9.44448 0.00802809 -9.45941 0.00883809 -9.47434L0.0356707 -9.96198C0.0366107 -9.97892 0.0379566 -9.9958 0.0397066 -10.0126L0.0877184 -10.4984C0.0894684 -10.5161 0.0916255 -10.5336 0.0941805 -10.5511L0.164188 -11.0343C0.166743 -11.0525 0.169767 -11.0705 0.173267 -11.0884L0.265674 -11.5677C0.269304 -11.5863 0.273334 -11.6047 0.277774 -11.623L0.393382 -12.0973C0.397822 -12.116 0.402798 -12.1347 0.408313 -12.1532L0.547115 -12.6213C0.55263 -12.6401 0.558619 -12.6587 0.565074 -12.6771L0.727085 -13.1377C0.733675 -13.1563 0.74067 -13.1748 0.748065 -13.1931L0.933071 -13.6449C0.940601 -13.6631 0.948539 -13.6812 0.956874 -13.6991L1.16449 -14.141C1.17283 -14.1587 1.18163 -14.1763 1.19091 -14.1936L1.42031 -14.6245C1.42945 -14.6416 1.43894 -14.6584 1.44876 -14.675L1.69934 -15.0941C1.70902 -15.1103 1.71911 -15.1263 1.7296 -15.142L1.99995 -15.5485C2.01017 -15.5638 2.02073 -15.5789 2.03163 -15.5937L2.32094 -15.987C2.33143 -16.0014 2.34226 -16.0154 2.35342 -16.0293L2.66029 -16.409C2.67105 -16.4223 2.68208 -16.4354 2.69338 -16.4482L3.01659 -16.8142C3.02735 -16.8264 3.03844 -16.8384 3.04988 -16.8503L3.38802 -17.2024L3.45682 -17.2717L4.14743 -17.9622L6.90943 -20.7242L8.63574 -22.4505L8.981 -22.7958L13.1241 -26.9389L14.1599 -27.9747L15.5409 -29.3557L18.9935 -32.8083L19.3388 -33.1536L20.7198 -34.5346L22.4461 -36.2609L22.7914 -36.6062L24.8629 -38.6777L27.9703 -41.785L28.3155 -42.1303L28.6608 -42.4756L30.3871 -44.2018L31.0776 -44.8924L32.1134 -45.9281L36.947 -50.7618L37.6375 -51.4523L40.7448 -54.5596L41.7806 -55.5954L42.0894 -55.894C42.1002 -55.9045 42.1111 -55.9148 42.1223 -55.9247L42.486 -56.2503C42.4987 -56.2616 42.5116 -56.2727 42.5247 -56.2834L42.9022 -56.5929C42.9159 -56.6042 42.9298 -56.6151 42.944 -56.6256L43.3351 -56.9179C43.3498 -56.9288 43.3647 -56.9394 43.3799 -56.9496L43.7842 -57.2232C43.7998 -57.2338 43.8157 -57.244 43.8318 -57.2537L44.2489 -57.5075C44.2654 -57.5176 44.282 -57.5272 44.299 -57.5363L44.7281 -57.7691C44.7453 -57.7786 44.7627 -57.7875 44.7804 -57.796L45.2206 -58.007C45.2383 -58.0156 45.2564 -58.0237 45.2746 -58.0312L45.7249 -58.2201C45.7431 -58.2276 45.7615 -58.2347 45.78 -58.2414L46.2393 -58.4071C46.2577 -58.4138 46.2763 -58.42 46.2951 -58.4256L46.7621 -58.5683C46.7806 -58.5739 46.7992 -58.5791 46.8179 -58.5838L47.2915 -58.7029C47.3097 -58.7076 47.3282 -58.7118 47.3467 -58.7156L47.8253 -58.8116C47.8433 -58.8152 47.8615 -58.8185 47.8798 -58.8213L48.3624 -58.8947C48.38 -58.8974 48.3976 -58.8997 48.4152 -58.9016L48.9006 -58.9532C48.9177 -58.955 48.9348 -58.9564 48.9519 -58.9575L49.4391 -58.9877C49.4554 -58.9888 49.4717 -58.9895 49.4881 -58.9898L49.9762 -58.9996C49.9907 -59 50.0053 -59.0001 50.02 -58.9998L50.4295 -58.9928C50.4445 -58.9925 50.4595 -58.992 50.4745 -58.9912L50.962 -58.9643C50.9789 -58.9634 50.9958 -58.962 51.0126 -58.9603L51.4986 -58.9123C51.5161 -58.9105 51.5336 -58.9084 51.5511 -58.9058L52.0343 -58.8358C52.0524 -58.8333 52.0705 -58.8302 52.0885 -58.8267L52.5679 -58.7341C52.5863 -58.7306 52.6047 -58.7267 52.623 -58.7222L53.0973 -58.6066C53.1161 -58.6022 53.1348 -58.5972 53.1532 -58.5917L53.6213 -58.4529C53.6401 -58.4474 53.6587 -58.4414 53.6772 -58.4349L54.1378 -58.2729C54.1563 -58.2663 54.1748 -58.2593 54.193 -58.2519L54.6448 -58.0669C54.6631 -58.0594 54.6812 -58.0515 54.699 -58.0431L55.1411 -57.8355C55.1588 -57.8272 55.1763 -57.8184 55.1935 -57.8091L55.6245 -57.5797C55.6416 -57.5705 55.6584 -57.5611 55.6749 -57.5512L56.0942 -57.3007C56.1103 -57.291 56.1262 -57.2809 56.142 -57.2704L56.5485 -57.0001C56.5638 -56.9898 56.5789 -56.9793 56.5937 -56.9684L56.9871 -56.6791C57.0014 -56.6686 57.0154 -56.6577 57.0293 -56.6466L57.409 -56.3397C57.4223 -56.329 57.4354 -56.3179 57.4481 -56.3066L57.8141 -55.9834C57.8264 -55.9727 57.8384 -55.9616 57.8502 -55.9501L58.2025 -55.612L58.9621 -54.8526L59.9979 -53.8168L63.1053 -50.7095L63.4505 -50.3643L64.4863 -49.3285L66.2125 -47.6022L66.5579 -47.257L67.5937 -46.2212L68.6293 -45.1854L68.9747 -44.8401L69.3199 -44.4949L71.0461 -42.7686L71.3915 -42.4233L71.7367 -42.0781L72.4273 -41.3875L75.5346 -38.2802L75.8797 -37.9349L78.9872 -34.8276L82.0946 -31.7203L82.4398 -31.375L82.785 -31.0298L83.1304 -30.6845L83.8208 -29.994L86.9282 -26.8866L88.6544 -25.1603L88.9996 -24.8151L90.3808 -23.4341L91.0712 -22.7435L94.5238 -19.2909L96.5954 -17.2194L96.894 -16.9106C96.9045 -16.8998 96.9147 -16.8889 96.9247 -16.8777L97.2503 -16.514C97.2616 -16.5013 97.2726 -16.4884 97.2834 -16.4753L97.5928 -16.0978C97.6041 -16.0841 97.615 -16.0702 97.6255 -16.056L97.9179 -15.6649C97.9288 -15.6502 97.9393 -15.6353 97.9496 -15.6201L98.2231 -15.2158C98.2337 -15.2002 98.2439 -15.1843 98.2536 -15.1682L98.5074 -14.7511C98.5175 -14.7346 98.5271 -14.718 98.5363 -14.701L98.7691 -14.2719C98.7785 -14.2547 98.7874 -14.2373 98.7959 -14.2196L99.0069 -13.7794C99.0155 -13.7616 99.0236 -13.7437 99.0312 -13.7255L99.22 -13.2752C99.2275 -13.2569 99.2346 -13.2385 99.2414 -13.22L99.407 -12.7607C99.4137 -12.7423 99.4199 -12.7237 99.4256 -12.7049L99.5682 -12.2379C99.5738 -12.2194 99.5789 -12.2008 99.5838 -12.1821L99.7028 -11.7085C99.7075 -11.6903 99.7118 -11.6718 99.7155 -11.6533L99.8115 -11.1747C99.8152 -11.1567 99.8184 -11.1385 99.8212 -11.1202L99.8947 -10.6376C99.8974 -10.62 99.8996 -10.6024 99.9015 -10.5848L99.9532 -10.0994C99.9549 -10.0823 99.9563 -10.0653 99.9574 -10.0483L99.9877 -9.56087C99.9888 -9.5446 99.9894 -9.52826 99.9897 -9.51185L99.9996 -9.02381C100 -9.00928 100 -8.99469 99.9998 -8.98003L99.9927 -8.57047C99.9924 -8.55554 99.9919 -8.54053 99.9911 -8.52547ZM97.6449 -9.43982L97.6177 -9.87722L97.5716 -10.3104L97.5063 -10.7395L97.4212 -11.1634L97.3158 -11.581L97.1905 -11.9922L97.0449 -12.3959L96.879 -12.7916L96.6934 -13.1787L96.4884 -13.5565L96.2643 -13.9248L96.022 -14.283L95.7621 -14.6309L95.4855 -14.9683L95.1916 -15.2966L94.9366 -15.5606L92.8649 -17.6322L89.4125 -21.0848L89.0671 -21.43L88.722 -21.7753L87.341 -23.1563L86.9957 -23.5016L85.2693 -25.2279L82.1619 -28.3352L81.4715 -29.0258L81.1263 -29.371L80.7809 -29.7163L80.4357 -30.0615L77.3283 -33.1689L74.2211 -36.2762L73.8759 -36.6214L70.7685 -39.7288L70.0779 -40.4193L69.3875 -41.1098L67.6611 -42.8361L66.9707 -43.5266L66.2801 -44.2171L65.9349 -44.5624L64.8991 -45.5982L64.5539 -45.9434L63.1729 -47.3245L61.7917 -48.7055L61.4465 -49.0508L58.3391 -52.1581L57.3035 -53.194L56.5776 -53.9201L56.2431 -54.2413L55.9148 -54.5312L55.5756 -54.8052L55.226 -55.0622L54.8663 -55.3017L54.4965 -55.5226L54.117 -55.7247L53.7286 -55.9071L53.3315 -56.0697L52.9266 -56.2122L52.5144 -56.3342L52.0956 -56.4361L51.6709 -56.5182L51.2412 -56.5804L50.807 -56.6234L50.3674 -56.6478L50.002 -56.6538L49.5602 -56.6449L49.123 -56.6177L48.6894 -56.5717L48.2605 -56.5063L47.8366 -56.4212L47.4189 -56.3159L47.0078 -56.1906L46.6041 -56.0449L46.2084 -55.8791L45.8213 -55.6935L45.4434 -55.4883L45.0752 -55.2643L44.7169 -55.022L44.369 -54.7622L44.0317 -54.4856L43.7034 -54.1916L43.4393 -53.9366L42.4036 -52.9008L39.2962 -49.7935L38.6057 -49.103L33.7721 -44.2694L32.7363 -43.2336L32.0458 -42.5431L30.3195 -40.8168L29.9742 -40.4715L29.629 -40.1263L26.5216 -37.0189L24.4501 -34.9474L24.1048 -34.6021L22.3785 -32.8758L20.9975 -31.4948L20.6522 -31.1495L17.1996 -27.6969L15.8186 -26.3159L14.7828 -25.2801L10.6397 -21.137L10.2945 -20.7917L8.56817 -19.0654L5.80603 -16.3034L5.11563 -15.6128L5.07991 -15.5776L4.75872 -15.2431L4.46881 -14.9147L4.19483 -14.5757L3.93779 -14.2261L3.69831 -13.8662L3.47739 -13.4963L3.27523 -13.117L3.09285 -12.7285L2.93023 -12.3315L2.78779 -11.9266L2.66574 -11.5144L2.56365 -11.0956L2.48174 -10.6709L2.4196 -10.241L2.37662 -9.807L2.35221 -9.36718L2.34616 -9.002L2.35504 -8.56016L2.38227 -8.12296L2.42827 -7.68939L2.49364 -7.26046L2.57878 -6.83658L2.68409 -6.41875L2.80938 -6.00777L2.95505 -5.60406L3.12089 -5.20842L3.30651 -4.82126L3.51149 -4.44337L3.73564 -4.07517L3.97794 -3.71686L4.2378 -3.36903L4.51441 -3.0317L4.80836 -2.70345L5.06337 -2.43935L8.17066 0.668056L9.20645 1.70386L9.55171 2.04906L10.9327 3.43007L13.3496 5.84687L13.6948 6.19207L14.0401 6.53748L14.3853 6.88268L17.4927 9.99008L18.5284 11.0257L20.9453 13.4425L22.6716 15.1689L24.3979 16.8951L24.7431 17.2405L25.4336 17.9309L26.4694 18.9667L26.8147 19.3119L27.1599 19.6573L27.5052 20.0025L27.8505 20.3477L30.6125 23.1099L32.6841 25.1813L33.0293 25.5267L33.7199 26.2171L36.8272 29.3245L38.5535 31.0508L40.9703 33.4676L41.3156 33.813L43.3871 35.8844L43.4224 35.9201L43.7568 36.2413L44.0852 36.5312L44.4243 36.8052L44.7739 37.0622L45.1338 37.3017L45.5036 37.5228L45.8829 37.7248L46.2715 37.9072L46.6684 38.0698L47.0733 38.2122L47.4855 38.3343L47.9044 38.4362L48.329 38.5183L48.759 38.5804L49.193 38.6234L49.6326 38.6478L49.998 38.6539L50.4398 38.645L50.8772 38.6177L51.3104 38.5717L51.7395 38.5064L52.1634 38.4212L52.581 38.3161L52.9922 38.1906L53.3959 38.045L53.7915 37.8791L54.1787 37.6935L54.5566 37.4885L54.9248 37.2644L55.2829 37.0221L55.6309 36.7622L55.9682 36.4856L56.2967 36.1916L56.5606 35.9366L61.7396 30.7578L62.0848 30.4126L62.43 30.0672L62.7752 29.722L63.1206 29.3768L64.5016 27.9956L76.9309 15.5664L77.2763 15.2212L80.7287 11.7685L82.8003 9.69693L83.1457 9.35173L83.4909 9.00653L83.8361 8.66113L84.1813 8.31593L84.5267 7.97073L84.8719 7.62532L85.2171 7.28012L87.9793 4.51812L90.0507 2.44651L90.3961 2.10131L94.1939 -1.69651L94.5391 -2.04191L94.92 -2.42242L95.2412 -2.75673L95.5311 -3.08518L95.8051 -3.42433L96.0621 -3.77377L96.3016 -4.1337L96.5227 -4.50372L96.7247 -4.88281L96.9071 -5.27139L97.0697 -5.66844L97.2121 -6.07336L97.3342 -6.48555L97.4363 -6.90439L97.5182 -7.32908L97.5803 -7.75881L97.6233 -8.19299L97.6477 -8.63261L97.6538 -8.99798L97.6449 -9.43982Z" fill="#3ED99A"/>
</svg>
