<svg width="100" height="50" viewBox="0 0 100 50" fill="none" xmlns="http://www.w3.org/2000/svg">
<rect width="100" height="50" fill="#1E1E1E"/>
<path d="M99.9911 -4.52547L99.9642 -4.03803C99.9633 -4.02109 99.962 -4.00421 99.9602 -3.98739L99.9122 -3.50137C99.9105 -3.48388 99.9083 -3.4664 99.9057 -3.44891L99.8357 -2.96571C99.8332 -2.94755 99.8302 -2.92953 99.8267 -2.91164L99.7343 -2.43228C99.7306 -2.41372 99.7266 -2.39529 99.7221 -2.377L99.6065 -1.90267C99.6021 -1.88384 99.5971 -1.86521 99.5916 -1.84679L99.4528 -1.37872C99.4473 -1.35989 99.4413 -1.34126 99.4349 -1.32283L99.2728 -0.862228C99.2662 -0.843669 99.2592 -0.825236 99.2518 -0.806946L99.0668 -0.355221C99.0593 -0.336931 99.0514 -0.318838 99.043 -0.300953L98.8354 0.141094C98.8271 0.158849 98.8183 0.176331 98.809 0.193546L98.5796 0.624493C98.5705 0.641573 98.561 0.65839 98.5512 0.674934L98.3006 1.09418C98.2909 1.11032 98.2808 1.12626 98.2703 1.14199L98 1.54853C97.9898 1.56386 97.9792 1.57893 97.9683 1.59372L97.679 1.98714C97.6685 2.0014 97.6577 2.01546 97.6465 2.02931L97.3396 2.40901C97.3289 2.42232 97.3178 2.43537 97.3065 2.44815L96.9833 2.81413C96.9726 2.82637 96.9615 2.83841 96.9501 2.85024L96.6119 3.2025L96.1979 3.6169L95.8525 3.9621L89.6379 10.1767L86.8759 12.9389L86.5307 13.2841L86.1853 13.6293L85.8401 13.9747L85.4949 14.3199L85.1495 14.6651L84.8043 15.0103L84.4591 15.3557L84.1139 15.7009L82.3875 17.4271L78.9349 20.8798L78.5897 21.2252L66.1604 33.6544L64.7792 35.0354L64.434 35.3808L64.0888 35.726L63.7434 36.0712L59.9456 39.869L58.2194 41.5954L57.9105 41.894C57.8998 41.9045 57.8888 41.9148 57.8776 41.9247L57.5139 42.2503C57.5012 42.2616 57.4884 42.2727 57.4753 42.2834L57.0977 42.5931C57.0841 42.6043 57.0701 42.6152 57.0559 42.6258L56.6649 42.9179C56.6502 42.9288 56.6353 42.9394 56.6201 42.9496L56.2158 43.2232C56.2002 43.2338 56.1843 43.244 56.1682 43.2537L55.7511 43.5075C55.7346 43.5176 55.7179 43.5272 55.7009 43.5363L55.2718 43.7693C55.2547 43.7786 55.2373 43.7875 55.2195 43.796L54.7793 44.007C54.7615 44.0156 54.7436 44.0237 54.7254 44.0314L54.2751 44.2201C54.2568 44.2276 54.2384 44.2347 54.2198 44.2414L53.7606 44.4071C53.7422 44.4138 53.7237 44.42 53.705 44.4256L53.2379 44.5683C53.2193 44.5739 53.2007 44.5791 53.182 44.5838L52.7085 44.703C52.6902 44.7076 52.6718 44.7118 52.6532 44.7156L52.1747 44.8116C52.1566 44.8152 52.1385 44.8185 52.1202 44.8213L51.6376 44.8947C51.62 44.8974 51.6023 44.8997 51.5847 44.9016L51.0993 44.9532C51.0822 44.955 51.0651 44.9564 51.0481 44.9575L50.5608 44.9877C50.5446 44.9888 50.5282 44.9895 50.5118 44.9897L50.0238 44.9996C50.0092 45 49.9946 45.0001 49.98 44.9998L49.5704 44.9928C49.5555 44.9925 49.5406 44.992 49.5256 44.9912L49.038 44.9643C49.021 44.9634 49.0042 44.962 48.9874 44.9603L48.5015 44.9123C48.4839 44.9105 48.4664 44.9084 48.4489 44.9058L47.9657 44.8358C47.9475 44.8333 47.9295 44.8302 47.9116 44.8267L47.4322 44.7343C47.4137 44.7307 47.3952 44.7267 47.3769 44.7222L46.9026 44.6066C46.8839 44.6022 46.8653 44.5972 46.8467 44.5917L46.3787 44.4529C46.3599 44.4474 46.3413 44.4414 46.3228 44.4349L45.8622 44.2729C45.8436 44.2663 45.8252 44.2593 45.8069 44.2519L45.3551 44.0669C45.3368 44.0594 45.3188 44.0515 45.3009 44.0431L44.859 43.8355C44.8413 43.8272 44.8237 43.8184 44.8064 43.8091L44.3755 43.5797C44.3584 43.5705 44.3416 43.5611 44.325 43.5512L43.9059 43.3007C43.8897 43.291 43.8737 43.2809 43.8579 43.2704L43.4515 43C43.4361 42.9898 43.4211 42.9793 43.4063 42.9684L43.0129 42.6791C42.9986 42.6686 42.9845 42.6577 42.9707 42.6466L42.591 42.3397C42.5777 42.3289 42.5646 42.3179 42.5518 42.3066L42.1858 41.9834C42.1736 41.9726 42.1615 41.9616 42.1497 41.9501L41.7976 41.612L41.7283 41.5432L39.6568 39.4716L39.3115 39.1264L36.8947 36.7095L35.1684 34.9831L32.0611 31.8759L31.3706 31.1853L31.0253 30.8401L28.9538 28.7685L26.1917 26.0065L25.8464 25.6613L25.5012 25.3159L25.1559 24.9707L24.8106 24.6255L23.7749 23.5897L23.0844 22.8991L22.7391 22.5539L21.0128 20.8277L19.2865 19.1013L16.8697 16.6845L16.1792 15.9941L15.8339 15.6487L12.7266 12.5415L12.3813 12.1961L12.0361 11.8509L11.6908 11.5057L9.27399 9.08884L7.89297 7.70785L7.54771 7.36244L6.51192 6.32664L3.40455 3.21943L3.10596 2.91054C3.09547 2.89978 3.08524 2.88882 3.07529 2.87766L2.74966 2.5139C2.73836 2.50125 2.72734 2.48841 2.71657 2.47536L2.40689 2.09768C2.39572 2.08409 2.38489 2.07024 2.3744 2.05612L2.08207 1.66492C2.07117 1.65026 2.06061 1.63533 2.05039 1.62013L1.77681 1.21581C1.76618 1.20021 1.75596 1.18434 1.74614 1.1682L1.49254 0.751171C1.48245 0.734626 1.47283 0.717884 1.46369 0.700939L1.23066 0.271809C1.22138 0.254729 1.21251 0.237306 1.20404 0.219551L0.992999 -0.220673C0.984389 -0.238427 0.97625 -0.256384 0.968585 -0.274544L0.779949 -0.724857C0.772419 -0.743147 0.765288 -0.761576 0.758563 -0.780136L0.592922 -1.23933C0.586197 -1.25775 0.579938 -1.27638 0.574153 -1.29521L0.43172 -1.76207C0.42607 -1.78063 0.420889 -1.79926 0.416179 -1.81796L0.296947 -2.29147C0.292372 -2.30976 0.2882 -2.32819 0.284435 -2.34675L0.188404 -2.82531C0.184774 -2.84334 0.181539 -2.86149 0.178714 -2.87979L0.105274 -3.36238C0.102584 -3.38 0.1003 -3.39762 0.0984148 -3.41524L0.0467638 -3.90066C0.0450138 -3.91774 0.0436045 -3.93483 0.0425295 -3.95191L0.0122637 -4.43914C0.0111887 -4.45542 0.0105195 -4.47176 0.0102495 -4.48817L0.000361828 -4.97621C-4.3171e-05 -4.99073 -0.000106535 -5.00533 0.000163464 -5.01999L0.00722065 -5.42955C0.00749065 -5.44448 0.00802809 -5.45941 0.00883809 -5.47434L0.0356707 -5.96198C0.0366107 -5.97892 0.0379566 -5.9958 0.0397066 -6.01262L0.0877184 -6.49844C0.0894684 -6.51606 0.0916255 -6.53361 0.0941805 -6.5511L0.164188 -7.03431C0.166743 -7.05247 0.169767 -7.07049 0.173267 -7.08838L0.265674 -7.56774C0.269304 -7.5863 0.273334 -7.60473 0.277774 -7.62302L0.393382 -8.09735C0.397822 -8.11604 0.402798 -8.13467 0.408313 -8.15323L0.547115 -8.6213C0.55263 -8.64006 0.558619 -8.65868 0.565074 -8.67715L0.727085 -9.13771C0.733675 -9.15634 0.74067 -9.17479 0.748065 -9.19305L0.933071 -9.64486C0.940601 -9.66314 0.948539 -9.68121 0.956874 -9.69909L1.16449 -10.141C1.17283 -10.1587 1.18163 -10.1763 1.19091 -10.1936L1.42031 -10.6245C1.42945 -10.6416 1.43894 -10.6584 1.44876 -10.675L1.69934 -11.0941C1.70902 -11.1103 1.71911 -11.1263 1.7296 -11.142L1.99995 -11.5485C2.01017 -11.5638 2.02073 -11.5789 2.03163 -11.5937L2.32094 -11.987C2.33143 -12.0014 2.34226 -12.0154 2.35342 -12.0293L2.66029 -12.409C2.67105 -12.4223 2.68208 -12.4354 2.69338 -12.4482L3.01659 -12.8142C3.02735 -12.8264 3.03844 -12.8384 3.04988 -12.8503L3.38802 -13.2024L3.45682 -13.2717L4.14743 -13.9622L6.90943 -16.7242L8.63574 -18.4505L8.981 -18.7958L13.1241 -22.9389L14.1599 -23.9747L15.5409 -25.3557L18.9935 -28.8083L19.3388 -29.1536L20.7198 -30.5346L22.4461 -32.2609L22.7914 -32.6062L24.8629 -34.6777L27.9703 -37.785L28.3155 -38.1303L28.6608 -38.4756L30.3871 -40.2018L31.0776 -40.8924L32.1134 -41.9281L36.947 -46.7618L37.6375 -47.4523L40.7448 -50.5596L41.7806 -51.5954L42.0894 -51.894C42.1002 -51.9045 42.1111 -51.9148 42.1223 -51.9247L42.486 -52.2503C42.4987 -52.2616 42.5116 -52.2727 42.5247 -52.2834L42.9022 -52.5929C42.9159 -52.6042 42.9298 -52.6151 42.944 -52.6256L43.3351 -52.9179C43.3498 -52.9288 43.3647 -52.9394 43.3799 -52.9496L43.7842 -53.2232C43.7998 -53.2338 43.8157 -53.244 43.8318 -53.2537L44.2489 -53.5075C44.2654 -53.5176 44.282 -53.5272 44.299 -53.5363L44.7281 -53.7691C44.7453 -53.7786 44.7627 -53.7875 44.7804 -53.796L45.2206 -54.007C45.2383 -54.0156 45.2564 -54.0237 45.2746 -54.0312L45.7249 -54.2201C45.7431 -54.2276 45.7615 -54.2347 45.78 -54.2414L46.2393 -54.4071C46.2577 -54.4138 46.2763 -54.42 46.2951 -54.4256L46.7621 -54.5683C46.7806 -54.5739 46.7992 -54.5791 46.8179 -54.5838L47.2915 -54.7029C47.3097 -54.7076 47.3282 -54.7118 47.3467 -54.7156L47.8253 -54.8116C47.8433 -54.8152 47.8615 -54.8185 47.8798 -54.8213L48.3624 -54.8947C48.38 -54.8974 48.3976 -54.8997 48.4152 -54.9016L48.9006 -54.9532C48.9177 -54.955 48.9348 -54.9564 48.9519 -54.9575L49.4391 -54.9877C49.4554 -54.9888 49.4717 -54.9895 49.4881 -54.9898L49.9762 -54.9996C49.9907 -55 50.0053 -55.0001 50.02 -54.9998L50.4295 -54.9928C50.4445 -54.9925 50.4595 -54.992 50.4745 -54.9912L50.962 -54.9643C50.9789 -54.9634 50.9958 -54.962 51.0126 -54.9603L51.4986 -54.9123C51.5161 -54.9105 51.5336 -54.9084 51.5511 -54.9058L52.0343 -54.8358C52.0524 -54.8333 52.0705 -54.8302 52.0885 -54.8267L52.5679 -54.7341C52.5863 -54.7306 52.6047 -54.7267 52.623 -54.7222L53.0973 -54.6066C53.1161 -54.6022 53.1348 -54.5972 53.1532 -54.5917L53.6213 -54.4529C53.6401 -54.4474 53.6587 -54.4414 53.6772 -54.4349L54.1378 -54.2729C54.1563 -54.2663 54.1748 -54.2593 54.193 -54.2519L54.6448 -54.0669C54.6631 -54.0594 54.6812 -54.0515 54.699 -54.0431L55.1411 -53.8355C55.1588 -53.8272 55.1763 -53.8184 55.1935 -53.8091L55.6245 -53.5797C55.6416 -53.5705 55.6584 -53.5611 55.6749 -53.5512L56.0942 -53.3007C56.1103 -53.291 56.1262 -53.2809 56.142 -53.2704L56.5485 -53.0001C56.5638 -52.9898 56.5789 -52.9793 56.5937 -52.9684L56.9871 -52.6791C57.0014 -52.6686 57.0154 -52.6577 57.0293 -52.6466L57.409 -52.3397C57.4223 -52.329 57.4354 -52.3179 57.4481 -52.3066L57.8141 -51.9834C57.8264 -51.9727 57.8384 -51.9616 57.8502 -51.9501L58.2025 -51.612L58.9621 -50.8526L59.9979 -49.8168L63.1053 -46.7095L63.4505 -46.3643L64.4863 -45.3285L66.2125 -43.6022L66.5579 -43.257L67.5937 -42.2212L68.6293 -41.1854L68.9747 -40.8401L69.3199 -40.4949L71.0461 -38.7686L71.3915 -38.4233L71.7367 -38.0781L72.4273 -37.3875L75.5346 -34.2802L75.8797 -33.9349L78.9872 -30.8276L82.0946 -27.7203L82.4398 -27.375L82.785 -27.0298L83.1304 -26.6845L83.8208 -25.994L86.9282 -22.8866L88.6544 -21.1603L88.9996 -20.8151L90.3808 -19.4341L91.0712 -18.7435L94.5238 -15.2909L96.5954 -13.2194L96.894 -12.9106C96.9045 -12.8998 96.9147 -12.8889 96.9247 -12.8777L97.2503 -12.514C97.2616 -12.5013 97.2726 -12.4884 97.2834 -12.4753L97.5928 -12.0978C97.6041 -12.0841 97.615 -12.0702 97.6255 -12.056L97.9179 -11.6649C97.9288 -11.6502 97.9393 -11.6353 97.9496 -11.6201L98.2231 -11.2158C98.2337 -11.2002 98.2439 -11.1843 98.2536 -11.1682L98.5074 -10.7511C98.5175 -10.7346 98.5271 -10.718 98.5363 -10.701L98.7691 -10.2719C98.7785 -10.2547 98.7874 -10.2373 98.7959 -10.2196L99.0069 -9.77943C99.0155 -9.76165 99.0236 -9.74366 99.0312 -9.72546L99.22 -9.27516C99.2275 -9.25694 99.2346 -9.23854 99.2414 -9.21996L99.407 -8.76071C99.4137 -8.74227 99.4199 -8.72367 99.4256 -8.70491L99.5682 -8.23795C99.5738 -8.21939 99.5789 -8.20076 99.5838 -8.18206L99.7028 -7.70855C99.7075 -7.69026 99.7118 -7.67183 99.7155 -7.65327L99.8115 -7.17471C99.8152 -7.15668 99.8184 -7.13853 99.8212 -7.12023L99.8947 -6.63763C99.8974 -6.62001 99.8996 -6.60239 99.9015 -6.58477L99.9532 -6.09935C99.9549 -6.08227 99.9563 -6.06526 99.9574 -6.04831L99.9877 -5.56087C99.9888 -5.5446 99.9894 -5.52826 99.9897 -5.51185L99.9996 -5.02381C100 -5.00928 100 -4.99469 99.9998 -4.98003L99.9927 -4.57047C99.9924 -4.55554 99.9919 -4.54053 99.9911 -4.52547ZM97.6449 -5.43982L97.6177 -5.87722L97.5716 -6.31038L97.5063 -6.73951L97.4212 -7.1634L97.3158 -7.58103L97.1905 -7.99221L97.0449 -8.39592L96.879 -8.79158L96.6934 -9.17866L96.4884 -9.55647L96.2643 -9.92479L96.022 -10.283L95.7621 -10.6309L95.4855 -10.9683L95.1916 -11.2966L94.9366 -11.5606L92.8649 -13.6322L89.4125 -17.0848L89.0671 -17.43L88.722 -17.7753L87.341 -19.1563L86.9957 -19.5016L85.2693 -21.2279L82.1619 -24.3352L81.4715 -25.0258L81.1263 -25.371L80.7809 -25.7163L80.4357 -26.0615L77.3283 -29.1689L74.2211 -32.2762L73.8759 -32.6214L70.7685 -35.7288L70.0779 -36.4193L69.3875 -37.1098L67.6611 -38.8361L66.9707 -39.5266L66.2801 -40.2171L65.9349 -40.5624L64.8991 -41.5982L64.5539 -41.9434L63.1729 -43.3245L61.7917 -44.7055L61.4465 -45.0508L58.3391 -48.1581L57.3035 -49.194L56.5776 -49.9201L56.2431 -50.2413L55.9148 -50.5312L55.5756 -50.8052L55.226 -51.0622L54.8663 -51.3017L54.4965 -51.5226L54.117 -51.7247L53.7286 -51.9071L53.3315 -52.0697L52.9266 -52.2122L52.5144 -52.3342L52.0956 -52.4361L51.6709 -52.5182L51.2412 -52.5804L50.807 -52.6234L50.3674 -52.6478L50.002 -52.6538L49.5602 -52.6449L49.123 -52.6177L48.6894 -52.5717L48.2605 -52.5063L47.8366 -52.4212L47.4189 -52.3159L47.0078 -52.1906L46.6041 -52.0449L46.2084 -51.8791L45.8213 -51.6935L45.4434 -51.4883L45.0752 -51.2643L44.7169 -51.022L44.369 -50.7622L44.0317 -50.4856L43.7034 -50.1916L43.4393 -49.9366L42.4036 -48.9008L39.2962 -45.7935L38.6057 -45.103L33.7721 -40.2694L32.7363 -39.2336L32.0458 -38.5431L30.3195 -36.8168L29.9742 -36.4715L29.629 -36.1263L26.5216 -33.0189L24.4501 -30.9474L24.1048 -30.6021L22.3785 -28.8758L20.9975 -27.4948L20.6522 -27.1495L17.1996 -23.6969L15.8186 -22.3159L14.7828 -21.2801L10.6397 -17.137L10.2945 -16.7917L8.56817 -15.0654L5.80603 -12.3034L5.11563 -11.6128L5.07991 -11.5776L4.75872 -11.2431L4.46881 -10.9147L4.19483 -10.5757L3.93779 -10.2261L3.69831 -9.86621L3.47739 -9.49635L3.27523 -9.11697L3.09285 -8.72853L2.93023 -8.33155L2.78779 -7.92662L2.66574 -7.51444L2.56365 -7.0956L2.48174 -6.67091L2.4196 -6.24097L2.37662 -5.807L2.35221 -5.36718L2.34616 -5.002L2.35504 -4.56016L2.38227 -4.12296L2.42827 -3.68939L2.49364 -3.26046L2.57878 -2.83658L2.68409 -2.41875L2.80938 -2.00777L2.95505 -1.60406L3.12089 -1.20842L3.30651 -0.821259L3.51149 -0.443371L3.73564 -0.0751724L3.97794 0.283142L4.2378 0.630966L4.51441 0.968296L4.80836 1.29655L5.06337 1.56065L8.17066 4.66806L9.20645 5.70386L9.55171 6.04906L10.9327 7.43007L13.3496 9.84687L13.6948 10.1921L14.0401 10.5375L14.3853 10.8827L17.4927 13.9901L18.5284 15.0257L20.9453 17.4425L22.6716 19.1689L24.3979 20.8951L24.7431 21.2405L25.4336 21.9309L26.4694 22.9667L26.8147 23.3119L27.1599 23.6573L27.5052 24.0025L27.8505 24.3477L30.6125 27.1099L32.6841 29.1813L33.0293 29.5267L33.7199 30.2171L36.8272 33.3245L38.5535 35.0508L40.9703 37.4676L41.3156 37.813L43.3871 39.8844L43.4224 39.9201L43.7568 40.2413L44.0852 40.5312L44.4243 40.8052L44.7739 41.0622L45.1338 41.3017L45.5036 41.5228L45.8829 41.7248L46.2715 41.9072L46.6684 42.0698L47.0733 42.2122L47.4855 42.3343L47.9044 42.4362L48.329 42.5183L48.759 42.5804L49.193 42.6234L49.6326 42.6478L49.998 42.6539L50.4398 42.645L50.8772 42.6177L51.3104 42.5717L51.7395 42.5064L52.1634 42.4212L52.581 42.3161L52.9922 42.1906L53.3959 42.045L53.7915 41.8791L54.1787 41.6935L54.5566 41.4885L54.9248 41.2644L55.2829 41.0221L55.6309 40.7622L55.9682 40.4856L56.2967 40.1916L56.5606 39.9366L61.7396 34.7578L62.0848 34.4126L62.43 34.0672L62.7752 33.722L63.1206 33.3768L64.5016 31.9956L76.9309 19.5664L77.2763 19.2212L80.7287 15.7685L82.8003 13.6969L83.1457 13.3517L83.4909 13.0065L83.8361 12.6611L84.1813 12.3159L84.5267 11.9707L84.8719 11.6253L85.2171 11.2801L87.9793 8.51812L90.0507 6.44651L90.3961 6.10131L94.1939 2.30349L94.5391 1.95809L94.92 1.57758L95.2412 1.24327L95.5311 0.914818L95.8051 0.575668L96.0621 0.226227L96.3016 -0.133701L96.5227 -0.503716L96.7247 -0.882812L96.9071 -1.27139L97.0697 -1.66844L97.2121 -2.07336L97.3342 -2.48555L97.4363 -2.90439L97.5182 -3.32908L97.5803 -3.75881L97.6233 -4.19299L97.6477 -4.63261L97.6538 -4.99798L97.6449 -5.43982Z" fill="#3ED99A"/>
</svg>
