<svg width="90" height="68" viewBox="0 0 90 68" fill="none" xmlns="http://www.w3.org/2000/svg">
<path d="M94.9943 18.4745L94.9674 18.962C94.9665 18.9789 94.9651 18.9958 94.9634 19.0126L94.9154 19.4986C94.9136 19.5161 94.9115 19.5336 94.9089 19.5511L94.8389 20.0343C94.8363 20.0524 94.8333 20.0705 94.8298 20.0884L94.7374 20.5677C94.7338 20.5863 94.7297 20.6047 94.7253 20.623L94.6097 21.0973C94.6053 21.1162 94.6003 21.1348 94.5948 21.1532L94.456 21.6213C94.4504 21.6401 94.4445 21.6587 94.438 21.6772L94.276 22.1378C94.2694 22.1563 94.2624 22.1748 94.255 22.1931L94.07 22.6448C94.0625 22.6631 94.0545 22.6812 94.0462 22.699L93.8385 23.1411C93.8302 23.1588 93.8214 23.1763 93.8121 23.1935L93.5827 23.6245C93.5736 23.6416 93.5641 23.6584 93.5543 23.6749L93.3037 24.0942C93.294 24.1103 93.2839 24.1263 93.2734 24.142L93.0031 24.5485C92.9929 24.5639 92.9823 24.5789 92.9714 24.5937L92.6821 24.9871C92.6716 25.0014 92.6607 25.0155 92.6496 25.0293L92.3427 25.409C92.3319 25.4223 92.3209 25.4354 92.3096 25.4481L91.9864 25.8141C91.9756 25.8264 91.9645 25.8384 91.9531 25.8502L91.6149 26.2025L91.2009 26.6169L90.8555 26.9621L84.6408 33.1767L81.8786 35.9389L81.5334 36.2841L81.188 36.6293L80.8428 36.9747L80.4976 37.3199L80.1522 37.6651L79.807 38.0103L79.4618 38.3557L79.1166 38.7009L77.3902 40.4271L73.9374 43.8798L73.5922 44.2252L61.1626 56.6544L59.7814 58.0354L59.4362 58.3808L59.091 58.726L58.7456 59.0712L54.9476 62.869L53.2214 64.5954L52.9125 64.894C52.9017 64.9045 52.8908 64.9148 52.8796 64.9247L52.5158 65.2503C52.5032 65.2616 52.4903 65.2727 52.4773 65.2834L52.0995 65.5931C52.086 65.6043 52.072 65.6152 52.0578 65.6258L51.6668 65.9179C51.6521 65.9288 51.6372 65.9394 51.622 65.9496L51.2177 66.2232C51.2021 66.2338 51.1862 66.244 51.17 66.2537L50.753 66.5075C50.7365 66.5176 50.7197 66.5272 50.7028 66.5363L50.2736 66.7693C50.2565 66.7786 50.2391 66.7875 50.2214 66.796L49.7811 67.007C49.7634 67.0156 49.7454 67.0237 49.7273 67.0314L49.2769 67.2201C49.2587 67.2276 49.2402 67.2347 49.2217 67.2414L48.7625 67.4071C48.744 67.4138 48.7255 67.42 48.7068 67.4256L48.2397 67.5683C48.2211 67.5739 48.2025 67.5791 48.1838 67.5838L47.7103 67.703C47.692 67.7076 47.6735 67.7118 47.655 67.7156L47.1764 67.8116C47.1584 67.8152 47.1402 67.8185 47.1219 67.8213L46.6393 67.8947C46.6217 67.8974 46.6041 67.8997 46.5865 67.9016L46.1011 67.9532C46.084 67.955 46.0669 67.9564 46.0498 67.9575L45.5626 67.9877C45.5463 67.9888 45.5299 67.9895 45.5135 67.9897L45.0255 67.9996C45.0109 68 44.9963 68.0001 44.9817 67.9998L44.5721 67.9928C44.5572 67.9925 44.5423 67.992 44.5273 67.9912L44.0397 67.9643C44.0227 67.9634 44.0059 67.962 43.989 67.9603L43.5032 67.9123C43.4856 67.9105 43.468 67.9084 43.4505 67.9058L42.9673 67.8358C42.9492 67.8333 42.9311 67.8302 42.9132 67.8267L42.4339 67.7343C42.4153 67.7307 42.3969 67.7267 42.3786 67.7222L41.9043 67.6066C41.8856 67.6022 41.8669 67.5972 41.8484 67.5917L41.3803 67.4529C41.3615 67.4474 41.3429 67.4414 41.3244 67.4349L40.8639 67.2729C40.8452 67.2663 40.8268 67.2593 40.8085 67.2519L40.3567 67.0669C40.3384 67.0594 40.3204 67.0515 40.3025 67.0431L39.8606 66.8355C39.8428 66.8272 39.8253 66.8184 39.808 66.8091L39.377 66.5797C39.36 66.5705 39.3432 66.5611 39.3266 66.5512L38.9074 66.3007C38.8912 66.291 38.8752 66.2809 38.8595 66.2704L38.453 66C38.4377 65.9898 38.4226 65.9793 38.4078 65.9684L38.0145 65.6791C38.0001 65.6686 37.9861 65.6577 37.9722 65.6466L37.5925 65.3397C37.5792 65.3289 37.5661 65.3179 37.5533 65.3066L37.1873 64.9834C37.1751 64.9726 37.163 64.9616 37.1512 64.9501L36.7991 64.612L36.7298 64.5432L34.6582 62.4716L34.313 62.1264L31.8961 59.7095L30.1698 57.9831L27.0623 54.8759L26.3718 54.1853L26.0265 53.8401L23.9549 51.7685L21.1928 49.0065L20.8475 48.6613L20.5022 48.3159L20.157 47.9707L19.8117 47.6255L18.7759 46.5897L18.0854 45.8991L17.7401 45.5539L16.0137 43.8277L14.2874 42.1013L11.8705 39.6845L11.1799 38.9941L10.8347 38.6487L7.72723 35.5415L7.38196 35.1961L7.03672 34.8509L6.69147 34.5057L4.27457 32.0888L2.8935 30.7078L2.54824 30.3624L1.51242 29.3266L-1.59503 26.2194L-1.89363 25.9105C-1.90412 25.8998 -1.91435 25.8888 -1.9243 25.8777L-2.24994 25.5139C-2.26124 25.5013 -2.27227 25.4884 -2.28303 25.4754L-2.59272 25.0977C-2.60389 25.0841 -2.61472 25.0702 -2.62521 25.0561L-2.91755 24.6649C-2.92845 24.6503 -2.93901 24.6353 -2.94923 24.6201L-3.22282 24.2158C-3.23344 24.2002 -3.24367 24.1843 -3.25349 24.1682L-3.50709 23.7512C-3.51718 23.7346 -3.5268 23.7179 -3.53595 23.7009L-3.76898 23.2718C-3.77826 23.2547 -3.78713 23.2373 -3.7956 23.2196L-4.00664 22.7793C-4.01525 22.7616 -4.02339 22.7436 -4.03106 22.7255L-4.2197 22.2751C-4.22723 22.2569 -4.23436 22.2384 -4.24109 22.2199L-4.40674 21.7607C-4.41346 21.7422 -4.41972 21.7236 -4.4255 21.7048L-4.56794 21.2379C-4.57359 21.2194 -4.57877 21.2007 -4.58348 21.182L-4.70272 20.7085C-4.70729 20.6902 -4.71147 20.6718 -4.71523 20.6532L-4.81126 20.1747C-4.81489 20.1567 -4.81813 20.1385 -4.82095 20.1202L-4.8944 19.6376C-4.89709 19.62 -4.89937 19.6024 -4.90126 19.5848L-4.95291 19.0993C-4.95466 19.0823 -4.95607 19.0652 -4.95714 19.0481L-4.98741 18.5609C-4.98848 18.5446 -4.98915 18.5282 -4.98942 18.5118L-4.99931 18.0238C-4.99972 18.0093 -4.99978 17.9947 -4.99951 17.98L-4.99245 17.5705C-4.99218 17.5555 -4.99164 17.5406 -4.99083 17.5257L-4.964 17.038C-4.96306 17.0211 -4.96171 17.0042 -4.95996 16.9874L-4.91195 16.5016C-4.9102 16.4839 -4.90804 16.4664 -4.90549 16.4489L-4.83548 15.9657C-4.83293 15.9475 -4.8299 15.9295 -4.8264 15.9116L-4.73399 15.4323C-4.73036 15.4137 -4.72633 15.3953 -4.72189 15.377L-4.60628 14.9027C-4.60184 14.884 -4.59687 14.8653 -4.59135 14.8468L-4.45254 14.3787C-4.44703 14.3599 -4.44104 14.3413 -4.43458 14.3229L-12.2629 -10.5823C-12.2563 -10.6009 -12.2493 -10.6193 -12.2419 -10.6376L-12.0569 -11.0894C-12.0494 -11.1077 -12.0414 -11.1258 -12.0331 -11.1436L-11.8255 -11.5855C-11.8171 -11.6033 -11.8083 -11.6208 -11.7991 -11.6381L-11.5697 -12.0691C-11.5605 -12.0861 -11.551 -12.1029 -11.5412 -12.1195L-11.2906 -12.5386C-11.2809 -12.5549 -11.2709 -12.5708 -11.2604 -12.5866L-10.99 -12.9931C-10.9798 -13.0084 -10.9692 -13.0235 -10.9583 -13.0383L-10.669 -13.4316C-10.6585 -13.4459 -10.6477 -13.46 -10.6365 -13.4738L-10.3297 -13.8536C-10.3189 -13.8669 -10.3079 -13.8799 -10.2966 -13.8927L-9.97338 -14.2587C-9.96262 -14.271 -9.95153 -14.283 -9.94009 -14.2948L-9.60195 -14.647L-9.53315 -14.7162L-8.84254 -15.4067L1.89482 -13.8002L3.62112 -15.5265L3.96638 -15.8717L8.10948 -20.0148L9.14525 -21.0506L10.5417 -2.35571L13.9944 -5.8083L14.3396 -6.15356L15.7207 -7.53459L17.4471 -9.26089L17.7924 -9.60615L19.864 -11.6777L22.9714 -14.785L23.3167 -15.1303L23.6619 -15.4756L25.3882 -17.2018L26.0788 -17.8924L27.1146 -18.9281L31.9484 -23.7618L32.6389 -24.4523L35.7463 -27.5596L36.7821 -28.5954L37.0909 -28.894C37.1017 -28.9045 37.1126 -28.9148 37.1238 -28.9247L37.4875 -29.2503C37.5002 -29.2616 37.5131 -29.2727 37.5262 -29.2834L37.9038 -29.5929C37.9174 -29.6042 37.9313 -29.6151 37.9455 -29.6256L38.3367 -29.9179C38.3513 -29.9288 38.3662 -29.9394 38.3814 -29.9496L38.7858 -30.2232C38.8014 -30.2338 38.8173 -30.244 38.8334 -30.2537L39.2504 -30.5075C39.2669 -30.5176 39.2836 -30.5272 39.3005 -30.5363L39.7297 -30.7691C39.7469 -30.7786 39.7643 -30.7875 39.7819 -30.796L40.2221 -31.007C40.2399 -31.0156 40.2579 -31.0237 40.2761 -31.0312L40.7265 -31.2201C40.7447 -31.2276 40.7631 -31.2347 40.7816 -31.2414L41.2409 -31.4071C41.2593 -31.4138 41.2779 -31.42 41.2967 -31.4256L41.7637 -31.5683C41.7822 -31.5739 41.8009 -31.5791 41.8196 -31.5838L42.2931 -31.7029C42.3114 -31.7076 42.3298 -31.7118 42.3484 -31.7156L42.8269 -31.8116C42.845 -31.8152 42.8631 -31.8185 42.8814 -31.8213L43.364 -31.8947C43.3816 -31.8974 43.3993 -31.8997 43.4169 -31.9016L43.9023 -31.9532C43.9194 -31.955 43.9365 -31.9564 43.9536 -31.9575L44.4408 -31.9877C44.4571 -31.9888 44.4734 -31.9895 44.4898 -31.9898L44.9779 -31.9996C44.9924 -32 45.007 -32.0001 45.0217 -31.9998L45.4313 -31.9928C45.4462 -31.9925 45.4612 -31.992 45.4762 -31.9912L45.9637 -31.9643C45.9806 -31.9634 45.9975 -31.962 46.0143 -31.9603L46.5004 -31.9123C46.5179 -31.9105 46.5353 -31.9084 46.5528 -31.9058L47.036 -31.8358C47.0542 -31.8333 47.0723 -31.8302 47.0903 -31.8267L47.5697 -31.7341C47.5881 -31.7306 47.6065 -31.7267 47.6248 -31.7222L48.0991 -31.6066C48.1179 -31.6022 48.1366 -31.5972 48.155 -31.5917L48.6231 -31.4529C48.6419 -31.4474 48.6605 -31.4414 48.679 -31.4349L49.1396 -31.2729C49.1581 -31.2663 49.1766 -31.2593 49.1949 -31.2519L49.6466 -31.0669C49.6649 -31.0594 49.683 -31.0515 49.7009 -31.0431L50.1429 -30.8355C50.1607 -30.8272 50.1782 -30.8184 50.1954 -30.8091L50.6263 -30.5797C50.6434 -30.5705 50.6602 -30.5611 50.6768 -30.5512L51.096 -30.3007C51.1122 -30.291 51.1281 -30.2809 51.1438 -30.2704L51.5504 -30.0001C51.5657 -29.9898 51.5808 -29.9793 51.5956 -29.9684L51.989 -29.6791C52.0033 -29.6686 52.0173 -29.6577 52.0312 -29.6466L52.4109 -29.3397C52.4243 -29.329 52.4373 -29.3179 52.4501 -29.3066L52.8161 -28.9834C52.8283 -28.9727 52.8403 -28.9616 52.8522 -28.9501L53.2044 -28.612L53.9641 -27.8526L54.9999 -26.8168L58.1075 -23.7095L58.4527 -23.3643L59.4885 -22.3285L61.2147 -20.6022L61.5602 -20.257L62.596 -19.2212L63.6316 -18.1854L63.977 -17.8401L64.3222 -17.4949L66.0485 -15.7686L66.3939 -15.4233L66.7392 -15.0781L67.4298 -14.3875L70.537 -11.2802L70.8822 -10.9349L73.9897 -7.82762L77.0972 -4.72028L77.4424 -4.37501L77.7876 -4.02976L78.1331 -3.6845L78.8235 -2.99397L90.9427 -10.9183L92.6689 -9.19202L93.0141 -8.84676L94.3953 -7.46573L95.0857 -6.77521L98.5383 -3.32261L91.5984 9.78063L91.897 10.0894C91.9075 10.1002 91.9178 10.1111 91.9277 10.1223L92.2534 10.486C92.2647 10.4987 92.2757 10.5116 92.2864 10.5247L92.5959 10.9022C92.6072 10.9159 92.6181 10.9298 92.6286 10.944L92.921 11.3351C92.9319 11.3498 92.9424 11.3647 92.9527 11.3799L93.2262 11.7842C93.2368 11.7998 93.247 11.8157 93.2567 11.8318L93.5105 12.2489C93.5206 12.2654 93.5302 12.282 93.5394 12.299L93.7722 12.7281C93.7816 12.7453 93.7905 12.7627 93.799 12.7804L94.0101 13.2206C94.0187 13.2384 94.0268 13.2563 94.0343 13.2745L94.2232 13.7248C94.2307 13.7431 94.2378 13.7615 94.2445 13.78L94.4102 14.2393C94.4169 14.2577 94.4231 14.2763 94.4287 14.2951L94.5714 14.7621C94.5769 14.7806 94.5821 14.7992 94.5869 14.8179L94.706 15.2915C94.7107 15.3097 94.7149 15.3282 94.7187 15.3467L94.8147 15.8253C94.8183 15.8433 94.8216 15.8615 94.8244 15.8798L94.8978 16.3624C94.9005 16.38 94.9028 16.3976 94.9047 16.4152L94.9564 16.9006C94.9581 16.9177 94.9595 16.9347 94.9606 16.9517L94.9908 17.4391C94.9919 17.4554 94.9926 17.4717 94.9929 17.4882L95.0027 17.9762C95.0031 17.9907 95.0032 18.0053 95.003 18.02L94.9959 18.4295C94.9956 18.4445 94.9951 18.4595 94.9943 18.4745ZM92.648 17.5602L92.6207 17.1228L92.5747 16.6896L92.5093 16.2605L92.4242 15.8366L92.3189 15.419L92.1936 15.0078L92.0479 14.6041L91.8821 14.2084L91.6964 13.8213L91.4915 13.4435L91.2673 13.0752L91.025 12.717L90.7651 12.3691L99.5 1L99.2061 0.671688L98.9511 0.407692L96.8794 -1.66386L93.427 -5.11647L93.0816 -5.46171L92.7365 -5.80697L91.3554 -7.18802L91.0102 -7.53328L89.2838 -9.25956L77.1646 -1.33523L76.4742 -2.02576L76.129 -2.371L75.7836 -2.71626L75.4384 -3.06152L72.3308 -6.16885L69.2236 -9.27618L68.8783 -9.62144L65.7709 -12.7288L65.0802 -13.4193L64.3898 -14.1098L62.6633 -15.8361L61.9729 -16.5266L61.2823 -17.2171L60.9371 -17.5624L59.9013 -18.5982L59.5561 -18.9434L58.1751 -20.3245L56.7938 -21.7055L56.4486 -22.0508L53.341 -25.1581L52.3054 -26.194L51.5794 -26.9201L51.2449 -27.2413L50.9167 -27.5312L50.5775 -27.8052L50.2278 -28.0622L49.8681 -28.3017L49.4983 -28.5226L49.1188 -28.7247L48.7304 -28.9071L48.3333 -29.0697L47.9284 -29.2122L47.5162 -29.3342L47.0974 -29.4361L46.6727 -29.5182L46.2429 -29.5804L45.8087 -29.6234L45.3691 -29.6478L45.0037 -29.6538L44.5619 -29.6449L44.1246 -29.6177L43.6911 -29.5717L43.2621 -29.5063L42.8382 -29.4212L42.4206 -29.3159L42.0094 -29.1906L41.6057 -29.0449L41.21 -28.8791L40.8229 -28.6935L40.445 -28.4883L40.0768 -28.2643L39.7185 -28.022L39.3706 -27.7622L39.0332 -27.4856L38.7049 -27.1916L38.4409 -26.9366L37.4051 -25.9008L34.2977 -22.7935L33.6071 -22.103L28.7734 -17.2694L27.7376 -16.2336L27.047 -15.5431L25.3207 -13.8168L24.9754 -13.4715L24.6301 -13.1263L21.5227 -10.0189L19.4511 -7.94737L19.1059 -7.60211L17.3795 -5.87582L15.9984 -4.49478L15.6532 -4.14952L12.185 -20.7729L10.804 -19.3918L9.76821 -18.3561L5.6251 -14.2129L5.27986 -13.8677L-4.4218 -16.51L-7.18394 -13.7479L-7.87434 -13.0574L-7.91006 -13.0221L-8.23125 -12.6877L-8.52116 -12.3593L-8.79514 -12.0202L-9.05218 -11.6706L-9.29166 -11.3108L-9.51258 -10.9409L-9.71474 -10.5615L-1.90675 14.2715L-2.06936 14.6685L-2.21181 15.0734L-2.33387 15.4856L-2.43596 15.9044L-2.51787 16.3291L-2.58001 16.759L-2.62299 17.193L-2.6474 17.6328L-2.65345 17.998L-2.64457 18.4398L-2.61734 18.877L-2.57134 19.3106L-2.50597 19.7395L-2.42083 20.1634L-2.31551 20.5813L-2.19022 20.9922L-2.04454 21.3959L-1.8787 21.7916L-1.69308 22.1787L-1.48809 22.5566L-1.26394 22.9248L-1.02163 23.2831L-0.761764 23.631L-0.485145 23.9683L-0.191187 24.2966L0.063833 24.5606L3.17121 27.6681L4.20702 28.7039L4.55229 29.0491L5.93336 30.4301L8.35024 32.8469L8.6955 33.1921L9.04078 33.5375L9.38604 33.8827L12.4935 36.9901L13.5293 38.0257L15.9462 40.4425L17.6726 42.1689L19.3989 43.8951L19.7442 44.2405L20.4347 44.9309L21.4705 45.9667L21.8158 46.3119L22.161 46.6573L22.5063 47.0025L22.8516 47.3477L25.6137 50.1099L27.6853 52.1813L28.0306 52.5267L28.7211 53.2171L31.8286 56.3245L33.5549 58.0508L35.9718 60.4676L36.317 60.813L38.3887 62.8844L38.4239 62.9201L38.7584 63.2413L39.0868 63.5312L39.4258 63.8052L39.7755 64.0622L40.1353 64.3017L40.5052 64.5228L40.8845 64.7248L41.2731 64.9072L41.67 65.0698L42.075 65.2122L42.4872 65.3343L42.906 65.4362L43.3307 65.5183L43.7607 65.5804L44.1946 65.6234L44.6343 65.6478L44.9997 65.6539L45.4415 65.645L45.8789 65.6177L46.3121 65.5717L46.7412 65.5064L47.1651 65.4212L47.5828 65.3161L47.994 65.1906L48.3977 65.045L48.7933 64.8791L49.1805 64.6935L49.5584 64.4885L49.9266 64.2644L50.2847 64.0221L50.6328 63.7622L50.9701 63.4856L51.2986 63.1916L51.5625 62.9366L56.7417 57.7578L57.0869 57.4126L57.4322 57.0672L57.7774 56.722L58.1228 56.3768L59.5038 54.9956L71.9334 42.5664L72.2788 42.2212L75.7313 38.7685L77.803 36.6969L78.1484 36.3517L78.4936 36.0065L78.8388 35.6611L79.184 35.3159L79.5294 34.9707L79.8746 34.6253L80.2198 34.2801L82.9821 31.5181L85.0536 29.4465L85.399 29.1013L89.1969 25.3035L89.5421 24.9581L89.923 24.5776L90.2442 24.2433L90.5341 23.9148L90.8081 23.5757L91.0651 23.2262L91.3046 22.8663L91.5258 22.4963L91.7277 22.1172L91.9101 21.7286L92.0727 21.3316L92.2152 20.9266L92.3372 20.5145L92.4393 20.0956L92.5212 19.6709L92.5834 19.2412L92.6264 18.807L92.6508 18.3674L92.6568 18.002L92.648 17.5602Z" fill="#3ED99A"/>
<path d="M94.9911 6.47453L94.9642 6.96197C94.9633 6.97891 94.962 6.99579 94.9602 7.01261L94.9122 7.49863C94.9105 7.51612 94.9083 7.5336 94.9057 7.55109L94.8357 8.03429C94.8332 8.05245 94.8302 8.07047 94.8267 8.08836L94.7343 8.56772C94.7306 8.58628 94.7266 8.60471 94.7221 8.623L94.6065 9.09733C94.6021 9.11616 94.5971 9.13479 94.5916 9.15321L94.4528 9.62128C94.4473 9.64011 94.4413 9.65874 94.4349 9.67717L94.2728 10.1378C94.2662 10.1563 94.2592 10.1748 94.2518 10.1931L94.0668 10.6448C94.0593 10.6631 94.0514 10.6812 94.043 10.699L93.8354 11.1411C93.8271 11.1588 93.8183 11.1763 93.809 11.1935L93.5796 11.6245C93.5705 11.6416 93.561 11.6584 93.5512 11.6749L93.3006 12.0942C93.2909 12.1103 93.2808 12.1263 93.2703 12.142L93 12.5485C92.9898 12.5639 92.9792 12.5789 92.9683 12.5937L92.679 12.9871C92.6685 13.0014 92.6577 13.0155 92.6465 13.0293L92.3396 13.409C92.3289 13.4223 92.3178 13.4354 92.3065 13.4481L91.9833 13.8141C91.9726 13.8264 91.9615 13.8384 91.9501 13.8502L91.6119 14.2025L91.1979 14.6169L90.8525 14.9621L84.6379 21.1767L81.8759 23.9389L81.5307 24.2841L81.1853 24.6293L80.8401 24.9747L80.4949 25.3199L80.1495 25.6651L79.8043 26.0103L79.4591 26.3557L79.1139 26.7009L77.3875 28.4271L73.9349 31.8798L73.5897 32.2252L61.1604 44.6544L59.7792 46.0354L59.434 46.3808L59.0888 46.726L58.7434 47.0712L54.9456 50.869L53.2194 52.5954L52.9105 52.894C52.8998 52.9045 52.8888 52.9148 52.8776 52.9247L52.5139 53.2503C52.5012 53.2616 52.4884 53.2727 52.4753 53.2834L52.0977 53.5931C52.0841 53.6043 52.0701 53.6152 52.0559 53.6258L51.6649 53.9179C51.6502 53.9288 51.6353 53.9394 51.6201 53.9496L51.2158 54.2232C51.2002 54.2338 51.1843 54.244 51.1682 54.2537L50.7511 54.5075C50.7346 54.5176 50.7179 54.5272 50.7009 54.5363L50.2718 54.7693C50.2547 54.7786 50.2373 54.7875 50.2195 54.796L49.7793 55.007C49.7615 55.0156 49.7436 55.0237 49.7254 55.0314L49.2751 55.2201C49.2568 55.2276 49.2384 55.2347 49.2198 55.2414L48.7606 55.4071C48.7422 55.4138 48.7237 55.42 48.705 55.4256L48.2379 55.5683C48.2193 55.5739 48.2007 55.5791 48.182 55.5838L47.7085 55.703C47.6902 55.7076 47.6718 55.7118 47.6532 55.7156L47.1747 55.8116C47.1566 55.8152 47.1385 55.8185 47.1202 55.8213L46.6376 55.8947C46.62 55.8974 46.6023 55.8997 46.5847 55.9016L46.0993 55.9532C46.0822 55.955 46.0651 55.9564 46.0481 55.9575L45.5608 55.9877C45.5446 55.9888 45.5282 55.9895 45.5118 55.9897L45.0238 55.9996C45.0092 56 44.9946 56.0001 44.98 55.9998L44.5704 55.9928C44.5555 55.9925 44.5406 55.992 44.5256 55.9912L44.038 55.9643C44.021 55.9634 44.0042 55.962 43.9874 55.9603L43.5015 55.9123C43.4839 55.9105 43.4664 55.9084 43.4489 55.9058L42.9657 55.8358C42.9475 55.8333 42.9295 55.8302 42.9116 55.8267L42.4322 55.7343C42.4137 55.7307 42.3952 55.7267 42.3769 55.7222L41.9026 55.6066C41.8839 55.6022 41.8653 55.5972 41.8467 55.5917L41.3787 55.4529C41.3599 55.4474 41.3413 55.4414 41.3228 55.4349L40.8622 55.2729C40.8436 55.2663 40.8252 55.2593 40.8069 55.2519L40.3551 55.0669C40.3368 55.0594 40.3188 55.0515 40.3009 55.0431L39.859 54.8355C39.8413 54.8272 39.8237 54.8184 39.8064 54.8091L39.3755 54.5797C39.3584 54.5705 39.3416 54.5611 39.325 54.5512L38.9059 54.3007C38.8897 54.291 38.8737 54.2809 38.8579 54.2704L38.4515 54C38.4361 53.9898 38.4211 53.9793 38.4063 53.9684L38.0129 53.6791C37.9986 53.6686 37.9845 53.6577 37.9707 53.6466L37.591 53.3397C37.5777 53.3289 37.5646 53.3179 37.5518 53.3066L37.1858 52.9834C37.1736 52.9726 37.1615 52.9616 37.1497 52.9501L36.7976 52.612L36.7283 52.5432L34.6568 50.4716L34.3115 50.1264L31.8947 47.7095L30.1684 45.9831L27.0611 42.8759L26.3706 42.1853L26.0253 41.8401L23.9538 39.7685L21.1917 37.0065L20.8464 36.6613L20.5012 36.3159L20.1559 35.9707L19.8106 35.6255L18.7749 34.5897L18.0844 33.8991L17.7391 33.5539L16.0128 31.8277L14.2865 30.1013L11.8697 27.6845L11.1792 26.9941L10.8339 26.6487L7.72657 23.5415L7.38131 23.1961L7.03607 22.8509L6.69082 22.5057L4.27399 20.0888L2.89297 18.7078L2.54771 18.3624L1.51192 17.3266L-1.59545 14.2194L-1.89404 13.9105C-1.90453 13.8998 -1.91476 13.8888 -1.92471 13.8777L-2.25034 13.5139C-2.26164 13.5013 -2.27266 13.4884 -2.28343 13.4754L-2.59311 13.0977C-2.60428 13.0841 -2.61511 13.0702 -2.6256 13.0561L-2.91793 12.6649C-2.92883 12.6503 -2.93939 12.6353 -2.94961 12.6201L-3.22319 12.2158C-3.23382 12.2002 -3.24404 12.1843 -3.25386 12.1682L-3.50746 11.7512C-3.51755 11.7346 -3.52717 11.7179 -3.53631 11.7009L-3.76934 11.2718C-3.77862 11.2547 -3.78749 11.2373 -3.79596 11.2196L-4.007 10.7793C-4.01561 10.7616 -4.02375 10.7436 -4.03141 10.7255L-4.22005 10.2751C-4.22758 10.2569 -4.23471 10.2384 -4.24144 10.2199L-4.40708 9.76067C-4.4138 9.74225 -4.42006 9.72362 -4.42585 9.70479L-4.56828 9.23793C-4.57393 9.21937 -4.57911 9.20074 -4.58382 9.18204L-4.70305 8.70853C-4.70763 8.69024 -4.7118 8.67181 -4.71557 8.65325L-4.8116 8.17469C-4.81523 8.15666 -4.81846 8.13851 -4.82129 8.12021L-4.89473 7.63762C-4.89742 7.62 -4.8997 7.60238 -4.90159 7.58476L-4.95324 7.09934C-4.95499 7.08226 -4.9564 7.06517 -4.95747 7.04809L-4.98774 6.56086C-4.98881 6.54458 -4.98948 6.52824 -4.98975 6.51183L-4.99964 6.02379C-5.00004 6.00927 -5.00011 5.99467 -4.99984 5.98001L-4.99278 5.57045C-4.99251 5.55552 -4.99197 5.54059 -4.99116 5.52566L-4.96433 5.03802C-4.96339 5.02108 -4.96204 5.0042 -4.96029 4.98738L-4.91228 4.50156C-4.91053 4.48394 -4.90837 4.46639 -4.90582 4.4489L-4.83581 3.96569C-4.83326 3.94753 -4.83023 3.92951 -4.82673 3.91162L-4.73433 3.43226C-4.7307 3.4137 -4.72667 3.39527 -4.72223 3.37698L-4.60662 2.90265C-4.60218 2.88396 -4.5972 2.86533 -4.59169 2.84677L-4.45289 2.3787C-4.44737 2.35994 -4.44138 2.34132 -4.43493 2.32285L-4.27292 1.86229C-4.26633 1.84366 -4.25933 1.82521 -4.25193 1.80695L-4.06693 1.35514C-4.0594 1.33686 -4.05146 1.31879 -4.04313 1.30091L-3.83551 0.859013C-3.82717 0.841273 -3.81837 0.823748 -3.80909 0.806438L-3.57969 0.375492C-3.57055 0.358437 -3.56106 0.341612 -3.55124 0.325012L-3.30066 -0.0940704C-3.29098 -0.110305 -3.28089 -0.126298 -3.2704 -0.142048L-3.00005 -0.548523C-2.98983 -0.563843 -2.97927 -0.578906 -2.96837 -0.593716L-2.67906 -0.987038C-2.66857 -1.00136 -2.65774 -1.01544 -2.64658 -1.02926L-2.33971 -1.40902C-2.32895 -1.42231 -2.31792 -1.43536 -2.30662 -1.44816L-1.98341 -1.81416C-1.97265 -1.82641 -1.96156 -1.83845 -1.95012 -1.85026L-1.61198 -2.20242L-1.54318 -2.27166L-0.852574 -2.96215L1.90943 -5.72423L3.63574 -7.45053L3.981 -7.79577L8.1241 -11.9389L9.15987 -12.9747L10.5409 -14.3557L13.9935 -17.8083L14.3388 -18.1536L15.7198 -19.5346L17.4461 -21.2609L17.7914 -21.6062L19.8629 -23.6777L22.9703 -26.785L23.3155 -27.1303L23.6608 -27.4756L25.3871 -29.2018L26.0776 -29.8924L27.1134 -30.9281L31.947 -35.7618L32.6375 -36.4523L35.7448 -39.5596L36.7806 -40.5954L37.0894 -40.894C37.1002 -40.9045 37.1111 -40.9148 37.1223 -40.9247L37.486 -41.2503C37.4987 -41.2616 37.5116 -41.2727 37.5247 -41.2834L37.9022 -41.5929C37.9159 -41.6042 37.9298 -41.6151 37.944 -41.6256L38.3351 -41.9179C38.3498 -41.9288 38.3647 -41.9394 38.3799 -41.9496L38.7842 -42.2232C38.7998 -42.2338 38.8157 -42.244 38.8318 -42.2537L39.2489 -42.5075C39.2654 -42.5176 39.282 -42.5272 39.299 -42.5363L39.7281 -42.7691C39.7453 -42.7786 39.7627 -42.7875 39.7804 -42.796L40.2206 -43.007C40.2383 -43.0156 40.2564 -43.0237 40.2746 -43.0312L40.7249 -43.2201C40.7431 -43.2276 40.7615 -43.2347 40.78 -43.2414L41.2393 -43.4071C41.2577 -43.4138 41.2763 -43.42 41.2951 -43.4256L41.7621 -43.5683C41.7806 -43.5739 41.7992 -43.5791 41.8179 -43.5838L42.2915 -43.7029C42.3097 -43.7076 42.3282 -43.7118 42.3467 -43.7156L42.8253 -43.8116C42.8433 -43.8152 42.8615 -43.8185 42.8798 -43.8213L43.3624 -43.8947C43.38 -43.8974 43.3976 -43.8997 43.4152 -43.9016L43.9006 -43.9532C43.9177 -43.955 43.9348 -43.9564 43.9519 -43.9575L44.4391 -43.9877C44.4554 -43.9888 44.4717 -43.9895 44.4881 -43.9898L44.9762 -43.9996C44.9907 -44 45.0053 -44.0001 45.02 -43.9998L45.4295 -43.9928C45.4445 -43.9925 45.4595 -43.992 45.4745 -43.9912L45.962 -43.9643C45.9789 -43.9634 45.9958 -43.962 46.0126 -43.9603L46.4986 -43.9123C46.5161 -43.9105 46.5336 -43.9084 46.5511 -43.9058L47.0343 -43.8358C47.0524 -43.8333 47.0705 -43.8302 47.0885 -43.8267L47.5679 -43.7341C47.5863 -43.7306 47.6047 -43.7267 47.623 -43.7222L48.0973 -43.6066C48.1161 -43.6022 48.1348 -43.5972 48.1532 -43.5917L48.6213 -43.4529C48.6401 -43.4474 48.6587 -43.4414 48.6772 -43.4349L49.1378 -43.2729C49.1563 -43.2663 49.1748 -43.2593 49.193 -43.2519L49.6448 -43.0669C49.6631 -43.0594 49.6812 -43.0515 49.699 -43.0431L50.1411 -42.8355C50.1588 -42.8272 50.1763 -42.8184 50.1935 -42.8091L50.6245 -42.5797C50.6416 -42.5705 50.6584 -42.5611 50.6749 -42.5512L51.0942 -42.3007C51.1103 -42.291 51.1262 -42.2809 51.142 -42.2704L51.5485 -42.0001C51.5638 -41.9898 51.5789 -41.9793 51.5937 -41.9684L51.9871 -41.6791C52.0014 -41.6686 52.0154 -41.6577 52.0293 -41.6466L52.409 -41.3397C52.4223 -41.329 52.4354 -41.3179 52.4481 -41.3066L52.8141 -40.9834C52.8264 -40.9727 52.8384 -40.9616 52.8502 -40.9501L53.2025 -40.612L53.9621 -39.8526L54.9979 -38.8168L58.1053 -35.7095L58.4505 -35.3643L59.4863 -34.3285L61.2125 -32.6022L61.5579 -32.257L62.5937 -31.2212L63.6293 -30.1854L63.9747 -29.8401L64.3199 -29.4949L66.0461 -27.7686L66.3915 -27.4233L66.7367 -27.0781L67.4273 -26.3875L70.5346 -23.2802L70.8797 -22.9349L73.9872 -19.8276L77.0946 -16.7203L77.4398 -16.375L77.785 -16.0298L78.1304 -15.6845L78.8208 -14.994L81.9282 -11.8866L83.6544 -10.1603L83.9996 -9.81508L85.3808 -8.43406L86.0712 -7.74353L89.5238 -4.29094L91.5954 -2.21937L91.894 -1.9106C91.9045 -1.89984 91.9147 -1.88889 91.9247 -1.87774L92.2503 -1.51398C92.2616 -1.50133 92.2726 -1.48845 92.2834 -1.47532L92.5928 -1.09776C92.6041 -1.0841 92.615 -1.07018 92.6255 -1.05602L92.9179 -0.664875C92.9288 -0.650215 92.9393 -0.635308 92.9496 -0.620148L93.2231 -0.215752C93.2337 -0.200152 93.2439 -0.184298 93.2536 -0.168198L93.5074 0.24889C93.5175 0.265355 93.5271 0.28205 93.5363 0.298985L93.7691 0.728073C93.7785 0.745278 93.7874 0.762709 93.7959 0.780369L94.0069 1.22057C94.0155 1.23835 94.0236 1.25634 94.0312 1.27454L94.22 1.72484C94.2275 1.74306 94.2346 1.76146 94.2414 1.78004L94.407 2.23929C94.4137 2.25773 94.4199 2.27633 94.4256 2.29509L94.5682 2.76205C94.5738 2.78061 94.5789 2.79924 94.5838 2.81794L94.7028 3.29145C94.7075 3.30974 94.7118 3.32817 94.7155 3.34673L94.8115 3.82529C94.8152 3.84332 94.8184 3.86147 94.8212 3.87977L94.8947 4.36237C94.8974 4.37999 94.8996 4.39761 94.9015 4.41523L94.9532 4.90065C94.9549 4.91773 94.9563 4.93474 94.9574 4.95169L94.9877 5.43913C94.9888 5.4554 94.9894 5.47174 94.9897 5.48815L94.9996 5.97619C95 5.99072 95.0001 6.00531 94.9998 6.01997L94.9927 6.42953C94.9924 6.44446 94.9919 6.45947 94.9911 6.47453ZM92.6449 5.56018L92.6177 5.12278L92.5716 4.68962L92.5063 4.26049L92.4212 3.8366L92.3158 3.41897L92.1905 3.00779L92.0449 2.60408L91.879 2.20842L91.6934 1.82134L91.4884 1.44353L91.2643 1.07521L91.022 0.716957L90.7621 0.369095L90.4855 0.0316772L90.1916 -0.296635L89.9366 -0.560631L87.8649 -2.63218L84.4125 -6.0848L84.0671 -6.43003L83.722 -6.7753L82.341 -8.15634L81.9957 -8.5016L80.2693 -10.2279L77.1619 -13.3352L76.4715 -14.0258L76.1263 -14.371L75.7809 -14.7163L75.4357 -15.0615L72.3283 -18.1689L69.2211 -21.2762L68.8759 -21.6214L65.7685 -24.7288L65.0779 -25.4193L64.3875 -26.1098L62.6611 -27.8361L61.9707 -28.5266L61.2801 -29.2171L60.9349 -29.5624L59.8991 -30.5982L59.5539 -30.9434L58.1729 -32.3245L56.7917 -33.7055L56.4465 -34.0508L53.3391 -37.1581L52.3035 -38.194L51.5776 -38.9201L51.2431 -39.2413L50.9148 -39.5312L50.5756 -39.8052L50.226 -40.0622L49.8663 -40.3017L49.4965 -40.5226L49.117 -40.7247L48.7286 -40.9071L48.3315 -41.0697L47.9266 -41.2122L47.5144 -41.3342L47.0956 -41.4361L46.6709 -41.5182L46.2412 -41.5804L45.807 -41.6234L45.3674 -41.6478L45.002 -41.6538L44.5602 -41.6449L44.123 -41.6177L43.6894 -41.5717L43.2605 -41.5063L42.8366 -41.4212L42.4189 -41.3159L42.0078 -41.1906L41.6041 -41.0449L41.2084 -40.8791L40.8213 -40.6935L40.4434 -40.4883L40.0752 -40.2643L39.7169 -40.022L39.369 -39.7622L39.0317 -39.4856L38.7034 -39.1916L38.4393 -38.9366L37.4036 -37.9008L34.2962 -34.7935L33.6057 -34.103L28.7721 -29.2694L27.7363 -28.2336L27.0458 -27.5431L25.3195 -25.8168L24.9742 -25.4715L24.629 -25.1263L21.5216 -22.0189L19.4501 -19.9474L19.1048 -19.6021L17.3785 -17.8758L15.9975 -16.4948L15.6522 -16.1495L12.1996 -12.6969L10.8186 -11.3159L9.78282 -10.2801L5.63972 -6.137L5.29447 -5.79175L3.56817 -4.06544L0.806026 -1.30337L0.115627 -0.612846L0.0799136 -0.577579L-0.241276 -0.243114L-0.531193 0.0852585L-0.805172 0.424324L-1.06221 0.773945L-1.30169 1.13379L-1.52261 1.50365L-1.72477 1.88303L-1.90715 2.27147L-2.06977 2.66845L-2.21221 3.07338L-2.33426 3.48556L-2.43635 3.9044L-2.51826 4.32909L-2.5804 4.75903L-2.62338 5.193L-2.64779 5.63282L-2.65384 5.998L-2.64496 6.43984L-2.61773 6.87704L-2.57173 7.31061L-2.50636 7.73954L-2.42122 8.16342L-2.31591 8.58125L-2.19062 8.99223L-2.04495 9.39594L-1.87911 9.79158L-1.69349 10.1787L-1.48851 10.5566L-1.26436 10.9248L-1.02206 11.2831L-0.762204 11.631L-0.485592 11.9683L-0.191639 12.2966L0.0633731 12.5606L3.17066 15.6681L4.20645 16.7039L4.55171 17.0491L5.93275 18.4301L8.34956 20.8469L8.69481 21.1921L9.04007 21.5375L9.38533 21.8827L12.4927 24.9901L13.5284 26.0257L15.9453 28.4425L17.6716 30.1689L19.3979 31.8951L19.7431 32.2405L20.4336 32.9309L21.4694 33.9667L21.8147 34.3119L22.1599 34.6573L22.5052 35.0025L22.8505 35.3477L25.6125 38.1099L27.6841 40.1813L28.0293 40.5267L28.7199 41.2171L31.8272 44.3245L33.5535 46.0508L35.9703 48.4676L36.3156 48.813L38.3871 50.8844L38.4224 50.9201L38.7568 51.2413L39.0852 51.5312L39.4243 51.8052L39.7739 52.0622L40.1338 52.3017L40.5036 52.5228L40.8829 52.7248L41.2715 52.9072L41.6684 53.0698L42.0733 53.2122L42.4855 53.3343L42.9044 53.4362L43.329 53.5183L43.759 53.5804L44.193 53.6234L44.6326 53.6478L44.998 53.6539L45.4398 53.645L45.8772 53.6177L46.3104 53.5717L46.7395 53.5064L47.1634 53.4212L47.581 53.3161L47.9922 53.1906L48.3959 53.045L48.7915 52.8791L49.1787 52.6935L49.5566 52.4885L49.9248 52.2644L50.2829 52.0221L50.6309 51.7622L50.9682 51.4856L51.2967 51.1916L51.5606 50.9366L56.7396 45.7578L57.0848 45.4126L57.43 45.0672L57.7752 44.722L58.1206 44.3768L59.5016 42.9956L71.9309 30.5664L72.2763 30.2212L75.7287 26.7685L77.8003 24.6969L78.1457 24.3517L78.4909 24.0065L78.8361 23.6611L79.1813 23.3159L79.5267 22.9707L79.8719 22.6253L80.2171 22.2801L82.9793 19.5181L85.0507 17.4465L85.3961 17.1013L89.1939 13.3035L89.5391 12.9581L89.92 12.5776L90.2412 12.2433L90.5311 11.9148L90.8051 11.5757L91.0621 11.2262L91.3016 10.8663L91.5227 10.4963L91.7247 10.1172L91.9071 9.72861L92.0697 9.33156L92.2121 8.92664L92.3342 8.51445L92.4363 8.09561L92.5182 7.67092L92.5803 7.24119L92.6233 6.80701L92.6477 6.36739L92.6538 6.00202L92.6449 5.56018Z" fill="#3ED99A"/>
<path d="M94.9911 -5.52547L94.9642 -5.03803C94.9633 -5.02109 94.962 -5.00421 94.9602 -4.98739L94.9122 -4.50137C94.9105 -4.48388 94.9083 -4.4664 94.9057 -4.44891L94.8357 -3.96571C94.8332 -3.94755 94.8302 -3.92953 94.8267 -3.91164L94.7343 -3.43228C94.7306 -3.41372 94.7266 -3.39529 94.7221 -3.377L94.6065 -2.90267C94.6021 -2.88384 94.5971 -2.86521 94.5916 -2.84679L94.4528 -2.37872C94.4473 -2.35989 94.4413 -2.34126 94.4349 -2.32283L94.2728 -1.86223C94.2662 -1.84367 94.2592 -1.82524 94.2518 -1.80695L94.0668 -1.35522C94.0593 -1.33693 94.0514 -1.31884 94.043 -1.30095L93.8354 -0.858906C93.8271 -0.841151 93.8183 -0.823669 93.809 -0.806454L93.5796 -0.375507C93.5705 -0.358427 93.561 -0.34161 93.5512 -0.325066L93.3006 0.0941772C93.2909 0.110317 93.2808 0.12626 93.2703 0.141994L93 0.548527C92.9898 0.563862 92.9792 0.578928 92.9683 0.593723L92.679 0.987144C92.6685 1.0014 92.6577 1.01546 92.6465 1.02931L92.3396 1.40901C92.3289 1.42232 92.3178 1.43537 92.3065 1.44815L91.9833 1.81413C91.9726 1.82637 91.9615 1.83841 91.9501 1.85024L91.6119 2.2025L91.1979 2.6169L90.8525 2.9621L84.6379 9.17671L81.8759 11.9389L81.5307 12.2841L81.1853 12.6293L80.8401 12.9747L80.4949 13.3199L80.1495 13.6651L79.8043 14.0103L79.4591 14.3557L79.1139 14.7009L77.3875 16.4271L73.9349 19.8798L73.5897 20.2252L61.1604 32.6544L59.7792 34.0354L59.434 34.3808L59.0888 34.726L58.7434 35.0712L54.9456 38.869L53.2194 40.5954L52.9105 40.894C52.8998 40.9045 52.8888 40.9148 52.8776 40.9247L52.5139 41.2503C52.5012 41.2616 52.4884 41.2727 52.4753 41.2834L52.0977 41.5931C52.0841 41.6043 52.0701 41.6152 52.0559 41.6258L51.6649 41.9179C51.6502 41.9288 51.6353 41.9394 51.6201 41.9496L51.2158 42.2232C51.2002 42.2338 51.1843 42.244 51.1682 42.2537L50.7511 42.5075C50.7346 42.5176 50.7179 42.5272 50.7009 42.5363L50.2718 42.7693C50.2547 42.7786 50.2373 42.7875 50.2195 42.796L49.7793 43.007C49.7615 43.0156 49.7436 43.0237 49.7254 43.0314L49.2751 43.2201C49.2568 43.2276 49.2384 43.2347 49.2198 43.2414L48.7606 43.4071C48.7422 43.4138 48.7237 43.42 48.705 43.4256L48.2379 43.5683C48.2193 43.5739 48.2007 43.5791 48.182 43.5838L47.7085 43.703C47.6902 43.7076 47.6718 43.7118 47.6532 43.7156L47.1747 43.8116C47.1566 43.8152 47.1385 43.8185 47.1202 43.8213L46.6376 43.8947C46.62 43.8974 46.6023 43.8997 46.5847 43.9016L46.0993 43.9532C46.0822 43.955 46.0651 43.9564 46.0481 43.9575L45.5608 43.9877C45.5446 43.9888 45.5282 43.9895 45.5118 43.9897L45.0238 43.9996C45.0092 44 44.9946 44.0001 44.98 43.9998L44.5704 43.9928C44.5555 43.9925 44.5406 43.992 44.5256 43.9912L44.038 43.9643C44.021 43.9634 44.0042 43.962 43.9874 43.9603L43.5015 43.9123C43.4839 43.9105 43.4664 43.9084 43.4489 43.9058L42.9657 43.8358C42.9475 43.8333 42.9295 43.8302 42.9116 43.8267L42.4322 43.7343C42.4137 43.7307 42.3952 43.7267 42.3769 43.7222L41.9026 43.6066C41.8839 43.6022 41.8653 43.5972 41.8467 43.5917L41.3787 43.4529C41.3599 43.4474 41.3413 43.4414 41.3228 43.4349L40.8622 43.2729C40.8436 43.2663 40.8252 43.2593 40.8069 43.2519L40.3551 43.0669C40.3368 43.0594 40.3188 43.0515 40.3009 43.0431L39.859 42.8355C39.8413 42.8272 39.8237 42.8184 39.8064 42.8091L39.3755 42.5797C39.3584 42.5705 39.3416 42.5611 39.325 42.5512L38.9059 42.3007C38.8897 42.291 38.8737 42.2809 38.8579 42.2704L38.4515 42C38.4361 41.9898 38.4211 41.9793 38.4063 41.9684L38.0129 41.6791C37.9986 41.6686 37.9845 41.6577 37.9707 41.6466L37.591 41.3397C37.5777 41.3289 37.5646 41.3179 37.5518 41.3066L37.1858 40.9834C37.1736 40.9726 37.1615 40.9616 37.1497 40.9501L36.7976 40.612L36.7283 40.5432L34.6568 38.4716L34.3115 38.1264L31.8947 35.7095L30.1684 33.9831L27.0611 30.8759L26.3706 30.1853L26.0253 29.8401L23.9538 27.7685L21.1917 25.0065L20.8464 24.6613L20.5012 24.3159L20.1559 23.9707L19.8106 23.6255L18.7749 22.5897L18.0844 21.8991L17.7391 21.5539L16.0128 19.8277L14.2865 18.1013L11.8697 15.6845L11.1792 14.9941L10.8339 14.6487L7.72657 11.5415L7.38131 11.1961L7.03607 10.8509L6.69082 10.5057L4.27399 8.08884L2.89297 6.70785L2.54771 6.36244L1.51192 5.32664L-1.59545 2.21943L-1.89404 1.91054C-1.90453 1.89978 -1.91476 1.88882 -1.92471 1.87766L-2.25034 1.5139C-2.26164 1.50125 -2.27266 1.48841 -2.28343 1.47536L-2.59311 1.09768C-2.60428 1.08409 -2.61511 1.07024 -2.6256 1.05612L-2.91793 0.664917C-2.92883 0.650257 -2.93939 0.635329 -2.94961 0.620129L-3.22319 0.215813C-3.23382 0.200213 -3.24404 0.184338 -3.25386 0.168198L-3.50746 -0.248829C-3.51755 -0.265374 -3.52717 -0.282116 -3.53631 -0.299061L-3.76934 -0.728191C-3.77862 -0.745271 -3.78749 -0.762694 -3.79596 -0.780449L-4.007 -1.22067C-4.01561 -1.23843 -4.02375 -1.25638 -4.03141 -1.27454L-4.22005 -1.72486C-4.22758 -1.74315 -4.23471 -1.76158 -4.24144 -1.78014L-4.40708 -2.23933C-4.4138 -2.25775 -4.42006 -2.27638 -4.42585 -2.29521L-4.56828 -2.76207C-4.57393 -2.78063 -4.57911 -2.79926 -4.58382 -2.81796L-4.70305 -3.29147C-4.70763 -3.30976 -4.7118 -3.32819 -4.71557 -3.34675L-4.8116 -3.82531C-4.81523 -3.84334 -4.81846 -3.86149 -4.82129 -3.87979L-4.89473 -4.36238C-4.89742 -4.38 -4.8997 -4.39762 -4.90159 -4.41524L-4.95324 -4.90066C-4.95499 -4.91774 -4.9564 -4.93483 -4.95747 -4.95191L-4.98774 -5.43914C-4.98881 -5.45542 -4.98948 -5.47176 -4.98975 -5.48817L-4.99964 -5.97621C-5.00004 -5.99073 -5.00011 -6.00533 -4.99984 -6.01999L-4.99278 -6.42955C-4.99251 -6.44448 -4.99197 -6.45941 -4.99116 -6.47434L-4.96433 -6.96198C-4.96339 -6.97892 -4.96204 -6.9958 -4.96029 -7.01262L-4.91228 -7.49844C-4.91053 -7.51606 -4.90837 -7.53361 -4.90582 -7.5511L-4.83581 -8.03431C-4.83326 -8.05247 -4.83023 -8.07049 -4.82673 -8.08838L-4.73433 -8.56774C-4.7307 -8.5863 -4.72667 -8.60473 -4.72223 -8.62302L-4.60662 -9.09735C-4.60218 -9.11604 -4.5972 -9.13467 -4.59169 -9.15323L-4.45289 -9.6213C-4.44737 -9.64006 -4.44138 -9.65868 -4.43493 -9.67715L-4.27292 -10.1377C-4.26633 -10.1563 -4.25933 -10.1748 -4.25193 -10.1931L-4.06693 -10.6449C-4.0594 -10.6631 -4.05146 -10.6812 -4.04313 -10.6991L-3.83551 -11.141C-3.82717 -11.1587 -3.81837 -11.1763 -3.80909 -11.1936L-3.57969 -11.6245C-3.57055 -11.6416 -3.56106 -11.6584 -3.55124 -11.675L-3.30066 -12.0941C-3.29098 -12.1103 -3.28089 -12.1263 -3.2704 -12.142L-3.00005 -12.5485C-2.98983 -12.5638 -2.97927 -12.5789 -2.96837 -12.5937L-2.67906 -12.987C-2.66857 -13.0014 -2.65774 -13.0154 -2.64658 -13.0293L-2.33971 -13.409C-2.32895 -13.4223 -2.31792 -13.4354 -2.30662 -13.4482L-1.98341 -13.8142C-1.97265 -13.8264 -1.96156 -13.8384 -1.95012 -13.8503L-1.61198 -14.2024L-1.54318 -14.2717L-0.852574 -14.9622L1.90943 -17.7242L3.63574 -19.4505L3.981 -19.7958L8.1241 -23.9389L9.15987 -24.9747L10.5409 -26.3557L13.9935 -29.8083L14.3388 -30.1536L15.7198 -31.5346L17.4461 -33.2609L17.7914 -33.6062L19.8629 -35.6777L22.9703 -38.785L23.3155 -39.1303L23.6608 -39.4756L25.3871 -41.2018L26.0776 -41.8924L27.1134 -42.9281L31.947 -47.7618L32.6375 -48.4523L35.7448 -51.5596L36.7806 -52.5954L37.0894 -52.894C37.1002 -52.9045 37.1111 -52.9148 37.1223 -52.9247L37.486 -53.2503C37.4987 -53.2616 37.5116 -53.2727 37.5247 -53.2834L37.9022 -53.5929C37.9159 -53.6042 37.9298 -53.6151 37.944 -53.6256L38.3351 -53.9179C38.3498 -53.9288 38.3647 -53.9394 38.3799 -53.9496L38.7842 -54.2232C38.7998 -54.2338 38.8157 -54.244 38.8318 -54.2537L39.2489 -54.5075C39.2654 -54.5176 39.282 -54.5272 39.299 -54.5363L39.7281 -54.7691C39.7453 -54.7786 39.7627 -54.7875 39.7804 -54.796L40.2206 -55.007C40.2383 -55.0156 40.2564 -55.0237 40.2746 -55.0312L40.7249 -55.2201C40.7431 -55.2276 40.7615 -55.2347 40.78 -55.2414L41.2393 -55.4071C41.2577 -55.4138 41.2763 -55.42 41.2951 -55.4256L41.7621 -55.5683C41.7806 -55.5739 41.7992 -55.5791 41.8179 -55.5838L42.2915 -55.7029C42.3097 -55.7076 42.3282 -55.7118 42.3467 -55.7156L42.8253 -55.8116C42.8433 -55.8152 42.8615 -55.8185 42.8798 -55.8213L43.3624 -55.8947C43.38 -55.8974 43.3976 -55.8997 43.4152 -55.9016L43.9006 -55.9532C43.9177 -55.955 43.9348 -55.9564 43.9519 -55.9575L44.4391 -55.9877C44.4554 -55.9888 44.4717 -55.9895 44.4881 -55.9898L44.9762 -55.9996C44.9907 -56 45.0053 -56.0001 45.02 -55.9998L45.4295 -55.9928C45.4445 -55.9925 45.4595 -55.992 45.4745 -55.9912L45.962 -55.9643C45.9789 -55.9634 45.9958 -55.962 46.0126 -55.9603L46.4986 -55.9123C46.5161 -55.9105 46.5336 -55.9084 46.5511 -55.9058L47.0343 -55.8358C47.0524 -55.8333 47.0705 -55.8302 47.0885 -55.8267L47.5679 -55.7341C47.5863 -55.7306 47.6047 -55.7267 47.623 -55.7222L48.0973 -55.6066C48.1161 -55.6022 48.1348 -55.5972 48.1532 -55.5917L48.6213 -55.4529C48.6401 -55.4474 48.6587 -55.4414 48.6772 -55.4349L49.1378 -55.2729C49.1563 -55.2663 49.1748 -55.2593 49.193 -55.2519L49.6448 -55.0669C49.6631 -55.0594 49.6812 -55.0515 49.699 -55.0431L50.1411 -54.8355C50.1588 -54.8272 50.1763 -54.8184 50.1935 -54.8091L50.6245 -54.5797C50.6416 -54.5705 50.6584 -54.5611 50.6749 -54.5512L51.0942 -54.3007C51.1103 -54.291 51.1262 -54.2809 51.142 -54.2704L51.5485 -54.0001C51.5638 -53.9898 51.5789 -53.9793 51.5937 -53.9684L51.9871 -53.6791C52.0014 -53.6686 52.0154 -53.6577 52.0293 -53.6466L52.409 -53.3397C52.4223 -53.329 52.4354 -53.3179 52.4481 -53.3066L52.8141 -52.9834C52.8264 -52.9727 52.8384 -52.9616 52.8502 -52.9501L53.2025 -52.612L53.9621 -51.8526L54.9979 -50.8168L58.1053 -47.7095L58.4505 -47.3643L59.4863 -46.3285L61.2125 -44.6022L61.5579 -44.257L62.5937 -43.2212L63.6293 -42.1854L63.9747 -41.8401L64.3199 -41.4949L66.0461 -39.7686L66.3915 -39.4233L66.7367 -39.0781L67.4273 -38.3875L70.5346 -35.2802L70.8797 -34.9349L73.9872 -31.8276L77.0946 -28.7203L77.4398 -28.375L77.785 -28.0298L78.1304 -27.6845L78.8208 -26.994L81.9282 -23.8866L83.6544 -22.1603L83.9996 -21.8151L85.3808 -20.4341L86.0712 -19.7435L89.5238 -16.2909L91.5954 -14.2194L91.894 -13.9106C91.9045 -13.8998 91.9147 -13.8889 91.9247 -13.8777L92.2503 -13.514C92.2616 -13.5013 92.2726 -13.4884 92.2834 -13.4753L92.5928 -13.0978C92.6041 -13.0841 92.615 -13.0702 92.6255 -13.056L92.9179 -12.6649C92.9288 -12.6502 92.9393 -12.6353 92.9496 -12.6201L93.2231 -12.2158C93.2337 -12.2002 93.2439 -12.1843 93.2536 -12.1682L93.5074 -11.7511C93.5175 -11.7346 93.5271 -11.718 93.5363 -11.701L93.7691 -11.2719C93.7785 -11.2547 93.7874 -11.2373 93.7959 -11.2196L94.0069 -10.7794C94.0155 -10.7616 94.0236 -10.7437 94.0312 -10.7255L94.22 -10.2752C94.2275 -10.2569 94.2346 -10.2385 94.2414 -10.22L94.407 -9.76071C94.4137 -9.74227 94.4199 -9.72367 94.4256 -9.70491L94.5682 -9.23795C94.5738 -9.21939 94.5789 -9.20076 94.5838 -9.18206L94.7028 -8.70855C94.7075 -8.69026 94.7118 -8.67183 94.7155 -8.65327L94.8115 -8.17471C94.8152 -8.15668 94.8184 -8.13853 94.8212 -8.12023L94.8947 -7.63763C94.8974 -7.62001 94.8996 -7.60239 94.9015 -7.58477L94.9532 -7.09935C94.9549 -7.08227 94.9563 -7.06526 94.9574 -7.04831L94.9877 -6.56087C94.9888 -6.5446 94.9894 -6.52826 94.9897 -6.51185L94.9996 -6.02381C95 -6.00928 95.0001 -5.99469 94.9998 -5.98003L94.9927 -5.57047C94.9924 -5.55554 94.9919 -5.54053 94.9911 -5.52547ZM92.6449 -6.43982L92.6177 -6.87722L92.5716 -7.31038L92.5063 -7.73951L92.4212 -8.1634L92.3158 -8.58103L92.1905 -8.99221L92.0449 -9.39592L91.879 -9.79158L91.6934 -10.1787L91.4884 -10.5565L91.2643 -10.9248L91.022 -11.283L90.7621 -11.6309L90.4855 -11.9683L90.1916 -12.2966L89.9366 -12.5606L87.8649 -14.6322L84.4125 -18.0848L84.0671 -18.43L83.722 -18.7753L82.341 -20.1563L81.9957 -20.5016L80.2693 -22.2279L77.1619 -25.3352L76.4715 -26.0258L76.1263 -26.371L75.7809 -26.7163L75.4357 -27.0615L72.3283 -30.1689L69.2211 -33.2762L68.8759 -33.6214L65.7685 -36.7288L65.0779 -37.4193L64.3875 -38.1098L62.6611 -39.8361L61.9707 -40.5266L61.2801 -41.2171L60.9349 -41.5624L59.8991 -42.5982L59.5539 -42.9434L58.1729 -44.3245L56.7917 -45.7055L56.4465 -46.0508L53.3391 -49.1581L52.3035 -50.194L51.5776 -50.9201L51.2431 -51.2413L50.9148 -51.5312L50.5756 -51.8052L50.226 -52.0622L49.8663 -52.3017L49.4965 -52.5226L49.117 -52.7247L48.7286 -52.9071L48.3315 -53.0697L47.9266 -53.2122L47.5144 -53.3342L47.0956 -53.4361L46.6709 -53.5182L46.2412 -53.5804L45.807 -53.6234L45.3674 -53.6478L45.002 -53.6538L44.5602 -53.6449L44.123 -53.6177L43.6894 -53.5717L43.2605 -53.5063L42.8366 -53.4212L42.4189 -53.3159L42.0078 -53.1906L41.6041 -53.0449L41.2084 -52.8791L40.8213 -52.6935L40.4434 -52.4883L40.0752 -52.2643L39.7169 -52.022L39.369 -51.7622L39.0317 -51.4856L38.7034 -51.1916L38.4393 -50.9366L37.4036 -49.9008L34.2962 -46.7935L33.6057 -46.103L28.7721 -41.2694L27.7363 -40.2336L27.0458 -39.5431L25.3195 -37.8168L24.9742 -37.4715L24.629 -37.1263L21.5216 -34.0189L19.4501 -31.9474L19.1048 -31.6021L17.3785 -29.8758L15.9975 -28.4948L15.6522 -28.1495L12.1996 -24.6969L10.8186 -23.3159L9.78282 -22.2801L5.63972 -18.137L5.29447 -17.7917L3.56817 -16.0654L0.806026 -13.3034L0.115627 -12.6128L0.0799136 -12.5776L-0.241276 -12.2431L-0.531193 -11.9147L-0.805172 -11.5757L-1.06221 -11.2261L-1.30169 -10.8662L-1.52261 -10.4963L-1.72477 -10.117L-1.90715 -9.72853L-2.06977 -9.33155L-2.21221 -8.92662L-2.33426 -8.51444L-2.43635 -8.0956L-2.51826 -7.67091L-2.5804 -7.24097L-2.62338 -6.807L-2.64779 -6.36718L-2.65384 -6.002L-2.64496 -5.56016L-2.61773 -5.12296L-2.57173 -4.68939L-2.50636 -4.26046L-2.42122 -3.83658L-2.31591 -3.41875L-2.19062 -3.00777L-2.04495 -2.60406L-1.87911 -2.20842L-1.69349 -1.82126L-1.48851 -1.44337L-1.26436 -1.07517L-1.02206 -0.716858L-0.762204 -0.369034L-0.485592 -0.0317039L-0.191639 0.296551L0.0633731 0.560646L3.17066 3.66806L4.20645 4.70386L4.55171 5.04906L5.93275 6.43007L8.34956 8.84687L8.69481 9.19207L9.04007 9.53748L9.38533 9.88268L12.4927 12.9901L13.5284 14.0257L15.9453 16.4425L17.6716 18.1689L19.3979 19.8951L19.7431 20.2405L20.4336 20.9309L21.4694 21.9667L21.8147 22.3119L22.1599 22.6573L22.5052 23.0025L22.8505 23.3477L25.6125 26.1099L27.6841 28.1813L28.0293 28.5267L28.7199 29.2171L31.8272 32.3245L33.5535 34.0508L35.9703 36.4676L36.3156 36.813L38.3871 38.8844L38.4224 38.9201L38.7568 39.2413L39.0852 39.5312L39.4243 39.8052L39.7739 40.0622L40.1338 40.3017L40.5036 40.5228L40.8829 40.7248L41.2715 40.9072L41.6684 41.0698L42.0733 41.2122L42.4855 41.3343L42.9044 41.4362L43.329 41.5183L43.759 41.5804L44.193 41.6234L44.6326 41.6478L44.998 41.6539L45.4398 41.645L45.8772 41.6177L46.3104 41.5717L46.7395 41.5064L47.1634 41.4212L47.581 41.3161L47.9922 41.1906L48.3959 41.045L48.7915 40.8791L49.1787 40.6935L49.5566 40.4885L49.9248 40.2644L50.2829 40.0221L50.6309 39.7622L50.9682 39.4856L51.2967 39.1916L51.5606 38.9366L56.7396 33.7578L57.0848 33.4126L57.43 33.0672L57.7752 32.722L58.1206 32.3768L59.5016 30.9956L71.9309 18.5664L72.2763 18.2212L75.7287 14.7685L77.8003 12.6969L78.1457 12.3517L78.4909 12.0065L78.8361 11.6611L79.1813 11.3159L79.5267 10.9707L79.8719 10.6253L80.2171 10.2801L82.9793 7.51812L85.0507 5.44651L85.3961 5.10131L89.1939 1.30349L89.5391 0.958088L89.92 0.577579L90.2412 0.243271L90.5311 -0.0851822L90.8051 -0.424332L91.0621 -0.773773L91.3016 -1.1337L91.5227 -1.50372L91.7247 -1.88281L91.9071 -2.27139L92.0697 -2.66844L92.2121 -3.07336L92.3342 -3.48555L92.4363 -3.90439L92.5182 -4.32908L92.5803 -4.75881L92.6233 -5.19299L92.6477 -5.63261L92.6538 -5.99798L92.6449 -6.43982Z" fill="#3ED99A"/>
</svg>
