<svg width="100" height="60" viewBox="0 0 100 60" fill="none" xmlns="http://www.w3.org/2000/svg">
<path d="M99.9911 11.4745L99.9642 11.962C99.9633 11.9789 99.962 11.9958 99.9602 12.0126L99.9122 12.4986C99.9105 12.5161 99.9083 12.5336 99.9057 12.5511L99.8357 13.0343C99.8332 13.0524 99.8302 13.0705 99.8267 13.0884L99.7343 13.5677C99.7306 13.5863 99.7266 13.6047 99.7221 13.623L99.6065 14.0973C99.6021 14.1162 99.5971 14.1348 99.5916 14.1532L99.4528 14.6213C99.4473 14.6401 99.4413 14.6587 99.4349 14.6772L99.2728 15.1378C99.2662 15.1563 99.2592 15.1748 99.2518 15.1931L99.0668 15.6448C99.0593 15.6631 99.0514 15.6812 99.043 15.699L98.8354 16.1411C98.8271 16.1588 98.8183 16.1763 98.809 16.1935L98.5796 16.6245C98.5705 16.6416 98.561 16.6584 98.5512 16.6749L98.3006 17.0942C98.2909 17.1103 98.2808 17.1263 98.2703 17.142L98 17.5485C97.9898 17.5639 97.9792 17.5789 97.9683 17.5937L97.679 17.9871C97.6685 18.0014 97.6577 18.0155 97.6465 18.0293L97.3396 18.409C97.3289 18.4223 97.3178 18.4354 97.3065 18.4481L96.9833 18.8141C96.9726 18.8264 96.9615 18.8384 96.9501 18.8502L96.6119 19.2025L96.1979 19.6169L95.8525 19.9621L89.6379 26.1767L86.8759 28.9389L86.5307 29.2841L86.1853 29.6293L85.8401 29.9747L85.4949 30.3199L85.1495 30.6651L84.8043 31.0103L84.4591 31.3557L84.1139 31.7009L82.3875 33.4271L78.9349 36.8798L78.5897 37.2252L66.1604 49.6544L64.7792 51.0354L64.434 51.3808L64.0888 51.726L63.7434 52.0712L59.9456 55.869L58.2194 57.5954L57.9105 57.894C57.8998 57.9045 57.8888 57.9148 57.8776 57.9247L57.5139 58.2503C57.5012 58.2616 57.4884 58.2727 57.4753 58.2834L57.0977 58.5931C57.0841 58.6043 57.0701 58.6152 57.0559 58.6258L56.6649 58.9179C56.6502 58.9288 56.6353 58.9394 56.6201 58.9496L56.2158 59.2232C56.2002 59.2338 56.1843 59.244 56.1682 59.2537L55.7511 59.5075C55.7346 59.5176 55.7179 59.5272 55.7009 59.5363L55.2718 59.7693C55.2547 59.7786 55.2373 59.7875 55.2195 59.796L54.7793 60.007C54.7615 60.0156 54.7436 60.0237 54.7254 60.0314L54.2751 60.2201C54.2568 60.2276 54.2384 60.2347 54.2198 60.2414L53.7606 60.4071C53.7422 60.4138 53.7237 60.42 53.705 60.4256L53.2379 60.5683C53.2193 60.5739 53.2007 60.5791 53.182 60.5838L52.7085 60.703C52.6902 60.7076 52.6718 60.7118 52.6532 60.7156L52.1747 60.8116C52.1566 60.8152 52.1385 60.8185 52.1202 60.8213L51.6376 60.8947C51.62 60.8974 51.6023 60.8997 51.5847 60.9016L51.0993 60.9532C51.0822 60.955 51.0651 60.9564 51.0481 60.9575L50.5608 60.9877C50.5446 60.9888 50.5282 60.9895 50.5118 60.9897L50.0238 60.9996C50.0092 61 49.9946 61.0001 49.98 60.9998L49.5704 60.9928C49.5555 60.9925 49.5406 60.992 49.5256 60.9912L49.038 60.9643C49.021 60.9634 49.0042 60.962 48.9874 60.9603L48.5015 60.9123C48.4839 60.9105 48.4664 60.9084 48.4489 60.9058L47.9657 60.8358C47.9475 60.8333 47.9295 60.8302 47.9116 60.8267L47.4322 60.7343C47.4137 60.7307 47.3952 60.7267 47.3769 60.7222L46.9026 60.6066C46.8839 60.6022 46.8653 60.5972 46.8467 60.5917L46.3787 60.4529C46.3599 60.4474 46.3413 60.4414 46.3228 60.4349L45.8622 60.2729C45.8436 60.2663 45.8252 60.2593 45.8069 60.2519L45.3551 60.0669C45.3368 60.0594 45.3188 60.0515 45.3009 60.0431L44.859 59.8355C44.8413 59.8272 44.8237 59.8184 44.8064 59.8091L44.3755 59.5797C44.3584 59.5705 44.3416 59.5611 44.325 59.5512L43.9059 59.3007C43.8897 59.291 43.8737 59.2809 43.8579 59.2704L43.4515 59C43.4361 58.9898 43.4211 58.9793 43.4063 58.9684L43.0129 58.6791C42.9986 58.6686 42.9845 58.6577 42.9707 58.6466L42.591 58.3397C42.5777 58.3289 42.5646 58.3179 42.5518 58.3066L42.1858 57.9834C42.1736 57.9726 42.1615 57.9616 42.1497 57.9501L41.7976 57.612L41.7283 57.5432L39.6568 55.4716L39.3115 55.1264L36.8947 52.7095L35.1684 50.9831L32.0611 47.8759L31.3706 47.1853L31.0253 46.8401L28.9538 44.7685L26.1917 42.0065L25.8464 41.6613L25.5012 41.3159L25.1559 40.9707L24.8106 40.6255L23.7749 39.5897L23.0844 38.8991L22.7391 38.5539L21.0128 36.8277L19.2865 35.1013L16.8697 32.6845L16.1792 31.9941L15.8339 31.6487L12.7266 28.5415L12.3813 28.1961L12.0361 27.8509L11.6908 27.5057L9.27399 25.0888L7.89297 23.7078L7.54771 23.3624L6.51192 22.3266L3.40455 19.2194L3.10596 18.9105C3.09547 18.8998 3.08524 18.8888 3.07529 18.8777L2.74966 18.5139C2.73836 18.5013 2.72734 18.4884 2.71657 18.4754L2.40689 18.0977C2.39572 18.0841 2.38489 18.0702 2.3744 18.0561L2.08207 17.6649C2.07117 17.6503 2.06061 17.6353 2.05039 17.6201L1.77681 17.2158C1.76618 17.2002 1.75596 17.1843 1.74614 17.1682L1.49254 16.7512C1.48245 16.7346 1.47283 16.7179 1.46369 16.7009L1.23066 16.2718C1.22138 16.2547 1.21251 16.2373 1.20404 16.2196L0.992999 15.7793C0.984389 15.7616 0.97625 15.7436 0.968585 15.7255L0.779949 15.2751C0.772419 15.2569 0.765288 15.2384 0.758563 15.2199L0.592922 14.7607C0.586197 14.7422 0.579938 14.7236 0.574153 14.7048L0.43172 14.2379C0.42607 14.2194 0.420889 14.2007 0.416179 14.182L0.296947 13.7085C0.292372 13.6902 0.2882 13.6718 0.284435 13.6532L0.188404 13.1747C0.184774 13.1567 0.181539 13.1385 0.178714 13.1202L0.105274 12.6376C0.102584 12.62 0.1003 12.6024 0.0984148 12.5848L0.0467638 12.0993C0.0450138 12.0823 0.0436045 12.0652 0.0425295 12.0481L0.0122637 11.5609C0.0111887 11.5446 0.0105195 11.5282 0.0102495 11.5118L0.000361828 11.0238C-4.3171e-05 11.0093 -0.000106535 10.9947 0.000163464 10.98L0.00722065 10.5705C0.00749065 10.5555 0.00802809 10.5406 0.00883809 10.5257L0.0356707 10.038C0.0366107 10.0211 0.0379566 10.0042 0.0397066 9.98738L0.0877184 9.50156C0.0894684 9.48394 0.0916255 9.46639 0.0941805 9.4489L0.164188 8.96569C0.166743 8.94753 0.169767 8.92951 0.173267 8.91162L0.265674 8.43226C0.269304 8.4137 0.273334 8.39527 0.277774 8.37698L0.393382 7.90265C0.397822 7.88396 0.402798 7.86533 0.408313 7.84677L0.547115 7.3787C0.55263 7.35994 0.558619 7.34132 0.565074 7.32285L0.727085 6.86229C0.733675 6.84366 0.74067 6.82521 0.748065 6.80695L0.933071 6.35514C0.940601 6.33686 0.948539 6.31879 0.956874 6.30091L1.16449 5.85901C1.17283 5.84127 1.18163 5.82375 1.19091 5.80644L1.42031 5.37549C1.42945 5.35844 1.43894 5.34161 1.44876 5.32501L1.69934 4.90593C1.70902 4.88969 1.71911 4.8737 1.7296 4.85795L1.99995 4.45148C2.01017 4.43616 2.02073 4.42109 2.03163 4.40628L2.32094 4.01296C2.33143 3.99864 2.34226 3.98456 2.35342 3.97074L2.66029 3.59098C2.67105 3.57769 2.68208 3.56464 2.69338 3.55184L3.01659 3.18584C3.02735 3.17359 3.03844 3.16155 3.04988 3.14974L3.38802 2.79758L3.45682 2.72834L4.14743 2.03785L6.90943 -0.724228L8.63574 -2.45053L8.981 -2.79577L13.1241 -6.93888L14.1599 -7.97467L15.5409 -9.35571L18.9935 -12.8083L19.3388 -13.1536L20.7198 -14.5346L22.4461 -16.2609L22.7914 -16.6062L24.8629 -18.6777L27.9703 -21.785L28.3155 -22.1303L28.6608 -22.4756L30.3871 -24.2018L31.0776 -24.8924L32.1134 -25.9281L36.947 -30.7618L37.6375 -31.4523L40.7448 -34.5596L41.7806 -35.5954L42.0894 -35.894C42.1002 -35.9045 42.1111 -35.9148 42.1223 -35.9247L42.486 -36.2503C42.4987 -36.2616 42.5116 -36.2727 42.5247 -36.2834L42.9022 -36.5929C42.9159 -36.6042 42.9298 -36.6151 42.944 -36.6256L43.3351 -36.9179C43.3498 -36.9288 43.3647 -36.9394 43.3799 -36.9496L43.7842 -37.2232C43.7998 -37.2338 43.8157 -37.244 43.8318 -37.2537L44.2489 -37.5075C44.2654 -37.5176 44.282 -37.5272 44.299 -37.5363L44.7281 -37.7691C44.7453 -37.7786 44.7627 -37.7875 44.7804 -37.796L45.2206 -38.007C45.2383 -38.0156 45.2564 -38.0237 45.2746 -38.0312L45.7249 -38.2201C45.7431 -38.2276 45.7615 -38.2347 45.78 -38.2414L46.2393 -38.4071C46.2577 -38.4138 46.2763 -38.42 46.2951 -38.4256L46.7621 -38.5683C46.7806 -38.5739 46.7992 -38.5791 46.8179 -38.5838L47.2915 -38.7029C47.3097 -38.7076 47.3282 -38.7118 47.3467 -38.7156L47.8253 -38.8116C47.8433 -38.8152 47.8615 -38.8185 47.8798 -38.8213L48.3624 -38.8947C48.38 -38.8974 48.3976 -38.8997 48.4152 -38.9016L48.9006 -38.9532C48.9177 -38.955 48.9348 -38.9564 48.9519 -38.9575L49.4391 -38.9877C49.4554 -38.9888 49.4717 -38.9895 49.4881 -38.9898L49.9762 -38.9996C49.9907 -39 50.0053 -39.0001 50.02 -38.9998L50.4295 -38.9928C50.4445 -38.9925 50.4595 -38.992 50.4745 -38.9912L50.962 -38.9643C50.9789 -38.9634 50.9958 -38.962 51.0126 -38.9603L51.4986 -38.9123C51.5161 -38.9105 51.5336 -38.9084 51.5511 -38.9058L52.0343 -38.8358C52.0524 -38.8333 52.0705 -38.8302 52.0885 -38.8267L52.5679 -38.7341C52.5863 -38.7306 52.6047 -38.7267 52.623 -38.7222L53.0973 -38.6066C53.1161 -38.6022 53.1348 -38.5972 53.1532 -38.5917L53.6213 -38.4529C53.6401 -38.4474 53.6587 -38.4414 53.6772 -38.4349L54.1378 -38.2729C54.1563 -38.2663 54.1748 -38.2593 54.193 -38.2519L54.6448 -38.0669C54.6631 -38.0594 54.6812 -38.0515 54.699 -38.0431L55.1411 -37.8355C55.1588 -37.8272 55.1763 -37.8184 55.1935 -37.8091L55.6245 -37.5797C55.6416 -37.5705 55.6584 -37.5611 55.6749 -37.5512L56.0942 -37.3007C56.1103 -37.291 56.1262 -37.2809 56.142 -37.2704L56.5485 -37.0001C56.5638 -36.9898 56.5789 -36.9793 56.5937 -36.9684L56.9871 -36.6791C57.0014 -36.6686 57.0154 -36.6577 57.0293 -36.6466L57.409 -36.3397C57.4223 -36.329 57.4354 -36.3179 57.4481 -36.3066L57.8141 -35.9834C57.8264 -35.9727 57.8384 -35.9616 57.8502 -35.9501L58.2025 -35.612L58.9621 -34.8526L59.9979 -33.8168L63.1053 -30.7095L63.4505 -30.3643L64.4863 -29.3285L66.2125 -27.6022L66.5579 -27.257L67.5937 -26.2212L68.6293 -25.1854L68.9747 -24.8401L69.3199 -24.4949L71.0461 -22.7686L71.3915 -22.4233L71.7367 -22.0781L72.4273 -21.3875L75.5346 -18.2802L75.8797 -17.9349L78.9872 -14.8276L82.0946 -11.7203L82.4398 -11.375L82.785 -11.0298L83.1304 -10.6845L83.8208 -9.99397L86.9282 -6.88665L88.6544 -5.16034L88.9996 -4.81508L90.3808 -3.43406L91.0712 -2.74353L94.5238 0.709064L96.5954 2.78063L96.894 3.0894C96.9045 3.10016 96.9147 3.11111 96.9247 3.12226L97.2503 3.48602C97.2616 3.49867 97.2726 3.51155 97.2834 3.52468L97.5928 3.90224C97.6041 3.9159 97.615 3.92982 97.6255 3.94398L97.9179 4.33512C97.9288 4.34978 97.9393 4.36469 97.9496 4.37985L98.2231 4.78425C98.2337 4.79985 98.2439 4.8157 98.2536 4.8318L98.5074 5.24889C98.5175 5.26535 98.5271 5.28205 98.5363 5.29898L98.7691 5.72807C98.7785 5.74528 98.7874 5.76271 98.7959 5.78037L99.0069 6.22057C99.0155 6.23835 99.0236 6.25634 99.0312 6.27454L99.22 6.72484C99.2275 6.74306 99.2346 6.76146 99.2414 6.78004L99.407 7.23929C99.4137 7.25773 99.4199 7.27633 99.4256 7.29509L99.5682 7.76205C99.5738 7.78061 99.5789 7.79924 99.5838 7.81794L99.7028 8.29145C99.7075 8.30974 99.7118 8.32817 99.7155 8.34673L99.8115 8.82529C99.8152 8.84332 99.8184 8.86147 99.8212 8.87977L99.8947 9.36237C99.8974 9.37999 99.8996 9.39761 99.9015 9.41523L99.9532 9.90065C99.9549 9.91773 99.9563 9.93474 99.9574 9.95169L99.9877 10.4391C99.9888 10.4554 99.9894 10.4717 99.9897 10.4882L99.9996 10.9762C100 10.9907 100 11.0053 99.9998 11.02L99.9927 11.4295C99.9924 11.4445 99.9919 11.4595 99.9911 11.4745ZM97.6449 10.5602L97.6177 10.1228L97.5716 9.68962L97.5063 9.26049L97.4212 8.8366L97.3158 8.41897L97.1905 8.00779L97.0449 7.60408L96.879 7.20842L96.6934 6.82134L96.4884 6.44353L96.2643 6.07521L96.022 5.71696L95.7621 5.36909L95.4855 5.03168L95.1916 4.70337L94.9366 4.43937L92.8649 2.36782L89.4125 -1.0848L89.0671 -1.43003L88.722 -1.7753L87.341 -3.15634L86.9957 -3.5016L85.2693 -5.22789L82.1619 -8.33523L81.4715 -9.02576L81.1263 -9.371L80.7809 -9.71626L80.4357 -10.0615L77.3283 -13.1689L74.2211 -16.2762L73.8759 -16.6214L70.7685 -19.7288L70.0779 -20.4193L69.3875 -21.1098L67.6611 -22.8361L66.9707 -23.5266L66.2801 -24.2171L65.9349 -24.5624L64.8991 -25.5982L64.5539 -25.9434L63.1729 -27.3245L61.7917 -28.7055L61.4465 -29.0508L58.3391 -32.1581L57.3035 -33.194L56.5776 -33.9201L56.2431 -34.2413L55.9148 -34.5312L55.5756 -34.8052L55.226 -35.0622L54.8663 -35.3017L54.4965 -35.5226L54.117 -35.7247L53.7286 -35.9071L53.3315 -36.0697L52.9266 -36.2122L52.5144 -36.3342L52.0956 -36.4361L51.6709 -36.5182L51.2412 -36.5804L50.807 -36.6234L50.3674 -36.6478L50.002 -36.6538L49.5602 -36.6449L49.123 -36.6177L48.6894 -36.5717L48.2605 -36.5063L47.8366 -36.4212L47.4189 -36.3159L47.0078 -36.1906L46.6041 -36.0449L46.2084 -35.8791L45.8213 -35.6935L45.4434 -35.4883L45.0752 -35.2643L44.7169 -35.022L44.369 -34.7622L44.0317 -34.4856L43.7034 -34.1916L43.4393 -33.9366L42.4036 -32.9008L39.2962 -29.7935L38.6057 -29.103L33.7721 -24.2694L32.7363 -23.2336L32.0458 -22.5431L30.3195 -20.8168L29.9742 -20.4715L29.629 -20.1263L26.5216 -17.0189L24.4501 -14.9474L24.1048 -14.6021L22.3785 -12.8758L20.9975 -11.4948L20.6522 -11.1495L17.1996 -7.69693L15.8186 -6.31589L14.7828 -5.28012L10.6397 -1.137L10.2945 -0.791748L8.56817 0.934559L5.80603 3.69663L5.11563 4.38715L5.07991 4.42242L4.75872 4.75689L4.46881 5.08526L4.19483 5.42432L3.93779 5.77394L3.69831 6.13379L3.47739 6.50365L3.27523 6.88303L3.09285 7.27147L2.93023 7.66845L2.78779 8.07338L2.66574 8.48556L2.56365 8.9044L2.48174 9.32909L2.4196 9.75903L2.37662 10.193L2.35221 10.6328L2.34616 10.998L2.35504 11.4398L2.38227 11.877L2.42827 12.3106L2.49364 12.7395L2.57878 13.1634L2.68409 13.5813L2.80938 13.9922L2.95505 14.3959L3.12089 14.7916L3.30651 15.1787L3.51149 15.5566L3.73564 15.9248L3.97794 16.2831L4.2378 16.631L4.51441 16.9683L4.80836 17.2966L5.06337 17.5606L8.17066 20.6681L9.20645 21.7039L9.55171 22.0491L10.9327 23.4301L13.3496 25.8469L13.6948 26.1921L14.0401 26.5375L14.3853 26.8827L17.4927 29.9901L18.5284 31.0257L20.9453 33.4425L22.6716 35.1689L24.3979 36.8951L24.7431 37.2405L25.4336 37.9309L26.4694 38.9667L26.8147 39.3119L27.1599 39.6573L27.5052 40.0025L27.8505 40.3477L30.6125 43.1099L32.6841 45.1813L33.0293 45.5267L33.7199 46.2171L36.8272 49.3245L38.5535 51.0508L40.9703 53.4676L41.3156 53.813L43.3871 55.8844L43.4224 55.9201L43.7568 56.2413L44.0852 56.5312L44.4243 56.8052L44.7739 57.0622L45.1338 57.3017L45.5036 57.5228L45.8829 57.7248L46.2715 57.9072L46.6684 58.0698L47.0733 58.2122L47.4855 58.3343L47.9044 58.4362L48.329 58.5183L48.759 58.5804L49.193 58.6234L49.6326 58.6478L49.998 58.6539L50.4398 58.645L50.8772 58.6177L51.3104 58.5717L51.7395 58.5064L52.1634 58.4212L52.581 58.3161L52.9922 58.1906L53.3959 58.045L53.7915 57.8791L54.1787 57.6935L54.5566 57.4885L54.9248 57.2644L55.2829 57.0221L55.6309 56.7622L55.9682 56.4856L56.2967 56.1916L56.5606 55.9366L61.7396 50.7578L62.0848 50.4126L62.43 50.0672L62.7752 49.722L63.1206 49.3768L64.5016 47.9956L76.9309 35.5664L77.2763 35.2212L80.7287 31.7685L82.8003 29.6969L83.1457 29.3517L83.4909 29.0065L83.8361 28.6611L84.1813 28.3159L84.5267 27.9707L84.8719 27.6253L85.2171 27.2801L87.9793 24.5181L90.0507 22.4465L90.3961 22.1013L94.1939 18.3035L94.5391 17.9581L94.92 17.5776L95.2412 17.2433L95.5311 16.9148L95.8051 16.5757L96.0621 16.2262L96.3016 15.8663L96.5227 15.4963L96.7247 15.1172L96.9071 14.7286L97.0697 14.3316L97.2121 13.9266L97.3342 13.5145L97.4363 13.0956L97.5182 12.6709L97.5803 12.2412L97.6233 11.807L97.6477 11.3674L97.6538 11.002L97.6449 10.5602Z" fill="#3ED99A"/>
<path d="M99.9911 -0.525467L99.9642 -0.0380325C99.9633 -0.0210877 99.962 -0.00420731 99.9602 0.0126076L99.9122 0.498634C99.9105 0.516119 99.9083 0.533602 99.9057 0.551086L99.8357 1.03429C99.8332 1.05245 99.8302 1.07047 99.8267 1.08836L99.7343 1.56772C99.7306 1.58628 99.7266 1.60471 99.7221 1.623L99.6065 2.09733C99.6021 2.11616 99.5971 2.13479 99.5916 2.15321L99.4528 2.62128C99.4473 2.64011 99.4413 2.65874 99.4349 2.67717L99.2728 3.13777C99.2662 3.15633 99.2592 3.17476 99.2518 3.19305L99.0668 3.64478C99.0593 3.66307 99.0514 3.68116 99.043 3.69905L98.8354 4.14109C98.8271 4.15885 98.8183 4.17633 98.809 4.19355L98.5796 4.62449C98.5705 4.64157 98.561 4.65839 98.5512 4.67493L98.3006 5.09418C98.2909 5.11032 98.2808 5.12626 98.2703 5.14199L98 5.54853C97.9898 5.56386 97.9792 5.57893 97.9683 5.59372L97.679 5.98714C97.6685 6.0014 97.6577 6.01546 97.6465 6.02931L97.3396 6.40901C97.3289 6.42232 97.3178 6.43537 97.3065 6.44815L96.9833 6.81413C96.9726 6.82637 96.9615 6.83841 96.9501 6.85024L96.6119 7.2025L96.1979 7.6169L95.8525 7.9621L89.6379 14.1767L86.8759 16.9389L86.5307 17.2841L86.1853 17.6293L85.8401 17.9747L85.4949 18.3199L85.1495 18.6651L84.8043 19.0103L84.4591 19.3557L84.1139 19.7009L82.3875 21.4271L78.9349 24.8798L78.5897 25.2252L66.1604 37.6544L64.7792 39.0354L64.434 39.3808L64.0888 39.726L63.7434 40.0712L59.9456 43.869L58.2194 45.5954L57.9105 45.894C57.8998 45.9045 57.8888 45.9148 57.8776 45.9247L57.5139 46.2503C57.5012 46.2616 57.4884 46.2727 57.4753 46.2834L57.0977 46.5931C57.0841 46.6043 57.0701 46.6152 57.0559 46.6258L56.6649 46.9179C56.6502 46.9288 56.6353 46.9394 56.6201 46.9496L56.2158 47.2232C56.2002 47.2338 56.1843 47.244 56.1682 47.2537L55.7511 47.5075C55.7346 47.5176 55.7179 47.5272 55.7009 47.5363L55.2718 47.7693C55.2547 47.7786 55.2373 47.7875 55.2195 47.796L54.7793 48.007C54.7615 48.0156 54.7436 48.0237 54.7254 48.0314L54.2751 48.2201C54.2568 48.2276 54.2384 48.2347 54.2198 48.2414L53.7606 48.4071C53.7422 48.4138 53.7237 48.42 53.705 48.4256L53.2379 48.5683C53.2193 48.5739 53.2007 48.5791 53.182 48.5838L52.7085 48.703C52.6902 48.7076 52.6718 48.7118 52.6532 48.7156L52.1747 48.8116C52.1566 48.8152 52.1385 48.8185 52.1202 48.8213L51.6376 48.8947C51.62 48.8974 51.6023 48.8997 51.5847 48.9016L51.0993 48.9532C51.0822 48.955 51.0651 48.9564 51.0481 48.9575L50.5608 48.9877C50.5446 48.9888 50.5282 48.9895 50.5118 48.9897L50.0238 48.9996C50.0092 49 49.9946 49.0001 49.98 48.9998L49.5704 48.9928C49.5555 48.9925 49.5406 48.992 49.5256 48.9912L49.038 48.9643C49.021 48.9634 49.0042 48.962 48.9874 48.9603L48.5015 48.9123C48.4839 48.9105 48.4664 48.9084 48.4489 48.9058L47.9657 48.8358C47.9475 48.8333 47.9295 48.8302 47.9116 48.8267L47.4322 48.7343C47.4137 48.7307 47.3952 48.7267 47.3769 48.7222L46.9026 48.6066C46.8839 48.6022 46.8653 48.5972 46.8467 48.5917L46.3787 48.4529C46.3599 48.4474 46.3413 48.4414 46.3228 48.4349L45.8622 48.2729C45.8436 48.2663 45.8252 48.2593 45.8069 48.2519L45.3551 48.0669C45.3368 48.0594 45.3188 48.0515 45.3009 48.0431L44.859 47.8355C44.8413 47.8272 44.8237 47.8184 44.8064 47.8091L44.3755 47.5797C44.3584 47.5705 44.3416 47.5611 44.325 47.5512L43.9059 47.3007C43.8897 47.291 43.8737 47.2809 43.8579 47.2704L43.4515 47C43.4361 46.9898 43.4211 46.9793 43.4063 46.9684L43.0129 46.6791C42.9986 46.6686 42.9845 46.6577 42.9707 46.6466L42.591 46.3397C42.5777 46.3289 42.5646 46.3179 42.5518 46.3066L42.1858 45.9834C42.1736 45.9726 42.1615 45.9616 42.1497 45.9501L41.7976 45.612L41.7283 45.5432L39.6568 43.4716L39.3115 43.1264L36.8947 40.7095L35.1684 38.9831L32.0611 35.8759L31.3706 35.1853L31.0253 34.8401L28.9538 32.7685L26.1917 30.0065L25.8464 29.6613L25.5012 29.3159L25.1559 28.9707L24.8106 28.6255L23.7749 27.5897L23.0844 26.8991L22.7391 26.5539L21.0128 24.8277L19.2865 23.1013L16.8697 20.6845L16.1792 19.9941L15.8339 19.6487L12.7266 16.5415L12.3813 16.1961L12.0361 15.8509L11.6908 15.5057L9.27399 13.0888L7.89297 11.7078L7.54771 11.3624L6.51192 10.3266L3.40455 7.21943L3.10596 6.91054C3.09547 6.89978 3.08524 6.88882 3.07529 6.87766L2.74966 6.5139C2.73836 6.50125 2.72734 6.48841 2.71657 6.47536L2.40689 6.09768C2.39572 6.08409 2.38489 6.07024 2.3744 6.05612L2.08207 5.66492C2.07117 5.65026 2.06061 5.63533 2.05039 5.62013L1.77681 5.21581C1.76618 5.20021 1.75596 5.18434 1.74614 5.1682L1.49254 4.75117C1.48245 4.73463 1.47283 4.71788 1.46369 4.70094L1.23066 4.27181C1.22138 4.25473 1.21251 4.23731 1.20404 4.21955L0.992999 3.77933C0.984389 3.76157 0.97625 3.74362 0.968585 3.72546L0.779949 3.27514C0.772419 3.25685 0.765288 3.23842 0.758563 3.21986L0.592922 2.76067C0.586197 2.74225 0.579938 2.72362 0.574153 2.70479L0.43172 2.23793C0.42607 2.21937 0.420889 2.20074 0.416179 2.18204L0.296947 1.70853C0.292372 1.69024 0.2882 1.67181 0.284435 1.65325L0.188404 1.17469C0.184774 1.15666 0.181539 1.13851 0.178714 1.12021L0.105274 0.637619C0.102584 0.619999 0.1003 0.602379 0.0984148 0.584759L0.0467638 0.0993385C0.0450138 0.0822587 0.0436045 0.0651718 0.0425295 0.0480919L0.0122637 -0.439144C0.0111887 -0.455419 0.0105195 -0.471757 0.0102495 -0.488167L0.000361828 -0.976208C-4.3171e-05 -0.990733 -0.000106535 -1.00533 0.000163464 -1.01999L0.00722065 -1.42955C0.00749065 -1.44448 0.00802809 -1.45941 0.00883809 -1.47434L0.0356707 -1.96198C0.0366107 -1.97892 0.0379566 -1.9958 0.0397066 -2.01262L0.0877184 -2.49844C0.0894684 -2.51606 0.0916255 -2.53361 0.0941805 -2.5511L0.164188 -3.03431C0.166743 -3.05247 0.169767 -3.07049 0.173267 -3.08838L0.265674 -3.56774C0.269304 -3.5863 0.273334 -3.60473 0.277774 -3.62302L0.393382 -4.09735C0.397822 -4.11604 0.402798 -4.13467 0.408313 -4.15323L0.547115 -4.6213C0.55263 -4.64006 0.558619 -4.65868 0.565074 -4.67715L0.727085 -5.13771C0.733675 -5.15634 0.74067 -5.17479 0.748065 -5.19305L0.933071 -5.64486C0.940601 -5.66314 0.948539 -5.68121 0.956874 -5.69909L1.16449 -6.14099C1.17283 -6.15873 1.18163 -6.17625 1.19091 -6.19356L1.42031 -6.62451C1.42945 -6.64156 1.43894 -6.65839 1.44876 -6.67499L1.69934 -7.09407C1.70902 -7.11031 1.71911 -7.1263 1.7296 -7.14205L1.99995 -7.54852C2.01017 -7.56384 2.02073 -7.57891 2.03163 -7.59372L2.32094 -7.98704C2.33143 -8.00136 2.34226 -8.01544 2.35342 -8.02926L2.66029 -8.40902C2.67105 -8.42231 2.68208 -8.43536 2.69338 -8.44816L3.01659 -8.81416C3.02735 -8.82641 3.03844 -8.83845 3.04988 -8.85026L3.38802 -9.20242L3.45682 -9.27166L4.14743 -9.96215L6.90943 -12.7242L8.63574 -14.4505L8.981 -14.7958L13.1241 -18.9389L14.1599 -19.9747L15.5409 -21.3557L18.9935 -24.8083L19.3388 -25.1536L20.7198 -26.5346L22.4461 -28.2609L22.7914 -28.6062L24.8629 -30.6777L27.9703 -33.785L28.3155 -34.1303L28.6608 -34.4756L30.3871 -36.2018L31.0776 -36.8924L32.1134 -37.9281L36.947 -42.7618L37.6375 -43.4523L40.7448 -46.5596L41.7806 -47.5954L42.0894 -47.894C42.1002 -47.9045 42.1111 -47.9148 42.1223 -47.9247L42.486 -48.2503C42.4987 -48.2616 42.5116 -48.2727 42.5247 -48.2834L42.9022 -48.5929C42.9159 -48.6042 42.9298 -48.6151 42.944 -48.6256L43.3351 -48.9179C43.3498 -48.9288 43.3647 -48.9394 43.3799 -48.9496L43.7842 -49.2232C43.7998 -49.2338 43.8157 -49.244 43.8318 -49.2537L44.2489 -49.5075C44.2654 -49.5176 44.282 -49.5272 44.299 -49.5363L44.7281 -49.7691C44.7453 -49.7786 44.7627 -49.7875 44.7804 -49.796L45.2206 -50.007C45.2383 -50.0156 45.2564 -50.0237 45.2746 -50.0312L45.7249 -50.2201C45.7431 -50.2276 45.7615 -50.2347 45.78 -50.2414L46.2393 -50.4071C46.2577 -50.4138 46.2763 -50.42 46.2951 -50.4256L46.7621 -50.5683C46.7806 -50.5739 46.7992 -50.5791 46.8179 -50.5838L47.2915 -50.7029C47.3097 -50.7076 47.3282 -50.7118 47.3467 -50.7156L47.8253 -50.8116C47.8433 -50.8152 47.8615 -50.8185 47.8798 -50.8213L48.3624 -50.8947C48.38 -50.8974 48.3976 -50.8997 48.4152 -50.9016L48.9006 -50.9532C48.9177 -50.955 48.9348 -50.9564 48.9519 -50.9575L49.4391 -50.9877C49.4554 -50.9888 49.4717 -50.9895 49.4881 -50.9898L49.9762 -50.9996C49.9907 -51 50.0053 -51.0001 50.02 -50.9998L50.4295 -50.9928C50.4445 -50.9925 50.4595 -50.992 50.4745 -50.9912L50.962 -50.9643C50.9789 -50.9634 50.9958 -50.962 51.0126 -50.9603L51.4986 -50.9123C51.5161 -50.9105 51.5336 -50.9084 51.5511 -50.9058L52.0343 -50.8358C52.0524 -50.8333 52.0705 -50.8302 52.0885 -50.8267L52.5679 -50.7341C52.5863 -50.7306 52.6047 -50.7267 52.623 -50.7222L53.0973 -50.6066C53.1161 -50.6022 53.1348 -50.5972 53.1532 -50.5917L53.6213 -50.4529C53.6401 -50.4474 53.6587 -50.4414 53.6772 -50.4349L54.1378 -50.2729C54.1563 -50.2663 54.1748 -50.2593 54.193 -50.2519L54.6448 -50.0669C54.6631 -50.0594 54.6812 -50.0515 54.699 -50.0431L55.1411 -49.8355C55.1588 -49.8272 55.1763 -49.8184 55.1935 -49.8091L55.6245 -49.5797C55.6416 -49.5705 55.6584 -49.5611 55.6749 -49.5512L56.0942 -49.3007C56.1103 -49.291 56.1262 -49.2809 56.142 -49.2704L56.5485 -49.0001C56.5638 -48.9898 56.5789 -48.9793 56.5937 -48.9684L56.9871 -48.6791C57.0014 -48.6686 57.0154 -48.6577 57.0293 -48.6466L57.409 -48.3397C57.4223 -48.329 57.4354 -48.3179 57.4481 -48.3066L57.8141 -47.9834C57.8264 -47.9727 57.8384 -47.9616 57.8502 -47.9501L58.2025 -47.612L58.9621 -46.8526L59.9979 -45.8168L63.1053 -42.7095L63.4505 -42.3643L64.4863 -41.3285L66.2125 -39.6022L66.5579 -39.257L67.5937 -38.2212L68.6293 -37.1854L68.9747 -36.8401L69.3199 -36.4949L71.0461 -34.7686L71.3915 -34.4233L71.7367 -34.0781L72.4273 -33.3875L75.5346 -30.2802L75.8797 -29.9349L78.9872 -26.8276L82.0946 -23.7203L82.4398 -23.375L82.785 -23.0298L83.1304 -22.6845L83.8208 -21.994L86.9282 -18.8866L88.6544 -17.1603L88.9996 -16.8151L90.3808 -15.4341L91.0712 -14.7435L94.5238 -11.2909L96.5954 -9.21937L96.894 -8.9106C96.9045 -8.89984 96.9147 -8.88889 96.9247 -8.87774L97.2503 -8.51398C97.2616 -8.50133 97.2726 -8.48845 97.2834 -8.47532L97.5928 -8.09776C97.6041 -8.0841 97.615 -8.07018 97.6255 -8.05602L97.9179 -7.66488C97.9288 -7.65022 97.9393 -7.63531 97.9496 -7.62015L98.2231 -7.21575C98.2337 -7.20015 98.2439 -7.1843 98.2536 -7.1682L98.5074 -6.75111C98.5175 -6.73465 98.5271 -6.71795 98.5363 -6.70102L98.7691 -6.27193C98.7785 -6.25472 98.7874 -6.23729 98.7959 -6.21963L99.0069 -5.77943C99.0155 -5.76165 99.0236 -5.74366 99.0312 -5.72546L99.22 -5.27516C99.2275 -5.25694 99.2346 -5.23854 99.2414 -5.21996L99.407 -4.76071C99.4137 -4.74227 99.4199 -4.72367 99.4256 -4.70491L99.5682 -4.23795C99.5738 -4.21939 99.5789 -4.20076 99.5838 -4.18206L99.7028 -3.70855C99.7075 -3.69026 99.7118 -3.67183 99.7155 -3.65327L99.8115 -3.17471C99.8152 -3.15668 99.8184 -3.13853 99.8212 -3.12023L99.8947 -2.63763C99.8974 -2.62001 99.8996 -2.60239 99.9015 -2.58477L99.9532 -2.09935C99.9549 -2.08227 99.9563 -2.06526 99.9574 -2.04831L99.9877 -1.56087C99.9888 -1.5446 99.9894 -1.52826 99.9897 -1.51185L99.9996 -1.02381C100 -1.00928 100 -0.994686 99.9998 -0.980026L99.9927 -0.570469C99.9924 -0.555539 99.9919 -0.540532 99.9911 -0.525467ZM97.6449 -1.43982L97.6177 -1.87722L97.5716 -2.31038L97.5063 -2.73951L97.4212 -3.1634L97.3158 -3.58103L97.1905 -3.99221L97.0449 -4.39592L96.879 -4.79158L96.6934 -5.17866L96.4884 -5.55647L96.2643 -5.92479L96.022 -6.28304L95.7621 -6.63091L95.4855 -6.96832L95.1916 -7.29663L94.9366 -7.56063L92.8649 -9.63218L89.4125 -13.0848L89.0671 -13.43L88.722 -13.7753L87.341 -15.1563L86.9957 -15.5016L85.2693 -17.2279L82.1619 -20.3352L81.4715 -21.0258L81.1263 -21.371L80.7809 -21.7163L80.4357 -22.0615L77.3283 -25.1689L74.2211 -28.2762L73.8759 -28.6214L70.7685 -31.7288L70.0779 -32.4193L69.3875 -33.1098L67.6611 -34.8361L66.9707 -35.5266L66.2801 -36.2171L65.9349 -36.5624L64.8991 -37.5982L64.5539 -37.9434L63.1729 -39.3245L61.7917 -40.7055L61.4465 -41.0508L58.3391 -44.1581L57.3035 -45.194L56.5776 -45.9201L56.2431 -46.2413L55.9148 -46.5312L55.5756 -46.8052L55.226 -47.0622L54.8663 -47.3017L54.4965 -47.5226L54.117 -47.7247L53.7286 -47.9071L53.3315 -48.0697L52.9266 -48.2122L52.5144 -48.3342L52.0956 -48.4361L51.6709 -48.5182L51.2412 -48.5804L50.807 -48.6234L50.3674 -48.6478L50.002 -48.6538L49.5602 -48.6449L49.123 -48.6177L48.6894 -48.5717L48.2605 -48.5063L47.8366 -48.4212L47.4189 -48.3159L47.0078 -48.1906L46.6041 -48.0449L46.2084 -47.8791L45.8213 -47.6935L45.4434 -47.4883L45.0752 -47.2643L44.7169 -47.022L44.369 -46.7622L44.0317 -46.4856L43.7034 -46.1916L43.4393 -45.9366L42.4036 -44.9008L39.2962 -41.7935L38.6057 -41.103L33.7721 -36.2694L32.7363 -35.2336L32.0458 -34.5431L30.3195 -32.8168L29.9742 -32.4715L29.629 -32.1263L26.5216 -29.0189L24.4501 -26.9474L24.1048 -26.6021L22.3785 -24.8758L20.9975 -23.4948L20.6522 -23.1495L17.1996 -19.6969L15.8186 -18.3159L14.7828 -17.2801L10.6397 -13.137L10.2945 -12.7917L8.56817 -11.0654L5.80603 -8.30337L5.11563 -7.61285L5.07991 -7.57758L4.75872 -7.24311L4.46881 -6.91474L4.19483 -6.57568L3.93779 -6.22606L3.69831 -5.86621L3.47739 -5.49635L3.27523 -5.11697L3.09285 -4.72853L2.93023 -4.33155L2.78779 -3.92662L2.66574 -3.51444L2.56365 -3.0956L2.48174 -2.67091L2.4196 -2.24097L2.37662 -1.807L2.35221 -1.36718L2.34616 -1.002L2.35504 -0.560162L2.38227 -0.122963L2.42827 0.310608L2.49364 0.739536L2.57878 1.16342L2.68409 1.58125L2.80938 1.99223L2.95505 2.39594L3.12089 2.79158L3.30651 3.17874L3.51149 3.55663L3.73564 3.92483L3.97794 4.28314L4.2378 4.63097L4.51441 4.9683L4.80836 5.29655L5.06337 5.56065L8.17066 8.66806L9.20645 9.70386L9.55171 10.0491L10.9327 11.4301L13.3496 13.8469L13.6948 14.1921L14.0401 14.5375L14.3853 14.8827L17.4927 17.9901L18.5284 19.0257L20.9453 21.4425L22.6716 23.1689L24.3979 24.8951L24.7431 25.2405L25.4336 25.9309L26.4694 26.9667L26.8147 27.3119L27.1599 27.6573L27.5052 28.0025L27.8505 28.3477L30.6125 31.1099L32.6841 33.1813L33.0293 33.5267L33.7199 34.2171L36.8272 37.3245L38.5535 39.0508L40.9703 41.4676L41.3156 41.813L43.3871 43.8844L43.4224 43.9201L43.7568 44.2413L44.0852 44.5312L44.4243 44.8052L44.7739 45.0622L45.1338 45.3017L45.5036 45.5228L45.8829 45.7248L46.2715 45.9072L46.6684 46.0698L47.0733 46.2122L47.4855 46.3343L47.9044 46.4362L48.329 46.5183L48.759 46.5804L49.193 46.6234L49.6326 46.6478L49.998 46.6539L50.4398 46.645L50.8772 46.6177L51.3104 46.5717L51.7395 46.5064L52.1634 46.4212L52.581 46.3161L52.9922 46.1906L53.3959 46.045L53.7915 45.8791L54.1787 45.6935L54.5566 45.4885L54.9248 45.2644L55.2829 45.0221L55.6309 44.7622L55.9682 44.4856L56.2967 44.1916L56.5606 43.9366L61.7396 38.7578L62.0848 38.4126L62.43 38.0672L62.7752 37.722L63.1206 37.3768L64.5016 35.9956L76.9309 23.5664L77.2763 23.2212L80.7287 19.7685L82.8003 17.6969L83.1457 17.3517L83.4909 17.0065L83.8361 16.6611L84.1813 16.3159L84.5267 15.9707L84.8719 15.6253L85.2171 15.2801L87.9793 12.5181L90.0507 10.4465L90.3961 10.1013L94.1939 6.30349L94.5391 5.95809L94.92 5.57758L95.2412 5.24327L95.5311 4.91482L95.8051 4.57567L96.0621 4.22623L96.3016 3.8663L96.5227 3.49628L96.7247 3.11719L96.9071 2.72861L97.0697 2.33156L97.2121 1.92664L97.3342 1.51445L97.4363 1.09561L97.5182 0.670921L97.5803 0.241188L97.6233 -0.192986L97.6477 -0.632607L97.6538 -0.997982L97.6449 -1.43982Z" fill="#3ED99A"/>
<path d="M99.9911 -12.5255L99.9642 -12.038C99.9633 -12.0211 99.962 -12.0042 99.9602 -11.9874L99.9122 -11.5014C99.9105 -11.4839 99.9083 -11.4664 99.9057 -11.4489L99.8357 -10.9657C99.8332 -10.9476 99.8302 -10.9295 99.8267 -10.9116L99.7343 -10.4323C99.7306 -10.4137 99.7266 -10.3953 99.7221 -10.377L99.6065 -9.90267C99.6021 -9.88384 99.5971 -9.86521 99.5916 -9.84679L99.4528 -9.37872C99.4473 -9.35989 99.4413 -9.34126 99.4349 -9.32283L99.2728 -8.86223C99.2662 -8.84367 99.2592 -8.82524 99.2518 -8.80695L99.0668 -8.35522C99.0593 -8.33693 99.0514 -8.31884 99.043 -8.30095L98.8354 -7.85891C98.8271 -7.84115 98.8183 -7.82367 98.809 -7.80645L98.5796 -7.37551C98.5705 -7.35843 98.561 -7.34161 98.5512 -7.32507L98.3006 -6.90582C98.2909 -6.88968 98.2808 -6.87374 98.2703 -6.85801L98 -6.45147C97.9898 -6.43614 97.9792 -6.42107 97.9683 -6.40628L97.679 -6.01286C97.6685 -5.9986 97.6577 -5.98454 97.6465 -5.97069L97.3396 -5.59099C97.3289 -5.57768 97.3178 -5.56463 97.3065 -5.55185L96.9833 -5.18587C96.9726 -5.17363 96.9615 -5.16159 96.9501 -5.14976L96.6119 -4.7975L96.1979 -4.3831L95.8525 -4.0379L89.6379 2.17671L86.8759 4.93893L86.5307 5.28413L86.1853 5.62933L85.8401 5.97473L85.4949 6.31993L85.1495 6.66513L84.8043 7.01033L84.4591 7.35574L84.1139 7.70094L82.3875 9.42714L78.9349 12.8798L78.5897 13.2252L66.1604 25.6544L64.7792 27.0354L64.434 27.3808L64.0888 27.726L63.7434 28.0712L59.9456 31.869L58.2194 33.5954L57.9105 33.894C57.8998 33.9045 57.8888 33.9148 57.8776 33.9247L57.5139 34.2503C57.5012 34.2616 57.4884 34.2727 57.4753 34.2834L57.0977 34.5931C57.0841 34.6043 57.0701 34.6152 57.0559 34.6258L56.6649 34.9179C56.6502 34.9288 56.6353 34.9394 56.6201 34.9496L56.2158 35.2232C56.2002 35.2338 56.1843 35.244 56.1682 35.2537L55.7511 35.5075C55.7346 35.5176 55.7179 35.5272 55.7009 35.5363L55.2718 35.7693C55.2547 35.7786 55.2373 35.7875 55.2195 35.796L54.7793 36.007C54.7615 36.0156 54.7436 36.0237 54.7254 36.0314L54.2751 36.2201C54.2568 36.2276 54.2384 36.2347 54.2198 36.2414L53.7606 36.4071C53.7422 36.4138 53.7237 36.42 53.705 36.4256L53.2379 36.5683C53.2193 36.5739 53.2007 36.5791 53.182 36.5838L52.7085 36.703C52.6902 36.7076 52.6718 36.7118 52.6532 36.7156L52.1747 36.8116C52.1566 36.8152 52.1385 36.8185 52.1202 36.8213L51.6376 36.8947C51.62 36.8974 51.6023 36.8997 51.5847 36.9016L51.0993 36.9532C51.0822 36.955 51.0651 36.9564 51.0481 36.9575L50.5608 36.9877C50.5446 36.9888 50.5282 36.9895 50.5118 36.9897L50.0238 36.9996C50.0092 37 49.9946 37.0001 49.98 36.9998L49.5704 36.9928C49.5555 36.9925 49.5406 36.992 49.5256 36.9912L49.038 36.9643C49.021 36.9634 49.0042 36.962 48.9874 36.9603L48.5015 36.9123C48.4839 36.9105 48.4664 36.9084 48.4489 36.9058L47.9657 36.8358C47.9475 36.8333 47.9295 36.8302 47.9116 36.8267L47.4322 36.7343C47.4137 36.7307 47.3952 36.7267 47.3769 36.7222L46.9026 36.6066C46.8839 36.6022 46.8653 36.5972 46.8467 36.5917L46.3787 36.4529C46.3599 36.4474 46.3413 36.4414 46.3228 36.4349L45.8622 36.2729C45.8436 36.2663 45.8252 36.2593 45.8069 36.2519L45.3551 36.0669C45.3368 36.0594 45.3188 36.0515 45.3009 36.0431L44.859 35.8355C44.8413 35.8272 44.8237 35.8184 44.8064 35.8091L44.3755 35.5797C44.3584 35.5705 44.3416 35.5611 44.325 35.5512L43.9059 35.3007C43.8897 35.291 43.8737 35.2809 43.8579 35.2704L43.4515 35C43.4361 34.9898 43.4211 34.9793 43.4063 34.9684L43.0129 34.6791C42.9986 34.6686 42.9845 34.6577 42.9707 34.6466L42.591 34.3397C42.5777 34.3289 42.5646 34.3179 42.5518 34.3066L42.1858 33.9834C42.1736 33.9726 42.1615 33.9616 42.1497 33.9501L41.7976 33.612L41.7283 33.5432L39.6568 31.4716L39.3115 31.1264L36.8947 28.7095L35.1684 26.9831L32.0611 23.8759L31.3706 23.1853L31.0253 22.8401L28.9538 20.7685L26.1917 18.0065L25.8464 17.6613L25.5012 17.3159L25.1559 16.9707L24.8106 16.6255L23.7749 15.5897L23.0844 14.8991L22.7391 14.5539L21.0128 12.8277L19.2865 11.1013L16.8697 8.68448L16.1792 7.99407L15.8339 7.64867L12.7266 4.54146L12.3813 4.19605L12.0361 3.85085L11.6908 3.50565L9.27399 1.08884L7.89297 -0.292152L7.54771 -0.637558L6.51192 -1.67336L3.40455 -4.78057L3.10596 -5.08946C3.09547 -5.10022 3.08524 -5.11118 3.07529 -5.12234L2.74966 -5.4861C2.73836 -5.49875 2.72734 -5.51159 2.71657 -5.52464L2.40689 -5.90232C2.39572 -5.91591 2.38489 -5.92976 2.3744 -5.94388L2.08207 -6.33508C2.07117 -6.34974 2.06061 -6.36467 2.05039 -6.37987L1.77681 -6.78419C1.76618 -6.79979 1.75596 -6.81566 1.74614 -6.8318L1.49254 -7.24883C1.48245 -7.26537 1.47283 -7.28212 1.46369 -7.29906L1.23066 -7.72819C1.22138 -7.74527 1.21251 -7.76269 1.20404 -7.78045L0.992999 -8.22067C0.984389 -8.23843 0.97625 -8.25638 0.968585 -8.27454L0.779949 -8.72486C0.772419 -8.74315 0.765288 -8.76158 0.758563 -8.78014L0.592922 -9.23933C0.586197 -9.25775 0.579938 -9.27638 0.574153 -9.29521L0.43172 -9.76207C0.42607 -9.78063 0.420889 -9.79926 0.416179 -9.81796L0.296947 -10.2915C0.292372 -10.3098 0.2882 -10.3282 0.284435 -10.3468L0.188404 -10.8253C0.184774 -10.8433 0.181539 -10.8615 0.178714 -10.8798L0.105274 -11.3624C0.102584 -11.38 0.1003 -11.3976 0.0984148 -11.4152L0.0467638 -11.9007C0.0450138 -11.9177 0.0436045 -11.9348 0.0425295 -11.9519L0.0122637 -12.4391C0.0111887 -12.4554 0.0105195 -12.4718 0.0102495 -12.4882L0.000361828 -12.9762C-4.3171e-05 -12.9907 -0.000106535 -13.0053 0.000163464 -13.02L0.00722065 -13.4295C0.00749065 -13.4445 0.00802809 -13.4594 0.00883809 -13.4743L0.0356707 -13.962C0.0366107 -13.9789 0.0379566 -13.9958 0.0397066 -14.0126L0.0877184 -14.4984C0.0894684 -14.5161 0.0916255 -14.5336 0.0941805 -14.5511L0.164188 -15.0343C0.166743 -15.0525 0.169767 -15.0705 0.173267 -15.0884L0.265674 -15.5677C0.269304 -15.5863 0.273334 -15.6047 0.277774 -15.623L0.393382 -16.0973C0.397822 -16.116 0.402798 -16.1347 0.408313 -16.1532L0.547115 -16.6213C0.55263 -16.6401 0.558619 -16.6587 0.565074 -16.6771L0.727085 -17.1377C0.733675 -17.1563 0.74067 -17.1748 0.748065 -17.1931L0.933071 -17.6449C0.940601 -17.6631 0.948539 -17.6812 0.956874 -17.6991L1.16449 -18.141C1.17283 -18.1587 1.18163 -18.1763 1.19091 -18.1936L1.42031 -18.6245C1.42945 -18.6416 1.43894 -18.6584 1.44876 -18.675L1.69934 -19.0941C1.70902 -19.1103 1.71911 -19.1263 1.7296 -19.142L1.99995 -19.5485C2.01017 -19.5638 2.02073 -19.5789 2.03163 -19.5937L2.32094 -19.987C2.33143 -20.0014 2.34226 -20.0154 2.35342 -20.0293L2.66029 -20.409C2.67105 -20.4223 2.68208 -20.4354 2.69338 -20.4482L3.01659 -20.8142C3.02735 -20.8264 3.03844 -20.8384 3.04988 -20.8503L3.38802 -21.2024L3.45682 -21.2717L4.14743 -21.9622L6.90943 -24.7242L8.63574 -26.4505L8.981 -26.7958L13.1241 -30.9389L14.1599 -31.9747L15.5409 -33.3557L18.9935 -36.8083L19.3388 -37.1536L20.7198 -38.5346L22.4461 -40.2609L22.7914 -40.6062L24.8629 -42.6777L27.9703 -45.785L28.3155 -46.1303L28.6608 -46.4756L30.3871 -48.2018L31.0776 -48.8924L32.1134 -49.9281L36.947 -54.7618L37.6375 -55.4523L40.7448 -58.5596L41.7806 -59.5954L42.0894 -59.894C42.1002 -59.9045 42.1111 -59.9148 42.1223 -59.9247L42.486 -60.2503C42.4987 -60.2616 42.5116 -60.2727 42.5247 -60.2834L42.9022 -60.5929C42.9159 -60.6042 42.9298 -60.6151 42.944 -60.6256L43.3351 -60.9179C43.3498 -60.9288 43.3647 -60.9394 43.3799 -60.9496L43.7842 -61.2232C43.7998 -61.2338 43.8157 -61.244 43.8318 -61.2537L44.2489 -61.5075C44.2654 -61.5176 44.282 -61.5272 44.299 -61.5363L44.7281 -61.7691C44.7453 -61.7786 44.7627 -61.7875 44.7804 -61.796L45.2206 -62.007C45.2383 -62.0156 45.2564 -62.0237 45.2746 -62.0312L45.7249 -62.2201C45.7431 -62.2276 45.7615 -62.2347 45.78 -62.2414L46.2393 -62.4071C46.2577 -62.4138 46.2763 -62.42 46.2951 -62.4256L46.7621 -62.5683C46.7806 -62.5739 46.7992 -62.5791 46.8179 -62.5838L47.2915 -62.7029C47.3097 -62.7076 47.3282 -62.7118 47.3467 -62.7156L47.8253 -62.8116C47.8433 -62.8152 47.8615 -62.8185 47.8798 -62.8213L48.3624 -62.8947C48.38 -62.8974 48.3976 -62.8997 48.4152 -62.9016L48.9006 -62.9532C48.9177 -62.955 48.9348 -62.9564 48.9519 -62.9575L49.4391 -62.9877C49.4554 -62.9888 49.4717 -62.9895 49.4881 -62.9898L49.9762 -62.9996C49.9907 -63 50.0053 -63.0001 50.02 -62.9998L50.4295 -62.9928C50.4445 -62.9925 50.4595 -62.992 50.4745 -62.9912L50.962 -62.9643C50.9789 -62.9634 50.9958 -62.962 51.0126 -62.9603L51.4986 -62.9123C51.5161 -62.9105 51.5336 -62.9084 51.5511 -62.9058L52.0343 -62.8358C52.0524 -62.8333 52.0705 -62.8302 52.0885 -62.8267L52.5679 -62.7341C52.5863 -62.7306 52.6047 -62.7267 52.623 -62.7222L53.0973 -62.6066C53.1161 -62.6022 53.1348 -62.5972 53.1532 -62.5917L53.6213 -62.4529C53.6401 -62.4474 53.6587 -62.4414 53.6772 -62.4349L54.1378 -62.2729C54.1563 -62.2663 54.1748 -62.2593 54.193 -62.2519L54.6448 -62.0669C54.6631 -62.0594 54.6812 -62.0515 54.699 -62.0431L55.1411 -61.8355C55.1588 -61.8272 55.1763 -61.8184 55.1935 -61.8091L55.6245 -61.5797C55.6416 -61.5705 55.6584 -61.5611 55.6749 -61.5512L56.0942 -61.3007C56.1103 -61.291 56.1262 -61.2809 56.142 -61.2704L56.5485 -61.0001C56.5638 -60.9898 56.5789 -60.9793 56.5937 -60.9684L56.9871 -60.6791C57.0014 -60.6686 57.0154 -60.6577 57.0293 -60.6466L57.409 -60.3397C57.4223 -60.329 57.4354 -60.3179 57.4481 -60.3066L57.8141 -59.9834C57.8264 -59.9727 57.8384 -59.9616 57.8502 -59.9501L58.2025 -59.612L58.9621 -58.8526L59.9979 -57.8168L63.1053 -54.7095L63.4505 -54.3643L64.4863 -53.3285L66.2125 -51.6022L66.5579 -51.257L67.5937 -50.2212L68.6293 -49.1854L68.9747 -48.8401L69.3199 -48.4949L71.0461 -46.7686L71.3915 -46.4233L71.7367 -46.0781L72.4273 -45.3875L75.5346 -42.2802L75.8797 -41.9349L78.9872 -38.8276L82.0946 -35.7203L82.4398 -35.375L82.785 -35.0298L83.1304 -34.6845L83.8208 -33.994L86.9282 -30.8866L88.6544 -29.1603L88.9996 -28.8151L90.3808 -27.4341L91.0712 -26.7435L94.5238 -23.2909L96.5954 -21.2194L96.894 -20.9106C96.9045 -20.8998 96.9147 -20.8889 96.9247 -20.8777L97.2503 -20.514C97.2616 -20.5013 97.2726 -20.4884 97.2834 -20.4753L97.5928 -20.0978C97.6041 -20.0841 97.615 -20.0702 97.6255 -20.056L97.9179 -19.6649C97.9288 -19.6502 97.9393 -19.6353 97.9496 -19.6201L98.2231 -19.2158C98.2337 -19.2002 98.2439 -19.1843 98.2536 -19.1682L98.5074 -18.7511C98.5175 -18.7346 98.5271 -18.718 98.5363 -18.701L98.7691 -18.2719C98.7785 -18.2547 98.7874 -18.2373 98.7959 -18.2196L99.0069 -17.7794C99.0155 -17.7616 99.0236 -17.7437 99.0312 -17.7255L99.22 -17.2752C99.2275 -17.2569 99.2346 -17.2385 99.2414 -17.22L99.407 -16.7607C99.4137 -16.7423 99.4199 -16.7237 99.4256 -16.7049L99.5682 -16.2379C99.5738 -16.2194 99.5789 -16.2008 99.5838 -16.1821L99.7028 -15.7085C99.7075 -15.6903 99.7118 -15.6718 99.7155 -15.6533L99.8115 -15.1747C99.8152 -15.1567 99.8184 -15.1385 99.8212 -15.1202L99.8947 -14.6376C99.8974 -14.62 99.8996 -14.6024 99.9015 -14.5848L99.9532 -14.0994C99.9549 -14.0823 99.9563 -14.0653 99.9574 -14.0483L99.9877 -13.5609C99.9888 -13.5446 99.9894 -13.5283 99.9897 -13.5118L99.9996 -13.0238C100 -13.0093 100 -12.9947 99.9998 -12.98L99.9927 -12.5705C99.9924 -12.5555 99.9919 -12.5405 99.9911 -12.5255ZM97.6449 -13.4398L97.6177 -13.8772L97.5716 -14.3104L97.5063 -14.7395L97.4212 -15.1634L97.3158 -15.581L97.1905 -15.9922L97.0449 -16.3959L96.879 -16.7916L96.6934 -17.1787L96.4884 -17.5565L96.2643 -17.9248L96.022 -18.283L95.7621 -18.6309L95.4855 -18.9683L95.1916 -19.2966L94.9366 -19.5606L92.8649 -21.6322L89.4125 -25.0848L89.0671 -25.43L88.722 -25.7753L87.341 -27.1563L86.9957 -27.5016L85.2693 -29.2279L82.1619 -32.3352L81.4715 -33.0258L81.1263 -33.371L80.7809 -33.7163L80.4357 -34.0615L77.3283 -37.1689L74.2211 -40.2762L73.8759 -40.6214L70.7685 -43.7288L70.0779 -44.4193L69.3875 -45.1098L67.6611 -46.8361L66.9707 -47.5266L66.2801 -48.2171L65.9349 -48.5624L64.8991 -49.5982L64.5539 -49.9434L63.1729 -51.3245L61.7917 -52.7055L61.4465 -53.0508L58.3391 -56.1581L57.3035 -57.194L56.5776 -57.9201L56.2431 -58.2413L55.9148 -58.5312L55.5756 -58.8052L55.226 -59.0622L54.8663 -59.3017L54.4965 -59.5226L54.117 -59.7247L53.7286 -59.9071L53.3315 -60.0697L52.9266 -60.2122L52.5144 -60.3342L52.0956 -60.4361L51.6709 -60.5182L51.2412 -60.5804L50.807 -60.6234L50.3674 -60.6478L50.002 -60.6538L49.5602 -60.6449L49.123 -60.6177L48.6894 -60.5717L48.2605 -60.5063L47.8366 -60.4212L47.4189 -60.3159L47.0078 -60.1906L46.6041 -60.0449L46.2084 -59.8791L45.8213 -59.6935L45.4434 -59.4883L45.0752 -59.2643L44.7169 -59.022L44.369 -58.7622L44.0317 -58.4856L43.7034 -58.1916L43.4393 -57.9366L42.4036 -56.9008L39.2962 -53.7935L38.6057 -53.103L33.7721 -48.2694L32.7363 -47.2336L32.0458 -46.5431L30.3195 -44.8168L29.9742 -44.4715L29.629 -44.1263L26.5216 -41.0189L24.4501 -38.9474L24.1048 -38.6021L22.3785 -36.8758L20.9975 -35.4948L20.6522 -35.1495L17.1996 -31.6969L15.8186 -30.3159L14.7828 -29.2801L10.6397 -25.137L10.2945 -24.7917L8.56817 -23.0654L5.80603 -20.3034L5.11563 -19.6128L5.07991 -19.5776L4.75872 -19.2431L4.46881 -18.9147L4.19483 -18.5757L3.93779 -18.2261L3.69831 -17.8662L3.47739 -17.4963L3.27523 -17.117L3.09285 -16.7285L2.93023 -16.3315L2.78779 -15.9266L2.66574 -15.5144L2.56365 -15.0956L2.48174 -14.6709L2.4196 -14.241L2.37662 -13.807L2.35221 -13.3672L2.34616 -13.002L2.35504 -12.5602L2.38227 -12.123L2.42827 -11.6894L2.49364 -11.2605L2.57878 -10.8366L2.68409 -10.4187L2.80938 -10.0078L2.95505 -9.60406L3.12089 -9.20842L3.30651 -8.82126L3.51149 -8.44337L3.73564 -8.07517L3.97794 -7.71686L4.2378 -7.36903L4.51441 -7.0317L4.80836 -6.70345L5.06337 -6.43935L8.17066 -3.33194L9.20645 -2.29614L9.55171 -1.95094L10.9327 -0.569931L13.3496 1.84687L13.6948 2.19207L14.0401 2.53748L14.3853 2.88268L17.4927 5.99008L18.5284 7.02569L20.9453 9.4425L22.6716 11.1689L24.3979 12.8951L24.7431 13.2405L25.4336 13.9309L26.4694 14.9667L26.8147 15.3119L27.1599 15.6573L27.5052 16.0025L27.8505 16.3477L30.6125 19.1099L32.6841 21.1813L33.0293 21.5267L33.7199 22.2171L36.8272 25.3245L38.5535 27.0508L40.9703 29.4676L41.3156 29.813L43.3871 31.8844L43.4224 31.9201L43.7568 32.2413L44.0852 32.5312L44.4243 32.8052L44.7739 33.0622L45.1338 33.3017L45.5036 33.5228L45.8829 33.7248L46.2715 33.9072L46.6684 34.0698L47.0733 34.2122L47.4855 34.3343L47.9044 34.4362L48.329 34.5183L48.759 34.5804L49.193 34.6234L49.6326 34.6478L49.998 34.6539L50.4398 34.645L50.8772 34.6177L51.3104 34.5717L51.7395 34.5064L52.1634 34.4212L52.581 34.3161L52.9922 34.1906L53.3959 34.045L53.7915 33.8791L54.1787 33.6935L54.5566 33.4885L54.9248 33.2644L55.2829 33.0221L55.6309 32.7622L55.9682 32.4856L56.2967 32.1916L56.5606 31.9366L61.7396 26.7578L62.0848 26.4126L62.43 26.0672L62.7752 25.722L63.1206 25.3768L64.5016 23.9956L76.9309 11.5664L77.2763 11.2212L80.7287 7.76854L82.8003 5.69693L83.1457 5.35173L83.4909 5.00653L83.8361 4.66113L84.1813 4.31593L84.5267 3.97073L84.8719 3.62532L85.2171 3.28012L87.9793 0.518116L90.0507 -1.55349L90.3961 -1.89869L94.1939 -5.69651L94.5391 -6.04191L94.92 -6.42242L95.2412 -6.75673L95.5311 -7.08518L95.8051 -7.42433L96.0621 -7.77377L96.3016 -8.1337L96.5227 -8.50372L96.7247 -8.88281L96.9071 -9.27139L97.0697 -9.66844L97.2121 -10.0734L97.3342 -10.4855L97.4363 -10.9044L97.5182 -11.3291L97.5803 -11.7588L97.6233 -12.193L97.6477 -12.6326L97.6538 -12.998L97.6449 -13.4398Z" fill="#3ED99A"/>
</svg>
