<svg width="90" height="60" viewBox="0 0 90 60" fill="none" xmlns="http://www.w3.org/2000/svg">
<path d="M94.9911 10.4745L94.9642 10.962C94.9633 10.9789 94.962 10.9958 94.9602 11.0126L94.9122 11.4986C94.9105 11.5161 94.9083 11.5336 94.9057 11.5511L94.8357 12.0343C94.8332 12.0524 94.8302 12.0705 94.8267 12.0884L94.7343 12.5677C94.7306 12.5863 94.7266 12.6047 94.7221 12.623L94.6065 13.0973C94.6021 13.1162 94.5971 13.1348 94.5916 13.1532L94.4528 13.6213C94.4473 13.6401 94.4413 13.6587 94.4349 13.6772L94.2728 14.1378C94.2662 14.1563 94.2592 14.1748 94.2518 14.1931L94.0668 14.6448C94.0593 14.6631 94.0514 14.6812 94.043 14.699L93.8354 15.1411C93.8271 15.1588 93.8183 15.1763 93.809 15.1935L93.5796 15.6245C93.5705 15.6416 93.561 15.6584 93.5512 15.6749L93.3006 16.0942C93.2909 16.1103 93.2808 16.1263 93.2703 16.142L93 16.5485C92.9898 16.5639 92.9792 16.5789 92.9683 16.5937L92.679 16.9871C92.6685 17.0014 92.6577 17.0155 92.6465 17.0293L92.3396 17.409C92.3289 17.4223 92.3178 17.4354 92.3065 17.4481L91.9833 17.8141C91.9726 17.8264 91.9615 17.8384 91.9501 17.8502L91.6119 18.2025L91.1979 18.6169L90.8525 18.9621L84.6379 25.1767L81.8759 27.9389L81.5307 28.2841L81.1853 28.6293L80.8401 28.9747L80.4949 29.3199L80.1495 29.6651L79.8043 30.0103L79.4591 30.3557L79.1139 30.7009L77.3875 32.4271L73.9349 35.8798L73.5897 36.2252L61.1604 48.6544L59.7792 50.0354L59.434 50.3808L59.0888 50.726L58.7434 51.0712L54.9456 54.869L53.2194 56.5954L52.9105 56.894C52.8998 56.9045 52.8888 56.9148 52.8776 56.9247L52.5139 57.2503C52.5012 57.2616 52.4884 57.2727 52.4753 57.2834L52.0977 57.5931C52.0841 57.6043 52.0701 57.6152 52.0559 57.6258L51.6649 57.9179C51.6502 57.9288 51.6353 57.9394 51.6201 57.9496L51.2158 58.2232C51.2002 58.2338 51.1843 58.244 51.1682 58.2537L50.7511 58.5075C50.7346 58.5176 50.7179 58.5272 50.7009 58.5363L50.2718 58.7693C50.2547 58.7786 50.2373 58.7875 50.2195 58.796L49.7793 59.007C49.7615 59.0156 49.7436 59.0237 49.7254 59.0314L49.2751 59.2201C49.2568 59.2276 49.2384 59.2347 49.2198 59.2414L48.7606 59.4071C48.7422 59.4138 48.7237 59.42 48.705 59.4256L48.2379 59.5683C48.2193 59.5739 48.2007 59.5791 48.182 59.5838L47.7085 59.703C47.6902 59.7076 47.6718 59.7118 47.6532 59.7156L47.1747 59.8116C47.1566 59.8152 47.1385 59.8185 47.1202 59.8213L46.6376 59.8947C46.62 59.8974 46.6023 59.8997 46.5847 59.9016L46.0993 59.9532C46.0822 59.955 46.0651 59.9564 46.0481 59.9575L45.5608 59.9877C45.5446 59.9888 45.5282 59.9895 45.5118 59.9897L45.0238 59.9996C45.0092 60 44.9946 60.0001 44.98 59.9998L44.5704 59.9928C44.5555 59.9925 44.5406 59.992 44.5256 59.9912L44.038 59.9643C44.021 59.9634 44.0042 59.962 43.9874 59.9603L43.5015 59.9123C43.4839 59.9105 43.4664 59.9084 43.4489 59.9058L42.9657 59.8358C42.9475 59.8333 42.9295 59.8302 42.9116 59.8267L42.4322 59.7343C42.4137 59.7307 42.3952 59.7267 42.3769 59.7222L41.9026 59.6066C41.8839 59.6022 41.8653 59.5972 41.8467 59.5917L41.3787 59.4529C41.3599 59.4474 41.3413 59.4414 41.3228 59.4349L40.8622 59.2729C40.8436 59.2663 40.8252 59.2593 40.8069 59.2519L40.3551 59.0669C40.3368 59.0594 40.3188 59.0515 40.3009 59.0431L39.859 58.8355C39.8413 58.8272 39.8237 58.8184 39.8064 58.8091L39.3755 58.5797C39.3584 58.5705 39.3416 58.5611 39.325 58.5512L38.9059 58.3007C38.8897 58.291 38.8737 58.2809 38.8579 58.2704L38.4515 58C38.4361 57.9898 38.4211 57.9793 38.4063 57.9684L38.0129 57.6791C37.9986 57.6686 37.9845 57.6577 37.9707 57.6466L37.591 57.3397C37.5777 57.3289 37.5646 57.3179 37.5518 57.3066L37.1858 56.9834C37.1736 56.9726 37.1615 56.9616 37.1497 56.9501L36.7976 56.612L36.7283 56.5432L34.6568 54.4716L34.3115 54.1264L31.8947 51.7095L30.1684 49.9831L27.0611 46.8759L26.3706 46.1853L26.0253 45.8401L23.9538 43.7685L21.1917 41.0065L20.8464 40.6613L20.5012 40.3159L20.1559 39.9707L19.8106 39.6255L18.7749 38.5897L18.0844 37.8991L17.7391 37.5539L16.0128 35.8277L14.2865 34.1013L11.8697 31.6845L11.1792 30.9941L10.8339 30.6487L7.72657 27.5415L7.38131 27.1961L7.03607 26.8509L6.69082 26.5057L4.27399 24.0888L2.89297 22.7078L2.54771 22.3624L1.51192 21.3266L-1.59545 18.2194L-1.89404 17.9105C-1.90453 17.8998 -1.91476 17.8888 -1.92471 17.8777L-2.25034 17.5139C-2.26164 17.5013 -2.27266 17.4884 -2.28343 17.4754L-2.59311 17.0977C-2.60428 17.0841 -2.61511 17.0702 -2.6256 17.0561L-2.91793 16.6649C-2.92883 16.6503 -2.93939 16.6353 -2.94961 16.6201L-3.22319 16.2158C-3.23382 16.2002 -3.24404 16.1843 -3.25386 16.1682L-3.50746 15.7512C-3.51755 15.7346 -3.52717 15.7179 -3.53631 15.7009L-3.76934 15.2718C-3.77862 15.2547 -3.78749 15.2373 -3.79596 15.2196L-4.007 14.7793C-4.01561 14.7616 -4.02375 14.7436 -4.03141 14.7255L-4.22005 14.2751C-4.22758 14.2569 -4.23471 14.2384 -4.24144 14.2199L-4.40708 13.7607C-4.4138 13.7422 -4.42006 13.7236 -4.42585 13.7048L-4.56828 13.2379C-4.57393 13.2194 -4.57911 13.2007 -4.58382 13.182L-4.70305 12.7085C-4.70763 12.6902 -4.7118 12.6718 -4.71557 12.6532L-4.8116 12.1747C-4.81523 12.1567 -4.81846 12.1385 -4.82129 12.1202L-4.89473 11.6376C-4.89742 11.62 -4.8997 11.6024 -4.90159 11.5848L-4.95324 11.0993C-4.95499 11.0823 -4.9564 11.0652 -4.95747 11.0481L-4.98774 10.5609C-4.98881 10.5446 -4.98948 10.5282 -4.98975 10.5118L-4.99964 10.0238C-5.00004 10.0093 -5.00011 9.99467 -4.99984 9.98001L-4.99278 9.57045C-4.99251 9.55552 -4.99197 9.54059 -4.99116 9.52566L-4.96433 9.03802C-4.96339 9.02108 -4.96204 9.0042 -4.96029 8.98738L-4.91228 8.50156C-4.91053 8.48394 -4.90837 8.46639 -4.90582 8.4489L-4.83581 7.96569C-4.83326 7.94753 -4.83023 7.92951 -4.82673 7.91162L-4.73433 7.43226C-4.7307 7.4137 -4.72667 7.39527 -4.72223 7.37698L-4.60662 6.90265C-4.60218 6.88396 -4.5972 6.86533 -4.59169 6.84677L-4.45289 6.3787C-4.44737 6.35994 -4.44138 6.34132 -4.43493 6.32285L-4.27292 5.86229C-4.26633 5.84366 -4.25933 5.82521 -4.25193 5.80695L-4.06693 5.35514C-4.0594 5.33686 -4.05146 5.31879 -4.04313 5.30091L-3.83551 4.85901C-3.82717 4.84127 -3.81837 4.82375 -3.80909 4.80644L-3.57969 4.37549C-3.57055 4.35844 -3.56106 4.34161 -3.55124 4.32501L-3.30066 3.90593C-3.29098 3.88969 -3.28089 3.8737 -3.2704 3.85795L-3.00005 3.45148C-2.98983 3.43616 -2.97927 3.42109 -2.96837 3.40628L-2.67906 3.01296C-2.66857 2.99864 -2.65774 2.98456 -2.64658 2.97074L-2.33971 2.59098C-2.32895 2.57769 -2.31792 2.56464 -2.30662 2.55184L-1.98341 2.18584C-1.97265 2.17359 -1.96156 2.16155 -1.95012 2.14974L-1.61198 1.79758L-1.54318 1.72834L-0.852574 1.03785L1.90943 -1.72423L3.63574 -3.45053L3.981 -3.79577L8.1241 -7.93888L9.15987 -8.97467L10.5409 -10.3557L13.9935 -13.8083L14.3388 -14.1536L15.7198 -15.5346L17.4461 -17.2609L17.7914 -17.6062L19.8629 -19.6777L22.9703 -22.785L23.3155 -23.1303L23.6608 -23.4756L25.3871 -25.2018L26.0776 -25.8924L27.1134 -26.9281L31.947 -31.7618L32.6375 -32.4523L35.7448 -35.5596L36.7806 -36.5954L37.0894 -36.894C37.1002 -36.9045 37.1111 -36.9148 37.1223 -36.9247L37.486 -37.2503C37.4987 -37.2616 37.5116 -37.2727 37.5247 -37.2834L37.9022 -37.5929C37.9159 -37.6042 37.9298 -37.6151 37.944 -37.6256L38.3351 -37.9179C38.3498 -37.9288 38.3647 -37.9394 38.3799 -37.9496L38.7842 -38.2232C38.7998 -38.2338 38.8157 -38.244 38.8318 -38.2537L39.2489 -38.5075C39.2654 -38.5176 39.282 -38.5272 39.299 -38.5363L39.7281 -38.7691C39.7453 -38.7786 39.7627 -38.7875 39.7804 -38.796L40.2206 -39.007C40.2383 -39.0156 40.2564 -39.0237 40.2746 -39.0312L40.7249 -39.2201C40.7431 -39.2276 40.7615 -39.2347 40.78 -39.2414L41.2393 -39.4071C41.2577 -39.4138 41.2763 -39.42 41.2951 -39.4256L41.7621 -39.5683C41.7806 -39.5739 41.7992 -39.5791 41.8179 -39.5838L42.2915 -39.7029C42.3097 -39.7076 42.3282 -39.7118 42.3467 -39.7156L42.8253 -39.8116C42.8433 -39.8152 42.8615 -39.8185 42.8798 -39.8213L43.3624 -39.8947C43.38 -39.8974 43.3976 -39.8997 43.4152 -39.9016L43.9006 -39.9532C43.9177 -39.955 43.9348 -39.9564 43.9519 -39.9575L44.4391 -39.9877C44.4554 -39.9888 44.4717 -39.9895 44.4881 -39.9898L44.9762 -39.9996C44.9907 -40 45.0053 -40.0001 45.02 -39.9998L45.4295 -39.9928C45.4445 -39.9925 45.4595 -39.992 45.4745 -39.9912L45.962 -39.9643C45.9789 -39.9634 45.9958 -39.962 46.0126 -39.9603L46.4986 -39.9123C46.5161 -39.9105 46.5336 -39.9084 46.5511 -39.9058L47.0343 -39.8358C47.0524 -39.8333 47.0705 -39.8302 47.0885 -39.8267L47.5679 -39.7341C47.5863 -39.7306 47.6047 -39.7267 47.623 -39.7222L48.0973 -39.6066C48.1161 -39.6022 48.1348 -39.5972 48.1532 -39.5917L48.6213 -39.4529C48.6401 -39.4474 48.6587 -39.4414 48.6772 -39.4349L49.1378 -39.2729C49.1563 -39.2663 49.1748 -39.2593 49.193 -39.2519L49.6448 -39.0669C49.6631 -39.0594 49.6812 -39.0515 49.699 -39.0431L50.1411 -38.8355C50.1588 -38.8272 50.1763 -38.8184 50.1935 -38.8091L50.6245 -38.5797C50.6416 -38.5705 50.6584 -38.5611 50.6749 -38.5512L51.0942 -38.3007C51.1103 -38.291 51.1262 -38.2809 51.142 -38.2704L51.5485 -38.0001C51.5638 -37.9898 51.5789 -37.9793 51.5937 -37.9684L51.9871 -37.6791C52.0014 -37.6686 52.0154 -37.6577 52.0293 -37.6466L52.409 -37.3397C52.4223 -37.329 52.4354 -37.3179 52.4481 -37.3066L52.8141 -36.9834C52.8264 -36.9727 52.8384 -36.9616 52.8502 -36.9501L53.2025 -36.612L53.9621 -35.8526L54.9979 -34.8168L58.1053 -31.7095L58.4505 -31.3643L59.4863 -30.3285L61.2125 -28.6022L61.5579 -28.257L62.5937 -27.2212L63.6293 -26.1854L63.9747 -25.8401L64.3199 -25.4949L66.0461 -23.7686L66.3915 -23.4233L66.7367 -23.0781L67.4273 -22.3875L70.5346 -19.2802L70.8797 -18.9349L73.9872 -15.8276L77.0946 -12.7203L77.4398 -12.375L77.785 -12.0298L78.1304 -11.6845L78.8208 -10.994L81.9282 -7.88665L83.6544 -6.16034L83.9996 -5.81508L85.3808 -4.43406L86.0712 -3.74353L89.5238 -0.290936L91.5954 1.78063L91.894 2.0894C91.9045 2.10016 91.9147 2.11111 91.9247 2.12226L92.2503 2.48602C92.2616 2.49867 92.2726 2.51155 92.2834 2.52468L92.5928 2.90224C92.6041 2.9159 92.615 2.92982 92.6255 2.94398L92.9179 3.33512C92.9288 3.34978 92.9393 3.36469 92.9496 3.37985L93.2231 3.78425C93.2337 3.79985 93.2439 3.8157 93.2536 3.8318L93.5074 4.24889C93.5175 4.26535 93.5271 4.28205 93.5363 4.29898L93.7691 4.72807C93.7785 4.74528 93.7874 4.76271 93.7959 4.78037L94.0069 5.22057C94.0155 5.23835 94.0236 5.25634 94.0312 5.27454L94.22 5.72484C94.2275 5.74306 94.2346 5.76146 94.2414 5.78004L94.407 6.23929C94.4137 6.25773 94.4199 6.27633 94.4256 6.29509L94.5682 6.76205C94.5738 6.78061 94.5789 6.79924 94.5838 6.81794L94.7028 7.29145C94.7075 7.30974 94.7118 7.32817 94.7155 7.34673L94.8115 7.82529C94.8152 7.84332 94.8184 7.86147 94.8212 7.87977L94.8947 8.36237C94.8974 8.37999 94.8996 8.39761 94.9015 8.41523L94.9532 8.90065C94.9549 8.91773 94.9563 8.93474 94.9574 8.95169L94.9877 9.43913C94.9888 9.4554 94.9894 9.47174 94.9897 9.48815L94.9996 9.97619C95 9.99072 95.0001 10.0053 94.9998 10.02L94.9927 10.4295C94.9924 10.4445 94.9919 10.4595 94.9911 10.4745ZM92.6449 9.56018L92.6177 9.12278L92.5716 8.68962L92.5063 8.26049L92.4212 7.8366L92.3158 7.41897L92.1905 7.00779L92.0449 6.60408L91.879 6.20842L91.6934 5.82134L91.4884 5.44353L91.2643 5.07521L91.022 4.71696L90.7621 4.36909L90.4855 4.03168L90.1916 3.70337L89.9366 3.43937L87.8649 1.36782L84.4125 -2.0848L84.0671 -2.43003L83.722 -2.7753L82.341 -4.15634L81.9957 -4.5016L80.2693 -6.22789L77.1619 -9.33523L76.4715 -10.0258L76.1263 -10.371L75.7809 -10.7163L75.4357 -11.0615L72.3283 -14.1689L69.2211 -17.2762L68.8759 -17.6214L65.7685 -20.7288L65.0779 -21.4193L64.3875 -22.1098L62.6611 -23.8361L61.9707 -24.5266L61.2801 -25.2171L60.9349 -25.5624L59.8991 -26.5982L59.5539 -26.9434L58.1729 -28.3245L56.7917 -29.7055L56.4465 -30.0508L53.3391 -33.1581L52.3035 -34.194L51.5776 -34.9201L51.2431 -35.2413L50.9148 -35.5312L50.5756 -35.8052L50.226 -36.0622L49.8663 -36.3017L49.4965 -36.5226L49.117 -36.7247L48.7286 -36.9071L48.3315 -37.0697L47.9266 -37.2122L47.5144 -37.3342L47.0956 -37.4361L46.6709 -37.5182L46.2412 -37.5804L45.807 -37.6234L45.3674 -37.6478L45.002 -37.6538L44.5602 -37.6449L44.123 -37.6177L43.6894 -37.5717L43.2605 -37.5063L42.8366 -37.4212L42.4189 -37.3159L42.0078 -37.1906L41.6041 -37.0449L41.2084 -36.8791L40.8213 -36.6935L40.4434 -36.4883L40.0752 -36.2643L39.7169 -36.022L39.369 -35.7622L39.0317 -35.4856L38.7034 -35.1916L38.4393 -34.9366L37.4036 -33.9008L34.2962 -30.7935L33.6057 -30.103L28.7721 -25.2694L27.7363 -24.2336L27.0458 -23.5431L25.3195 -21.8168L24.9742 -21.4715L24.629 -21.1263L21.5216 -18.0189L19.4501 -15.9474L19.1048 -15.6021L17.3785 -13.8758L15.9975 -12.4948L15.6522 -12.1495L12.1996 -8.69693L10.8186 -7.31589L9.78282 -6.28012L5.63972 -2.137L5.29447 -1.79175L3.56817 -0.0654411L0.806026 2.69663L0.115627 3.38715L0.0799136 3.42242L-0.241276 3.75689L-0.531193 4.08526L-0.805172 4.42432L-1.06221 4.77394L-1.30169 5.13379L-1.52261 5.50365L-1.72477 5.88303L-1.90715 6.27147L-2.06977 6.66845L-2.21221 7.07338L-2.33426 7.48556L-2.43635 7.9044L-2.51826 8.32909L-2.5804 8.75903L-2.62338 9.193L-2.64779 9.63282L-2.65384 9.998L-2.64496 10.4398L-2.61773 10.877L-2.57173 11.3106L-2.50636 11.7395L-2.42122 12.1634L-2.31591 12.5813L-2.19062 12.9922L-2.04495 13.3959L-1.87911 13.7916L-1.69349 14.1787L-1.48851 14.5566L-1.26436 14.9248L-1.02206 15.2831L-0.762204 15.631L-0.485592 15.9683L-0.191639 16.2966L0.0633731 16.5606L3.17066 19.6681L4.20645 20.7039L4.55171 21.0491L5.93275 22.4301L8.34956 24.8469L8.69481 25.1921L9.04007 25.5375L9.38533 25.8827L12.4927 28.9901L13.5284 30.0257L15.9453 32.4425L17.6716 34.1689L19.3979 35.8951L19.7431 36.2405L20.4336 36.9309L21.4694 37.9667L21.8147 38.3119L22.1599 38.6573L22.5052 39.0025L22.8505 39.3477L25.6125 42.1099L27.6841 44.1813L28.0293 44.5267L28.7199 45.2171L31.8272 48.3245L33.5535 50.0508L35.9703 52.4676L36.3156 52.813L38.3871 54.8844L38.4224 54.9201L38.7568 55.2413L39.0852 55.5312L39.4243 55.8052L39.7739 56.0622L40.1338 56.3017L40.5036 56.5228L40.8829 56.7248L41.2715 56.9072L41.6684 57.0698L42.0733 57.2122L42.4855 57.3343L42.9044 57.4362L43.329 57.5183L43.759 57.5804L44.193 57.6234L44.6326 57.6478L44.998 57.6539L45.4398 57.645L45.8772 57.6177L46.3104 57.5717L46.7395 57.5064L47.1634 57.4212L47.581 57.3161L47.9922 57.1906L48.3959 57.045L48.7915 56.8791L49.1787 56.6935L49.5566 56.4885L49.9248 56.2644L50.2829 56.0221L50.6309 55.7622L50.9682 55.4856L51.2967 55.1916L51.5606 54.9366L56.7396 49.7578L57.0848 49.4126L57.43 49.0672L57.7752 48.722L58.1206 48.3768L59.5016 46.9956L71.9309 34.5664L72.2763 34.2212L75.7287 30.7685L77.8003 28.6969L78.1457 28.3517L78.4909 28.0065L78.8361 27.6611L79.1813 27.3159L79.5267 26.9707L79.8719 26.6253L80.2171 26.2801L82.9793 23.5181L85.0507 21.4465L85.3961 21.1013L89.1939 17.3035L89.5391 16.9581L89.92 16.5776L90.2412 16.2433L90.5311 15.9148L90.8051 15.5757L91.0621 15.2262L91.3016 14.8663L91.5227 14.4963L91.7247 14.1172L91.9071 13.7286L92.0697 13.3316L92.2121 12.9266L92.3342 12.5145L92.4363 12.0956L92.5182 11.6709L92.5803 11.2412L92.6233 10.807L92.6477 10.3674L92.6538 10.002L92.6449 9.56018Z" fill="#3ED99A"/>
<path d="M94.9911 -1.52547L94.9642 -1.03803C94.9633 -1.02109 94.962 -1.00421 94.9602 -0.987392L94.9122 -0.501366C94.9105 -0.483881 94.9083 -0.466398 94.9057 -0.448914L94.8357 0.0342865C94.8332 0.0524464 94.8302 0.0704661 94.8267 0.088356L94.7343 0.567722C94.7306 0.586282 94.7266 0.604711 94.7221 0.623001L94.6065 1.09733C94.6021 1.11616 94.5971 1.13479 94.5916 1.15321L94.4528 1.62128C94.4473 1.64011 94.4413 1.65874 94.4349 1.67717L94.2728 2.13777C94.2662 2.15633 94.2592 2.17476 94.2518 2.19305L94.0668 2.64478C94.0593 2.66307 94.0514 2.68116 94.043 2.69905L93.8354 3.14109C93.8271 3.15885 93.8183 3.17633 93.809 3.19355L93.5796 3.62449C93.5705 3.64157 93.561 3.65839 93.5512 3.67493L93.3006 4.09418C93.2909 4.11032 93.2808 4.12626 93.2703 4.14199L93 4.54853C92.9898 4.56386 92.9792 4.57893 92.9683 4.59372L92.679 4.98714C92.6685 5.0014 92.6577 5.01546 92.6465 5.02931L92.3396 5.40901C92.3289 5.42232 92.3178 5.43537 92.3065 5.44815L91.9833 5.81413C91.9726 5.82637 91.9615 5.83841 91.9501 5.85024L91.6119 6.2025L91.1979 6.6169L90.8525 6.9621L84.6379 13.1767L81.8759 15.9389L81.5307 16.2841L81.1853 16.6293L80.8401 16.9747L80.4949 17.3199L80.1495 17.6651L79.8043 18.0103L79.4591 18.3557L79.1139 18.7009L77.3875 20.4271L73.9349 23.8798L73.5897 24.2252L61.1604 36.6544L59.7792 38.0354L59.434 38.3808L59.0888 38.726L58.7434 39.0712L54.9456 42.869L53.2194 44.5954L52.9105 44.894C52.8998 44.9045 52.8888 44.9148 52.8776 44.9247L52.5139 45.2503C52.5012 45.2616 52.4884 45.2727 52.4753 45.2834L52.0977 45.5931C52.0841 45.6043 52.0701 45.6152 52.0559 45.6258L51.6649 45.9179C51.6502 45.9288 51.6353 45.9394 51.6201 45.9496L51.2158 46.2232C51.2002 46.2338 51.1843 46.244 51.1682 46.2537L50.7511 46.5075C50.7346 46.5176 50.7179 46.5272 50.7009 46.5363L50.2718 46.7693C50.2547 46.7786 50.2373 46.7875 50.2195 46.796L49.7793 47.007C49.7615 47.0156 49.7436 47.0237 49.7254 47.0314L49.2751 47.2201C49.2568 47.2276 49.2384 47.2347 49.2198 47.2414L48.7606 47.4071C48.7422 47.4138 48.7237 47.42 48.705 47.4256L48.2379 47.5683C48.2193 47.5739 48.2007 47.5791 48.182 47.5838L47.7085 47.703C47.6902 47.7076 47.6718 47.7118 47.6532 47.7156L47.1747 47.8116C47.1566 47.8152 47.1385 47.8185 47.1202 47.8213L46.6376 47.8947C46.62 47.8974 46.6023 47.8997 46.5847 47.9016L46.0993 47.9532C46.0822 47.955 46.0651 47.9564 46.0481 47.9575L45.5608 47.9877C45.5446 47.9888 45.5282 47.9895 45.5118 47.9897L45.0238 47.9996C45.0092 48 44.9946 48.0001 44.98 47.9998L44.5704 47.9928C44.5555 47.9925 44.5406 47.992 44.5256 47.9912L44.038 47.9643C44.021 47.9634 44.0042 47.962 43.9874 47.9603L43.5015 47.9123C43.4839 47.9105 43.4664 47.9084 43.4489 47.9058L42.9657 47.8358C42.9475 47.8333 42.9295 47.8302 42.9116 47.8267L42.4322 47.7343C42.4137 47.7307 42.3952 47.7267 42.3769 47.7222L41.9026 47.6066C41.8839 47.6022 41.8653 47.5972 41.8467 47.5917L41.3787 47.4529C41.3599 47.4474 41.3413 47.4414 41.3228 47.4349L40.8622 47.2729C40.8436 47.2663 40.8252 47.2593 40.8069 47.2519L40.3551 47.0669C40.3368 47.0594 40.3188 47.0515 40.3009 47.0431L39.859 46.8355C39.8413 46.8272 39.8237 46.8184 39.8064 46.8091L39.3755 46.5797C39.3584 46.5705 39.3416 46.5611 39.325 46.5512L38.9059 46.3007C38.8897 46.291 38.8737 46.2809 38.8579 46.2704L38.4515 46C38.4361 45.9898 38.4211 45.9793 38.4063 45.9684L38.0129 45.6791C37.9986 45.6686 37.9845 45.6577 37.9707 45.6466L37.591 45.3397C37.5777 45.3289 37.5646 45.3179 37.5518 45.3066L37.1858 44.9834C37.1736 44.9726 37.1615 44.9616 37.1497 44.9501L36.7976 44.612L36.7283 44.5432L34.6568 42.4716L34.3115 42.1264L31.8947 39.7095L30.1684 37.9831L27.0611 34.8759L26.3706 34.1853L26.0253 33.8401L23.9538 31.7685L21.1917 29.0065L20.8464 28.6613L20.5012 28.3159L20.1559 27.9707L19.8106 27.6255L18.7749 26.5897L18.0844 25.8991L17.7391 25.5539L16.0128 23.8277L14.2865 22.1013L11.8697 19.6845L11.1792 18.9941L10.8339 18.6487L7.72657 15.5415L7.38131 15.1961L7.03607 14.8509L6.69082 14.5057L4.27399 12.0888L2.89297 10.7078L2.54771 10.3624L1.51192 9.32664L-1.59545 6.21943L-1.89404 5.91054C-1.90453 5.89978 -1.91476 5.88882 -1.92471 5.87766L-2.25034 5.5139C-2.26164 5.50125 -2.27266 5.48841 -2.28343 5.47536L-2.59311 5.09768C-2.60428 5.08409 -2.61511 5.07024 -2.6256 5.05612L-2.91793 4.66492C-2.92883 4.65026 -2.93939 4.63533 -2.94961 4.62013L-3.22319 4.21581C-3.23382 4.20021 -3.24404 4.18434 -3.25386 4.1682L-3.50746 3.75117C-3.51755 3.73463 -3.52717 3.71788 -3.53631 3.70094L-3.76934 3.27181C-3.77862 3.25473 -3.78749 3.23731 -3.79596 3.21955L-4.007 2.77933C-4.01561 2.76157 -4.02375 2.74362 -4.03141 2.72546L-4.22005 2.27514C-4.22758 2.25685 -4.23471 2.23842 -4.24144 2.21986L-4.40708 1.76067C-4.4138 1.74225 -4.42006 1.72362 -4.42585 1.70479L-4.56828 1.23793C-4.57393 1.21937 -4.57911 1.20074 -4.58382 1.18204L-4.70305 0.708527C-4.70763 0.690237 -4.7118 0.671808 -4.71557 0.653248L-4.8116 0.174686C-4.81523 0.156662 -4.81846 0.138507 -4.82129 0.120213L-4.89473 -0.362381C-4.89742 -0.380001 -4.8997 -0.397621 -4.90159 -0.415241L-4.95324 -0.900661C-4.95499 -0.917741 -4.9564 -0.934828 -4.95747 -0.951908L-4.98774 -1.43914C-4.98881 -1.45542 -4.98948 -1.47176 -4.98975 -1.48817L-4.99964 -1.97621C-5.00004 -1.99073 -5.00011 -2.00533 -4.99984 -2.01999L-4.99278 -2.42955C-4.99251 -2.44448 -4.99197 -2.45941 -4.99116 -2.47434L-4.96433 -2.96198C-4.96339 -2.97892 -4.96204 -2.9958 -4.96029 -3.01262L-4.91228 -3.49844C-4.91053 -3.51606 -4.90837 -3.53361 -4.90582 -3.5511L-4.83581 -4.03431C-4.83326 -4.05247 -4.83023 -4.07049 -4.82673 -4.08838L-4.73433 -4.56774C-4.7307 -4.5863 -4.72667 -4.60473 -4.72223 -4.62302L-4.60662 -5.09735C-4.60218 -5.11604 -4.5972 -5.13467 -4.59169 -5.15323L-4.45289 -5.6213C-4.44737 -5.64006 -4.44138 -5.65868 -4.43493 -5.67715L-4.27292 -6.13771C-4.26633 -6.15634 -4.25933 -6.17479 -4.25193 -6.19305L-4.06693 -6.64486C-4.0594 -6.66314 -4.05146 -6.68121 -4.04313 -6.69909L-3.83551 -7.14099C-3.82717 -7.15873 -3.81837 -7.17625 -3.80909 -7.19356L-3.57969 -7.62451C-3.57055 -7.64156 -3.56106 -7.65839 -3.55124 -7.67499L-3.30066 -8.09407C-3.29098 -8.11031 -3.28089 -8.1263 -3.2704 -8.14205L-3.00005 -8.54852C-2.98983 -8.56384 -2.97927 -8.57891 -2.96837 -8.59372L-2.67906 -8.98704C-2.66857 -9.00136 -2.65774 -9.01544 -2.64658 -9.02926L-2.33971 -9.40902C-2.32895 -9.42231 -2.31792 -9.43536 -2.30662 -9.44816L-1.98341 -9.81416C-1.97265 -9.82641 -1.96156 -9.83845 -1.95012 -9.85026L-1.61198 -10.2024L-1.54318 -10.2717L-0.852574 -10.9622L1.90943 -13.7242L3.63574 -15.4505L3.981 -15.7958L8.1241 -19.9389L9.15987 -20.9747L10.5409 -22.3557L13.9935 -25.8083L14.3388 -26.1536L15.7198 -27.5346L17.4461 -29.2609L17.7914 -29.6062L19.8629 -31.6777L22.9703 -34.785L23.3155 -35.1303L23.6608 -35.4756L25.3871 -37.2018L26.0776 -37.8924L27.1134 -38.9281L31.947 -43.7618L32.6375 -44.4523L35.7448 -47.5596L36.7806 -48.5954L37.0894 -48.894C37.1002 -48.9045 37.1111 -48.9148 37.1223 -48.9247L37.486 -49.2503C37.4987 -49.2616 37.5116 -49.2727 37.5247 -49.2834L37.9022 -49.5929C37.9159 -49.6042 37.9298 -49.6151 37.944 -49.6256L38.3351 -49.9179C38.3498 -49.9288 38.3647 -49.9394 38.3799 -49.9496L38.7842 -50.2232C38.7998 -50.2338 38.8157 -50.244 38.8318 -50.2537L39.2489 -50.5075C39.2654 -50.5176 39.282 -50.5272 39.299 -50.5363L39.7281 -50.7691C39.7453 -50.7786 39.7627 -50.7875 39.7804 -50.796L40.2206 -51.007C40.2383 -51.0156 40.2564 -51.0237 40.2746 -51.0312L40.7249 -51.2201C40.7431 -51.2276 40.7615 -51.2347 40.78 -51.2414L41.2393 -51.4071C41.2577 -51.4138 41.2763 -51.42 41.2951 -51.4256L41.7621 -51.5683C41.7806 -51.5739 41.7992 -51.5791 41.8179 -51.5838L42.2915 -51.7029C42.3097 -51.7076 42.3282 -51.7118 42.3467 -51.7156L42.8253 -51.8116C42.8433 -51.8152 42.8615 -51.8185 42.8798 -51.8213L43.3624 -51.8947C43.38 -51.8974 43.3976 -51.8997 43.4152 -51.9016L43.9006 -51.9532C43.9177 -51.955 43.9348 -51.9564 43.9519 -51.9575L44.4391 -51.9877C44.4554 -51.9888 44.4717 -51.9895 44.4881 -51.9898L44.9762 -51.9996C44.9907 -52 45.0053 -52.0001 45.02 -51.9998L45.4295 -51.9928C45.4445 -51.9925 45.4595 -51.992 45.4745 -51.9912L45.962 -51.9643C45.9789 -51.9634 45.9958 -51.962 46.0126 -51.9603L46.4986 -51.9123C46.5161 -51.9105 46.5336 -51.9084 46.5511 -51.9058L47.0343 -51.8358C47.0524 -51.8333 47.0705 -51.8302 47.0885 -51.8267L47.5679 -51.7341C47.5863 -51.7306 47.6047 -51.7267 47.623 -51.7222L48.0973 -51.6066C48.1161 -51.6022 48.1348 -51.5972 48.1532 -51.5917L48.6213 -51.4529C48.6401 -51.4474 48.6587 -51.4414 48.6772 -51.4349L49.1378 -51.2729C49.1563 -51.2663 49.1748 -51.2593 49.193 -51.2519L49.6448 -51.0669C49.6631 -51.0594 49.6812 -51.0515 49.699 -51.0431L50.1411 -50.8355C50.1588 -50.8272 50.1763 -50.8184 50.1935 -50.8091L50.6245 -50.5797C50.6416 -50.5705 50.6584 -50.5611 50.6749 -50.5512L51.0942 -50.3007C51.1103 -50.291 51.1262 -50.2809 51.142 -50.2704L51.5485 -50.0001C51.5638 -49.9898 51.5789 -49.9793 51.5937 -49.9684L51.9871 -49.6791C52.0014 -49.6686 52.0154 -49.6577 52.0293 -49.6466L52.409 -49.3397C52.4223 -49.329 52.4354 -49.3179 52.4481 -49.3066L52.8141 -48.9834C52.8264 -48.9727 52.8384 -48.9616 52.8502 -48.9501L53.2025 -48.612L53.9621 -47.8526L54.9979 -46.8168L58.1053 -43.7095L58.4505 -43.3643L59.4863 -42.3285L61.2125 -40.6022L61.5579 -40.257L62.5937 -39.2212L63.6293 -38.1854L63.9747 -37.8401L64.3199 -37.4949L66.0461 -35.7686L66.3915 -35.4233L66.7367 -35.0781L67.4273 -34.3875L70.5346 -31.2802L70.8797 -30.9349L73.9872 -27.8276L77.0946 -24.7203L77.4398 -24.375L77.785 -24.0298L78.1304 -23.6845L78.8208 -22.994L81.9282 -19.8866L83.6544 -18.1603L83.9996 -17.8151L85.3808 -16.4341L86.0712 -15.7435L89.5238 -12.2909L91.5954 -10.2194L91.894 -9.9106C91.9045 -9.89984 91.9147 -9.88889 91.9247 -9.87774L92.2503 -9.51398C92.2616 -9.50133 92.2726 -9.48845 92.2834 -9.47532L92.5928 -9.09776C92.6041 -9.0841 92.615 -9.07018 92.6255 -9.05602L92.9179 -8.66488C92.9288 -8.65022 92.9393 -8.63531 92.9496 -8.62015L93.2231 -8.21575C93.2337 -8.20015 93.2439 -8.1843 93.2536 -8.1682L93.5074 -7.75111C93.5175 -7.73465 93.5271 -7.71795 93.5363 -7.70102L93.7691 -7.27193C93.7785 -7.25472 93.7874 -7.23729 93.7959 -7.21963L94.0069 -6.77943C94.0155 -6.76165 94.0236 -6.74366 94.0312 -6.72546L94.22 -6.27516C94.2275 -6.25694 94.2346 -6.23854 94.2414 -6.21996L94.407 -5.76071C94.4137 -5.74227 94.4199 -5.72367 94.4256 -5.70491L94.5682 -5.23795C94.5738 -5.21939 94.5789 -5.20076 94.5838 -5.18206L94.7028 -4.70855C94.7075 -4.69026 94.7118 -4.67183 94.7155 -4.65327L94.8115 -4.17471C94.8152 -4.15668 94.8184 -4.13853 94.8212 -4.12023L94.8947 -3.63763C94.8974 -3.62001 94.8996 -3.60239 94.9015 -3.58477L94.9532 -3.09935C94.9549 -3.08227 94.9563 -3.06526 94.9574 -3.04831L94.9877 -2.56087C94.9888 -2.5446 94.9894 -2.52826 94.9897 -2.51185L94.9996 -2.02381C95 -2.00928 95.0001 -1.99469 94.9998 -1.98003L94.9927 -1.57047C94.9924 -1.55554 94.9919 -1.54053 94.9911 -1.52547ZM92.6449 -2.43982L92.6177 -2.87722L92.5716 -3.31038L92.5063 -3.73951L92.4212 -4.1634L92.3158 -4.58103L92.1905 -4.99221L92.0449 -5.39592L91.879 -5.79158L91.6934 -6.17866L91.4884 -6.55647L91.2643 -6.92479L91.022 -7.28304L90.7621 -7.63091L90.4855 -7.96832L90.1916 -8.29663L89.9366 -8.56063L87.8649 -10.6322L84.4125 -14.0848L84.0671 -14.43L83.722 -14.7753L82.341 -16.1563L81.9957 -16.5016L80.2693 -18.2279L77.1619 -21.3352L76.4715 -22.0258L76.1263 -22.371L75.7809 -22.7163L75.4357 -23.0615L72.3283 -26.1689L69.2211 -29.2762L68.8759 -29.6214L65.7685 -32.7288L65.0779 -33.4193L64.3875 -34.1098L62.6611 -35.8361L61.9707 -36.5266L61.2801 -37.2171L60.9349 -37.5624L59.8991 -38.5982L59.5539 -38.9434L58.1729 -40.3245L56.7917 -41.7055L56.4465 -42.0508L53.3391 -45.1581L52.3035 -46.194L51.5776 -46.9201L51.2431 -47.2413L50.9148 -47.5312L50.5756 -47.8052L50.226 -48.0622L49.8663 -48.3017L49.4965 -48.5226L49.117 -48.7247L48.7286 -48.9071L48.3315 -49.0697L47.9266 -49.2122L47.5144 -49.3342L47.0956 -49.4361L46.6709 -49.5182L46.2412 -49.5804L45.807 -49.6234L45.3674 -49.6478L45.002 -49.6538L44.5602 -49.6449L44.123 -49.6177L43.6894 -49.5717L43.2605 -49.5063L42.8366 -49.4212L42.4189 -49.3159L42.0078 -49.1906L41.6041 -49.0449L41.2084 -48.8791L40.8213 -48.6935L40.4434 -48.4883L40.0752 -48.2643L39.7169 -48.022L39.369 -47.7622L39.0317 -47.4856L38.7034 -47.1916L38.4393 -46.9366L37.4036 -45.9008L34.2962 -42.7935L33.6057 -42.103L28.7721 -37.2694L27.7363 -36.2336L27.0458 -35.5431L25.3195 -33.8168L24.9742 -33.4715L24.629 -33.1263L21.5216 -30.0189L19.4501 -27.9474L19.1048 -27.6021L17.3785 -25.8758L15.9975 -24.4948L15.6522 -24.1495L12.1996 -20.6969L10.8186 -19.3159L9.78282 -18.2801L5.63972 -14.137L5.29447 -13.7917L3.56817 -12.0654L0.806026 -9.30337L0.115627 -8.61285L0.0799136 -8.57758L-0.241276 -8.24311L-0.531193 -7.91474L-0.805172 -7.57568L-1.06221 -7.22606L-1.30169 -6.86621L-1.52261 -6.49635L-1.72477 -6.11697L-1.90715 -5.72853L-2.06977 -5.33155L-2.21221 -4.92662L-2.33426 -4.51444L-2.43635 -4.0956L-2.51826 -3.67091L-2.5804 -3.24097L-2.62338 -2.807L-2.64779 -2.36718L-2.65384 -2.002L-2.64496 -1.56016L-2.61773 -1.12296L-2.57173 -0.689392L-2.50636 -0.260464L-2.42122 0.163422L-2.31591 0.581253L-2.19062 0.992229L-2.04495 1.39594L-1.87911 1.79158L-1.69349 2.17874L-1.48851 2.55663L-1.26436 2.92483L-1.02206 3.28314L-0.762204 3.63097L-0.485592 3.9683L-0.191639 4.29655L0.0633731 4.56065L3.17066 7.66806L4.20645 8.70386L4.55171 9.04906L5.93275 10.4301L8.34956 12.8469L8.69481 13.1921L9.04007 13.5375L9.38533 13.8827L12.4927 16.9901L13.5284 18.0257L15.9453 20.4425L17.6716 22.1689L19.3979 23.8951L19.7431 24.2405L20.4336 24.9309L21.4694 25.9667L21.8147 26.3119L22.1599 26.6573L22.5052 27.0025L22.8505 27.3477L25.6125 30.1099L27.6841 32.1813L28.0293 32.5267L28.7199 33.2171L31.8272 36.3245L33.5535 38.0508L35.9703 40.4676L36.3156 40.813L38.3871 42.8844L38.4224 42.9201L38.7568 43.2413L39.0852 43.5312L39.4243 43.8052L39.7739 44.0622L40.1338 44.3017L40.5036 44.5228L40.8829 44.7248L41.2715 44.9072L41.6684 45.0698L42.0733 45.2122L42.4855 45.3343L42.9044 45.4362L43.329 45.5183L43.759 45.5804L44.193 45.6234L44.6326 45.6478L44.998 45.6539L45.4398 45.645L45.8772 45.6177L46.3104 45.5717L46.7395 45.5064L47.1634 45.4212L47.581 45.3161L47.9922 45.1906L48.3959 45.045L48.7915 44.8791L49.1787 44.6935L49.5566 44.4885L49.9248 44.2644L50.2829 44.0221L50.6309 43.7622L50.9682 43.4856L51.2967 43.1916L51.5606 42.9366L56.7396 37.7578L57.0848 37.4126L57.43 37.0672L57.7752 36.722L58.1206 36.3768L59.5016 34.9956L71.9309 22.5664L72.2763 22.2212L75.7287 18.7685L77.8003 16.6969L78.1457 16.3517L78.4909 16.0065L78.8361 15.6611L79.1813 15.3159L79.5267 14.9707L79.8719 14.6253L80.2171 14.2801L82.9793 11.5181L85.0507 9.44651L85.3961 9.10131L89.1939 5.30349L89.5391 4.95809L89.92 4.57758L90.2412 4.24327L90.5311 3.91482L90.8051 3.57567L91.0621 3.22623L91.3016 2.8663L91.5227 2.49628L91.7247 2.11719L91.9071 1.72861L92.0697 1.33156L92.2121 0.926636L92.3342 0.514454L92.4363 0.0956116L92.5182 -0.329079L92.5803 -0.758812L92.6233 -1.19299L92.6477 -1.63261L92.6538 -1.99798L92.6449 -2.43982Z" fill="#3ED99A"/>
<path d="M94.9911 -13.5255L94.9642 -13.038C94.9633 -13.0211 94.962 -13.0042 94.9602 -12.9874L94.9122 -12.5014C94.9105 -12.4839 94.9083 -12.4664 94.9057 -12.4489L94.8357 -11.9657C94.8332 -11.9476 94.8302 -11.9295 94.8267 -11.9116L94.7343 -11.4323C94.7306 -11.4137 94.7266 -11.3953 94.7221 -11.377L94.6065 -10.9027C94.6021 -10.8838 94.5971 -10.8652 94.5916 -10.8468L94.4528 -10.3787C94.4473 -10.3599 94.4413 -10.3413 94.4349 -10.3228L94.2728 -9.86223C94.2662 -9.84367 94.2592 -9.82524 94.2518 -9.80695L94.0668 -9.35522C94.0593 -9.33693 94.0514 -9.31884 94.043 -9.30095L93.8354 -8.85891C93.8271 -8.84115 93.8183 -8.82367 93.809 -8.80645L93.5796 -8.37551C93.5705 -8.35843 93.561 -8.34161 93.5512 -8.32507L93.3006 -7.90582C93.2909 -7.88968 93.2808 -7.87374 93.2703 -7.85801L93 -7.45147C92.9898 -7.43614 92.9792 -7.42107 92.9683 -7.40628L92.679 -7.01286C92.6685 -6.9986 92.6577 -6.98454 92.6465 -6.97069L92.3396 -6.59099C92.3289 -6.57768 92.3178 -6.56463 92.3065 -6.55185L91.9833 -6.18587C91.9726 -6.17363 91.9615 -6.16159 91.9501 -6.14976L91.6119 -5.7975L91.1979 -5.3831L90.8525 -5.0379L84.6379 1.17671L81.8759 3.93893L81.5307 4.28413L81.1853 4.62933L80.8401 4.97473L80.4949 5.31993L80.1495 5.66513L79.8043 6.01033L79.4591 6.35574L79.1139 6.70094L77.3875 8.42714L73.9349 11.8798L73.5897 12.2252L61.1604 24.6544L59.7792 26.0354L59.434 26.3808L59.0888 26.726L58.7434 27.0712L54.9456 30.869L53.2194 32.5954L52.9105 32.894C52.8998 32.9045 52.8888 32.9148 52.8776 32.9247L52.5139 33.2503C52.5012 33.2616 52.4884 33.2727 52.4753 33.2834L52.0977 33.5931C52.0841 33.6043 52.0701 33.6152 52.0559 33.6258L51.6649 33.9179C51.6502 33.9288 51.6353 33.9394 51.6201 33.9496L51.2158 34.2232C51.2002 34.2338 51.1843 34.244 51.1682 34.2537L50.7511 34.5075C50.7346 34.5176 50.7179 34.5272 50.7009 34.5363L50.2718 34.7693C50.2547 34.7786 50.2373 34.7875 50.2195 34.796L49.7793 35.007C49.7615 35.0156 49.7436 35.0237 49.7254 35.0314L49.2751 35.2201C49.2568 35.2276 49.2384 35.2347 49.2198 35.2414L48.7606 35.4071C48.7422 35.4138 48.7237 35.42 48.705 35.4256L48.2379 35.5683C48.2193 35.5739 48.2007 35.5791 48.182 35.5838L47.7085 35.703C47.6902 35.7076 47.6718 35.7118 47.6532 35.7156L47.1747 35.8116C47.1566 35.8152 47.1385 35.8185 47.1202 35.8213L46.6376 35.8947C46.62 35.8974 46.6023 35.8997 46.5847 35.9016L46.0993 35.9532C46.0822 35.955 46.0651 35.9564 46.0481 35.9575L45.5608 35.9877C45.5446 35.9888 45.5282 35.9895 45.5118 35.9897L45.0238 35.9996C45.0092 36 44.9946 36.0001 44.98 35.9998L44.5704 35.9928C44.5555 35.9925 44.5406 35.992 44.5256 35.9912L44.038 35.9643C44.021 35.9634 44.0042 35.962 43.9874 35.9603L43.5015 35.9123C43.4839 35.9105 43.4664 35.9084 43.4489 35.9058L42.9657 35.8358C42.9475 35.8333 42.9295 35.8302 42.9116 35.8267L42.4322 35.7343C42.4137 35.7307 42.3952 35.7267 42.3769 35.7222L41.9026 35.6066C41.8839 35.6022 41.8653 35.5972 41.8467 35.5917L41.3787 35.4529C41.3599 35.4474 41.3413 35.4414 41.3228 35.4349L40.8622 35.2729C40.8436 35.2663 40.8252 35.2593 40.8069 35.2519L40.3551 35.0669C40.3368 35.0594 40.3188 35.0515 40.3009 35.0431L39.859 34.8355C39.8413 34.8272 39.8237 34.8184 39.8064 34.8091L39.3755 34.5797C39.3584 34.5705 39.3416 34.5611 39.325 34.5512L38.9059 34.3007C38.8897 34.291 38.8737 34.2809 38.8579 34.2704L38.4515 34C38.4361 33.9898 38.4211 33.9793 38.4063 33.9684L38.0129 33.6791C37.9986 33.6686 37.9845 33.6577 37.9707 33.6466L37.591 33.3397C37.5777 33.3289 37.5646 33.3179 37.5518 33.3066L37.1858 32.9834C37.1736 32.9726 37.1615 32.9616 37.1497 32.9501L36.7976 32.612L36.7283 32.5432L34.6568 30.4716L34.3115 30.1264L31.8947 27.7095L30.1684 25.9831L27.0611 22.8759L26.3706 22.1853L26.0253 21.8401L23.9538 19.7685L21.1917 17.0065L20.8464 16.6613L20.5012 16.3159L20.1559 15.9707L19.8106 15.6255L18.7749 14.5897L18.0844 13.8991L17.7391 13.5539L16.0128 11.8277L14.2865 10.1013L11.8697 7.68448L11.1792 6.99407L10.8339 6.64867L7.72657 3.54146L7.38131 3.19605L7.03607 2.85085L6.69082 2.50565L4.27399 0.0888443L2.89297 -1.29215L2.54771 -1.63756L1.51192 -2.67336L-1.59545 -5.78057L-1.89404 -6.08946C-1.90453 -6.10022 -1.91476 -6.11118 -1.92471 -6.12234L-2.25034 -6.4861C-2.26164 -6.49875 -2.27266 -6.51159 -2.28343 -6.52464L-2.59311 -6.90232C-2.60428 -6.91591 -2.61511 -6.92976 -2.6256 -6.94388L-2.91793 -7.33508C-2.92883 -7.34974 -2.93939 -7.36467 -2.94961 -7.37987L-3.22319 -7.78419C-3.23382 -7.79979 -3.24404 -7.81566 -3.25386 -7.8318L-3.50746 -8.24883C-3.51755 -8.26537 -3.52717 -8.28212 -3.53631 -8.29906L-3.76934 -8.72819C-3.77862 -8.74527 -3.78749 -8.76269 -3.79596 -8.78045L-4.007 -9.22067C-4.01561 -9.23843 -4.02375 -9.25638 -4.03141 -9.27454L-4.22005 -9.72486C-4.22758 -9.74315 -4.23471 -9.76158 -4.24144 -9.78014L-4.40708 -10.2393C-4.4138 -10.2578 -4.42006 -10.2764 -4.42585 -10.2952L-4.56828 -10.7621C-4.57393 -10.7806 -4.57911 -10.7993 -4.58382 -10.818L-4.70305 -11.2915C-4.70763 -11.3098 -4.7118 -11.3282 -4.71557 -11.3468L-4.8116 -11.8253C-4.81523 -11.8433 -4.81846 -11.8615 -4.82129 -11.8798L-4.89473 -12.3624C-4.89742 -12.38 -4.8997 -12.3976 -4.90159 -12.4152L-4.95324 -12.9007C-4.95499 -12.9177 -4.9564 -12.9348 -4.95747 -12.9519L-4.98774 -13.4391C-4.98881 -13.4554 -4.98948 -13.4718 -4.98975 -13.4882L-4.99964 -13.9762C-5.00004 -13.9907 -5.00011 -14.0053 -4.99984 -14.02L-4.99278 -14.4295C-4.99251 -14.4445 -4.99197 -14.4594 -4.99116 -14.4743L-4.96433 -14.962C-4.96339 -14.9789 -4.96204 -14.9958 -4.96029 -15.0126L-4.91228 -15.4984C-4.91053 -15.5161 -4.90837 -15.5336 -4.90582 -15.5511L-4.83581 -16.0343C-4.83326 -16.0525 -4.83023 -16.0705 -4.82673 -16.0884L-4.73433 -16.5677C-4.7307 -16.5863 -4.72667 -16.6047 -4.72223 -16.623L-4.60662 -17.0973C-4.60218 -17.116 -4.5972 -17.1347 -4.59169 -17.1532L-4.45289 -17.6213C-4.44737 -17.6401 -4.44138 -17.6587 -4.43493 -17.6771L-4.27292 -18.1377C-4.26633 -18.1563 -4.25933 -18.1748 -4.25193 -18.1931L-4.06693 -18.6449C-4.0594 -18.6631 -4.05146 -18.6812 -4.04313 -18.6991L-3.83551 -19.141C-3.82717 -19.1587 -3.81837 -19.1763 -3.80909 -19.1936L-3.57969 -19.6245C-3.57055 -19.6416 -3.56106 -19.6584 -3.55124 -19.675L-3.30066 -20.0941C-3.29098 -20.1103 -3.28089 -20.1263 -3.2704 -20.142L-3.00005 -20.5485C-2.98983 -20.5638 -2.97927 -20.5789 -2.96837 -20.5937L-2.67906 -20.987C-2.66857 -21.0014 -2.65774 -21.0154 -2.64658 -21.0293L-2.33971 -21.409C-2.32895 -21.4223 -2.31792 -21.4354 -2.30662 -21.4482L-1.98341 -21.8142C-1.97265 -21.8264 -1.96156 -21.8384 -1.95012 -21.8503L-1.61198 -22.2024L-1.54318 -22.2717L-0.852574 -22.9622L1.90943 -25.7242L3.63574 -27.4505L3.981 -27.7958L8.1241 -31.9389L9.15987 -32.9747L10.5409 -34.3557L13.9935 -37.8083L14.3388 -38.1536L15.7198 -39.5346L17.4461 -41.2609L17.7914 -41.6062L19.8629 -43.6777L22.9703 -46.785L23.3155 -47.1303L23.6608 -47.4756L25.3871 -49.2018L26.0776 -49.8924L27.1134 -50.9281L31.947 -55.7618L32.6375 -56.4523L35.7448 -59.5596L36.7806 -60.5954L37.0894 -60.894C37.1002 -60.9045 37.1111 -60.9148 37.1223 -60.9247L37.486 -61.2503C37.4987 -61.2616 37.5116 -61.2727 37.5247 -61.2834L37.9022 -61.5929C37.9159 -61.6042 37.9298 -61.6151 37.944 -61.6256L38.3351 -61.9179C38.3498 -61.9288 38.3647 -61.9394 38.3799 -61.9496L38.7842 -62.2232C38.7998 -62.2338 38.8157 -62.244 38.8318 -62.2537L39.2489 -62.5075C39.2654 -62.5176 39.282 -62.5272 39.299 -62.5363L39.7281 -62.7691C39.7453 -62.7786 39.7627 -62.7875 39.7804 -62.796L40.2206 -63.007C40.2383 -63.0156 40.2564 -63.0237 40.2746 -63.0312L40.7249 -63.2201C40.7431 -63.2276 40.7615 -63.2347 40.78 -63.2414L41.2393 -63.4071C41.2577 -63.4138 41.2763 -63.42 41.2951 -63.4256L41.7621 -63.5683C41.7806 -63.5739 41.7992 -63.5791 41.8179 -63.5838L42.2915 -63.7029C42.3097 -63.7076 42.3282 -63.7118 42.3467 -63.7156L42.8253 -63.8116C42.8433 -63.8152 42.8615 -63.8185 42.8798 -63.8213L43.3624 -63.8947C43.38 -63.8974 43.3976 -63.8997 43.4152 -63.9016L43.9006 -63.9532C43.9177 -63.955 43.9348 -63.9564 43.9519 -63.9575L44.4391 -63.9877C44.4554 -63.9888 44.4717 -63.9895 44.4881 -63.9898L44.9762 -63.9996C44.9907 -64 45.0053 -64.0001 45.02 -63.9998L45.4295 -63.9928C45.4445 -63.9925 45.4595 -63.992 45.4745 -63.9912L45.962 -63.9643C45.9789 -63.9634 45.9958 -63.962 46.0126 -63.9603L46.4986 -63.9123C46.5161 -63.9105 46.5336 -63.9084 46.5511 -63.9058L47.0343 -63.8358C47.0524 -63.8333 47.0705 -63.8302 47.0885 -63.8267L47.5679 -63.7341C47.5863 -63.7306 47.6047 -63.7267 47.623 -63.7222L48.0973 -63.6066C48.1161 -63.6022 48.1348 -63.5972 48.1532 -63.5917L48.6213 -63.4529C48.6401 -63.4474 48.6587 -63.4414 48.6772 -63.4349L49.1378 -63.2729C49.1563 -63.2663 49.1748 -63.2593 49.193 -63.2519L49.6448 -63.0669C49.6631 -63.0594 49.6812 -63.0515 49.699 -63.0431L50.1411 -62.8355C50.1588 -62.8272 50.1763 -62.8184 50.1935 -62.8091L50.6245 -62.5797C50.6416 -62.5705 50.6584 -62.5611 50.6749 -62.5512L51.0942 -62.3007C51.1103 -62.291 51.1262 -62.2809 51.142 -62.2704L51.5485 -62.0001C51.5638 -61.9898 51.5789 -61.9793 51.5937 -61.9684L51.9871 -61.6791C52.0014 -61.6686 52.0154 -61.6577 52.0293 -61.6466L52.409 -61.3397C52.4223 -61.329 52.4354 -61.3179 52.4481 -61.3066L52.8141 -60.9834C52.8264 -60.9727 52.8384 -60.9616 52.8502 -60.9501L53.2025 -60.612L53.9621 -59.8526L54.9979 -58.8168L58.1053 -55.7095L58.4505 -55.3643L59.4863 -54.3285L61.2125 -52.6022L61.5579 -52.257L62.5937 -51.2212L63.6293 -50.1854L63.9747 -49.8401L64.3199 -49.4949L66.0461 -47.7686L66.3915 -47.4233L66.7367 -47.0781L67.4273 -46.3875L70.5346 -43.2802L70.8797 -42.9349L73.9872 -39.8276L77.0946 -36.7203L77.4398 -36.375L77.785 -36.0298L78.1304 -35.6845L78.8208 -34.994L81.9282 -31.8866L83.6544 -30.1603L83.9996 -29.8151L85.3808 -28.4341L86.0712 -27.7435L89.5238 -24.2909L91.5954 -22.2194L91.894 -21.9106C91.9045 -21.8998 91.9147 -21.8889 91.9247 -21.8777L92.2503 -21.514C92.2616 -21.5013 92.2726 -21.4884 92.2834 -21.4753L92.5928 -21.0978C92.6041 -21.0841 92.615 -21.0702 92.6255 -21.056L92.9179 -20.6649C92.9288 -20.6502 92.9393 -20.6353 92.9496 -20.6201L93.2231 -20.2158C93.2337 -20.2002 93.2439 -20.1843 93.2536 -20.1682L93.5074 -19.7511C93.5175 -19.7346 93.5271 -19.718 93.5363 -19.701L93.7691 -19.2719C93.7785 -19.2547 93.7874 -19.2373 93.7959 -19.2196L94.0069 -18.7794C94.0155 -18.7616 94.0236 -18.7437 94.0312 -18.7255L94.22 -18.2752C94.2275 -18.2569 94.2346 -18.2385 94.2414 -18.22L94.407 -17.7607C94.4137 -17.7423 94.4199 -17.7237 94.4256 -17.7049L94.5682 -17.2379C94.5738 -17.2194 94.5789 -17.2008 94.5838 -17.1821L94.7028 -16.7085C94.7075 -16.6903 94.7118 -16.6718 94.7155 -16.6533L94.8115 -16.1747C94.8152 -16.1567 94.8184 -16.1385 94.8212 -16.1202L94.8947 -15.6376C94.8974 -15.62 94.8996 -15.6024 94.9015 -15.5848L94.9532 -15.0994C94.9549 -15.0823 94.9563 -15.0653 94.9574 -15.0483L94.9877 -14.5609C94.9888 -14.5446 94.9894 -14.5283 94.9897 -14.5118L94.9996 -14.0238C95 -14.0093 95.0001 -13.9947 94.9998 -13.98L94.9927 -13.5705C94.9924 -13.5555 94.9919 -13.5405 94.9911 -13.5255ZM92.6449 -14.4398L92.6177 -14.8772L92.5716 -15.3104L92.5063 -15.7395L92.4212 -16.1634L92.3158 -16.581L92.1905 -16.9922L92.0449 -17.3959L91.879 -17.7916L91.6934 -18.1787L91.4884 -18.5565L91.2643 -18.9248L91.022 -19.283L90.7621 -19.6309L90.4855 -19.9683L90.1916 -20.2966L89.9366 -20.5606L87.8649 -22.6322L84.4125 -26.0848L84.0671 -26.43L83.722 -26.7753L82.341 -28.1563L81.9957 -28.5016L80.2693 -30.2279L77.1619 -33.3352L76.4715 -34.0258L76.1263 -34.371L75.7809 -34.7163L75.4357 -35.0615L72.3283 -38.1689L69.2211 -41.2762L68.8759 -41.6214L65.7685 -44.7288L65.0779 -45.4193L64.3875 -46.1098L62.6611 -47.8361L61.9707 -48.5266L61.2801 -49.2171L60.9349 -49.5624L59.8991 -50.5982L59.5539 -50.9434L58.1729 -52.3245L56.7917 -53.7055L56.4465 -54.0508L53.3391 -57.1581L52.3035 -58.194L51.5776 -58.9201L51.2431 -59.2413L50.9148 -59.5312L50.5756 -59.8052L50.226 -60.0622L49.8663 -60.3017L49.4965 -60.5226L49.117 -60.7247L48.7286 -60.9071L48.3315 -61.0697L47.9266 -61.2122L47.5144 -61.3342L47.0956 -61.4361L46.6709 -61.5182L46.2412 -61.5804L45.807 -61.6234L45.3674 -61.6478L45.002 -61.6538L44.5602 -61.6449L44.123 -61.6177L43.6894 -61.5717L43.2605 -61.5063L42.8366 -61.4212L42.4189 -61.3159L42.0078 -61.1906L41.6041 -61.0449L41.2084 -60.8791L40.8213 -60.6935L40.4434 -60.4883L40.0752 -60.2643L39.7169 -60.022L39.369 -59.7622L39.0317 -59.4856L38.7034 -59.1916L38.4393 -58.9366L37.4036 -57.9008L34.2962 -54.7935L33.6057 -54.103L28.7721 -49.2694L27.7363 -48.2336L27.0458 -47.5431L25.3195 -45.8168L24.9742 -45.4715L24.629 -45.1263L21.5216 -42.0189L19.4501 -39.9474L19.1048 -39.6021L17.3785 -37.8758L15.9975 -36.4948L15.6522 -36.1495L12.1996 -32.6969L10.8186 -31.3159L9.78282 -30.2801L5.63972 -26.137L5.29447 -25.7917L3.56817 -24.0654L0.806026 -21.3034L0.115627 -20.6128L0.0799136 -20.5776L-0.241276 -20.2431L-0.531193 -19.9147L-0.805172 -19.5757L-1.06221 -19.2261L-1.30169 -18.8662L-1.52261 -18.4963L-1.72477 -18.117L-1.90715 -17.7285L-2.06977 -17.3315L-2.21221 -16.9266L-2.33426 -16.5144L-2.43635 -16.0956L-2.51826 -15.6709L-2.5804 -15.241L-2.62338 -14.807L-2.64779 -14.3672L-2.65384 -14.002L-2.64496 -13.5602L-2.61773 -13.123L-2.57173 -12.6894L-2.50636 -12.2605L-2.42122 -11.8366L-2.31591 -11.4187L-2.19062 -11.0078L-2.04495 -10.6041L-1.87911 -10.2084L-1.69349 -9.82126L-1.48851 -9.44337L-1.26436 -9.07517L-1.02206 -8.71686L-0.762204 -8.36903L-0.485592 -8.0317L-0.191639 -7.70345L0.0633731 -7.43935L3.17066 -4.33194L4.20645 -3.29614L4.55171 -2.95094L5.93275 -1.56993L8.34956 0.84687L8.69481 1.19207L9.04007 1.53748L9.38533 1.88268L12.4927 4.99008L13.5284 6.02569L15.9453 8.4425L17.6716 10.1689L19.3979 11.8951L19.7431 12.2405L20.4336 12.9309L21.4694 13.9667L21.8147 14.3119L22.1599 14.6573L22.5052 15.0025L22.8505 15.3477L25.6125 18.1099L27.6841 20.1813L28.0293 20.5267L28.7199 21.2171L31.8272 24.3245L33.5535 26.0508L35.9703 28.4676L36.3156 28.813L38.3871 30.8844L38.4224 30.9201L38.7568 31.2413L39.0852 31.5312L39.4243 31.8052L39.7739 32.0622L40.1338 32.3017L40.5036 32.5228L40.8829 32.7248L41.2715 32.9072L41.6684 33.0698L42.0733 33.2122L42.4855 33.3343L42.9044 33.4362L43.329 33.5183L43.759 33.5804L44.193 33.6234L44.6326 33.6478L44.998 33.6539L45.4398 33.645L45.8772 33.6177L46.3104 33.5717L46.7395 33.5064L47.1634 33.4212L47.581 33.3161L47.9922 33.1906L48.3959 33.045L48.7915 32.8791L49.1787 32.6935L49.5566 32.4885L49.9248 32.2644L50.2829 32.0221L50.6309 31.7622L50.9682 31.4856L51.2967 31.1916L51.5606 30.9366L56.7396 25.7578L57.0848 25.4126L57.43 25.0672L57.7752 24.722L58.1206 24.3768L59.5016 22.9956L71.9309 10.5664L72.2763 10.2212L75.7287 6.76854L77.8003 4.69693L78.1457 4.35173L78.4909 4.00653L78.8361 3.66113L79.1813 3.31593L79.5267 2.97073L79.8719 2.62532L80.2171 2.28012L82.9793 -0.481884L85.0507 -2.55349L85.3961 -2.89869L89.1939 -6.69651L89.5391 -7.04191L89.92 -7.42242L90.2412 -7.75673L90.5311 -8.08518L90.8051 -8.42433L91.0621 -8.77377L91.3016 -9.1337L91.5227 -9.50372L91.7247 -9.88281L91.9071 -10.2714L92.0697 -10.6684L92.2121 -11.0734L92.3342 -11.4855L92.4363 -11.9044L92.5182 -12.3291L92.5803 -12.7588L92.6233 -13.193L92.6477 -13.6326L92.6538 -13.998L92.6449 -14.4398Z" fill="#3ED99A"/>
</svg>
