<svg width="101" height="100" viewBox="0 0 101 100" fill="none" xmlns="http://www.w3.org/2000/svg">
<path d="M100.095 50.4745L100.068 50.962C100.067 50.9789 100.065 50.9958 100.064 51.0126L100.016 51.4986C100.014 51.5161 100.012 51.5336 100.009 51.5511L99.9392 52.0343C99.9367 52.0524 99.9337 52.0705 99.9302 52.0884L99.8378 52.5677C99.8341 52.5863 99.8301 52.6047 99.8257 52.623L99.7101 53.0973C99.7056 53.1162 99.7007 53.1348 99.6951 53.1532L99.5563 53.6213C99.5508 53.6401 99.5448 53.6587 99.5384 53.6772L99.3764 54.1378C99.3698 54.1563 99.3627 54.1748 99.3554 54.1931L99.1704 54.6448C99.1628 54.6631 99.1549 54.6812 99.1466 54.699L98.9389 55.1411C98.9306 55.1588 98.9218 55.1763 98.9125 55.1935L98.6831 55.6245C98.674 55.6416 98.6645 55.6584 98.6547 55.6749L98.4041 56.0942C98.3944 56.1103 98.3843 56.1263 98.3738 56.142L98.1035 56.5485C98.0933 56.5639 98.0827 56.5789 98.0718 56.5937L97.7825 56.9871C97.772 57.0014 97.7612 57.0155 97.75 57.0293L97.4432 57.409C97.4324 57.4223 97.4213 57.4354 97.41 57.4481L97.0869 57.8141C97.0761 57.8264 97.065 57.8384 97.0536 57.8502L96.7154 58.2025L96.3014 58.6169L95.956 58.9621L89.7414 65.1767L86.9794 67.9389L86.6342 68.2841L86.2888 68.6293L85.9436 68.9747L85.5984 69.3199L85.253 69.6651L84.9078 70.0103L84.5626 70.3557L84.2174 70.7009L82.491 72.4271L79.0384 75.8798L78.6932 76.2252L66.2639 88.6544L64.8827 90.0354L64.5375 90.3808L64.1923 90.726L63.8469 91.0712L60.0491 94.869L58.3229 96.5954L58.014 96.894C58.0033 96.9045 57.9923 96.9148 57.9812 96.9247L57.6174 97.2503C57.6047 97.2616 57.5919 97.2727 57.5789 97.2834L57.2012 97.5931C57.1876 97.6043 57.1737 97.6152 57.1594 97.6258L56.7684 97.9179C56.7537 97.9288 56.7388 97.9394 56.7236 97.9496L56.3193 98.2232C56.3037 98.2338 56.2878 98.244 56.2717 98.2537L55.8547 98.5075C55.8381 98.5176 55.8214 98.5272 55.8044 98.5363L55.3753 98.7693C55.3582 98.7786 55.3408 98.7875 55.323 98.796L54.8828 99.007C54.8651 99.0156 54.8471 99.0237 54.829 99.0314L54.3786 99.2201C54.3603 99.2276 54.3419 99.2347 54.3234 99.2414L53.8642 99.4071C53.8457 99.4138 53.8272 99.42 53.8085 99.4256L53.3414 99.5683C53.3229 99.5739 53.3042 99.5791 53.2855 99.5838L52.812 99.703C52.7937 99.7076 52.7753 99.7118 52.7567 99.7156L52.2782 99.8116C52.2602 99.8152 52.242 99.8185 52.2237 99.8213L51.7411 99.8947C51.7235 99.8974 51.7059 99.8997 51.6882 99.9016L51.2028 99.9532C51.1857 99.955 51.1687 99.9564 51.1516 99.9575L50.6643 99.9877C50.6481 99.9888 50.6317 99.9895 50.6153 99.9897L50.1273 99.9996C50.1128 100 50.0982 100 50.0835 99.9998L49.6739 99.9928C49.659 99.9925 49.6441 99.992 49.6292 99.9912L49.1415 99.9643C49.1246 99.9634 49.1077 99.962 49.0909 99.9603L48.605 99.9123C48.5874 99.9105 48.5699 99.9084 48.5524 99.9058L48.0692 99.8358C48.051 99.8333 48.033 99.8302 48.0151 99.8267L47.5357 99.7343C47.5172 99.7307 47.4988 99.7267 47.4805 99.7222L47.0061 99.6066C46.9875 99.6022 46.9688 99.5972 46.9503 99.5917L46.4822 99.4529C46.4634 99.4474 46.4448 99.4414 46.4263 99.4349L45.9658 99.2729C45.9471 99.2663 45.9287 99.2593 45.9104 99.2519L45.4586 99.0669C45.4404 99.0594 45.4223 99.0515 45.4044 99.0431L44.9625 98.8355C44.9448 98.8272 44.9272 98.8184 44.9099 98.8091L44.479 98.5797C44.4619 98.5705 44.4451 98.5611 44.4285 98.5512L44.0094 98.3007C43.9932 98.291 43.9772 98.2809 43.9614 98.2704L43.555 98C43.5397 97.9898 43.5246 97.9793 43.5098 97.9684L43.1165 97.6791C43.1021 97.6686 43.0881 97.6577 43.0742 97.6466L42.6945 97.3397C42.6812 97.3289 42.6681 97.3179 42.6553 97.3066L42.2893 96.9834C42.2771 96.9726 42.265 96.9616 42.2532 96.9501L41.9011 96.612L41.8319 96.5432L39.7603 94.4716L39.4151 94.1264L36.9982 91.7095L35.272 89.9831L32.1646 86.8759L31.4741 86.1853L31.1288 85.8401L29.0573 83.7685L26.2952 81.0065L25.95 80.6613L25.6047 80.3159L25.2594 79.9707L24.9142 79.6255L23.8784 78.5897L23.1879 77.8991L22.8426 77.5539L21.1163 75.8277L19.39 74.1013L16.9732 71.6845L16.2827 70.9941L15.9374 70.6487L12.8301 67.5415L12.4848 67.1961L12.1396 66.8509L11.7943 66.5057L9.37751 64.0888L7.99649 62.7078L7.65123 62.3624L6.61544 61.3266L3.50807 58.2194L3.20948 57.9105C3.19899 57.8998 3.18876 57.8888 3.17881 57.8777L2.85318 57.5139C2.84188 57.5013 2.83085 57.4884 2.82009 57.4754L2.5104 57.0977C2.49924 57.0841 2.48841 57.0702 2.47792 57.0561L2.18558 56.6649C2.17469 56.6503 2.16412 56.6353 2.1539 56.6201L1.88032 56.2158C1.8697 56.2002 1.85947 56.1843 1.84966 56.1682L1.59606 55.7512C1.58597 55.7346 1.57635 55.7179 1.5672 55.7009L1.33418 55.2718C1.3249 55.2547 1.31602 55.2373 1.30755 55.2196L1.09652 54.7793C1.08791 54.7616 1.07977 54.7436 1.0721 54.7255L0.883464 54.2751C0.875934 54.2569 0.868804 54.2384 0.862079 54.2199L0.696437 53.7607C0.689712 53.7422 0.683454 53.7236 0.677669 53.7048L0.535236 53.2379C0.529586 53.2194 0.524405 53.2007 0.519695 53.182L0.400463 52.7085C0.395888 52.6902 0.391715 52.6718 0.38795 52.6532L0.291919 52.1747C0.288289 52.1567 0.285055 52.1385 0.28223 52.1202L0.208789 51.6376C0.206099 51.62 0.203815 51.6024 0.20193 51.5848L0.150279 51.0993C0.148529 51.0823 0.14712 51.0652 0.146045 51.0481L0.115779 50.5609C0.114704 50.5446 0.114035 50.5282 0.113765 50.5118L0.103877 50.0238C0.103472 50.0093 0.103409 49.9947 0.103679 49.98L0.110736 49.5705C0.111006 49.5555 0.111544 49.5406 0.112354 49.5257L0.139186 49.038C0.140126 49.0211 0.141472 49.0042 0.143222 48.9874L0.191234 48.5016C0.192984 48.4839 0.195141 48.4664 0.197696 48.4489L0.267703 47.9657C0.270258 47.9475 0.273282 47.9295 0.276782 47.9116L0.36919 47.4323C0.37282 47.4137 0.37685 47.3953 0.38129 47.377L0.496898 46.9027C0.501338 46.884 0.506314 46.8653 0.511829 46.8468L0.65063 46.3787C0.656145 46.3599 0.662135 46.3413 0.66859 46.3229L0.8306 45.8623C0.83719 45.8437 0.844186 45.8252 0.851581 45.8069L1.03659 45.3551C1.04412 45.3369 1.05205 45.3188 1.06039 45.3009L1.268 44.859C1.27634 44.8413 1.28515 44.8237 1.29443 44.8064L1.52382 44.3755C1.53297 44.3584 1.54246 44.3416 1.55227 44.325L1.80285 43.9059C1.81254 43.8897 1.82262 43.8737 1.83312 43.858L2.10347 43.4515C2.11369 43.4362 2.12425 43.4211 2.13514 43.4063L2.42446 43.013C2.43495 42.9986 2.44578 42.9846 2.45694 42.9707L2.7638 42.591C2.77456 42.5777 2.78559 42.5646 2.79689 42.5518L3.12011 42.1858C3.13087 42.1736 3.14196 42.1616 3.15339 42.1497L3.49153 41.7976L3.56034 41.7283L4.25094 41.0378L7.01295 38.2758L8.73925 36.5495L9.08451 36.2042L13.2276 32.0611L14.2634 31.0253L15.6444 29.6443L19.097 26.1917L19.4423 25.8464L20.8233 24.4654L22.5496 22.7391L22.8949 22.3938L24.9664 20.3223L28.0738 17.215L28.419 16.8697L28.7643 16.5244L30.4906 14.7982L31.1811 14.1076L32.2169 13.0719L37.0505 8.23821L37.741 7.54771L40.8484 4.44036L41.8842 3.40456L42.1929 3.10596C42.2037 3.09547 42.2146 3.08525 42.2258 3.0753L42.5895 2.74967C42.6022 2.73837 42.6151 2.72734 42.6282 2.71658L43.0058 2.40709C43.0194 2.39579 43.0333 2.38489 43.0475 2.3744L43.4386 2.08206C43.4533 2.07117 43.4682 2.06061 43.4834 2.05039L43.8877 1.77681C43.9034 1.76618 43.9192 1.75603 43.9353 1.74634L44.3524 1.49254C44.3689 1.48245 44.3856 1.47283 44.4025 1.46369L44.8316 1.23086C44.8488 1.22145 44.8662 1.2125 44.8839 1.20403L45.3241 0.992993C45.3419 0.984383 45.3599 0.976313 45.3781 0.968783L45.8284 0.779943C45.8466 0.772413 45.865 0.765283 45.8836 0.758558L46.3428 0.592918C46.3612 0.586193 46.3798 0.580008 46.3986 0.574358L46.8656 0.431718C46.8841 0.426068 46.9028 0.420893 46.9215 0.416183L47.395 0.297148C47.4133 0.292438 47.4317 0.288203 47.4502 0.284438L47.9288 0.188403C47.9468 0.184773 47.965 0.181543 47.9833 0.178718L48.4659 0.105278C48.4835 0.102588 48.5011 0.100303 48.5187 0.0984179L49.0042 0.0467679C49.0212 0.0450179 49.0383 0.0436079 49.0554 0.0425329L49.5426 0.0122679C49.5589 0.0111929 49.5753 0.0105179 49.5917 0.0102479L50.0797 0.000362882C50.0942 -4.21159e-05 50.1088 -0.000107116 50.1235 0.000162882L50.533 0.00722288C50.548 0.00749288 50.563 0.00802789 50.578 0.00883788L51.0655 0.0356729C51.0824 0.0366129 51.0993 0.0379579 51.1161 0.0397079L51.6021 0.0877229C51.6196 0.0894729 51.6371 0.0916229 51.6546 0.0941779L52.1378 0.164188C52.156 0.166743 52.174 0.169768 52.1921 0.173268L52.6714 0.265873C52.6899 0.269368 52.7082 0.273338 52.7265 0.277778L53.2008 0.393383C53.2197 0.397823 53.2383 0.402798 53.2567 0.408313L53.7248 0.547118C53.7436 0.552633 53.7622 0.558618 53.7807 0.565073L54.2413 0.727083C54.2598 0.733673 54.2783 0.740668 54.2966 0.748063L54.7483 0.933073C54.7666 0.940603 54.7847 0.948543 54.8026 0.956878L55.2446 1.16448C55.2623 1.17282 55.2798 1.18163 55.2971 1.19091L55.728 1.42031C55.7451 1.42945 55.7619 1.43894 55.7784 1.44875L56.1977 1.69933C56.2138 1.70902 56.2298 1.7191 56.2455 1.7296L56.652 1.99995C56.6674 2.01017 56.6824 2.02073 56.6972 2.03162L57.0906 2.32094C57.1049 2.33143 57.119 2.34226 57.1328 2.35342L57.5125 2.66029C57.5258 2.67105 57.5389 2.68208 57.5516 2.69338L57.9176 3.01659C57.9299 3.02735 57.9419 3.03844 57.9537 3.04988L58.306 3.38802L59.0656 4.14742L60.1014 5.18322L63.2088 8.29045L63.554 8.63571L64.5898 9.6715L66.316 11.3978L66.6614 11.743L67.6972 12.7788L68.7328 13.8146L69.0782 14.1599L69.4234 14.5051L71.1497 16.2314L71.4951 16.5767L71.8403 16.9219L72.5309 17.6125L75.6381 20.7198L75.9833 21.0651L79.0907 24.1724L82.1981 27.2797L82.5433 27.625L82.8885 27.9702L83.2339 28.3155L83.9243 29.006L87.0317 32.1134L88.7579 33.8397L89.1031 34.1849L90.4843 35.5659L91.1747 36.2565L94.6273 39.7091L96.6989 41.7806L96.9975 42.0894C97.008 42.1002 97.0182 42.1111 97.0282 42.1223L97.3538 42.486C97.3651 42.4987 97.3761 42.5116 97.3869 42.5247L97.6964 42.9022C97.7077 42.9159 97.7186 42.9298 97.729 42.944L98.0214 43.3351C98.0323 43.3498 98.0429 43.3647 98.0531 43.3799L98.3266 43.7842C98.3373 43.7998 98.3474 43.8157 98.3571 43.8318L98.6109 44.2489C98.621 44.2654 98.6306 44.282 98.6398 44.299L98.8726 44.7281C98.882 44.7453 98.8909 44.7627 98.8994 44.7804L99.1105 45.2206C99.1191 45.2384 99.1272 45.2563 99.1347 45.2745L99.3235 45.7248C99.3311 45.7431 99.3382 45.7615 99.3449 45.78L99.5105 46.2393C99.5173 46.2577 99.5234 46.2763 99.5291 46.2951L99.6718 46.7621C99.6773 46.7806 99.6825 46.7992 99.6873 46.8179L99.8063 47.2915C99.811 47.3097 99.8153 47.3282 99.819 47.3467L99.915 47.8253C99.9187 47.8433 99.9219 47.8615 99.9248 47.8798L99.9982 48.3624C100.001 48.38 100.003 48.3976 100.005 48.4152L100.057 48.9006C100.058 48.9177 100.06 48.9347 100.061 48.9517L100.091 49.4391C100.092 49.4554 100.093 49.4717 100.093 49.4882L100.103 49.9762C100.104 49.9907 100.104 50.0053 100.103 50.02L100.096 50.4295C100.096 50.4445 100.095 50.4595 100.095 50.4745ZM97.7484 49.5602L97.7212 49.1228L97.6751 48.6896L97.6098 48.2605L97.5247 47.8366L97.4193 47.419L97.294 47.0078L97.1484 46.6041L96.9826 46.2084L96.7969 45.8213L96.592 45.4435L96.3678 45.0752L96.1255 44.717L95.8656 44.3691L95.589 44.0317L95.2951 43.7034L95.0401 43.4394L92.9685 41.3678L89.5161 37.9152L89.1707 37.57L88.8255 37.2247L87.4445 35.8437L87.0993 35.4984L85.3728 33.7721L82.2654 30.6648L81.5751 29.9742L81.2298 29.629L80.8844 29.2837L80.5393 28.9385L77.4318 25.8311L74.3246 22.7238L73.9794 22.3786L70.872 19.2712L70.1814 18.5807L69.491 17.8902L67.7646 16.1639L67.0742 15.4734L66.3836 14.7829L66.0384 14.4376L65.0026 13.4018L64.6574 13.0566L63.2764 11.6755L61.8952 10.2945L61.55 9.94922L58.4426 6.84189L57.407 5.80605L56.6811 5.07994L56.3466 4.75875L56.0183 4.46883L55.6792 4.19485L55.3295 3.93781L54.9698 3.69833L54.6 3.47741L54.2205 3.27526L53.8321 3.09287L53.4351 2.93026L53.0301 2.78782L52.618 2.66576L52.1991 2.56387L51.7744 2.48176L51.3447 2.41962L50.9105 2.37664L50.4709 2.35223L50.1055 2.34618L49.6637 2.35505L49.2265 2.38229L48.7929 2.42829L48.364 2.49366L47.9401 2.5788L47.5225 2.68411L47.1113 2.8094L46.7076 2.95507L46.3119 3.12091L45.9248 3.30652L45.547 3.51171L45.1787 3.73565L44.8205 3.97796L44.4725 4.23782L44.1352 4.51442L43.8069 4.80838L43.5429 5.06339L42.5071 6.0992L39.3997 9.20647L38.7092 9.89699L33.8756 14.7306L32.8398 15.7664L32.1493 16.4569L30.423 18.1832L30.0778 18.5285L29.7325 18.8737L26.6252 21.9811L24.5536 24.0526L24.2084 24.3979L22.4821 26.1242L21.101 27.5052L20.7558 27.8505L17.3032 31.3031L15.9221 32.6841L14.8863 33.7199L10.7432 37.863L10.398 38.2083L8.67169 39.9346L5.90954 42.6966L5.21914 43.3872L5.18343 43.4224L4.86224 43.7569L4.57232 44.0853L4.29834 44.4243L4.0413 44.7739L3.80182 45.1338L3.58091 45.5037L3.37875 45.883L3.19636 46.2715L3.03375 46.6685L2.89131 47.0734L2.76925 47.4856L2.66716 47.9044L2.58525 48.3291L2.52311 48.759L2.48014 49.193L2.45573 49.6328L2.44967 49.998L2.45855 50.4398L2.48578 50.877L2.53179 51.3106L2.59716 51.7395L2.68229 52.1634L2.78761 52.5813L2.9129 52.9922L3.05857 53.3959L3.22441 53.7916L3.41002 54.1787L3.615 54.5566L3.83915 54.9248L4.08145 55.2831L4.34131 55.631L4.61792 55.9683L4.91188 56.2966L5.16689 56.5606L8.27418 59.6681L9.30996 60.7039L9.65522 61.0491L11.0363 62.4301L13.4531 64.8469L13.7983 65.1921L14.1436 65.5375L14.4888 65.8827L17.5962 68.9901L18.632 70.0257L21.0488 72.4425L22.7751 74.1689L24.5014 75.8951L24.8466 76.2405L25.5372 76.9309L26.5729 77.9667L26.9182 78.3119L27.2634 78.6573L27.6087 79.0025L27.954 79.3477L30.716 82.1099L32.7876 84.1813L33.1328 84.5267L33.8234 85.2171L36.9307 88.3245L38.657 90.0508L41.0738 92.4676L41.4191 92.813L43.4907 94.8844L43.5259 94.9201L43.8604 95.2413L44.1887 95.5312L44.5278 95.8052L44.8775 96.0622L45.2373 96.3017L45.6071 96.5228L45.9864 96.7248L46.375 96.9072L46.7719 97.0698L47.1768 97.2122L47.589 97.3343L48.0079 97.4362L48.4326 97.5183L48.8625 97.5804L49.2965 97.6234L49.7361 97.6478L50.1015 97.6539L50.5433 97.645L50.9807 97.6177L51.4139 97.5717L51.843 97.5064L52.2669 97.4212L52.6845 97.3161L53.0957 97.1906L53.4994 97.045L53.895 96.8791L54.2822 96.6935L54.6601 96.4885L55.0283 96.2644L55.3864 96.0221L55.7344 95.7622L56.0718 95.4856L56.4002 95.1916L56.6641 94.9366L61.8431 89.7578L62.1883 89.4126L62.5335 89.0672L62.8787 88.722L63.2241 88.3768L64.6051 86.9956L77.0344 74.5664L77.3798 74.2212L80.8322 70.7685L82.9038 68.6969L83.2492 68.3517L83.5944 68.0065L83.9396 67.6611L84.2848 67.3159L84.6302 66.9707L84.9754 66.6253L85.3206 66.2801L88.0828 63.5181L90.1542 61.4465L90.4996 61.1013L94.2974 57.3035L94.6426 56.9581L95.0235 56.5776L95.3447 56.2433L95.6347 55.9148L95.9086 55.5757L96.1657 55.2262L96.4051 54.8663L96.6263 54.4963L96.8282 54.1172L97.0106 53.7286L97.1732 53.3316L97.3157 52.9266L97.4377 52.5145L97.5398 52.0956L97.6217 51.6709L97.6838 51.2412L97.7268 50.807L97.7512 50.3674L97.7573 50.002L97.7484 49.5602Z" fill="#3ED99A"/>
</svg>
