<svg width="50" height="20" viewBox="0 0 50 20" fill="none" xmlns="http://www.w3.org/2000/svg">
<g clip-path="url(#clip0_219_32)">
<path d="M-17.6558 -26.72C-20.0195 -29.0837 -20.0195 -32.916 -17.6558 -35.2797L20.7201 -73.6558C23.0838 -76.0195 26.9161 -76.0195 29.2798 -73.6558L67.6558 -35.2797C70.0195 -32.916 70.0195 -29.0837 67.6558 -26.72L33.2193 -2.34264C30.8556 0.0210574 19.092 0.0210574 16.7283 -2.34264C14.3646 -4.70634 -17.6558 -26.72 -17.6558 -26.72ZM-0.928017 -45.599C-1.81281 -43.9769 -2.55013 -42.3548 -3.14 -40.6589L2.0213 -38.8893C2.4637 -40.2165 3.1273 -41.6174 3.86463 -42.8709C4.82315 -44.5667 6.00285 -46.189 7.40377 -47.6636V-40.2902L-3.5824 -22.5943L-3.14 -21.341C-1.00175 -15.2211 3.12726 -9.83861 8.65723 -6.29944L12.8601 -3.49759V-19.7926H7.40377V-14.3364C5.26552 -16.5483 3.64343 -19.1289 2.4637 -21.9307L12.8601 -38.7418V-58.5023L8.65723 -55.7742C4.67565 -53.1936 1.35771 -49.6544 -0.928017 -45.599ZM31.6396 -2.64566L33.6714 -3.08104V-33.7029H21.6982V-54.5288C23.8751 -54.8191 26.1247 -54.8191 28.3016 -54.5288V-40.2336H33.6714V-58.8826L31.6396 -59.3906C27.2857 -60.4065 22.7142 -60.4065 18.433 -59.3906L16.3286 -58.8826V-28.3332H28.3016V-7.50742C26.1247 -7.1446 23.8751 -7.1446 21.6982 -7.50742V-21.8024H16.3286V-3.08104L18.433 -2.64566C20.5373 -2.13771 22.7868 -1.84745 25.0363 -1.84745C27.2132 -1.84745 29.4627 -2.13771 31.6396 -2.64566ZM53.5823 -39.4054L53.1399 -40.6589C51.0754 -46.7787 46.8726 -52.1613 41.3427 -55.7742L37.1399 -58.5024V-42.2073H42.5961V-47.6636C44.7344 -45.4516 46.4302 -42.8709 47.5362 -40.069L37.1399 -23.2579V-3.4976L41.3427 -6.29945C45.3243 -8.80638 48.6422 -12.3456 50.928 -16.4746C51.8128 -18.023 52.6238 -19.6451 53.1399 -21.341L47.9786 -23.1105C47.5362 -21.7833 46.9464 -20.3825 46.209 -19.129C45.1768 -17.4331 43.9971 -15.811 42.5961 -14.3364V-21.7097L53.5823 -39.4054ZM74.9911 -30.5254L74.9643 -30.0379C74.9634 -30.021 74.962 -30.0041 74.9603 -29.9873L74.9123 -29.5013C74.9105 -29.4838 74.9084 -29.4663 74.9058 -29.4488L74.8358 -28.9656C74.8332 -28.9474 74.8302 -28.9294 74.8267 -28.9115L74.7343 -28.4322C74.7307 -28.4136 74.7266 -28.3952 74.7222 -28.3769L74.6066 -27.9026C74.6022 -27.8837 74.5972 -27.8651 74.5917 -27.8467L74.4529 -27.3786C74.4474 -27.3598 74.4414 -27.3412 74.4349 -27.3227L74.2729 -26.8621C74.2663 -26.8436 74.2593 -26.8251 74.2519 -26.8068L74.0669 -26.3551C74.0594 -26.3368 74.0514 -26.3187 74.0431 -26.3008L73.8355 -25.8588C73.8272 -25.841 73.8184 -25.8236 73.8091 -25.8063L73.5797 -25.3754C73.5705 -25.3583 73.561 -25.3415 73.5512 -25.325L73.3006 -24.9057C73.291 -24.8896 73.2809 -24.8736 73.2704 -24.8579L73 -24.4514C72.9898 -24.436 72.9793 -24.421 72.9684 -24.4062L72.679 -24.0128C72.6686 -23.9985 72.6577 -23.9844 72.6466 -23.9706L72.3397 -23.5909C72.3289 -23.5776 72.3179 -23.5645 72.3066 -23.5517L71.9834 -23.1858C71.9726 -23.1735 71.9615 -23.1615 71.9501 -23.1497L71.612 -22.7974L71.198 -22.383L70.8526 -22.0378L64.6379 -15.8233L61.8759 -13.0611L61.5307 -12.7159L61.1853 -12.3707L60.8401 -12.0253L60.4949 -11.6801L60.1495 -11.3349L59.8043 -10.9897L59.4591 -10.6443L59.1139 -10.2991L57.3875 -8.57282L53.9349 -5.12021L53.5897 -4.7748L41.1605 7.65445L39.7792 9.03546L39.434 9.38086L39.0888 9.72606L38.7434 10.0712L34.9456 13.869L33.2194 15.5955L32.9105 15.894C32.8998 15.9045 32.8888 15.9148 32.8777 15.9247L32.5139 16.2503C32.5013 16.2616 32.4884 16.2727 32.4754 16.2834L32.0977 16.5931C32.0841 16.6043 32.0702 16.6152 32.0559 16.6258L31.6649 16.9179C31.6502 16.9288 31.6353 16.9394 31.6201 16.9496L31.2158 17.2232C31.2002 17.2338 31.1843 17.244 31.1682 17.2537L30.7512 17.5075C30.7346 17.5176 30.7179 17.5272 30.7009 17.5363L30.2718 17.7693C30.2547 17.7786 30.2373 17.7875 30.2195 17.796L29.7793 18.007C29.7616 18.0156 29.7436 18.0238 29.7255 18.0314L29.2751 18.2201C29.2568 18.2276 29.2384 18.2347 29.2199 18.2414L28.7607 18.4071C28.7422 18.4138 28.7237 18.42 28.705 18.4256L28.2379 18.5683C28.2194 18.5739 28.2007 18.5791 28.182 18.5838L27.7085 18.7031C27.6902 18.7076 27.6718 18.7118 27.6532 18.7156L27.1747 18.8116C27.1567 18.8152 27.1385 18.8185 27.1202 18.8213L26.6376 18.8947C26.62 18.8974 26.6024 18.8997 26.5847 18.9016L26.0993 18.9532C26.0822 18.955 26.0652 18.9564 26.0481 18.9575L25.5609 18.9877C25.5446 18.9888 25.5282 18.9895 25.5118 18.9898L25.0238 18.9996C25.0093 19 24.9947 19.0001 24.98 18.9998L24.5704 18.9928C24.5555 18.9925 24.5406 18.992 24.5257 18.9912L24.038 18.9643C24.0211 18.9634 24.0042 18.962 23.9874 18.9603L23.5016 18.9123C23.4839 18.9105 23.4664 18.9084 23.4489 18.9058L22.9657 18.8358C22.9475 18.8333 22.9295 18.8302 22.9116 18.8267L22.4323 18.7343C22.4137 18.7307 22.3953 18.7267 22.377 18.7222L21.9027 18.6066C21.884 18.6022 21.8653 18.5972 21.8468 18.5917L21.3787 18.4529C21.3599 18.4474 21.3413 18.4414 21.3228 18.4349L20.8623 18.2729C20.8436 18.2663 20.8252 18.2593 20.8069 18.2519L20.3551 18.0669C20.3369 18.0594 20.3187 18.0515 20.3008 18.0431L19.859 17.8355C19.8413 17.8272 19.8237 17.8184 19.8064 17.8091L19.3755 17.5797C19.3584 17.5706 19.3416 17.5611 19.325 17.5512L18.9058 17.3007C18.8896 17.291 18.8737 17.2809 18.8579 17.2704L18.4515 17.0001C18.4362 16.9898 18.4211 16.9793 18.4062 16.9684L18.013 16.6791C17.9986 16.6686 17.9845 16.6577 17.9706 16.6466L17.591 16.3397C17.5777 16.329 17.5646 16.3179 17.5518 16.3066L17.1858 15.9834C17.1736 15.9727 17.1615 15.9616 17.1497 15.9501L16.7976 15.612L16.7284 15.5432L14.6567 13.4716L14.3116 13.1264L11.8946 10.7096L10.1684 8.9832L7.06106 5.87598L6.37059 5.18537L6.02533 4.84017L3.95376 2.76856L1.19169 0.00654602L0.84643 -0.338654L0.501163 -0.684059L0.155909 -1.02926L-0.189356 -1.37446L-1.22512 -2.41026L-1.91564 -3.10087L-2.2609 -3.44607L-3.98721 -5.17227L-5.71349 -6.89867L-8.13032 -9.31548L-8.82082 -10.0059L-9.16611 -10.3513L-12.2734 -13.4585L-12.6187 -13.8039L-12.9639 -14.1491L-13.3092 -14.4943L-15.726 -16.9111L-17.107 -18.2921L-17.4523 -18.6376L-18.4881 -19.6734L-21.5954 -22.7805L-21.894 -23.0894C-21.9045 -23.1001 -21.9148 -23.1111 -21.9247 -23.1222L-22.2503 -23.486C-22.2616 -23.4986 -22.2727 -23.5115 -22.2834 -23.5245L-22.5931 -23.9022C-22.6043 -23.9158 -22.6151 -23.9297 -22.6256 -23.9438L-22.9179 -24.335C-22.9288 -24.3496 -22.9394 -24.3646 -22.9496 -24.3798L-23.2232 -24.7841C-23.2338 -24.7997 -23.244 -24.8156 -23.2539 -24.8317L-23.5075 -25.2487C-23.5176 -25.2653 -23.5272 -25.282 -23.5363 -25.299L-23.7693 -25.7281C-23.7786 -25.7452 -23.7875 -25.7626 -23.796 -25.7803L-24.007 -26.2206C-24.0156 -26.2383 -24.0237 -26.2563 -24.0314 -26.2744L-24.2201 -26.7248C-24.2276 -26.743 -24.2347 -26.7615 -24.2414 -26.78L-24.4071 -27.2392C-24.4138 -27.2576 -24.4201 -27.2763 -24.4258 -27.2951L-24.5683 -27.762C-24.5739 -27.7805 -24.5791 -27.7992 -24.5838 -27.8179L-24.7031 -28.2914C-24.7076 -28.3097 -24.7118 -28.3281 -24.7156 -28.3466L-24.8116 -28.8252C-24.8152 -28.8432 -24.8185 -28.8614 -24.8213 -28.8797L-24.8947 -29.3623C-24.8974 -29.3799 -24.8997 -29.3975 -24.9016 -29.4151L-24.9532 -29.9006C-24.955 -29.9176 -24.9564 -29.9347 -24.9575 -29.9518L-24.9877 -30.439C-24.9888 -30.4553 -24.9895 -30.4717 -24.9898 -30.4881L-24.9996 -30.9761C-25 -30.9906 -25.0001 -31.0052 -24.9998 -31.0199L-24.9928 -31.4294C-24.9925 -31.4444 -24.992 -31.4593 -24.9912 -31.4742L-24.9643 -31.9619C-24.9634 -31.9788 -24.962 -31.9957 -24.9603 -32.0125L-24.9123 -32.4983C-24.9105 -32.516 -24.9084 -32.5335 -24.9058 -32.551L-24.8358 -33.0342C-24.8333 -33.0524 -24.8302 -33.0704 -24.8267 -33.0883L-24.7343 -33.5676C-24.7307 -33.5862 -24.7267 -33.6046 -24.7222 -33.6229L-24.6066 -34.0972C-24.6022 -34.1159 -24.5972 -34.1346 -24.5917 -34.1531L-24.4529 -34.6212C-24.4474 -34.64 -24.4414 -34.6586 -24.4349 -34.677L-24.2729 -35.1376C-24.2663 -35.1562 -24.2593 -35.1747 -24.2519 -35.1929L-24.0669 -35.6448C-24.0594 -35.663 -24.0515 -35.6811 -24.0431 -35.699L-23.8355 -36.1409C-23.8272 -36.1586 -23.8184 -36.1761 -23.8091 -36.1935L-23.5797 -36.6244C-23.5705 -36.6415 -23.5611 -36.6583 -23.5512 -36.6749L-23.3007 -37.094C-23.291 -37.1102 -23.2809 -37.1262 -23.2704 -37.1419L-23.0001 -37.5484C-22.9898 -37.5637 -22.9793 -37.5788 -22.9684 -37.5936L-22.6791 -37.9869C-22.6686 -38.0013 -22.6577 -38.0153 -22.6466 -38.0292L-22.3397 -38.4089C-22.329 -38.4222 -22.3179 -38.4353 -22.3066 -38.4481L-21.9834 -38.8141C-21.9727 -38.8263 -21.9616 -38.8383 -21.9501 -38.8502L-21.612 -39.2023L-21.5432 -39.2716L-20.8526 -39.962L-18.0906 -42.7241L-16.3643 -44.4504L-16.019 -44.7957L-11.8759 -48.9389L-10.8401 -49.9747L-9.4591 -51.3556L-6.0065 -54.8083L-5.66124 -55.1536L-4.28019 -56.5346L-2.55391 -58.2609L-2.20865 -58.6062L-0.137091 -60.6777L2.97025 -63.785L3.3155 -64.1303L3.66076 -64.4756L5.38706 -66.2018L6.07759 -66.8924L7.11332 -67.9281L11.9469 -72.7618L12.6375 -73.4523L15.7449 -76.5596L16.7807 -77.5954L17.0894 -77.894C17.1002 -77.9045 17.111 -77.9148 17.1222 -77.9247L17.486 -78.2503C17.4987 -78.2616 17.5116 -78.2727 17.5247 -78.2834L17.9023 -78.5929C17.9159 -78.6042 17.9298 -78.6151 17.944 -78.6256L18.3351 -78.9179C18.3498 -78.9288 18.3647 -78.9394 18.3799 -78.9496L18.7842 -79.2232C18.7999 -79.2338 18.8157 -79.244 18.8318 -79.2537L19.2489 -79.5075C19.2654 -79.5176 19.2821 -79.5272 19.299 -79.5363L19.7281 -79.7691C19.7453 -79.7786 19.7626 -79.7875 19.7803 -79.796L20.2206 -80.007C20.2384 -80.0156 20.2564 -80.0237 20.2746 -80.0312L20.7248 -80.2201C20.743 -80.2276 20.7615 -80.2347 20.7801 -80.2414L21.2393 -80.4071C21.2577 -80.4138 21.2763 -80.42 21.2951 -80.4256L21.7621 -80.5683C21.7806 -80.5739 21.7993 -80.5791 21.818 -80.5838L22.2915 -80.7029C22.3098 -80.7076 22.3282 -80.7118 22.3468 -80.7156L22.8253 -80.8116C22.8433 -80.8152 22.8615 -80.8185 22.8798 -80.8213L23.3624 -80.8947C23.38 -80.8974 23.3976 -80.8997 23.4152 -80.9016L23.9007 -80.9532C23.9177 -80.955 23.9348 -80.9564 23.9519 -80.9575L24.4391 -80.9877C24.4554 -80.9888 24.4718 -80.9895 24.4882 -80.9898L24.9762 -80.9996C24.9907 -81 25.0053 -81.0001 25.02 -80.9998L25.4295 -80.9928C25.4445 -80.9925 25.4595 -80.992 25.4745 -80.9912L25.962 -80.9643C25.9789 -80.9634 25.9958 -80.962 26.0126 -80.9603L26.4986 -80.9123C26.5161 -80.9105 26.5336 -80.9084 26.5511 -80.9058L27.0343 -80.8358C27.0525 -80.8333 27.0705 -80.8302 27.0886 -80.8267L27.5679 -80.7341C27.5864 -80.7306 27.6047 -80.7267 27.623 -80.7222L28.0973 -80.6066C28.1162 -80.6022 28.1348 -80.5972 28.1532 -80.5917L28.6213 -80.4529C28.6401 -80.4474 28.6588 -80.4414 28.6772 -80.4349L29.1378 -80.2729C29.1563 -80.2663 29.1748 -80.2593 29.1931 -80.2519L29.6448 -80.0669C29.6631 -80.0594 29.6812 -80.0515 29.6991 -80.0431L30.1411 -79.8355C30.1589 -79.8272 30.1763 -79.8184 30.1936 -79.8091L30.6245 -79.5797C30.6416 -79.5705 30.6584 -79.5611 30.6749 -79.5512L31.0942 -79.3007C31.1103 -79.291 31.1263 -79.2809 31.142 -79.2704L31.5485 -79.0001C31.5639 -78.9898 31.5789 -78.9793 31.5937 -78.9684L31.9872 -78.6791C32.0014 -78.6686 32.0155 -78.6577 32.0293 -78.6466L32.409 -78.3397C32.4223 -78.329 32.4354 -78.3179 32.4482 -78.3066L32.8141 -77.9834C32.8264 -77.9727 32.8384 -77.9616 32.8502 -77.9501L33.2025 -77.612L33.9621 -76.8526L34.9979 -75.8168L38.1053 -72.7095L38.4505 -72.3643L39.4863 -71.3285L41.2125 -69.6022L41.5579 -69.257L42.5938 -68.2212L43.6293 -67.1854L43.9748 -66.8401L44.32 -66.4949L46.0462 -64.7686L46.3916 -64.4233L46.7368 -64.0781L47.4274 -63.3875L50.5346 -60.2802L50.8798 -59.9349L53.9872 -56.8276L57.0946 -53.7202L57.4398 -53.3749L57.785 -53.0297L58.1304 -52.6844L58.8208 -51.9939L61.9282 -48.8866L63.6544 -47.1603L63.9996 -46.8151L65.3808 -45.4339L66.0712 -44.7434L69.5238 -41.2908L71.5954 -39.2193L71.894 -38.9105C71.9045 -38.8997 71.9148 -38.8888 71.9247 -38.8776L72.2503 -38.5139C72.2616 -38.5012 72.2727 -38.4883 72.2834 -38.4752L72.5929 -38.0977C72.6042 -38.084 72.6151 -38.0701 72.6256 -38.0559L72.9179 -37.6648C72.9288 -37.6501 72.9394 -37.6352 72.9496 -37.62L73.2232 -37.2156C73.2338 -37.2 73.244 -37.1842 73.2537 -37.1681L73.5075 -36.751C73.5176 -36.7345 73.5272 -36.7178 73.5363 -36.7009L73.7691 -36.2718C73.7786 -36.2546 73.7875 -36.2372 73.796 -36.2195L74.007 -35.7793C74.0156 -35.7615 74.0237 -35.7436 74.0312 -35.7254L74.2201 -35.2751C74.2276 -35.2568 74.2347 -35.2384 74.2415 -35.2199L74.4071 -34.7606C74.4138 -34.7422 74.42 -34.7236 74.4256 -34.7048L74.5683 -34.2378C74.5738 -34.2193 74.579 -34.2007 74.5838 -34.182L74.7029 -33.7084C74.7076 -33.6902 74.7118 -33.6717 74.7156 -33.6532L74.8116 -33.1746C74.8152 -33.1566 74.8185 -33.1384 74.8213 -33.1201L74.8947 -32.6375C74.8974 -32.6199 74.8997 -32.6023 74.9016 -32.5847L74.9532 -32.0992C74.955 -32.0822 74.9564 -32.0652 74.9575 -32.0482L74.9877 -31.5608C74.9888 -31.5445 74.9895 -31.5282 74.9898 -31.5117L74.9996 -31.0237C75.0001 -31.0092 75.0001 -30.9946 74.9998 -30.9799L74.9928 -30.5704C74.9925 -30.5554 74.992 -30.5404 74.9911 -30.5254ZM72.645 -31.4397L72.6177 -31.8771L72.5717 -32.3103L72.5063 -32.7394L72.4212 -33.1633L72.3159 -33.5809L72.1906 -33.9921L72.0449 -34.3958L71.8791 -34.7915L71.6935 -35.1786L71.4885 -35.5564L71.2644 -35.9247L71.022 -36.2829L70.7622 -36.6308L70.4856 -36.9682L70.1916 -37.2965L69.9366 -37.5605L67.865 -39.6321L64.4126 -43.0847L64.0672 -43.4299L63.722 -43.7752L62.341 -45.1562L61.9958 -45.5015L60.2694 -47.2279L57.162 -50.3352L56.4716 -51.0257L56.1264 -51.3709L55.781 -51.7162L55.4358 -52.0614L52.3283 -55.1688L49.2211 -58.2762L48.8759 -58.6214L45.7685 -61.7288L45.0779 -62.4193L44.3875 -63.1098L42.6611 -64.8361L41.9707 -65.5266L41.2801 -66.2171L40.9349 -66.5624L39.8991 -67.5982L39.5539 -67.9434L38.1729 -69.3245L36.7917 -70.7055L36.4465 -71.0508L33.3391 -74.1581L32.3035 -75.194L31.5776 -75.9201L31.2431 -76.2413L30.9148 -76.5312L30.5757 -76.8052L30.226 -77.0622L29.8663 -77.3017L29.4965 -77.5226L29.117 -77.7247L28.7286 -77.9071L28.3316 -78.0697L27.9266 -78.2122L27.5145 -78.3342L27.0956 -78.4361L26.6709 -78.5182L26.2412 -78.5804L25.807 -78.6234L25.3674 -78.6478L25.002 -78.6538L24.5602 -78.6449L24.123 -78.6177L23.6894 -78.5717L23.2605 -78.5063L22.8366 -78.4212L22.419 -78.3159L22.0078 -78.1906L21.604 -78.0449L21.2084 -77.8791L20.8213 -77.6935L20.4435 -77.4883L20.0751 -77.2643L19.7169 -77.022L19.3689 -76.7622L19.0317 -76.4856L18.7034 -76.1916L18.4394 -75.9366L17.4036 -74.9008L14.2962 -71.7935L13.6057 -71.103L8.77206 -66.2694L7.73627 -65.2336L7.04575 -64.5431L5.31949 -62.8168L4.97423 -62.4715L4.62897 -62.1263L1.52164 -59.0189L-0.549915 -56.9474L-0.89517 -56.6021L-2.62147 -54.8758L-4.0025 -53.4947L-4.34776 -53.1494L-7.80035 -49.6968L-9.1814 -48.3158L-10.2172 -47.2801L-14.3603 -43.1369L-14.7055 -42.7916L-16.4318 -41.0653L-19.194 -38.3033L-19.8844 -37.6127L-19.9201 -37.5775L-20.2413 -37.243L-20.5312 -36.9146L-20.8052 -36.5756L-21.0622 -36.226L-21.3017 -35.8661L-21.5226 -35.4962L-21.7248 -35.1169L-21.9072 -34.7284L-22.0698 -34.3314L-22.2122 -33.9265L-22.3343 -33.5143L-22.4364 -33.0955L-22.5183 -32.6708L-22.5804 -32.2409L-22.6234 -31.8069L-22.6478 -31.3671L-22.6538 -31.0019L-22.645 -30.5601L-22.6177 -30.1229L-22.5717 -29.6893L-22.5064 -29.2604L-22.4212 -28.8365L-22.3159 -28.4186L-22.1906 -28.0077L-22.045 -27.604L-21.8791 -27.2083L-21.6935 -26.8212L-21.4885 -26.4433L-21.2644 -26.0751L-21.0221 -25.7168L-20.7622 -25.3689L-20.4856 -25.0316L-20.1916 -24.7033L-19.9366 -24.4392L-16.8293 -21.3319L-15.7936 -20.2961L-15.4483 -19.9509L-14.0672 -18.5699L-11.6504 -16.1531L-11.3052 -15.8079L-10.9599 -15.4625L-10.6147 -15.1173L-7.50734 -12.0099L-6.47156 -10.9743L-4.05475 -8.55746L-2.32844 -6.83106L-0.602156 -5.10486L-0.256895 -4.75945L0.433624 -4.06905L1.46941 -3.03325L1.81466 -2.68805L2.15992 -2.34264L2.50518 -1.99744L2.85044 -1.65224L5.61252 1.10997L7.68404 3.18138L8.0293 3.52678L8.71983 4.21718L11.8272 7.3246L13.5535 9.0508L15.9702 11.4676L16.3156 11.813L18.3871 13.8844L18.4224 13.9201L18.7569 14.2413L19.0852 14.5312L19.4243 14.8052L19.774 15.0622L20.1338 15.3017L20.5036 15.5228L20.8829 15.7248L21.2715 15.9072L21.6684 16.0698L22.0734 16.2122L22.4855 16.3343L22.9044 16.4362L23.3291 16.5183L23.759 16.5804L24.193 16.6234L24.6326 16.6478L24.998 16.6539L25.4398 16.645L25.8772 16.6178L26.3104 16.5717L26.7395 16.5064L27.1634 16.4212L27.581 16.3161L27.9922 16.1906L28.3959 16.045L28.7915 15.8791L29.1787 15.6935L29.5566 15.4885L29.9248 15.2644L30.2829 15.0221L30.6309 14.7622L30.9683 14.4856L31.2967 14.1917L31.5606 13.9366L36.7396 8.75786L37.0848 8.41266L37.43 8.06726L37.7752 7.72206L38.1206 7.37685L39.5016 5.99564L51.9309 -6.43361L52.2763 -6.77881L55.7287 -10.2314L57.8003 -12.3031L58.1457 -12.6483L58.4909 -12.9935L58.8361 -13.3389L59.1813 -13.6841L59.5267 -14.0293L59.8719 -14.3747L60.2171 -14.7199L62.9793 -17.4819L65.0507 -19.5535L65.3961 -19.8987L69.194 -23.6964L69.5392 -24.0418L69.9201 -24.4223L70.2413 -24.7566L70.5312 -25.0851L70.8052 -25.4242L71.0622 -25.7737L71.3017 -26.1336L71.5228 -26.5036L71.7248 -26.8827L71.9071 -27.2713L72.0698 -27.6683L72.2122 -28.0733L72.3342 -28.4854L72.4363 -28.9043L72.5182 -29.329L72.5804 -29.7587L72.6234 -30.1929L72.6478 -30.6325L72.6538 -30.9979L72.645 -31.4397Z" fill="#3ED99A"/>
<path d="M-17.4773 -31.2342C-19.841 -33.5979 -19.841 -37.4302 -17.4773 -39.7939L20.8986 -78.1699C23.2623 -80.5336 27.0946 -80.5336 29.4583 -78.1699L67.8343 -39.7939C70.198 -37.4302 70.198 -33.5979 67.8343 -31.2342L33.3978 -6.85672C31.0341 -4.49302 19.2705 -4.49302 16.9068 -6.85672C14.5431 -9.22042 -17.4773 -31.2342 -17.4773 -31.2342ZM-0.749517 -50.1132C-1.63431 -48.4911 -2.37163 -46.869 -2.9615 -45.1731L2.1998 -43.4035C2.6422 -44.7307 3.3058 -46.1316 4.04313 -47.3851C5.00165 -49.0809 6.18135 -50.7031 7.58227 -52.1777V-44.8044L-3.4039 -27.1085L-2.9615 -25.8551C-0.823254 -19.7352 3.30576 -14.3527 8.83573 -10.8135L13.0386 -8.01167V-24.3067H7.58227V-18.8505C5.44402 -21.0624 3.82193 -23.6431 2.6422 -26.4449L13.0386 -43.256V-63.0164L8.83573 -60.2883C4.85415 -57.7077 1.53621 -54.1685 -0.749517 -50.1132ZM31.8181 -7.15974L33.8498 -7.59512V-38.2171H21.8768V-59.0429C24.0537 -59.3332 26.3032 -59.3332 28.4801 -59.0429V-44.7478H33.8498V-63.3967L31.8181 -63.9047C27.4642 -64.9206 22.8927 -64.9206 18.6115 -63.9047L16.5071 -63.3967V-32.8474H28.4801V-12.0215C26.3032 -11.6587 24.0537 -11.6587 21.8768 -12.0215V-26.3166H16.5071V-7.59512L18.6115 -7.15974C20.7158 -6.65179 22.9653 -6.36153 25.2148 -6.36153C27.3917 -6.36153 29.6412 -6.65179 31.8181 -7.15974ZM53.7608 -43.9196L53.3184 -45.1731C51.2539 -51.2929 47.0511 -56.6754 41.5212 -60.2883L37.3184 -63.0165V-46.7215H42.7746V-52.1777C44.9129 -49.9657 46.6087 -47.3851 47.7147 -44.5832L37.3184 -27.7721V-8.01167L41.5212 -10.8135C45.5028 -13.3205 48.8207 -16.8597 51.1065 -20.9887C51.9913 -22.5371 52.8023 -24.1592 53.3184 -25.8551L48.1571 -27.6247C47.7147 -26.2975 47.1249 -24.8966 46.3875 -23.6431C45.3553 -21.9472 44.1756 -20.3251 42.7746 -18.8505V-26.2238L53.7608 -43.9196ZM75.1696 -35.0396L75.1428 -34.5521C75.1419 -34.5352 75.1405 -34.5183 75.1388 -34.5015L75.0908 -34.0155C75.089 -33.998 75.0869 -33.9805 75.0843 -33.963L75.0143 -33.4798C75.0117 -33.4616 75.0087 -33.4436 75.0052 -33.4257L74.9128 -32.9464C74.9092 -32.9278 74.9051 -32.9094 74.9007 -32.8911L74.7851 -32.4168C74.7807 -32.3979 74.7757 -32.3793 74.7702 -32.3609L74.6314 -31.8928C74.6259 -31.874 74.6199 -31.8554 74.6134 -31.8369L74.4514 -31.3763C74.4448 -31.3578 74.4378 -31.3393 74.4304 -31.321L74.2454 -30.8693C74.2379 -30.851 74.2299 -30.8329 74.2216 -30.815L74.014 -30.373C74.0057 -30.3552 73.9969 -30.3378 73.9876 -30.3205L73.7582 -29.8896C73.749 -29.8725 73.7395 -29.8557 73.7297 -29.8392L73.4791 -29.4199C73.4695 -29.4038 73.4594 -29.3878 73.4489 -29.3721L73.1785 -28.9656C73.1683 -28.9502 73.1578 -28.9352 73.1469 -28.9204L72.8575 -28.527C72.8471 -28.5127 72.8362 -28.4986 72.8251 -28.4848L72.5182 -28.1051C72.5074 -28.0918 72.4964 -28.0787 72.4851 -28.0659L72.1619 -27.7C72.1511 -27.6877 72.14 -27.6757 72.1286 -27.6639L71.7905 -27.3116L71.3765 -26.8972L71.0311 -26.552L64.8164 -20.3374L62.0544 -17.5752L61.7092 -17.23L61.3638 -16.8848L61.0186 -16.5394L60.6734 -16.1942L60.328 -15.849L59.9828 -15.5038L59.6376 -15.1584L59.2924 -14.8132L57.566 -13.0869L54.1134 -9.63428L53.7682 -9.28888L41.339 3.14037L39.9577 4.52139L39.6125 4.86678L39.2673 5.21198L38.9219 5.55716L35.1241 9.35497L33.3979 11.0815L33.089 11.38C33.0783 11.3905 33.0673 11.4008 33.0562 11.4107L32.6924 11.7363C32.6798 11.7476 32.6669 11.7587 32.6539 11.7694L32.2761 12.0791C32.2625 12.0903 32.2487 12.1012 32.2344 12.1118L31.8434 12.4039C31.8287 12.4148 31.8138 12.4254 31.7986 12.4356L31.3943 12.7092C31.3787 12.7198 31.3628 12.73 31.3467 12.7397L30.9297 12.9935C30.9131 13.0036 30.8964 13.0132 30.8794 13.0223L30.4503 13.2553C30.4332 13.2646 30.4158 13.2735 30.398 13.282L29.9578 13.493C29.9401 13.5016 29.9221 13.5098 29.904 13.5174L29.4536 13.7061C29.4353 13.7136 29.4169 13.7207 29.3984 13.7274L28.9392 13.8931C28.9207 13.8998 28.9022 13.906 28.8835 13.9116L28.4164 14.0543C28.3979 14.0599 28.3792 14.0651 28.3605 14.0698L27.887 14.1891C27.8687 14.1936 27.8503 14.1978 27.8317 14.2016L27.3532 14.2976C27.3352 14.3012 27.317 14.3045 27.2987 14.3073L26.8161 14.3807C26.7985 14.3834 26.7809 14.3857 26.7632 14.3876L26.2778 14.4392C26.2607 14.441 26.2437 14.4424 26.2266 14.4435L25.7394 14.4737C25.7231 14.4748 25.7067 14.4755 25.6903 14.4758L25.2023 14.4856C25.1878 14.486 25.1732 14.4861 25.1585 14.4858L24.7489 14.4788C24.734 14.4785 24.7191 14.478 24.7042 14.4772L24.2165 14.4503C24.1996 14.4494 24.1827 14.448 24.1659 14.4463L23.6801 14.3983C23.6624 14.3965 23.6449 14.3944 23.6274 14.3918L23.1442 14.3218C23.126 14.3193 23.108 14.3162 23.0901 14.3127L22.6108 14.2203C22.5922 14.2167 22.5738 14.2127 22.5555 14.2082L22.0812 14.0926C22.0625 14.0882 22.0438 14.0832 22.0253 14.0777L21.5572 13.9389C21.5384 13.9334 21.5198 13.9274 21.5013 13.9209L21.0408 13.7589C21.0221 13.7523 21.0037 13.7453 20.9854 13.7379L20.5336 13.5529C20.5154 13.5454 20.4973 13.5375 20.4794 13.5291L20.0375 13.3215C20.0198 13.3132 20.0022 13.3044 19.9849 13.2951L19.554 13.0657C19.5369 13.0566 19.5201 13.0471 19.5035 13.0372L19.0844 12.7867C19.0682 12.777 19.0522 12.7669 19.0364 12.7564L18.63 12.4861C18.6147 12.4758 18.5996 12.4653 18.5848 12.4544L18.1915 12.1651C18.1771 12.1546 18.1631 12.1437 18.1492 12.1326L17.7695 11.8257C17.7562 11.815 17.7431 11.8039 17.7303 11.7926L17.3643 11.4694C17.3521 11.4587 17.34 11.4476 17.3282 11.4361L16.9761 11.098L16.9069 11.0292L14.8353 8.95756L14.4901 8.61236L12.0732 6.19556L10.347 4.46912L7.23956 1.3619L6.54909 0.671295L6.20383 0.326096L4.13226 -1.74551L1.37019 -4.50753L1.02493 -4.85273L0.679663 -5.19814L0.334408 -5.54333L-0.0108566 -5.88853L-1.04663 -6.92434L-1.73714 -7.61494L-2.08241 -7.96014L-3.80871 -9.68635L-5.53499 -11.4128L-7.95182 -13.8296L-8.64232 -14.52L-8.98761 -14.8654L-12.0949 -17.9726L-12.4402 -18.318L-12.7854 -18.6632L-13.1307 -19.0084L-15.5475 -21.4252L-16.9285 -22.8062L-17.2738 -23.1516L-18.3096 -24.1875L-21.4169 -27.2947L-21.7155 -27.6036C-21.726 -27.6143 -21.7363 -27.6253 -21.7462 -27.6364L-22.0718 -28.0002C-22.0831 -28.0128 -22.0942 -28.0257 -22.1049 -28.0387L-22.4146 -28.4164C-22.4258 -28.43 -22.4366 -28.4439 -22.4471 -28.458L-22.7394 -28.8492C-22.7503 -28.8638 -22.7609 -28.8788 -22.7711 -28.894L-23.0447 -29.2983C-23.0553 -29.3139 -23.0655 -29.3298 -23.0754 -29.3459L-23.329 -29.7629C-23.3391 -29.7795 -23.3487 -29.7962 -23.3578 -29.8132L-23.5908 -30.2423C-23.6001 -30.2594 -23.609 -30.2768 -23.6175 -30.2945L-23.8285 -30.7348C-23.8371 -30.7525 -23.8452 -30.7705 -23.8529 -30.7886L-24.0416 -31.239C-24.0491 -31.2572 -24.0562 -31.2757 -24.0629 -31.2942L-24.2286 -31.7534C-24.2353 -31.7718 -24.2416 -31.7905 -24.2473 -31.8093L-24.3898 -32.2762C-24.3954 -32.2947 -24.4006 -32.3134 -24.4053 -32.3321L-24.5246 -32.8056C-24.5291 -32.8239 -24.5333 -32.8423 -24.5371 -32.8608L-24.6331 -33.3394C-24.6367 -33.3574 -24.64 -33.3756 -24.6428 -33.3939L-24.7162 -33.8765C-24.7189 -33.8941 -24.7212 -33.9117 -24.7231 -33.9293L-24.7747 -34.4148C-24.7765 -34.4318 -24.7779 -34.4489 -24.779 -34.466L-24.8092 -34.9532C-24.8103 -34.9695 -24.811 -34.9859 -24.8113 -35.0023L-24.8211 -35.4903C-24.8215 -35.5048 -24.8216 -35.5194 -24.8213 -35.5341L-24.8143 -35.9436C-24.814 -35.9586 -24.8135 -35.9735 -24.8127 -35.9884L-24.7858 -36.4761C-24.7849 -36.493 -24.7835 -36.5099 -24.7818 -36.5267L-24.7338 -37.0125C-24.732 -37.0302 -24.7299 -37.0477 -24.7273 -37.0652L-24.6573 -37.5484C-24.6548 -37.5666 -24.6517 -37.5846 -24.6482 -37.6025L-24.5558 -38.0818C-24.5522 -38.1004 -24.5482 -38.1188 -24.5437 -38.1371L-24.4281 -38.6114C-24.4237 -38.6301 -24.4187 -38.6488 -24.4132 -38.6673L-24.2744 -39.1354C-24.2689 -39.1542 -24.2629 -39.1728 -24.2564 -39.1912L-24.0944 -39.6518C-24.0878 -39.6704 -24.0808 -39.6889 -24.0734 -39.7071L-23.8884 -40.159C-23.8809 -40.1772 -23.873 -40.1953 -23.8646 -40.2132L-23.657 -40.6551C-23.6487 -40.6728 -23.6399 -40.6903 -23.6306 -40.7077L-23.4012 -41.1386C-23.392 -41.1557 -23.3826 -41.1725 -23.3727 -41.1891L-23.1222 -41.6082C-23.1125 -41.6244 -23.1024 -41.6404 -23.0919 -41.6561L-22.8216 -42.0626C-22.8113 -42.0779 -22.8008 -42.093 -22.7899 -42.1078L-22.5006 -42.5011C-22.4901 -42.5155 -22.4792 -42.5295 -22.4681 -42.5434L-22.1612 -42.9231C-22.1505 -42.9364 -22.1394 -42.9495 -22.1281 -42.9623L-21.8049 -43.3283C-21.7942 -43.3405 -21.7831 -43.3525 -21.7716 -43.3644L-21.4335 -43.7165L-21.3647 -43.7858L-20.6741 -44.4762L-17.9121 -47.2383L-16.1858 -48.9646L-15.8405 -49.3099L-11.6974 -53.453L-10.6616 -54.4888L-9.2806 -55.8698L-5.828 -59.3224L-5.48274 -59.6677L-4.10169 -61.0487L-2.37541 -62.775L-2.03016 -63.1203L0.0414085 -65.1918L3.14875 -68.2991L3.494 -68.6444L3.83926 -68.9897L5.56556 -70.7159L6.25609 -71.4065L7.29182 -72.4422L12.1255 -77.2759L12.816 -77.9664L15.9234 -81.0737L16.9592 -82.1095L17.2679 -82.4081C17.2787 -82.4186 17.2896 -82.4289 17.3008 -82.4388L17.6645 -82.7644C17.6772 -82.7757 17.6901 -82.7868 17.7032 -82.7975L18.0808 -83.107C18.0944 -83.1183 18.1083 -83.1292 18.1225 -83.1397L18.5136 -83.432C18.5283 -83.4429 18.5432 -83.4535 18.5584 -83.4637L18.9627 -83.7373C18.9784 -83.7479 18.9942 -83.7581 19.0103 -83.7678L19.4274 -84.0216C19.4439 -84.0317 19.4606 -84.0413 19.4775 -84.0504L19.9066 -84.2832C19.9238 -84.2927 19.9412 -84.3016 19.9589 -84.3101L20.3991 -84.5211C20.4169 -84.5297 20.4349 -84.5378 20.4531 -84.5453L20.9034 -84.7342C20.9216 -84.7417 20.94 -84.7488 20.9586 -84.7555L21.4178 -84.9212C21.4362 -84.9279 21.4548 -84.9341 21.4736 -84.9397L21.9406 -85.0824C21.9591 -85.088 21.9778 -85.0932 21.9965 -85.0979L22.47 -85.217C22.4883 -85.2217 22.5067 -85.2259 22.5253 -85.2297L23.0038 -85.3257C23.0218 -85.3293 23.04 -85.3326 23.0583 -85.3354L23.5409 -85.4088C23.5585 -85.4115 23.5761 -85.4138 23.5937 -85.4157L24.0792 -85.4673C24.0962 -85.4691 24.1133 -85.4705 24.1304 -85.4716L24.6176 -85.5018C24.6339 -85.5029 24.6503 -85.5036 24.6667 -85.5039L25.1547 -85.5137C25.1692 -85.5141 25.1838 -85.5142 25.1985 -85.5139L25.608 -85.5069C25.623 -85.5066 25.638 -85.5061 25.653 -85.5053L26.1405 -85.4784C26.1574 -85.4775 26.1743 -85.4761 26.1911 -85.4744L26.6771 -85.4264C26.6946 -85.4246 26.7121 -85.4225 26.7296 -85.4199L27.2128 -85.3499C27.231 -85.3474 27.249 -85.3443 27.2671 -85.3408L27.7464 -85.2482C27.7649 -85.2447 27.7832 -85.2408 27.8015 -85.2363L28.2758 -85.1207C28.2947 -85.1163 28.3133 -85.1113 28.3317 -85.1058L28.7998 -84.967C28.8186 -84.9615 28.8373 -84.9555 28.8557 -84.949L29.3163 -84.787C29.3348 -84.7804 29.3533 -84.7734 29.3716 -84.766L29.8233 -84.581C29.8416 -84.5735 29.8597 -84.5656 29.8776 -84.5572L30.3196 -84.3496C30.3374 -84.3413 30.3548 -84.3325 30.3721 -84.3232L30.803 -84.0938C30.8201 -84.0846 30.8369 -84.0752 30.8534 -84.0653L31.2727 -83.8148C31.2888 -83.8051 31.3048 -83.795 31.3205 -83.7845L31.727 -83.5142C31.7424 -83.5039 31.7574 -83.4934 31.7722 -83.4825L32.1657 -83.1932C32.1799 -83.1827 32.194 -83.1718 32.2078 -83.1607L32.5875 -82.8538C32.6008 -82.8431 32.6139 -82.832 32.6267 -82.8207L32.9925 -82.4975C33.0048 -82.4868 33.0169 -82.4757 33.0287 -82.4642L33.381 -82.1261L34.1406 -81.3667L35.1763 -80.3309L38.2838 -77.2236L38.629 -76.8784L39.6648 -75.8426L41.391 -74.1163L41.7364 -73.7711L42.7723 -72.7353L43.8078 -71.6995L44.1533 -71.3542L44.4985 -71.009L46.2247 -69.2827L46.5701 -68.9374L46.9153 -68.5922L47.6059 -67.9016L50.7131 -64.7943L51.0583 -64.449L54.1657 -61.3417L57.2731 -58.2344L57.6183 -57.8891L57.9635 -57.5439L58.3089 -57.1986L58.9993 -56.5081L62.1067 -53.4007L63.8329 -51.6744L64.1781 -51.3292L65.5593 -49.9481L66.2497 -49.2576L69.7023 -45.805L71.7739 -43.7335L72.0725 -43.4247C72.083 -43.4139 72.0933 -43.403 72.1032 -43.3918L72.4288 -43.0281C72.4401 -43.0154 72.4512 -43.0025 72.4619 -42.9894L72.7714 -42.6119C72.7827 -42.5982 72.7936 -42.5843 72.8041 -42.5701L73.0964 -42.179C73.1073 -42.1643 73.1179 -42.1494 73.1281 -42.1342L73.4017 -41.7298C73.4123 -41.7142 73.4225 -41.6984 73.4322 -41.6823L73.686 -41.2652C73.6961 -41.2487 73.7057 -41.232 73.7148 -41.2151L73.9476 -40.786C73.9571 -40.7688 73.966 -40.7514 73.9745 -40.7337L74.1855 -40.2935C74.1941 -40.2757 74.2022 -40.2578 74.2097 -40.2396L74.3986 -39.7893C74.4061 -39.771 74.4132 -39.7526 74.42 -39.7341L74.5856 -39.2748C74.5923 -39.2564 74.5985 -39.2378 74.6041 -39.219L74.7468 -38.752C74.7523 -38.7335 74.7575 -38.7149 74.7623 -38.6962L74.8814 -38.2226C74.8861 -38.2044 74.8903 -38.1859 74.8941 -38.1674L74.9901 -37.6888C74.9937 -37.6708 74.997 -37.6526 74.9998 -37.6343L75.0732 -37.1517C75.0759 -37.1341 75.0782 -37.1165 75.0801 -37.0989L75.1317 -36.6134C75.1335 -36.5964 75.1349 -36.5794 75.136 -36.5624L75.1662 -36.075C75.1673 -36.0587 75.168 -36.0424 75.1683 -36.0259L75.1781 -35.5379C75.1786 -35.5234 75.1786 -35.5088 75.1783 -35.4941L75.1713 -35.0846C75.171 -35.0696 75.1705 -35.0546 75.1696 -35.0396ZM72.8235 -35.9539L72.7962 -36.3913L72.7502 -36.8245L72.6848 -37.2536L72.5997 -37.6775L72.4944 -38.0951L72.3691 -38.5063L72.2234 -38.91L72.0576 -39.3057L71.872 -39.6928L71.667 -40.0706L71.4429 -40.4389L71.2005 -40.7971L70.9407 -41.145L70.6641 -41.4824L70.3701 -41.8107L70.1151 -42.0747L68.0435 -44.1463L64.5911 -47.5989L64.2457 -47.9441L63.9005 -48.2894L62.5195 -49.6704L62.1743 -50.0157L60.4479 -51.742L57.3405 -54.8493L56.6501 -55.5399L56.3049 -55.8851L55.9595 -56.2304L55.6143 -56.5756L52.5068 -59.6829L49.3996 -62.7903L49.0544 -63.1355L45.947 -66.2429L45.2564 -66.9334L44.566 -67.6239L42.8396 -69.3502L42.1492 -70.0407L41.4586 -70.7312L41.1134 -71.0765L40.0776 -72.1123L39.7324 -72.4575L38.3514 -73.8386L36.9701 -75.2196L36.625 -75.5649L33.5176 -78.6722L32.482 -79.7081L31.7561 -80.4342L31.4216 -80.7554L31.0933 -81.0453L30.7542 -81.3193L30.4045 -81.5763L30.0448 -81.8158L29.675 -82.0367L29.2955 -82.2388L28.9071 -82.4212L28.5101 -82.5838L28.1051 -82.7263L27.693 -82.8483L27.2741 -82.9502L26.8494 -83.0323L26.4197 -83.0945L25.9855 -83.1375L25.5459 -83.1619L25.1805 -83.1679L24.7387 -83.159L24.3015 -83.1318L23.8679 -83.0858L23.439 -83.0204L23.0151 -82.9353L22.5975 -82.83L22.1863 -82.7047L21.7826 -82.559L21.3869 -82.3932L20.9998 -82.2076L20.622 -82.0024L20.2537 -81.7784L19.8955 -81.5361L19.5475 -81.2763L19.2102 -80.9997L18.8819 -80.7057L18.6179 -80.4507L17.5821 -79.4149L14.4747 -76.3076L13.7842 -75.6171L8.95056 -70.7835L7.91477 -69.7477L7.22425 -69.0572L5.49799 -67.3309L5.15273 -66.9856L4.80747 -66.6404L1.70014 -63.533L-0.371416 -61.4615L-0.716671 -61.1162L-2.44297 -59.3899L-3.82401 -58.0089L-4.16927 -57.6636L-7.62185 -54.211L-9.0029 -52.83L-10.0387 -51.7942L-14.1818 -47.6511L-14.527 -47.3058L-16.2533 -45.5795L-19.0155 -42.8175L-19.7059 -42.1269L-19.7416 -42.0917L-20.0628 -41.7572L-20.3527 -41.4288L-20.6267 -41.0898L-20.8837 -40.7402L-21.1232 -40.3803L-21.3441 -40.0104L-21.5463 -39.6311L-21.7287 -39.2426L-21.8913 -38.8456L-22.0337 -38.4407L-22.1558 -38.0285L-22.2579 -37.6097L-22.3398 -37.185L-22.4019 -36.7551L-22.4449 -36.3211L-22.4693 -35.8813L-22.4753 -35.5161L-22.4665 -35.0743L-22.4392 -34.6371L-22.3932 -34.2035L-22.3279 -33.7746L-22.2427 -33.3507L-22.1374 -32.9328L-22.0121 -32.5219L-21.8665 -32.1182L-21.7006 -31.7225L-21.515 -31.3354L-21.31 -30.9575L-21.0859 -30.5893L-20.8436 -30.231L-20.5837 -29.8831L-20.3071 -29.5458L-20.0131 -29.2175L-19.7581 -28.9534L-16.6508 -25.846L-15.6151 -24.8102L-15.2698 -24.465L-13.8887 -23.084L-11.4719 -20.6672L-11.1267 -20.322L-10.7814 -19.9766L-10.4362 -19.6314L-7.32884 -16.524L-6.29306 -15.4884L-3.87626 -13.0715L-2.14994 -11.3451L-0.423656 -9.61893L-0.0783958 -9.27353L0.612123 -8.58313L1.64791 -7.54733L1.99316 -7.20213L2.33842 -6.85672L2.68368 -6.51151L3.02894 -6.16631L5.79102 -3.40411L7.86254 -1.3327L8.2078 -0.987297L8.89833 -0.296898L12.0057 2.81052L13.732 4.53673L16.1488 6.95356L16.4941 7.29896L18.5657 9.37036L18.6009 9.40606L18.9354 9.72726L19.2637 10.0172L19.6028 10.2912L19.9525 10.5482L20.3123 10.7877L20.6821 11.0088L21.0614 11.2108L21.45 11.3932L21.8469 11.5558L22.2519 11.6982L22.664 11.8203L23.0829 11.9222L23.5076 12.0043L23.9375 12.0664L24.3715 12.1094L24.8111 12.1338L25.1765 12.1399L25.6183 12.131L26.0557 12.1038L26.4889 12.0577L26.918 11.9924L27.3419 11.9072L27.7595 11.8021L28.1707 11.6766L28.5744 11.531L28.97 11.3651L29.3572 11.1795L29.7351 10.9745L30.1033 10.7504L30.4614 10.5081L30.8094 10.2482L31.1468 9.97157L31.4752 9.67766L31.7391 9.42256L36.9181 4.24378L37.2633 3.89858L37.6085 3.55318L37.9537 3.20798L38.2991 2.86278L39.6801 1.48157L52.1094 -10.9477L52.4548 -11.2929L55.9072 -14.7455L57.9788 -16.8172L58.3242 -17.1624L58.6694 -17.5076L59.0146 -17.853L59.3598 -18.1982L59.7052 -18.5434L60.0504 -18.8888L60.3956 -19.234L63.1578 -21.9959L65.2292 -24.0676L65.5746 -24.4128L69.3725 -28.2106L69.7177 -28.556L70.0986 -28.9365L70.4198 -29.2708L70.7097 -29.5993L70.9837 -29.9384L71.2407 -30.2879L71.4802 -30.6478L71.7013 -31.0178L71.9033 -31.3969L72.0856 -31.7855L72.2483 -32.1825L72.3907 -32.5875L72.5127 -32.9996L72.6148 -33.4185L72.6967 -33.8432L72.7589 -34.2729L72.8019 -34.7071L72.8263 -35.1467L72.8323 -35.5121L72.8235 -35.9539Z" fill="#3ED99A"/>
<path d="M-17.4773 -35.7484C-19.841 -38.1121 -19.841 -41.9444 -17.4773 -44.3081L20.8986 -82.6841C23.2623 -85.0478 27.0946 -85.0478 29.4583 -82.6841L67.8343 -44.3081C70.198 -41.9444 70.198 -38.1121 67.8343 -35.7484L33.3979 -11.371C31.0342 -9.00728 19.2706 -9.00728 16.9069 -11.371C14.5432 -13.7347 -17.4773 -35.7484 -17.4773 -35.7484ZM-0.749517 -54.6274C-1.63431 -53.0053 -2.37163 -51.3832 -2.9615 -49.6873L2.1998 -47.9177C2.6422 -49.2449 3.3058 -50.6458 4.04313 -51.8993C5.00165 -53.5951 6.18138 -55.2173 7.5823 -56.6919V-49.3186L-3.4039 -31.6227L-2.9615 -30.3693C-0.823254 -24.2494 3.30579 -18.8669 8.83576 -15.3278L13.0386 -12.5259V-28.8209H7.5823V-23.3647C5.44405 -25.5766 3.82193 -28.1573 2.6422 -30.9591L13.0386 -47.7702V-67.5306L8.83576 -64.8025C4.85418 -62.2219 1.53621 -58.6827 -0.749517 -54.6274ZM31.8181 -11.674L33.8499 -12.1094V-42.7313H21.8768V-63.5571C24.0537 -63.8474 26.3032 -63.8474 28.4801 -63.5571V-49.262H33.8499V-67.9109L31.8181 -68.4189C27.4642 -69.4348 22.8927 -69.4348 18.6115 -68.4189L16.5071 -67.9109V-37.3616H28.4801V-16.5358C26.3032 -16.1729 24.0537 -16.1729 21.8768 -16.5358V-30.8308H16.5071V-12.1094L18.6115 -11.674C20.7158 -11.166 22.9653 -10.8758 25.2148 -10.8758C27.3917 -10.8758 29.6412 -11.166 31.8181 -11.674ZM53.7608 -48.4338L53.3184 -49.6873C51.2539 -55.8071 47.0511 -61.1896 41.5212 -64.8025L37.3184 -67.5307V-51.2357H42.7746V-56.6919C44.9129 -54.4799 46.6087 -51.8993 47.7147 -49.0974L37.3184 -32.2863V-12.5259L41.5212 -15.3278C45.5028 -17.8347 48.8207 -21.3739 51.1065 -25.5029C51.9913 -27.0513 52.8023 -28.6734 53.3184 -30.3693L48.1571 -32.1389C47.7147 -30.8117 47.1249 -29.4108 46.3875 -28.1573C45.3553 -26.4614 44.1756 -24.8393 42.7746 -23.3647V-30.738L53.7608 -48.4338ZM75.1696 -39.5538L75.1428 -39.0663C75.1419 -39.0494 75.1405 -39.0325 75.1388 -39.0157L75.0908 -38.5297C75.089 -38.5122 75.0869 -38.4947 75.0843 -38.4772L75.0143 -37.994C75.0117 -37.9758 75.0087 -37.9578 75.0052 -37.9399L74.9128 -37.4606C74.9092 -37.442 74.9051 -37.4236 74.9007 -37.4053L74.7851 -36.931C74.7807 -36.9121 74.7757 -36.8935 74.7702 -36.8751L74.6314 -36.407C74.6259 -36.3882 74.6199 -36.3696 74.6134 -36.3511L74.4514 -35.8905C74.4448 -35.872 74.4378 -35.8535 74.4304 -35.8352L74.2454 -35.3835C74.2379 -35.3652 74.2299 -35.3471 74.2216 -35.3292L74.014 -34.8872C74.0057 -34.8694 73.9969 -34.852 73.9876 -34.8347L73.7582 -34.4038C73.749 -34.3867 73.7395 -34.3699 73.7297 -34.3534L73.4791 -33.9341C73.4695 -33.918 73.4594 -33.902 73.4489 -33.8863L73.1785 -33.4798C73.1683 -33.4644 73.1578 -33.4494 73.1469 -33.4346L72.8575 -33.0412C72.8471 -33.0269 72.8362 -33.0128 72.8251 -32.999L72.5182 -32.6193C72.5074 -32.606 72.4964 -32.5929 72.4851 -32.5801L72.1619 -32.2142C72.1511 -32.2019 72.14 -32.1899 72.1286 -32.1781L71.7905 -31.8258L71.3765 -31.4114L71.0311 -31.0662L64.8164 -24.8516L62.0544 -22.0894L61.7092 -21.7442L61.3638 -21.399L61.0186 -21.0536L60.6734 -20.7084L60.328 -20.3632L59.9828 -20.018L59.6376 -19.6726L59.2924 -19.3274L57.566 -17.6012L54.1134 -14.1485L53.7682 -13.8031L41.339 -1.37389L39.9577 0.00712585L39.6125 0.352524L39.2673 0.697723L38.9219 1.0429L35.1241 4.84071L33.3979 6.5672L33.089 6.8657C33.0783 6.8762 33.0673 6.8865 33.0562 6.8964L32.6924 7.222C32.6798 7.2333 32.6669 7.2444 32.6539 7.2551L32.2762 7.5648C32.2626 7.576 32.2487 7.5869 32.2344 7.5975L31.8434 7.8896C31.8287 7.9005 31.8138 7.9111 31.7986 7.9213L31.3943 8.1949C31.3787 8.2055 31.3628 8.2157 31.3467 8.2254L30.9297 8.4792C30.9131 8.4893 30.8964 8.4989 30.8794 8.508L30.4503 8.741C30.4332 8.7503 30.4158 8.7592 30.398 8.7677L29.9578 8.9787C29.9401 8.9873 29.9221 8.99551 29.904 9.00311L29.4536 9.1918C29.4353 9.1993 29.4169 9.2064 29.3984 9.2131L28.9392 9.3788C28.9207 9.3855 28.9022 9.3917 28.8835 9.3973L28.4164 9.54C28.3979 9.5456 28.3792 9.5508 28.3605 9.5555L27.887 9.6748C27.8687 9.6793 27.8503 9.6835 27.8317 9.6873L27.3532 9.7833C27.3352 9.7869 27.317 9.7902 27.2987 9.793L26.8161 9.8664C26.7985 9.8691 26.7809 9.8714 26.7632 9.8733L26.2778 9.9249C26.2607 9.9267 26.2437 9.9281 26.2266 9.9292L25.7394 9.9594C25.7231 9.9605 25.7067 9.9612 25.6903 9.9615L25.2023 9.9713C25.1878 9.9717 25.1732 9.9718 25.1585 9.9715L24.7489 9.9645C24.734 9.9642 24.7191 9.9637 24.7042 9.9629L24.2165 9.936C24.1996 9.9351 24.1827 9.9337 24.1659 9.932L23.6801 9.884C23.6624 9.8822 23.6449 9.8801 23.6274 9.8775L23.1442 9.8075C23.126 9.805 23.108 9.8019 23.0901 9.7984L22.6108 9.706C22.5922 9.7024 22.5738 9.6984 22.5555 9.6939L22.0812 9.5783C22.0625 9.5739 22.0438 9.5689 22.0253 9.5634L21.5572 9.4246C21.5384 9.4191 21.5198 9.4131 21.5013 9.4066L21.0408 9.2446C21.0221 9.238 21.0037 9.231 20.9854 9.2236L20.5336 9.0386C20.5154 9.0311 20.4973 9.0232 20.4794 9.0148L20.0375 8.80721C20.0198 8.79891 20.0022 8.7901 19.9849 8.7808L19.554 8.5514C19.5369 8.5423 19.5201 8.5328 19.5035 8.5229L19.0844 8.2724C19.0682 8.2627 19.0522 8.2526 19.0364 8.2421L18.63 7.9718C18.6147 7.9615 18.5996 7.951 18.5848 7.9401L18.1915 7.6508C18.1771 7.6403 18.1631 7.6294 18.1492 7.6183L17.7695 7.3114C17.7562 7.3007 17.7431 7.28961 17.7303 7.27831L17.3643 6.9551C17.3521 6.9444 17.34 6.9333 17.3282 6.9218L16.9761 6.5837L16.9069 6.5149L14.8353 4.4433L14.4901 4.0981L12.0732 1.6813L10.347 -0.0451355L7.23959 -3.15236L6.54909 -3.84296L6.20383 -4.18816L4.13226 -6.25977L1.37019 -9.02179L1.02493 -9.36699L0.679663 -9.71239L0.334408 -10.0576L-0.0108566 -10.4028L-1.04663 -11.4386L-1.73714 -12.1292L-2.08241 -12.4744L-3.80871 -14.2006L-5.53499 -15.927L-7.95182 -18.3438L-8.64232 -19.0342L-8.98761 -19.3796L-12.0949 -22.4868L-12.4402 -22.8322L-12.7854 -23.1774L-13.1307 -23.5226L-15.5475 -25.9394L-16.9285 -27.3204L-17.2738 -27.6659L-18.3096 -28.7017L-21.4169 -31.8089L-21.7155 -32.1178C-21.726 -32.1285 -21.7363 -32.1395 -21.7462 -32.1506L-22.0718 -32.5144C-22.0831 -32.527 -22.0942 -32.5399 -22.1049 -32.5529L-22.4146 -32.9306C-22.4258 -32.9442 -22.4366 -32.9581 -22.4471 -32.9722L-22.7394 -33.3634C-22.7503 -33.378 -22.7609 -33.393 -22.7711 -33.4082L-23.0447 -33.8125C-23.0553 -33.8281 -23.0655 -33.844 -23.0754 -33.8601L-23.329 -34.2771C-23.3391 -34.2937 -23.3487 -34.3104 -23.3578 -34.3274L-23.5908 -34.7565C-23.6001 -34.7736 -23.609 -34.791 -23.6175 -34.8087L-23.8285 -35.249C-23.8371 -35.2667 -23.8452 -35.2847 -23.8529 -35.3028L-24.0416 -35.7532C-24.0491 -35.7714 -24.0562 -35.7899 -24.0629 -35.8084L-24.2286 -36.2676C-24.2353 -36.286 -24.2416 -36.3047 -24.2473 -36.3235L-24.3898 -36.7904C-24.3954 -36.8089 -24.4006 -36.8276 -24.4053 -36.8463L-24.5246 -37.3198C-24.5291 -37.3381 -24.5333 -37.3565 -24.5371 -37.375L-24.6331 -37.8536C-24.6367 -37.8716 -24.64 -37.8898 -24.6428 -37.9081L-24.7162 -38.3907C-24.7189 -38.4083 -24.7212 -38.4259 -24.7231 -38.4435L-24.7747 -38.929C-24.7765 -38.946 -24.7779 -38.9631 -24.779 -38.9802L-24.8092 -39.4674C-24.8103 -39.4837 -24.811 -39.5001 -24.8113 -39.5165L-24.8211 -40.0045C-24.8215 -40.019 -24.8216 -40.0336 -24.8213 -40.0483L-24.8143 -40.4578C-24.814 -40.4728 -24.8135 -40.4877 -24.8127 -40.5026L-24.7858 -40.9903C-24.7849 -41.0072 -24.7835 -41.0241 -24.7818 -41.0409L-24.7338 -41.5267C-24.732 -41.5444 -24.7299 -41.5619 -24.7273 -41.5794L-24.6573 -42.0626C-24.6548 -42.0808 -24.6517 -42.0988 -24.6482 -42.1167L-24.5558 -42.596C-24.5522 -42.6146 -24.5482 -42.633 -24.5437 -42.6513L-24.4281 -43.1256C-24.4237 -43.1443 -24.4187 -43.163 -24.4132 -43.1815L-24.2744 -43.6496C-24.2689 -43.6684 -24.2629 -43.687 -24.2564 -43.7054L-24.0944 -44.166C-24.0878 -44.1846 -24.0808 -44.2031 -24.0734 -44.2213L-23.8884 -44.6732C-23.8809 -44.6914 -23.873 -44.7095 -23.8646 -44.7274L-23.657 -45.1693C-23.6487 -45.187 -23.6399 -45.2045 -23.6306 -45.2219L-23.4012 -45.6528C-23.392 -45.6699 -23.3826 -45.6867 -23.3727 -45.7033L-23.1222 -46.1224C-23.1125 -46.1386 -23.1024 -46.1546 -23.0919 -46.1703L-22.8216 -46.5768C-22.8113 -46.5921 -22.8008 -46.6072 -22.7899 -46.622L-22.5006 -47.0153C-22.4901 -47.0297 -22.4792 -47.0437 -22.4681 -47.0576L-22.1612 -47.4373C-22.1505 -47.4506 -22.1394 -47.4637 -22.1281 -47.4765L-21.8049 -47.8425C-21.7942 -47.8547 -21.7831 -47.8667 -21.7716 -47.8786L-21.4335 -48.2307L-21.3647 -48.3L-20.6741 -48.9904L-17.9121 -51.7525L-16.1858 -53.4788L-15.8405 -53.8241L-11.6974 -57.9672L-10.6616 -59.003L-9.2806 -60.384L-5.828 -63.8366L-5.48274 -64.1819L-4.10169 -65.5629L-2.37541 -67.2892L-2.03016 -67.6345L0.0414085 -69.706L3.14875 -72.8133L3.494 -73.1586L3.83926 -73.5039L5.56556 -75.2301L6.25609 -75.9207L7.29185 -76.9564L12.1255 -81.7901L12.816 -82.4806L15.9234 -85.5879L16.9592 -86.6237L17.2679 -86.9223C17.2787 -86.9328 17.2896 -86.9431 17.3008 -86.953L17.6645 -87.2786C17.6772 -87.2899 17.6901 -87.301 17.7032 -87.3117L18.0808 -87.6212C18.0944 -87.6325 18.1083 -87.6434 18.1225 -87.6539L18.5136 -87.9462C18.5283 -87.9571 18.5432 -87.9677 18.5584 -87.9779L18.9627 -88.2515C18.9784 -88.2621 18.9942 -88.2723 19.0103 -88.282L19.4274 -88.5358C19.4439 -88.5459 19.4606 -88.5555 19.4775 -88.5646L19.9066 -88.7974C19.9238 -88.8069 19.9412 -88.8158 19.9589 -88.8243L20.3991 -89.0353C20.4169 -89.0439 20.4349 -89.052 20.4531 -89.0595L20.9034 -89.2484C20.9216 -89.2559 20.94 -89.263 20.9586 -89.2697L21.4178 -89.4354C21.4362 -89.4421 21.4548 -89.4483 21.4736 -89.4539L21.9406 -89.5966C21.9591 -89.6022 21.9778 -89.6074 21.9965 -89.6121L22.47 -89.7312C22.4883 -89.7359 22.5067 -89.7401 22.5253 -89.7439L23.0038 -89.8399C23.0218 -89.8435 23.04 -89.8468 23.0583 -89.8496L23.5409 -89.923C23.5585 -89.9257 23.5761 -89.928 23.5937 -89.9299L24.0792 -89.9815C24.0962 -89.9833 24.1133 -89.9847 24.1304 -89.9858L24.6176 -90.016C24.6339 -90.0171 24.6503 -90.0178 24.6667 -90.0181L25.1547 -90.0279C25.1692 -90.0283 25.1838 -90.0284 25.1985 -90.0281L25.608 -90.0211C25.623 -90.0208 25.638 -90.0203 25.653 -90.0195L26.1405 -89.9926C26.1574 -89.9917 26.1743 -89.9903 26.1911 -89.9886L26.6771 -89.9406C26.6946 -89.9388 26.7121 -89.9367 26.7296 -89.9341L27.2128 -89.8641C27.231 -89.8616 27.249 -89.8585 27.2671 -89.855L27.7464 -89.7624C27.7649 -89.7589 27.7832 -89.755 27.8015 -89.7505L28.2758 -89.6349C28.2947 -89.6305 28.3133 -89.6255 28.3317 -89.62L28.7998 -89.4812C28.8186 -89.4757 28.8373 -89.4697 28.8557 -89.4632L29.3163 -89.3012C29.3348 -89.2946 29.3533 -89.2876 29.3716 -89.2802L29.8233 -89.0952C29.8416 -89.0877 29.8597 -89.0798 29.8776 -89.0714L30.3196 -88.8638C30.3374 -88.8555 30.3548 -88.8467 30.3721 -88.8374L30.803 -88.608C30.8201 -88.5988 30.8369 -88.5894 30.8534 -88.5795L31.2727 -88.329C31.2888 -88.3193 31.3048 -88.3092 31.3205 -88.2987L31.727 -88.0284C31.7424 -88.0181 31.7574 -88.0076 31.7722 -87.9967L32.1657 -87.7074C32.1799 -87.6969 32.194 -87.686 32.2078 -87.6749L32.5875 -87.368C32.6008 -87.3573 32.6139 -87.3462 32.6267 -87.3349L32.9926 -87.0117C33.0049 -87.001 33.0169 -86.9899 33.0287 -86.9784L33.381 -86.6403L34.1406 -85.8809L35.1764 -84.8451L38.2838 -81.7378L38.629 -81.3926L39.6648 -80.3568L41.391 -78.6305L41.7364 -78.2853L42.7723 -77.2495L43.8078 -76.2137L44.1533 -75.8684L44.4985 -75.5232L46.2247 -73.7969L46.5701 -73.4516L46.9153 -73.1064L47.6059 -72.4158L50.7131 -69.3085L51.0583 -68.9632L54.1657 -65.8559L57.2731 -62.7486L57.6183 -62.4033L57.9635 -62.0581L58.3089 -61.7128L58.9993 -61.0223L62.1067 -57.9149L63.8329 -56.1886L64.1781 -55.8434L65.5593 -54.4623L66.2497 -53.7718L69.7023 -50.3192L71.7739 -48.2477L72.0725 -47.9389C72.083 -47.9281 72.0933 -47.9172 72.1032 -47.906L72.4288 -47.5423C72.4401 -47.5296 72.4512 -47.5167 72.4619 -47.5036L72.7714 -47.1261C72.7827 -47.1124 72.7936 -47.0985 72.8041 -47.0843L73.0964 -46.6932C73.1073 -46.6785 73.1179 -46.6636 73.1281 -46.6484L73.4017 -46.244C73.4123 -46.2284 73.4225 -46.2126 73.4322 -46.1965L73.686 -45.7794C73.6961 -45.7629 73.7057 -45.7462 73.7148 -45.7293L73.9476 -45.3002C73.9571 -45.283 73.966 -45.2656 73.9745 -45.2479L74.1855 -44.8077C74.1941 -44.7899 74.2022 -44.772 74.2097 -44.7538L74.3986 -44.3035C74.4061 -44.2852 74.4132 -44.2668 74.42 -44.2483L74.5856 -43.789C74.5923 -43.7706 74.5985 -43.752 74.6041 -43.7332L74.7468 -43.2662C74.7523 -43.2477 74.7575 -43.2291 74.7623 -43.2104L74.8814 -42.7368C74.8861 -42.7186 74.8903 -42.7001 74.8941 -42.6816L74.9901 -42.203C74.9937 -42.185 74.997 -42.1668 74.9998 -42.1485L75.0732 -41.6659C75.0759 -41.6483 75.0782 -41.6307 75.0801 -41.6131L75.1317 -41.1276C75.1335 -41.1106 75.1349 -41.0936 75.136 -41.0766L75.1662 -40.5892C75.1673 -40.5729 75.168 -40.5566 75.1683 -40.5401L75.1781 -40.0521C75.1786 -40.0376 75.1786 -40.023 75.1783 -40.0083L75.1713 -39.5988C75.171 -39.5838 75.1705 -39.5688 75.1696 -39.5538ZM72.8235 -40.4681L72.7962 -40.9055L72.7502 -41.3387L72.6848 -41.7678L72.5997 -42.1917L72.4944 -42.6093L72.3691 -43.0205L72.2234 -43.4242L72.0576 -43.8199L71.872 -44.207L71.667 -44.5848L71.4429 -44.9531L71.2005 -45.3113L70.9407 -45.6592L70.6641 -45.9966L70.3701 -46.3249L70.1151 -46.5889L68.0435 -48.6605L64.5911 -52.1131L64.2457 -52.4583L63.9005 -52.8036L62.5195 -54.1846L62.1743 -54.5299L60.4479 -56.2562L57.3405 -59.3635L56.6501 -60.0541L56.3049 -60.3993L55.9595 -60.7446L55.6143 -61.0898L52.5068 -64.1971L49.3996 -67.3045L49.0544 -67.6497L45.947 -70.7571L45.2564 -71.4476L44.566 -72.1381L42.8396 -73.8644L42.1492 -74.5549L41.4586 -75.2454L41.1134 -75.5907L40.0776 -76.6265L39.7324 -76.9717L38.3514 -78.3528L36.9702 -79.7338L36.625 -80.0791L33.5176 -83.1864L32.482 -84.2223L31.7561 -84.9484L31.4216 -85.2696L31.0933 -85.5595L30.7542 -85.8335L30.4045 -86.0905L30.0448 -86.33L29.675 -86.5509L29.2955 -86.753L28.9071 -86.9354L28.5101 -87.098L28.1051 -87.2405L27.693 -87.3625L27.2741 -87.4644L26.8494 -87.5465L26.4197 -87.6087L25.9855 -87.6517L25.5459 -87.6761L25.1805 -87.6821L24.7387 -87.6732L24.3015 -87.646L23.8679 -87.6L23.439 -87.5346L23.0151 -87.4495L22.5975 -87.3442L22.1863 -87.2189L21.7826 -87.0732L21.3869 -86.9074L20.9998 -86.7218L20.622 -86.5166L20.2537 -86.2926L19.8955 -86.0503L19.5475 -85.7905L19.2102 -85.5139L18.8819 -85.2199L18.6179 -84.9649L17.5821 -83.9291L14.4747 -80.8218L13.7842 -80.1313L8.95059 -75.2977L7.9148 -74.2619L7.22428 -73.5714L5.49799 -71.8451L5.15273 -71.4998L4.80747 -71.1546L1.70014 -68.0472L-0.371416 -65.9757L-0.716671 -65.6304L-2.44297 -63.9041L-3.82401 -62.5231L-4.16927 -62.1778L-7.62185 -58.7252L-9.0029 -57.3442L-10.0387 -56.3084L-14.1818 -52.1653L-14.527 -51.82L-16.2533 -50.0937L-19.0155 -47.3317L-19.7059 -46.6411L-19.7416 -46.6059L-20.0628 -46.2714L-20.3527 -45.943L-20.6267 -45.604L-20.8837 -45.2544L-21.1232 -44.8945L-21.3441 -44.5246L-21.5463 -44.1453L-21.7287 -43.7568L-21.8913 -43.3598L-22.0337 -42.9549L-22.1558 -42.5427L-22.2579 -42.1239L-22.3398 -41.6992L-22.4019 -41.2693L-22.4449 -40.8353L-22.4693 -40.3955L-22.4753 -40.0303L-22.4665 -39.5885L-22.4392 -39.1513L-22.3932 -38.7177L-22.3279 -38.2888L-22.2427 -37.8649L-22.1374 -37.447L-22.0121 -37.0361L-21.8665 -36.6324L-21.7006 -36.2367L-21.515 -35.8496L-21.31 -35.4717L-21.0859 -35.1035L-20.8436 -34.7452L-20.5837 -34.3973L-20.3071 -34.06L-20.0131 -33.7317L-19.7581 -33.4676L-16.6508 -30.3602L-15.6151 -29.3244L-15.2698 -28.9792L-13.8887 -27.5982L-11.4719 -25.1814L-11.1267 -24.8362L-10.7814 -24.4908L-10.4362 -24.1456L-7.32884 -21.0382L-6.29306 -20.0026L-3.87626 -17.5858L-2.14994 -15.8594L-0.423656 -14.1332L-0.0783958 -13.7878L0.612123 -13.0974L1.64791 -12.0616L1.99316 -11.7164L2.33842 -11.371L2.68368 -11.0258L3.02894 -10.6806L5.79102 -7.91837L7.86257 -5.84695L8.20783 -5.50156L8.89836 -4.81116L12.0057 -1.70374L13.732 0.0224686L16.1488 2.4393L16.4941 2.7847L18.5657 4.8561L18.6009 4.8918L18.9354 5.21301L19.2637 5.5029L19.6028 5.7769L19.9525 6.03391L20.3123 6.2734L20.6821 6.4945L21.0614 6.6965L21.45 6.8789L21.8469 7.0415L22.2519 7.1839L22.664 7.306L23.0829 7.4079L23.5076 7.49L23.9375 7.5521L24.3715 7.5951L24.8111 7.6195L25.1765 7.6256L25.6183 7.6167L26.0557 7.5895L26.4889 7.5434L26.918 7.4781L27.3419 7.3929L27.7595 7.2878L28.1707 7.1623L28.5744 7.0167L28.97 6.8508L29.3572 6.6652L29.7351 6.46021L30.1033 6.2361L30.4614 5.9938L30.8094 5.7339L31.1468 5.45731L31.4752 5.1634L31.7391 4.9083L36.9181 -0.270477L37.2633 -0.615677L37.6085 -0.961075L37.9537 -1.30627L38.2991 -1.65148L39.6801 -3.03269L52.1094 -15.4619L52.4548 -15.8071L55.9072 -19.2597L57.9788 -21.3314L58.3242 -21.6766L58.6694 -22.0218L59.0146 -22.3672L59.3598 -22.7124L59.7052 -23.0576L60.0504 -23.403L60.3956 -23.7482L63.1578 -26.5102L65.2292 -28.5818L65.5746 -28.927L69.3725 -32.7248L69.7177 -33.0702L70.0986 -33.4507L70.4198 -33.785L70.7097 -34.1135L70.9837 -34.4526L71.2407 -34.8021L71.4802 -35.162L71.7013 -35.532L71.9033 -35.9111L72.0856 -36.2997L72.2483 -36.6967L72.3907 -37.1017L72.5127 -37.5138L72.6148 -37.9327L72.6967 -38.3574L72.7589 -38.7871L72.8019 -39.2213L72.8263 -39.6609L72.8323 -40.0263L72.8235 -40.4681Z" fill="#3ED99A"/>
</g>
<defs>
<clipPath id="clip0_219_32">
<rect width="50" height="20" fill="white"/>
</clipPath>
</defs>
</svg>
